%TF.GenerationSoftware,KiCad,Pcbnew,8.0.4*%
%TF.CreationDate,2024-08-16T00:11:27-05:00*%
%TF.ProjectId,Codex43,436f6465-7834-4332-9e6b-696361645f70,rev?*%
%TF.SameCoordinates,Original*%
%TF.FileFunction,Drillmap*%
%TF.FilePolarity,Positive*%
%FSLAX45Y45*%
G04 Gerber Fmt 4.5, Leading zero omitted, Abs format (unit mm)*
G04 Created by KiCad (PCBNEW 8.0.4) date 2024-08-16 00:11:27*
%MOMM*%
%LPD*%
G01*
G04 APERTURE LIST*
%ADD10C,0.050000*%
%ADD11C,0.010000*%
%ADD12C,0.200000*%
%ADD13C,0.100000*%
%ADD14C,0.170000*%
%ADD15C,0.330200*%
G04 APERTURE END LIST*
D10*
X14100000Y-4990000D02*
G75*
G02*
X14250000Y-5140000I0J-150000D01*
G01*
X4940000Y-5140000D02*
G75*
G02*
X5090000Y-4990000I150000J0D01*
G01*
X5090000Y-13730000D02*
X14100000Y-13730000D01*
X14250000Y-13580000D02*
G75*
G02*
X14100000Y-13730000I-150000J0D01*
G01*
X4940000Y-5140000D02*
X4940000Y-13580000D01*
X5090000Y-4990000D02*
X14100000Y-4990000D01*
X14250000Y-5140000D02*
X14250000Y-13580000D01*
X5090000Y-13730000D02*
G75*
G02*
X4940000Y-13580000I0J150000D01*
G01*
D11*
X11315000Y-10409466D02*
X11335000Y-10409466D01*
X11335000Y-10461466D02*
X11315000Y-10461466D01*
X11289000Y-10435466D02*
G75*
G02*
X11315000Y-10409466I26000J0D01*
G01*
X11315000Y-10461466D02*
G75*
G02*
X11289000Y-10435466I0J26000D01*
G01*
X11335000Y-10409466D02*
G75*
G02*
X11361000Y-10435466I0J-26000D01*
G01*
X11361000Y-10435466D02*
G75*
G02*
X11335000Y-10461466I-26000J0D01*
G01*
D12*
D13*
X10549000Y-10409466D02*
X10601000Y-10461466D01*
X10601000Y-10409466D02*
X10549000Y-10461466D01*
X11299000Y-10409466D02*
X11351000Y-10461466D01*
X11351000Y-10409466D02*
X11299000Y-10461466D01*
X11932500Y-13245000D02*
G75*
G02*
X11837500Y-13245000I-47500J0D01*
G01*
X11837500Y-13245000D02*
G75*
G02*
X11932500Y-13245000I47500J0D01*
G01*
X12612500Y-13245000D02*
G75*
G02*
X12517500Y-13245000I-47500J0D01*
G01*
X12517500Y-13245000D02*
G75*
G02*
X12612500Y-13245000I47500J0D01*
G01*
D14*
X12740000Y-5925000D02*
X12740000Y-6095000D01*
X12655000Y-6010000D02*
X12825000Y-6010000D01*
X12740000Y-6625000D02*
X12740000Y-6795000D01*
X12655000Y-6710000D02*
X12825000Y-6710000D01*
D15*
X10851744Y-5671744D02*
X10851744Y-5438256D01*
X10618256Y-5438256D01*
X10618256Y-5671744D01*
X10851744Y-5671744D01*
X12121744Y-5671744D02*
X12121744Y-5438256D01*
X11888256Y-5438256D01*
X11888256Y-5671744D01*
X12121744Y-5671744D01*
D12*
X5198277Y-14043984D02*
X5198277Y-13843984D01*
X5198277Y-13843984D02*
X5245896Y-13843984D01*
X5245896Y-13843984D02*
X5274467Y-13853508D01*
X5274467Y-13853508D02*
X5293515Y-13872555D01*
X5293515Y-13872555D02*
X5303039Y-13891603D01*
X5303039Y-13891603D02*
X5312563Y-13929698D01*
X5312563Y-13929698D02*
X5312563Y-13958269D01*
X5312563Y-13958269D02*
X5303039Y-13996365D01*
X5303039Y-13996365D02*
X5293515Y-14015412D01*
X5293515Y-14015412D02*
X5274467Y-14034460D01*
X5274467Y-14034460D02*
X5245896Y-14043984D01*
X5245896Y-14043984D02*
X5198277Y-14043984D01*
X5398277Y-14043984D02*
X5398277Y-13910650D01*
X5398277Y-13948746D02*
X5407801Y-13929698D01*
X5407801Y-13929698D02*
X5417324Y-13920174D01*
X5417324Y-13920174D02*
X5436372Y-13910650D01*
X5436372Y-13910650D02*
X5455420Y-13910650D01*
X5522086Y-14043984D02*
X5522086Y-13910650D01*
X5522086Y-13843984D02*
X5512563Y-13853508D01*
X5512563Y-13853508D02*
X5522086Y-13863031D01*
X5522086Y-13863031D02*
X5531610Y-13853508D01*
X5531610Y-13853508D02*
X5522086Y-13843984D01*
X5522086Y-13843984D02*
X5522086Y-13863031D01*
X5645896Y-14043984D02*
X5626848Y-14034460D01*
X5626848Y-14034460D02*
X5617324Y-14015412D01*
X5617324Y-14015412D02*
X5617324Y-13843984D01*
X5750658Y-14043984D02*
X5731610Y-14034460D01*
X5731610Y-14034460D02*
X5722086Y-14015412D01*
X5722086Y-14015412D02*
X5722086Y-13843984D01*
X5979229Y-14043984D02*
X5979229Y-13843984D01*
X5979229Y-13843984D02*
X6045896Y-13986841D01*
X6045896Y-13986841D02*
X6112562Y-13843984D01*
X6112562Y-13843984D02*
X6112562Y-14043984D01*
X6293515Y-14043984D02*
X6293515Y-13939222D01*
X6293515Y-13939222D02*
X6283991Y-13920174D01*
X6283991Y-13920174D02*
X6264943Y-13910650D01*
X6264943Y-13910650D02*
X6226848Y-13910650D01*
X6226848Y-13910650D02*
X6207801Y-13920174D01*
X6293515Y-14034460D02*
X6274467Y-14043984D01*
X6274467Y-14043984D02*
X6226848Y-14043984D01*
X6226848Y-14043984D02*
X6207801Y-14034460D01*
X6207801Y-14034460D02*
X6198277Y-14015412D01*
X6198277Y-14015412D02*
X6198277Y-13996365D01*
X6198277Y-13996365D02*
X6207801Y-13977317D01*
X6207801Y-13977317D02*
X6226848Y-13967793D01*
X6226848Y-13967793D02*
X6274467Y-13967793D01*
X6274467Y-13967793D02*
X6293515Y-13958269D01*
X6388753Y-13910650D02*
X6388753Y-14110650D01*
X6388753Y-13920174D02*
X6407801Y-13910650D01*
X6407801Y-13910650D02*
X6445896Y-13910650D01*
X6445896Y-13910650D02*
X6464943Y-13920174D01*
X6464943Y-13920174D02*
X6474467Y-13929698D01*
X6474467Y-13929698D02*
X6483991Y-13948746D01*
X6483991Y-13948746D02*
X6483991Y-14005888D01*
X6483991Y-14005888D02*
X6474467Y-14024936D01*
X6474467Y-14024936D02*
X6464943Y-14034460D01*
X6464943Y-14034460D02*
X6445896Y-14043984D01*
X6445896Y-14043984D02*
X6407801Y-14043984D01*
X6407801Y-14043984D02*
X6388753Y-14034460D01*
X6569705Y-14024936D02*
X6579229Y-14034460D01*
X6579229Y-14034460D02*
X6569705Y-14043984D01*
X6569705Y-14043984D02*
X6560182Y-14034460D01*
X6560182Y-14034460D02*
X6569705Y-14024936D01*
X6569705Y-14024936D02*
X6569705Y-14043984D01*
X6569705Y-13920174D02*
X6579229Y-13929698D01*
X6579229Y-13929698D02*
X6569705Y-13939222D01*
X6569705Y-13939222D02*
X6560182Y-13929698D01*
X6560182Y-13929698D02*
X6569705Y-13920174D01*
X6569705Y-13920174D02*
X6569705Y-13939222D01*
D13*
X4885500Y-14346500D02*
X4937500Y-14398500D01*
X4937500Y-14346500D02*
X4885500Y-14398500D01*
D12*
X5236372Y-14263984D02*
X5255420Y-14263984D01*
X5255420Y-14263984D02*
X5274467Y-14273508D01*
X5274467Y-14273508D02*
X5283991Y-14283031D01*
X5283991Y-14283031D02*
X5293515Y-14302079D01*
X5293515Y-14302079D02*
X5303039Y-14340174D01*
X5303039Y-14340174D02*
X5303039Y-14387793D01*
X5303039Y-14387793D02*
X5293515Y-14425888D01*
X5293515Y-14425888D02*
X5283991Y-14444936D01*
X5283991Y-14444936D02*
X5274467Y-14454460D01*
X5274467Y-14454460D02*
X5255420Y-14463984D01*
X5255420Y-14463984D02*
X5236372Y-14463984D01*
X5236372Y-14463984D02*
X5217324Y-14454460D01*
X5217324Y-14454460D02*
X5207801Y-14444936D01*
X5207801Y-14444936D02*
X5198277Y-14425888D01*
X5198277Y-14425888D02*
X5188753Y-14387793D01*
X5188753Y-14387793D02*
X5188753Y-14340174D01*
X5188753Y-14340174D02*
X5198277Y-14302079D01*
X5198277Y-14302079D02*
X5207801Y-14283031D01*
X5207801Y-14283031D02*
X5217324Y-14273508D01*
X5217324Y-14273508D02*
X5236372Y-14263984D01*
X5388753Y-14444936D02*
X5398277Y-14454460D01*
X5398277Y-14454460D02*
X5388753Y-14463984D01*
X5388753Y-14463984D02*
X5379229Y-14454460D01*
X5379229Y-14454460D02*
X5388753Y-14444936D01*
X5388753Y-14444936D02*
X5388753Y-14463984D01*
X5579229Y-14263984D02*
X5483991Y-14263984D01*
X5483991Y-14263984D02*
X5474467Y-14359222D01*
X5474467Y-14359222D02*
X5483991Y-14349698D01*
X5483991Y-14349698D02*
X5503039Y-14340174D01*
X5503039Y-14340174D02*
X5550658Y-14340174D01*
X5550658Y-14340174D02*
X5569705Y-14349698D01*
X5569705Y-14349698D02*
X5579229Y-14359222D01*
X5579229Y-14359222D02*
X5588753Y-14378269D01*
X5588753Y-14378269D02*
X5588753Y-14425888D01*
X5588753Y-14425888D02*
X5579229Y-14444936D01*
X5579229Y-14444936D02*
X5569705Y-14454460D01*
X5569705Y-14454460D02*
X5550658Y-14463984D01*
X5550658Y-14463984D02*
X5503039Y-14463984D01*
X5503039Y-14463984D02*
X5483991Y-14454460D01*
X5483991Y-14454460D02*
X5474467Y-14444936D01*
X5664943Y-14283031D02*
X5674467Y-14273508D01*
X5674467Y-14273508D02*
X5693515Y-14263984D01*
X5693515Y-14263984D02*
X5741134Y-14263984D01*
X5741134Y-14263984D02*
X5760182Y-14273508D01*
X5760182Y-14273508D02*
X5769705Y-14283031D01*
X5769705Y-14283031D02*
X5779229Y-14302079D01*
X5779229Y-14302079D02*
X5779229Y-14321127D01*
X5779229Y-14321127D02*
X5769705Y-14349698D01*
X5769705Y-14349698D02*
X5655420Y-14463984D01*
X5655420Y-14463984D02*
X5779229Y-14463984D01*
X5903039Y-14263984D02*
X5922086Y-14263984D01*
X5922086Y-14263984D02*
X5941134Y-14273508D01*
X5941134Y-14273508D02*
X5950658Y-14283031D01*
X5950658Y-14283031D02*
X5960182Y-14302079D01*
X5960182Y-14302079D02*
X5969705Y-14340174D01*
X5969705Y-14340174D02*
X5969705Y-14387793D01*
X5969705Y-14387793D02*
X5960182Y-14425888D01*
X5960182Y-14425888D02*
X5950658Y-14444936D01*
X5950658Y-14444936D02*
X5941134Y-14454460D01*
X5941134Y-14454460D02*
X5922086Y-14463984D01*
X5922086Y-14463984D02*
X5903039Y-14463984D01*
X5903039Y-14463984D02*
X5883991Y-14454460D01*
X5883991Y-14454460D02*
X5874467Y-14444936D01*
X5874467Y-14444936D02*
X5864943Y-14425888D01*
X5864943Y-14425888D02*
X5855420Y-14387793D01*
X5855420Y-14387793D02*
X5855420Y-14340174D01*
X5855420Y-14340174D02*
X5864943Y-14302079D01*
X5864943Y-14302079D02*
X5874467Y-14283031D01*
X5874467Y-14283031D02*
X5883991Y-14273508D01*
X5883991Y-14273508D02*
X5903039Y-14263984D01*
X6055420Y-14463984D02*
X6055420Y-14330650D01*
X6055420Y-14349698D02*
X6064943Y-14340174D01*
X6064943Y-14340174D02*
X6083991Y-14330650D01*
X6083991Y-14330650D02*
X6112563Y-14330650D01*
X6112563Y-14330650D02*
X6131610Y-14340174D01*
X6131610Y-14340174D02*
X6141134Y-14359222D01*
X6141134Y-14359222D02*
X6141134Y-14463984D01*
X6141134Y-14359222D02*
X6150658Y-14340174D01*
X6150658Y-14340174D02*
X6169705Y-14330650D01*
X6169705Y-14330650D02*
X6198277Y-14330650D01*
X6198277Y-14330650D02*
X6217324Y-14340174D01*
X6217324Y-14340174D02*
X6226848Y-14359222D01*
X6226848Y-14359222D02*
X6226848Y-14463984D01*
X6322086Y-14463984D02*
X6322086Y-14330650D01*
X6322086Y-14349698D02*
X6331610Y-14340174D01*
X6331610Y-14340174D02*
X6350658Y-14330650D01*
X6350658Y-14330650D02*
X6379229Y-14330650D01*
X6379229Y-14330650D02*
X6398277Y-14340174D01*
X6398277Y-14340174D02*
X6407801Y-14359222D01*
X6407801Y-14359222D02*
X6407801Y-14463984D01*
X6407801Y-14359222D02*
X6417324Y-14340174D01*
X6417324Y-14340174D02*
X6436372Y-14330650D01*
X6436372Y-14330650D02*
X6464943Y-14330650D01*
X6464943Y-14330650D02*
X6483991Y-14340174D01*
X6483991Y-14340174D02*
X6493515Y-14359222D01*
X6493515Y-14359222D02*
X6493515Y-14463984D01*
X6883991Y-14254460D02*
X6712563Y-14511603D01*
X7141134Y-14263984D02*
X7160182Y-14263984D01*
X7160182Y-14263984D02*
X7179229Y-14273508D01*
X7179229Y-14273508D02*
X7188753Y-14283031D01*
X7188753Y-14283031D02*
X7198277Y-14302079D01*
X7198277Y-14302079D02*
X7207801Y-14340174D01*
X7207801Y-14340174D02*
X7207801Y-14387793D01*
X7207801Y-14387793D02*
X7198277Y-14425888D01*
X7198277Y-14425888D02*
X7188753Y-14444936D01*
X7188753Y-14444936D02*
X7179229Y-14454460D01*
X7179229Y-14454460D02*
X7160182Y-14463984D01*
X7160182Y-14463984D02*
X7141134Y-14463984D01*
X7141134Y-14463984D02*
X7122086Y-14454460D01*
X7122086Y-14454460D02*
X7112563Y-14444936D01*
X7112563Y-14444936D02*
X7103039Y-14425888D01*
X7103039Y-14425888D02*
X7093515Y-14387793D01*
X7093515Y-14387793D02*
X7093515Y-14340174D01*
X7093515Y-14340174D02*
X7103039Y-14302079D01*
X7103039Y-14302079D02*
X7112563Y-14283031D01*
X7112563Y-14283031D02*
X7122086Y-14273508D01*
X7122086Y-14273508D02*
X7141134Y-14263984D01*
X7293515Y-14444936D02*
X7303039Y-14454460D01*
X7303039Y-14454460D02*
X7293515Y-14463984D01*
X7293515Y-14463984D02*
X7283991Y-14454460D01*
X7283991Y-14454460D02*
X7293515Y-14444936D01*
X7293515Y-14444936D02*
X7293515Y-14463984D01*
X7426848Y-14263984D02*
X7445896Y-14263984D01*
X7445896Y-14263984D02*
X7464944Y-14273508D01*
X7464944Y-14273508D02*
X7474467Y-14283031D01*
X7474467Y-14283031D02*
X7483991Y-14302079D01*
X7483991Y-14302079D02*
X7493515Y-14340174D01*
X7493515Y-14340174D02*
X7493515Y-14387793D01*
X7493515Y-14387793D02*
X7483991Y-14425888D01*
X7483991Y-14425888D02*
X7474467Y-14444936D01*
X7474467Y-14444936D02*
X7464944Y-14454460D01*
X7464944Y-14454460D02*
X7445896Y-14463984D01*
X7445896Y-14463984D02*
X7426848Y-14463984D01*
X7426848Y-14463984D02*
X7407801Y-14454460D01*
X7407801Y-14454460D02*
X7398277Y-14444936D01*
X7398277Y-14444936D02*
X7388753Y-14425888D01*
X7388753Y-14425888D02*
X7379229Y-14387793D01*
X7379229Y-14387793D02*
X7379229Y-14340174D01*
X7379229Y-14340174D02*
X7388753Y-14302079D01*
X7388753Y-14302079D02*
X7398277Y-14283031D01*
X7398277Y-14283031D02*
X7407801Y-14273508D01*
X7407801Y-14273508D02*
X7426848Y-14263984D01*
X7569706Y-14283031D02*
X7579229Y-14273508D01*
X7579229Y-14273508D02*
X7598277Y-14263984D01*
X7598277Y-14263984D02*
X7645896Y-14263984D01*
X7645896Y-14263984D02*
X7664944Y-14273508D01*
X7664944Y-14273508D02*
X7674467Y-14283031D01*
X7674467Y-14283031D02*
X7683991Y-14302079D01*
X7683991Y-14302079D02*
X7683991Y-14321127D01*
X7683991Y-14321127D02*
X7674467Y-14349698D01*
X7674467Y-14349698D02*
X7560182Y-14463984D01*
X7560182Y-14463984D02*
X7683991Y-14463984D01*
X7807801Y-14263984D02*
X7826848Y-14263984D01*
X7826848Y-14263984D02*
X7845896Y-14273508D01*
X7845896Y-14273508D02*
X7855420Y-14283031D01*
X7855420Y-14283031D02*
X7864944Y-14302079D01*
X7864944Y-14302079D02*
X7874467Y-14340174D01*
X7874467Y-14340174D02*
X7874467Y-14387793D01*
X7874467Y-14387793D02*
X7864944Y-14425888D01*
X7864944Y-14425888D02*
X7855420Y-14444936D01*
X7855420Y-14444936D02*
X7845896Y-14454460D01*
X7845896Y-14454460D02*
X7826848Y-14463984D01*
X7826848Y-14463984D02*
X7807801Y-14463984D01*
X7807801Y-14463984D02*
X7788753Y-14454460D01*
X7788753Y-14454460D02*
X7779229Y-14444936D01*
X7779229Y-14444936D02*
X7769706Y-14425888D01*
X7769706Y-14425888D02*
X7760182Y-14387793D01*
X7760182Y-14387793D02*
X7760182Y-14340174D01*
X7760182Y-14340174D02*
X7769706Y-14302079D01*
X7769706Y-14302079D02*
X7779229Y-14283031D01*
X7779229Y-14283031D02*
X7788753Y-14273508D01*
X7788753Y-14273508D02*
X7807801Y-14263984D01*
X8055420Y-14263984D02*
X7960182Y-14263984D01*
X7960182Y-14263984D02*
X7950658Y-14359222D01*
X7950658Y-14359222D02*
X7960182Y-14349698D01*
X7960182Y-14349698D02*
X7979229Y-14340174D01*
X7979229Y-14340174D02*
X8026848Y-14340174D01*
X8026848Y-14340174D02*
X8045896Y-14349698D01*
X8045896Y-14349698D02*
X8055420Y-14359222D01*
X8055420Y-14359222D02*
X8064944Y-14378269D01*
X8064944Y-14378269D02*
X8064944Y-14425888D01*
X8064944Y-14425888D02*
X8055420Y-14444936D01*
X8055420Y-14444936D02*
X8045896Y-14454460D01*
X8045896Y-14454460D02*
X8026848Y-14463984D01*
X8026848Y-14463984D02*
X7979229Y-14463984D01*
X7979229Y-14463984D02*
X7960182Y-14454460D01*
X7960182Y-14454460D02*
X7950658Y-14444936D01*
X8141134Y-14263984D02*
X8141134Y-14302079D01*
X8217325Y-14263984D02*
X8217325Y-14302079D01*
X8512563Y-14540174D02*
X8503039Y-14530650D01*
X8503039Y-14530650D02*
X8483991Y-14502079D01*
X8483991Y-14502079D02*
X8474468Y-14483031D01*
X8474468Y-14483031D02*
X8464944Y-14454460D01*
X8464944Y-14454460D02*
X8455420Y-14406841D01*
X8455420Y-14406841D02*
X8455420Y-14368746D01*
X8455420Y-14368746D02*
X8464944Y-14321127D01*
X8464944Y-14321127D02*
X8474468Y-14292555D01*
X8474468Y-14292555D02*
X8483991Y-14273508D01*
X8483991Y-14273508D02*
X8503039Y-14244936D01*
X8503039Y-14244936D02*
X8512563Y-14235412D01*
X8579230Y-14283031D02*
X8588753Y-14273508D01*
X8588753Y-14273508D02*
X8607801Y-14263984D01*
X8607801Y-14263984D02*
X8655420Y-14263984D01*
X8655420Y-14263984D02*
X8674468Y-14273508D01*
X8674468Y-14273508D02*
X8683991Y-14283031D01*
X8683991Y-14283031D02*
X8693515Y-14302079D01*
X8693515Y-14302079D02*
X8693515Y-14321127D01*
X8693515Y-14321127D02*
X8683991Y-14349698D01*
X8683991Y-14349698D02*
X8569706Y-14463984D01*
X8569706Y-14463984D02*
X8693515Y-14463984D01*
X8931611Y-14463984D02*
X8931611Y-14263984D01*
X9017325Y-14463984D02*
X9017325Y-14359222D01*
X9017325Y-14359222D02*
X9007801Y-14340174D01*
X9007801Y-14340174D02*
X8988753Y-14330650D01*
X8988753Y-14330650D02*
X8960182Y-14330650D01*
X8960182Y-14330650D02*
X8941134Y-14340174D01*
X8941134Y-14340174D02*
X8931611Y-14349698D01*
X9141134Y-14463984D02*
X9122087Y-14454460D01*
X9122087Y-14454460D02*
X9112563Y-14444936D01*
X9112563Y-14444936D02*
X9103039Y-14425888D01*
X9103039Y-14425888D02*
X9103039Y-14368746D01*
X9103039Y-14368746D02*
X9112563Y-14349698D01*
X9112563Y-14349698D02*
X9122087Y-14340174D01*
X9122087Y-14340174D02*
X9141134Y-14330650D01*
X9141134Y-14330650D02*
X9169706Y-14330650D01*
X9169706Y-14330650D02*
X9188753Y-14340174D01*
X9188753Y-14340174D02*
X9198277Y-14349698D01*
X9198277Y-14349698D02*
X9207801Y-14368746D01*
X9207801Y-14368746D02*
X9207801Y-14425888D01*
X9207801Y-14425888D02*
X9198277Y-14444936D01*
X9198277Y-14444936D02*
X9188753Y-14454460D01*
X9188753Y-14454460D02*
X9169706Y-14463984D01*
X9169706Y-14463984D02*
X9141134Y-14463984D01*
X9322087Y-14463984D02*
X9303039Y-14454460D01*
X9303039Y-14454460D02*
X9293515Y-14435412D01*
X9293515Y-14435412D02*
X9293515Y-14263984D01*
X9474468Y-14454460D02*
X9455420Y-14463984D01*
X9455420Y-14463984D02*
X9417325Y-14463984D01*
X9417325Y-14463984D02*
X9398277Y-14454460D01*
X9398277Y-14454460D02*
X9388753Y-14435412D01*
X9388753Y-14435412D02*
X9388753Y-14359222D01*
X9388753Y-14359222D02*
X9398277Y-14340174D01*
X9398277Y-14340174D02*
X9417325Y-14330650D01*
X9417325Y-14330650D02*
X9455420Y-14330650D01*
X9455420Y-14330650D02*
X9474468Y-14340174D01*
X9474468Y-14340174D02*
X9483992Y-14359222D01*
X9483992Y-14359222D02*
X9483992Y-14378269D01*
X9483992Y-14378269D02*
X9388753Y-14397317D01*
X9560182Y-14454460D02*
X9579230Y-14463984D01*
X9579230Y-14463984D02*
X9617325Y-14463984D01*
X9617325Y-14463984D02*
X9636373Y-14454460D01*
X9636373Y-14454460D02*
X9645896Y-14435412D01*
X9645896Y-14435412D02*
X9645896Y-14425888D01*
X9645896Y-14425888D02*
X9636373Y-14406841D01*
X9636373Y-14406841D02*
X9617325Y-14397317D01*
X9617325Y-14397317D02*
X9588753Y-14397317D01*
X9588753Y-14397317D02*
X9569706Y-14387793D01*
X9569706Y-14387793D02*
X9560182Y-14368746D01*
X9560182Y-14368746D02*
X9560182Y-14359222D01*
X9560182Y-14359222D02*
X9569706Y-14340174D01*
X9569706Y-14340174D02*
X9588753Y-14330650D01*
X9588753Y-14330650D02*
X9617325Y-14330650D01*
X9617325Y-14330650D02*
X9636373Y-14340174D01*
X9712563Y-14540174D02*
X9722087Y-14530650D01*
X9722087Y-14530650D02*
X9741134Y-14502079D01*
X9741134Y-14502079D02*
X9750658Y-14483031D01*
X9750658Y-14483031D02*
X9760182Y-14454460D01*
X9760182Y-14454460D02*
X9769706Y-14406841D01*
X9769706Y-14406841D02*
X9769706Y-14368746D01*
X9769706Y-14368746D02*
X9760182Y-14321127D01*
X9760182Y-14321127D02*
X9750658Y-14292555D01*
X9750658Y-14292555D02*
X9741134Y-14273508D01*
X9741134Y-14273508D02*
X9722087Y-14244936D01*
X9722087Y-14244936D02*
X9712563Y-14235412D01*
X10074468Y-14540174D02*
X10064944Y-14530650D01*
X10064944Y-14530650D02*
X10045896Y-14502079D01*
X10045896Y-14502079D02*
X10036373Y-14483031D01*
X10036373Y-14483031D02*
X10026849Y-14454460D01*
X10026849Y-14454460D02*
X10017325Y-14406841D01*
X10017325Y-14406841D02*
X10017325Y-14368746D01*
X10017325Y-14368746D02*
X10026849Y-14321127D01*
X10026849Y-14321127D02*
X10036373Y-14292555D01*
X10036373Y-14292555D02*
X10045896Y-14273508D01*
X10045896Y-14273508D02*
X10064944Y-14244936D01*
X10064944Y-14244936D02*
X10074468Y-14235412D01*
X10150658Y-14330650D02*
X10150658Y-14463984D01*
X10150658Y-14349698D02*
X10160182Y-14340174D01*
X10160182Y-14340174D02*
X10179230Y-14330650D01*
X10179230Y-14330650D02*
X10207801Y-14330650D01*
X10207801Y-14330650D02*
X10226849Y-14340174D01*
X10226849Y-14340174D02*
X10236373Y-14359222D01*
X10236373Y-14359222D02*
X10236373Y-14463984D01*
X10360182Y-14463984D02*
X10341134Y-14454460D01*
X10341134Y-14454460D02*
X10331611Y-14444936D01*
X10331611Y-14444936D02*
X10322087Y-14425888D01*
X10322087Y-14425888D02*
X10322087Y-14368746D01*
X10322087Y-14368746D02*
X10331611Y-14349698D01*
X10331611Y-14349698D02*
X10341134Y-14340174D01*
X10341134Y-14340174D02*
X10360182Y-14330650D01*
X10360182Y-14330650D02*
X10388754Y-14330650D01*
X10388754Y-14330650D02*
X10407801Y-14340174D01*
X10407801Y-14340174D02*
X10417325Y-14349698D01*
X10417325Y-14349698D02*
X10426849Y-14368746D01*
X10426849Y-14368746D02*
X10426849Y-14425888D01*
X10426849Y-14425888D02*
X10417325Y-14444936D01*
X10417325Y-14444936D02*
X10407801Y-14454460D01*
X10407801Y-14454460D02*
X10388754Y-14463984D01*
X10388754Y-14463984D02*
X10360182Y-14463984D01*
X10483992Y-14330650D02*
X10560182Y-14330650D01*
X10512563Y-14263984D02*
X10512563Y-14435412D01*
X10512563Y-14435412D02*
X10522087Y-14454460D01*
X10522087Y-14454460D02*
X10541134Y-14463984D01*
X10541134Y-14463984D02*
X10560182Y-14463984D01*
X10779230Y-14330650D02*
X10779230Y-14530650D01*
X10779230Y-14340174D02*
X10798277Y-14330650D01*
X10798277Y-14330650D02*
X10836373Y-14330650D01*
X10836373Y-14330650D02*
X10855420Y-14340174D01*
X10855420Y-14340174D02*
X10864944Y-14349698D01*
X10864944Y-14349698D02*
X10874468Y-14368746D01*
X10874468Y-14368746D02*
X10874468Y-14425888D01*
X10874468Y-14425888D02*
X10864944Y-14444936D01*
X10864944Y-14444936D02*
X10855420Y-14454460D01*
X10855420Y-14454460D02*
X10836373Y-14463984D01*
X10836373Y-14463984D02*
X10798277Y-14463984D01*
X10798277Y-14463984D02*
X10779230Y-14454460D01*
X10988754Y-14463984D02*
X10969706Y-14454460D01*
X10969706Y-14454460D02*
X10960182Y-14435412D01*
X10960182Y-14435412D02*
X10960182Y-14263984D01*
X11150658Y-14463984D02*
X11150658Y-14359222D01*
X11150658Y-14359222D02*
X11141135Y-14340174D01*
X11141135Y-14340174D02*
X11122087Y-14330650D01*
X11122087Y-14330650D02*
X11083992Y-14330650D01*
X11083992Y-14330650D02*
X11064944Y-14340174D01*
X11150658Y-14454460D02*
X11131611Y-14463984D01*
X11131611Y-14463984D02*
X11083992Y-14463984D01*
X11083992Y-14463984D02*
X11064944Y-14454460D01*
X11064944Y-14454460D02*
X11055420Y-14435412D01*
X11055420Y-14435412D02*
X11055420Y-14416365D01*
X11055420Y-14416365D02*
X11064944Y-14397317D01*
X11064944Y-14397317D02*
X11083992Y-14387793D01*
X11083992Y-14387793D02*
X11131611Y-14387793D01*
X11131611Y-14387793D02*
X11150658Y-14378269D01*
X11217325Y-14330650D02*
X11293515Y-14330650D01*
X11245896Y-14263984D02*
X11245896Y-14435412D01*
X11245896Y-14435412D02*
X11255420Y-14454460D01*
X11255420Y-14454460D02*
X11274468Y-14463984D01*
X11274468Y-14463984D02*
X11293515Y-14463984D01*
X11436373Y-14454460D02*
X11417325Y-14463984D01*
X11417325Y-14463984D02*
X11379230Y-14463984D01*
X11379230Y-14463984D02*
X11360182Y-14454460D01*
X11360182Y-14454460D02*
X11350658Y-14435412D01*
X11350658Y-14435412D02*
X11350658Y-14359222D01*
X11350658Y-14359222D02*
X11360182Y-14340174D01*
X11360182Y-14340174D02*
X11379230Y-14330650D01*
X11379230Y-14330650D02*
X11417325Y-14330650D01*
X11417325Y-14330650D02*
X11436373Y-14340174D01*
X11436373Y-14340174D02*
X11445896Y-14359222D01*
X11445896Y-14359222D02*
X11445896Y-14378269D01*
X11445896Y-14378269D02*
X11350658Y-14397317D01*
X11617325Y-14463984D02*
X11617325Y-14263984D01*
X11617325Y-14454460D02*
X11598277Y-14463984D01*
X11598277Y-14463984D02*
X11560182Y-14463984D01*
X11560182Y-14463984D02*
X11541134Y-14454460D01*
X11541134Y-14454460D02*
X11531611Y-14444936D01*
X11531611Y-14444936D02*
X11522087Y-14425888D01*
X11522087Y-14425888D02*
X11522087Y-14368746D01*
X11522087Y-14368746D02*
X11531611Y-14349698D01*
X11531611Y-14349698D02*
X11541134Y-14340174D01*
X11541134Y-14340174D02*
X11560182Y-14330650D01*
X11560182Y-14330650D02*
X11598277Y-14330650D01*
X11598277Y-14330650D02*
X11617325Y-14340174D01*
X11693515Y-14540174D02*
X11703039Y-14530650D01*
X11703039Y-14530650D02*
X11722087Y-14502079D01*
X11722087Y-14502079D02*
X11731611Y-14483031D01*
X11731611Y-14483031D02*
X11741134Y-14454460D01*
X11741134Y-14454460D02*
X11750658Y-14406841D01*
X11750658Y-14406841D02*
X11750658Y-14368746D01*
X11750658Y-14368746D02*
X11741134Y-14321127D01*
X11741134Y-14321127D02*
X11731611Y-14292555D01*
X11731611Y-14292555D02*
X11722087Y-14273508D01*
X11722087Y-14273508D02*
X11703039Y-14244936D01*
X11703039Y-14244936D02*
X11693515Y-14235412D01*
D13*
X4937500Y-14636500D02*
G75*
G02*
X4842500Y-14636500I-47500J0D01*
G01*
X4842500Y-14636500D02*
G75*
G02*
X4937500Y-14636500I47500J0D01*
G01*
D12*
X5236372Y-14527984D02*
X5255420Y-14527984D01*
X5255420Y-14527984D02*
X5274467Y-14537508D01*
X5274467Y-14537508D02*
X5283991Y-14547031D01*
X5283991Y-14547031D02*
X5293515Y-14566079D01*
X5293515Y-14566079D02*
X5303039Y-14604174D01*
X5303039Y-14604174D02*
X5303039Y-14651793D01*
X5303039Y-14651793D02*
X5293515Y-14689888D01*
X5293515Y-14689888D02*
X5283991Y-14708936D01*
X5283991Y-14708936D02*
X5274467Y-14718460D01*
X5274467Y-14718460D02*
X5255420Y-14727984D01*
X5255420Y-14727984D02*
X5236372Y-14727984D01*
X5236372Y-14727984D02*
X5217324Y-14718460D01*
X5217324Y-14718460D02*
X5207801Y-14708936D01*
X5207801Y-14708936D02*
X5198277Y-14689888D01*
X5198277Y-14689888D02*
X5188753Y-14651793D01*
X5188753Y-14651793D02*
X5188753Y-14604174D01*
X5188753Y-14604174D02*
X5198277Y-14566079D01*
X5198277Y-14566079D02*
X5207801Y-14547031D01*
X5207801Y-14547031D02*
X5217324Y-14537508D01*
X5217324Y-14537508D02*
X5236372Y-14527984D01*
X5388753Y-14708936D02*
X5398277Y-14718460D01*
X5398277Y-14718460D02*
X5388753Y-14727984D01*
X5388753Y-14727984D02*
X5379229Y-14718460D01*
X5379229Y-14718460D02*
X5388753Y-14708936D01*
X5388753Y-14708936D02*
X5388753Y-14727984D01*
X5493515Y-14727984D02*
X5531610Y-14727984D01*
X5531610Y-14727984D02*
X5550658Y-14718460D01*
X5550658Y-14718460D02*
X5560182Y-14708936D01*
X5560182Y-14708936D02*
X5579229Y-14680365D01*
X5579229Y-14680365D02*
X5588753Y-14642269D01*
X5588753Y-14642269D02*
X5588753Y-14566079D01*
X5588753Y-14566079D02*
X5579229Y-14547031D01*
X5579229Y-14547031D02*
X5569705Y-14537508D01*
X5569705Y-14537508D02*
X5550658Y-14527984D01*
X5550658Y-14527984D02*
X5512563Y-14527984D01*
X5512563Y-14527984D02*
X5493515Y-14537508D01*
X5493515Y-14537508D02*
X5483991Y-14547031D01*
X5483991Y-14547031D02*
X5474467Y-14566079D01*
X5474467Y-14566079D02*
X5474467Y-14613698D01*
X5474467Y-14613698D02*
X5483991Y-14632746D01*
X5483991Y-14632746D02*
X5493515Y-14642269D01*
X5493515Y-14642269D02*
X5512563Y-14651793D01*
X5512563Y-14651793D02*
X5550658Y-14651793D01*
X5550658Y-14651793D02*
X5569705Y-14642269D01*
X5569705Y-14642269D02*
X5579229Y-14632746D01*
X5579229Y-14632746D02*
X5588753Y-14613698D01*
X5769705Y-14527984D02*
X5674467Y-14527984D01*
X5674467Y-14527984D02*
X5664943Y-14623222D01*
X5664943Y-14623222D02*
X5674467Y-14613698D01*
X5674467Y-14613698D02*
X5693515Y-14604174D01*
X5693515Y-14604174D02*
X5741134Y-14604174D01*
X5741134Y-14604174D02*
X5760182Y-14613698D01*
X5760182Y-14613698D02*
X5769705Y-14623222D01*
X5769705Y-14623222D02*
X5779229Y-14642269D01*
X5779229Y-14642269D02*
X5779229Y-14689888D01*
X5779229Y-14689888D02*
X5769705Y-14708936D01*
X5769705Y-14708936D02*
X5760182Y-14718460D01*
X5760182Y-14718460D02*
X5741134Y-14727984D01*
X5741134Y-14727984D02*
X5693515Y-14727984D01*
X5693515Y-14727984D02*
X5674467Y-14718460D01*
X5674467Y-14718460D02*
X5664943Y-14708936D01*
X5903039Y-14527984D02*
X5922086Y-14527984D01*
X5922086Y-14527984D02*
X5941134Y-14537508D01*
X5941134Y-14537508D02*
X5950658Y-14547031D01*
X5950658Y-14547031D02*
X5960182Y-14566079D01*
X5960182Y-14566079D02*
X5969705Y-14604174D01*
X5969705Y-14604174D02*
X5969705Y-14651793D01*
X5969705Y-14651793D02*
X5960182Y-14689888D01*
X5960182Y-14689888D02*
X5950658Y-14708936D01*
X5950658Y-14708936D02*
X5941134Y-14718460D01*
X5941134Y-14718460D02*
X5922086Y-14727984D01*
X5922086Y-14727984D02*
X5903039Y-14727984D01*
X5903039Y-14727984D02*
X5883991Y-14718460D01*
X5883991Y-14718460D02*
X5874467Y-14708936D01*
X5874467Y-14708936D02*
X5864943Y-14689888D01*
X5864943Y-14689888D02*
X5855420Y-14651793D01*
X5855420Y-14651793D02*
X5855420Y-14604174D01*
X5855420Y-14604174D02*
X5864943Y-14566079D01*
X5864943Y-14566079D02*
X5874467Y-14547031D01*
X5874467Y-14547031D02*
X5883991Y-14537508D01*
X5883991Y-14537508D02*
X5903039Y-14527984D01*
X6055420Y-14727984D02*
X6055420Y-14594650D01*
X6055420Y-14613698D02*
X6064943Y-14604174D01*
X6064943Y-14604174D02*
X6083991Y-14594650D01*
X6083991Y-14594650D02*
X6112563Y-14594650D01*
X6112563Y-14594650D02*
X6131610Y-14604174D01*
X6131610Y-14604174D02*
X6141134Y-14623222D01*
X6141134Y-14623222D02*
X6141134Y-14727984D01*
X6141134Y-14623222D02*
X6150658Y-14604174D01*
X6150658Y-14604174D02*
X6169705Y-14594650D01*
X6169705Y-14594650D02*
X6198277Y-14594650D01*
X6198277Y-14594650D02*
X6217324Y-14604174D01*
X6217324Y-14604174D02*
X6226848Y-14623222D01*
X6226848Y-14623222D02*
X6226848Y-14727984D01*
X6322086Y-14727984D02*
X6322086Y-14594650D01*
X6322086Y-14613698D02*
X6331610Y-14604174D01*
X6331610Y-14604174D02*
X6350658Y-14594650D01*
X6350658Y-14594650D02*
X6379229Y-14594650D01*
X6379229Y-14594650D02*
X6398277Y-14604174D01*
X6398277Y-14604174D02*
X6407801Y-14623222D01*
X6407801Y-14623222D02*
X6407801Y-14727984D01*
X6407801Y-14623222D02*
X6417324Y-14604174D01*
X6417324Y-14604174D02*
X6436372Y-14594650D01*
X6436372Y-14594650D02*
X6464943Y-14594650D01*
X6464943Y-14594650D02*
X6483991Y-14604174D01*
X6483991Y-14604174D02*
X6493515Y-14623222D01*
X6493515Y-14623222D02*
X6493515Y-14727984D01*
X6883991Y-14518460D02*
X6712563Y-14775603D01*
X7141134Y-14527984D02*
X7160182Y-14527984D01*
X7160182Y-14527984D02*
X7179229Y-14537508D01*
X7179229Y-14537508D02*
X7188753Y-14547031D01*
X7188753Y-14547031D02*
X7198277Y-14566079D01*
X7198277Y-14566079D02*
X7207801Y-14604174D01*
X7207801Y-14604174D02*
X7207801Y-14651793D01*
X7207801Y-14651793D02*
X7198277Y-14689888D01*
X7198277Y-14689888D02*
X7188753Y-14708936D01*
X7188753Y-14708936D02*
X7179229Y-14718460D01*
X7179229Y-14718460D02*
X7160182Y-14727984D01*
X7160182Y-14727984D02*
X7141134Y-14727984D01*
X7141134Y-14727984D02*
X7122086Y-14718460D01*
X7122086Y-14718460D02*
X7112563Y-14708936D01*
X7112563Y-14708936D02*
X7103039Y-14689888D01*
X7103039Y-14689888D02*
X7093515Y-14651793D01*
X7093515Y-14651793D02*
X7093515Y-14604174D01*
X7093515Y-14604174D02*
X7103039Y-14566079D01*
X7103039Y-14566079D02*
X7112563Y-14547031D01*
X7112563Y-14547031D02*
X7122086Y-14537508D01*
X7122086Y-14537508D02*
X7141134Y-14527984D01*
X7293515Y-14708936D02*
X7303039Y-14718460D01*
X7303039Y-14718460D02*
X7293515Y-14727984D01*
X7293515Y-14727984D02*
X7283991Y-14718460D01*
X7283991Y-14718460D02*
X7293515Y-14708936D01*
X7293515Y-14708936D02*
X7293515Y-14727984D01*
X7426848Y-14527984D02*
X7445896Y-14527984D01*
X7445896Y-14527984D02*
X7464944Y-14537508D01*
X7464944Y-14537508D02*
X7474467Y-14547031D01*
X7474467Y-14547031D02*
X7483991Y-14566079D01*
X7483991Y-14566079D02*
X7493515Y-14604174D01*
X7493515Y-14604174D02*
X7493515Y-14651793D01*
X7493515Y-14651793D02*
X7483991Y-14689888D01*
X7483991Y-14689888D02*
X7474467Y-14708936D01*
X7474467Y-14708936D02*
X7464944Y-14718460D01*
X7464944Y-14718460D02*
X7445896Y-14727984D01*
X7445896Y-14727984D02*
X7426848Y-14727984D01*
X7426848Y-14727984D02*
X7407801Y-14718460D01*
X7407801Y-14718460D02*
X7398277Y-14708936D01*
X7398277Y-14708936D02*
X7388753Y-14689888D01*
X7388753Y-14689888D02*
X7379229Y-14651793D01*
X7379229Y-14651793D02*
X7379229Y-14604174D01*
X7379229Y-14604174D02*
X7388753Y-14566079D01*
X7388753Y-14566079D02*
X7398277Y-14547031D01*
X7398277Y-14547031D02*
X7407801Y-14537508D01*
X7407801Y-14537508D02*
X7426848Y-14527984D01*
X7560182Y-14527984D02*
X7683991Y-14527984D01*
X7683991Y-14527984D02*
X7617325Y-14604174D01*
X7617325Y-14604174D02*
X7645896Y-14604174D01*
X7645896Y-14604174D02*
X7664944Y-14613698D01*
X7664944Y-14613698D02*
X7674467Y-14623222D01*
X7674467Y-14623222D02*
X7683991Y-14642269D01*
X7683991Y-14642269D02*
X7683991Y-14689888D01*
X7683991Y-14689888D02*
X7674467Y-14708936D01*
X7674467Y-14708936D02*
X7664944Y-14718460D01*
X7664944Y-14718460D02*
X7645896Y-14727984D01*
X7645896Y-14727984D02*
X7588753Y-14727984D01*
X7588753Y-14727984D02*
X7569706Y-14718460D01*
X7569706Y-14718460D02*
X7560182Y-14708936D01*
X7750658Y-14527984D02*
X7883991Y-14527984D01*
X7883991Y-14527984D02*
X7798277Y-14727984D01*
X8045896Y-14594650D02*
X8045896Y-14727984D01*
X7998277Y-14518460D02*
X7950658Y-14661317D01*
X7950658Y-14661317D02*
X8074467Y-14661317D01*
X8141134Y-14527984D02*
X8141134Y-14566079D01*
X8217325Y-14527984D02*
X8217325Y-14566079D01*
X8512563Y-14804174D02*
X8503039Y-14794650D01*
X8503039Y-14794650D02*
X8483991Y-14766079D01*
X8483991Y-14766079D02*
X8474468Y-14747031D01*
X8474468Y-14747031D02*
X8464944Y-14718460D01*
X8464944Y-14718460D02*
X8455420Y-14670841D01*
X8455420Y-14670841D02*
X8455420Y-14632746D01*
X8455420Y-14632746D02*
X8464944Y-14585127D01*
X8464944Y-14585127D02*
X8474468Y-14556555D01*
X8474468Y-14556555D02*
X8483991Y-14537508D01*
X8483991Y-14537508D02*
X8503039Y-14508936D01*
X8503039Y-14508936D02*
X8512563Y-14499412D01*
X8579230Y-14547031D02*
X8588753Y-14537508D01*
X8588753Y-14537508D02*
X8607801Y-14527984D01*
X8607801Y-14527984D02*
X8655420Y-14527984D01*
X8655420Y-14527984D02*
X8674468Y-14537508D01*
X8674468Y-14537508D02*
X8683991Y-14547031D01*
X8683991Y-14547031D02*
X8693515Y-14566079D01*
X8693515Y-14566079D02*
X8693515Y-14585127D01*
X8693515Y-14585127D02*
X8683991Y-14613698D01*
X8683991Y-14613698D02*
X8569706Y-14727984D01*
X8569706Y-14727984D02*
X8693515Y-14727984D01*
X8931611Y-14727984D02*
X8931611Y-14527984D01*
X9017325Y-14727984D02*
X9017325Y-14623222D01*
X9017325Y-14623222D02*
X9007801Y-14604174D01*
X9007801Y-14604174D02*
X8988753Y-14594650D01*
X8988753Y-14594650D02*
X8960182Y-14594650D01*
X8960182Y-14594650D02*
X8941134Y-14604174D01*
X8941134Y-14604174D02*
X8931611Y-14613698D01*
X9141134Y-14727984D02*
X9122087Y-14718460D01*
X9122087Y-14718460D02*
X9112563Y-14708936D01*
X9112563Y-14708936D02*
X9103039Y-14689888D01*
X9103039Y-14689888D02*
X9103039Y-14632746D01*
X9103039Y-14632746D02*
X9112563Y-14613698D01*
X9112563Y-14613698D02*
X9122087Y-14604174D01*
X9122087Y-14604174D02*
X9141134Y-14594650D01*
X9141134Y-14594650D02*
X9169706Y-14594650D01*
X9169706Y-14594650D02*
X9188753Y-14604174D01*
X9188753Y-14604174D02*
X9198277Y-14613698D01*
X9198277Y-14613698D02*
X9207801Y-14632746D01*
X9207801Y-14632746D02*
X9207801Y-14689888D01*
X9207801Y-14689888D02*
X9198277Y-14708936D01*
X9198277Y-14708936D02*
X9188753Y-14718460D01*
X9188753Y-14718460D02*
X9169706Y-14727984D01*
X9169706Y-14727984D02*
X9141134Y-14727984D01*
X9322087Y-14727984D02*
X9303039Y-14718460D01*
X9303039Y-14718460D02*
X9293515Y-14699412D01*
X9293515Y-14699412D02*
X9293515Y-14527984D01*
X9474468Y-14718460D02*
X9455420Y-14727984D01*
X9455420Y-14727984D02*
X9417325Y-14727984D01*
X9417325Y-14727984D02*
X9398277Y-14718460D01*
X9398277Y-14718460D02*
X9388753Y-14699412D01*
X9388753Y-14699412D02*
X9388753Y-14623222D01*
X9388753Y-14623222D02*
X9398277Y-14604174D01*
X9398277Y-14604174D02*
X9417325Y-14594650D01*
X9417325Y-14594650D02*
X9455420Y-14594650D01*
X9455420Y-14594650D02*
X9474468Y-14604174D01*
X9474468Y-14604174D02*
X9483992Y-14623222D01*
X9483992Y-14623222D02*
X9483992Y-14642269D01*
X9483992Y-14642269D02*
X9388753Y-14661317D01*
X9560182Y-14718460D02*
X9579230Y-14727984D01*
X9579230Y-14727984D02*
X9617325Y-14727984D01*
X9617325Y-14727984D02*
X9636373Y-14718460D01*
X9636373Y-14718460D02*
X9645896Y-14699412D01*
X9645896Y-14699412D02*
X9645896Y-14689888D01*
X9645896Y-14689888D02*
X9636373Y-14670841D01*
X9636373Y-14670841D02*
X9617325Y-14661317D01*
X9617325Y-14661317D02*
X9588753Y-14661317D01*
X9588753Y-14661317D02*
X9569706Y-14651793D01*
X9569706Y-14651793D02*
X9560182Y-14632746D01*
X9560182Y-14632746D02*
X9560182Y-14623222D01*
X9560182Y-14623222D02*
X9569706Y-14604174D01*
X9569706Y-14604174D02*
X9588753Y-14594650D01*
X9588753Y-14594650D02*
X9617325Y-14594650D01*
X9617325Y-14594650D02*
X9636373Y-14604174D01*
X9712563Y-14804174D02*
X9722087Y-14794650D01*
X9722087Y-14794650D02*
X9741134Y-14766079D01*
X9741134Y-14766079D02*
X9750658Y-14747031D01*
X9750658Y-14747031D02*
X9760182Y-14718460D01*
X9760182Y-14718460D02*
X9769706Y-14670841D01*
X9769706Y-14670841D02*
X9769706Y-14632746D01*
X9769706Y-14632746D02*
X9760182Y-14585127D01*
X9760182Y-14585127D02*
X9750658Y-14556555D01*
X9750658Y-14556555D02*
X9741134Y-14537508D01*
X9741134Y-14537508D02*
X9722087Y-14508936D01*
X9722087Y-14508936D02*
X9712563Y-14499412D01*
X10074468Y-14804174D02*
X10064944Y-14794650D01*
X10064944Y-14794650D02*
X10045896Y-14766079D01*
X10045896Y-14766079D02*
X10036373Y-14747031D01*
X10036373Y-14747031D02*
X10026849Y-14718460D01*
X10026849Y-14718460D02*
X10017325Y-14670841D01*
X10017325Y-14670841D02*
X10017325Y-14632746D01*
X10017325Y-14632746D02*
X10026849Y-14585127D01*
X10026849Y-14585127D02*
X10036373Y-14556555D01*
X10036373Y-14556555D02*
X10045896Y-14537508D01*
X10045896Y-14537508D02*
X10064944Y-14508936D01*
X10064944Y-14508936D02*
X10074468Y-14499412D01*
X10150658Y-14594650D02*
X10150658Y-14727984D01*
X10150658Y-14613698D02*
X10160182Y-14604174D01*
X10160182Y-14604174D02*
X10179230Y-14594650D01*
X10179230Y-14594650D02*
X10207801Y-14594650D01*
X10207801Y-14594650D02*
X10226849Y-14604174D01*
X10226849Y-14604174D02*
X10236373Y-14623222D01*
X10236373Y-14623222D02*
X10236373Y-14727984D01*
X10360182Y-14727984D02*
X10341134Y-14718460D01*
X10341134Y-14718460D02*
X10331611Y-14708936D01*
X10331611Y-14708936D02*
X10322087Y-14689888D01*
X10322087Y-14689888D02*
X10322087Y-14632746D01*
X10322087Y-14632746D02*
X10331611Y-14613698D01*
X10331611Y-14613698D02*
X10341134Y-14604174D01*
X10341134Y-14604174D02*
X10360182Y-14594650D01*
X10360182Y-14594650D02*
X10388754Y-14594650D01*
X10388754Y-14594650D02*
X10407801Y-14604174D01*
X10407801Y-14604174D02*
X10417325Y-14613698D01*
X10417325Y-14613698D02*
X10426849Y-14632746D01*
X10426849Y-14632746D02*
X10426849Y-14689888D01*
X10426849Y-14689888D02*
X10417325Y-14708936D01*
X10417325Y-14708936D02*
X10407801Y-14718460D01*
X10407801Y-14718460D02*
X10388754Y-14727984D01*
X10388754Y-14727984D02*
X10360182Y-14727984D01*
X10483992Y-14594650D02*
X10560182Y-14594650D01*
X10512563Y-14527984D02*
X10512563Y-14699412D01*
X10512563Y-14699412D02*
X10522087Y-14718460D01*
X10522087Y-14718460D02*
X10541134Y-14727984D01*
X10541134Y-14727984D02*
X10560182Y-14727984D01*
X10779230Y-14594650D02*
X10779230Y-14794650D01*
X10779230Y-14604174D02*
X10798277Y-14594650D01*
X10798277Y-14594650D02*
X10836373Y-14594650D01*
X10836373Y-14594650D02*
X10855420Y-14604174D01*
X10855420Y-14604174D02*
X10864944Y-14613698D01*
X10864944Y-14613698D02*
X10874468Y-14632746D01*
X10874468Y-14632746D02*
X10874468Y-14689888D01*
X10874468Y-14689888D02*
X10864944Y-14708936D01*
X10864944Y-14708936D02*
X10855420Y-14718460D01*
X10855420Y-14718460D02*
X10836373Y-14727984D01*
X10836373Y-14727984D02*
X10798277Y-14727984D01*
X10798277Y-14727984D02*
X10779230Y-14718460D01*
X10988754Y-14727984D02*
X10969706Y-14718460D01*
X10969706Y-14718460D02*
X10960182Y-14699412D01*
X10960182Y-14699412D02*
X10960182Y-14527984D01*
X11150658Y-14727984D02*
X11150658Y-14623222D01*
X11150658Y-14623222D02*
X11141135Y-14604174D01*
X11141135Y-14604174D02*
X11122087Y-14594650D01*
X11122087Y-14594650D02*
X11083992Y-14594650D01*
X11083992Y-14594650D02*
X11064944Y-14604174D01*
X11150658Y-14718460D02*
X11131611Y-14727984D01*
X11131611Y-14727984D02*
X11083992Y-14727984D01*
X11083992Y-14727984D02*
X11064944Y-14718460D01*
X11064944Y-14718460D02*
X11055420Y-14699412D01*
X11055420Y-14699412D02*
X11055420Y-14680365D01*
X11055420Y-14680365D02*
X11064944Y-14661317D01*
X11064944Y-14661317D02*
X11083992Y-14651793D01*
X11083992Y-14651793D02*
X11131611Y-14651793D01*
X11131611Y-14651793D02*
X11150658Y-14642269D01*
X11217325Y-14594650D02*
X11293515Y-14594650D01*
X11245896Y-14527984D02*
X11245896Y-14699412D01*
X11245896Y-14699412D02*
X11255420Y-14718460D01*
X11255420Y-14718460D02*
X11274468Y-14727984D01*
X11274468Y-14727984D02*
X11293515Y-14727984D01*
X11436373Y-14718460D02*
X11417325Y-14727984D01*
X11417325Y-14727984D02*
X11379230Y-14727984D01*
X11379230Y-14727984D02*
X11360182Y-14718460D01*
X11360182Y-14718460D02*
X11350658Y-14699412D01*
X11350658Y-14699412D02*
X11350658Y-14623222D01*
X11350658Y-14623222D02*
X11360182Y-14604174D01*
X11360182Y-14604174D02*
X11379230Y-14594650D01*
X11379230Y-14594650D02*
X11417325Y-14594650D01*
X11417325Y-14594650D02*
X11436373Y-14604174D01*
X11436373Y-14604174D02*
X11445896Y-14623222D01*
X11445896Y-14623222D02*
X11445896Y-14642269D01*
X11445896Y-14642269D02*
X11350658Y-14661317D01*
X11617325Y-14727984D02*
X11617325Y-14527984D01*
X11617325Y-14718460D02*
X11598277Y-14727984D01*
X11598277Y-14727984D02*
X11560182Y-14727984D01*
X11560182Y-14727984D02*
X11541134Y-14718460D01*
X11541134Y-14718460D02*
X11531611Y-14708936D01*
X11531611Y-14708936D02*
X11522087Y-14689888D01*
X11522087Y-14689888D02*
X11522087Y-14632746D01*
X11522087Y-14632746D02*
X11531611Y-14613698D01*
X11531611Y-14613698D02*
X11541134Y-14604174D01*
X11541134Y-14604174D02*
X11560182Y-14594650D01*
X11560182Y-14594650D02*
X11598277Y-14594650D01*
X11598277Y-14594650D02*
X11617325Y-14604174D01*
X11693515Y-14804174D02*
X11703039Y-14794650D01*
X11703039Y-14794650D02*
X11722087Y-14766079D01*
X11722087Y-14766079D02*
X11731611Y-14747031D01*
X11731611Y-14747031D02*
X11741134Y-14718460D01*
X11741134Y-14718460D02*
X11750658Y-14670841D01*
X11750658Y-14670841D02*
X11750658Y-14632746D01*
X11750658Y-14632746D02*
X11741134Y-14585127D01*
X11741134Y-14585127D02*
X11731611Y-14556555D01*
X11731611Y-14556555D02*
X11722087Y-14537508D01*
X11722087Y-14537508D02*
X11703039Y-14508936D01*
X11703039Y-14508936D02*
X11693515Y-14499412D01*
D14*
X4852500Y-14815500D02*
X4852500Y-14985500D01*
X4767500Y-14900500D02*
X4937500Y-14900500D01*
D12*
X5303039Y-14991984D02*
X5188753Y-14991984D01*
X5245896Y-14991984D02*
X5245896Y-14791984D01*
X5245896Y-14791984D02*
X5226848Y-14820555D01*
X5226848Y-14820555D02*
X5207801Y-14839603D01*
X5207801Y-14839603D02*
X5188753Y-14849127D01*
X5388753Y-14972936D02*
X5398277Y-14982460D01*
X5398277Y-14982460D02*
X5388753Y-14991984D01*
X5388753Y-14991984D02*
X5379229Y-14982460D01*
X5379229Y-14982460D02*
X5388753Y-14972936D01*
X5388753Y-14972936D02*
X5388753Y-14991984D01*
X5464944Y-14791984D02*
X5598277Y-14791984D01*
X5598277Y-14791984D02*
X5512563Y-14991984D01*
X5712562Y-14791984D02*
X5731610Y-14791984D01*
X5731610Y-14791984D02*
X5750658Y-14801508D01*
X5750658Y-14801508D02*
X5760182Y-14811031D01*
X5760182Y-14811031D02*
X5769705Y-14830079D01*
X5769705Y-14830079D02*
X5779229Y-14868174D01*
X5779229Y-14868174D02*
X5779229Y-14915793D01*
X5779229Y-14915793D02*
X5769705Y-14953888D01*
X5769705Y-14953888D02*
X5760182Y-14972936D01*
X5760182Y-14972936D02*
X5750658Y-14982460D01*
X5750658Y-14982460D02*
X5731610Y-14991984D01*
X5731610Y-14991984D02*
X5712562Y-14991984D01*
X5712562Y-14991984D02*
X5693515Y-14982460D01*
X5693515Y-14982460D02*
X5683991Y-14972936D01*
X5683991Y-14972936D02*
X5674467Y-14953888D01*
X5674467Y-14953888D02*
X5664943Y-14915793D01*
X5664943Y-14915793D02*
X5664943Y-14868174D01*
X5664943Y-14868174D02*
X5674467Y-14830079D01*
X5674467Y-14830079D02*
X5683991Y-14811031D01*
X5683991Y-14811031D02*
X5693515Y-14801508D01*
X5693515Y-14801508D02*
X5712562Y-14791984D01*
X5903039Y-14791984D02*
X5922086Y-14791984D01*
X5922086Y-14791984D02*
X5941134Y-14801508D01*
X5941134Y-14801508D02*
X5950658Y-14811031D01*
X5950658Y-14811031D02*
X5960182Y-14830079D01*
X5960182Y-14830079D02*
X5969705Y-14868174D01*
X5969705Y-14868174D02*
X5969705Y-14915793D01*
X5969705Y-14915793D02*
X5960182Y-14953888D01*
X5960182Y-14953888D02*
X5950658Y-14972936D01*
X5950658Y-14972936D02*
X5941134Y-14982460D01*
X5941134Y-14982460D02*
X5922086Y-14991984D01*
X5922086Y-14991984D02*
X5903039Y-14991984D01*
X5903039Y-14991984D02*
X5883991Y-14982460D01*
X5883991Y-14982460D02*
X5874467Y-14972936D01*
X5874467Y-14972936D02*
X5864943Y-14953888D01*
X5864943Y-14953888D02*
X5855420Y-14915793D01*
X5855420Y-14915793D02*
X5855420Y-14868174D01*
X5855420Y-14868174D02*
X5864943Y-14830079D01*
X5864943Y-14830079D02*
X5874467Y-14811031D01*
X5874467Y-14811031D02*
X5883991Y-14801508D01*
X5883991Y-14801508D02*
X5903039Y-14791984D01*
X6055420Y-14991984D02*
X6055420Y-14858650D01*
X6055420Y-14877698D02*
X6064943Y-14868174D01*
X6064943Y-14868174D02*
X6083991Y-14858650D01*
X6083991Y-14858650D02*
X6112563Y-14858650D01*
X6112563Y-14858650D02*
X6131610Y-14868174D01*
X6131610Y-14868174D02*
X6141134Y-14887222D01*
X6141134Y-14887222D02*
X6141134Y-14991984D01*
X6141134Y-14887222D02*
X6150658Y-14868174D01*
X6150658Y-14868174D02*
X6169705Y-14858650D01*
X6169705Y-14858650D02*
X6198277Y-14858650D01*
X6198277Y-14858650D02*
X6217324Y-14868174D01*
X6217324Y-14868174D02*
X6226848Y-14887222D01*
X6226848Y-14887222D02*
X6226848Y-14991984D01*
X6322086Y-14991984D02*
X6322086Y-14858650D01*
X6322086Y-14877698D02*
X6331610Y-14868174D01*
X6331610Y-14868174D02*
X6350658Y-14858650D01*
X6350658Y-14858650D02*
X6379229Y-14858650D01*
X6379229Y-14858650D02*
X6398277Y-14868174D01*
X6398277Y-14868174D02*
X6407801Y-14887222D01*
X6407801Y-14887222D02*
X6407801Y-14991984D01*
X6407801Y-14887222D02*
X6417324Y-14868174D01*
X6417324Y-14868174D02*
X6436372Y-14858650D01*
X6436372Y-14858650D02*
X6464943Y-14858650D01*
X6464943Y-14858650D02*
X6483991Y-14868174D01*
X6483991Y-14868174D02*
X6493515Y-14887222D01*
X6493515Y-14887222D02*
X6493515Y-14991984D01*
X6883991Y-14782460D02*
X6712563Y-15039603D01*
X7141134Y-14791984D02*
X7160182Y-14791984D01*
X7160182Y-14791984D02*
X7179229Y-14801508D01*
X7179229Y-14801508D02*
X7188753Y-14811031D01*
X7188753Y-14811031D02*
X7198277Y-14830079D01*
X7198277Y-14830079D02*
X7207801Y-14868174D01*
X7207801Y-14868174D02*
X7207801Y-14915793D01*
X7207801Y-14915793D02*
X7198277Y-14953888D01*
X7198277Y-14953888D02*
X7188753Y-14972936D01*
X7188753Y-14972936D02*
X7179229Y-14982460D01*
X7179229Y-14982460D02*
X7160182Y-14991984D01*
X7160182Y-14991984D02*
X7141134Y-14991984D01*
X7141134Y-14991984D02*
X7122086Y-14982460D01*
X7122086Y-14982460D02*
X7112563Y-14972936D01*
X7112563Y-14972936D02*
X7103039Y-14953888D01*
X7103039Y-14953888D02*
X7093515Y-14915793D01*
X7093515Y-14915793D02*
X7093515Y-14868174D01*
X7093515Y-14868174D02*
X7103039Y-14830079D01*
X7103039Y-14830079D02*
X7112563Y-14811031D01*
X7112563Y-14811031D02*
X7122086Y-14801508D01*
X7122086Y-14801508D02*
X7141134Y-14791984D01*
X7293515Y-14972936D02*
X7303039Y-14982460D01*
X7303039Y-14982460D02*
X7293515Y-14991984D01*
X7293515Y-14991984D02*
X7283991Y-14982460D01*
X7283991Y-14982460D02*
X7293515Y-14972936D01*
X7293515Y-14972936D02*
X7293515Y-14991984D01*
X7426848Y-14791984D02*
X7445896Y-14791984D01*
X7445896Y-14791984D02*
X7464944Y-14801508D01*
X7464944Y-14801508D02*
X7474467Y-14811031D01*
X7474467Y-14811031D02*
X7483991Y-14830079D01*
X7483991Y-14830079D02*
X7493515Y-14868174D01*
X7493515Y-14868174D02*
X7493515Y-14915793D01*
X7493515Y-14915793D02*
X7483991Y-14953888D01*
X7483991Y-14953888D02*
X7474467Y-14972936D01*
X7474467Y-14972936D02*
X7464944Y-14982460D01*
X7464944Y-14982460D02*
X7445896Y-14991984D01*
X7445896Y-14991984D02*
X7426848Y-14991984D01*
X7426848Y-14991984D02*
X7407801Y-14982460D01*
X7407801Y-14982460D02*
X7398277Y-14972936D01*
X7398277Y-14972936D02*
X7388753Y-14953888D01*
X7388753Y-14953888D02*
X7379229Y-14915793D01*
X7379229Y-14915793D02*
X7379229Y-14868174D01*
X7379229Y-14868174D02*
X7388753Y-14830079D01*
X7388753Y-14830079D02*
X7398277Y-14811031D01*
X7398277Y-14811031D02*
X7407801Y-14801508D01*
X7407801Y-14801508D02*
X7426848Y-14791984D01*
X7664944Y-14791984D02*
X7626848Y-14791984D01*
X7626848Y-14791984D02*
X7607801Y-14801508D01*
X7607801Y-14801508D02*
X7598277Y-14811031D01*
X7598277Y-14811031D02*
X7579229Y-14839603D01*
X7579229Y-14839603D02*
X7569706Y-14877698D01*
X7569706Y-14877698D02*
X7569706Y-14953888D01*
X7569706Y-14953888D02*
X7579229Y-14972936D01*
X7579229Y-14972936D02*
X7588753Y-14982460D01*
X7588753Y-14982460D02*
X7607801Y-14991984D01*
X7607801Y-14991984D02*
X7645896Y-14991984D01*
X7645896Y-14991984D02*
X7664944Y-14982460D01*
X7664944Y-14982460D02*
X7674467Y-14972936D01*
X7674467Y-14972936D02*
X7683991Y-14953888D01*
X7683991Y-14953888D02*
X7683991Y-14906269D01*
X7683991Y-14906269D02*
X7674467Y-14887222D01*
X7674467Y-14887222D02*
X7664944Y-14877698D01*
X7664944Y-14877698D02*
X7645896Y-14868174D01*
X7645896Y-14868174D02*
X7607801Y-14868174D01*
X7607801Y-14868174D02*
X7588753Y-14877698D01*
X7588753Y-14877698D02*
X7579229Y-14887222D01*
X7579229Y-14887222D02*
X7569706Y-14906269D01*
X7855420Y-14791984D02*
X7817325Y-14791984D01*
X7817325Y-14791984D02*
X7798277Y-14801508D01*
X7798277Y-14801508D02*
X7788753Y-14811031D01*
X7788753Y-14811031D02*
X7769706Y-14839603D01*
X7769706Y-14839603D02*
X7760182Y-14877698D01*
X7760182Y-14877698D02*
X7760182Y-14953888D01*
X7760182Y-14953888D02*
X7769706Y-14972936D01*
X7769706Y-14972936D02*
X7779229Y-14982460D01*
X7779229Y-14982460D02*
X7798277Y-14991984D01*
X7798277Y-14991984D02*
X7836372Y-14991984D01*
X7836372Y-14991984D02*
X7855420Y-14982460D01*
X7855420Y-14982460D02*
X7864944Y-14972936D01*
X7864944Y-14972936D02*
X7874467Y-14953888D01*
X7874467Y-14953888D02*
X7874467Y-14906269D01*
X7874467Y-14906269D02*
X7864944Y-14887222D01*
X7864944Y-14887222D02*
X7855420Y-14877698D01*
X7855420Y-14877698D02*
X7836372Y-14868174D01*
X7836372Y-14868174D02*
X7798277Y-14868174D01*
X7798277Y-14868174D02*
X7779229Y-14877698D01*
X7779229Y-14877698D02*
X7769706Y-14887222D01*
X7769706Y-14887222D02*
X7760182Y-14906269D01*
X7969706Y-14991984D02*
X8007801Y-14991984D01*
X8007801Y-14991984D02*
X8026848Y-14982460D01*
X8026848Y-14982460D02*
X8036372Y-14972936D01*
X8036372Y-14972936D02*
X8055420Y-14944365D01*
X8055420Y-14944365D02*
X8064944Y-14906269D01*
X8064944Y-14906269D02*
X8064944Y-14830079D01*
X8064944Y-14830079D02*
X8055420Y-14811031D01*
X8055420Y-14811031D02*
X8045896Y-14801508D01*
X8045896Y-14801508D02*
X8026848Y-14791984D01*
X8026848Y-14791984D02*
X7988753Y-14791984D01*
X7988753Y-14791984D02*
X7969706Y-14801508D01*
X7969706Y-14801508D02*
X7960182Y-14811031D01*
X7960182Y-14811031D02*
X7950658Y-14830079D01*
X7950658Y-14830079D02*
X7950658Y-14877698D01*
X7950658Y-14877698D02*
X7960182Y-14896746D01*
X7960182Y-14896746D02*
X7969706Y-14906269D01*
X7969706Y-14906269D02*
X7988753Y-14915793D01*
X7988753Y-14915793D02*
X8026848Y-14915793D01*
X8026848Y-14915793D02*
X8045896Y-14906269D01*
X8045896Y-14906269D02*
X8055420Y-14896746D01*
X8055420Y-14896746D02*
X8064944Y-14877698D01*
X8141134Y-14791984D02*
X8141134Y-14830079D01*
X8217325Y-14791984D02*
X8217325Y-14830079D01*
X8512563Y-15068174D02*
X8503039Y-15058650D01*
X8503039Y-15058650D02*
X8483991Y-15030079D01*
X8483991Y-15030079D02*
X8474468Y-15011031D01*
X8474468Y-15011031D02*
X8464944Y-14982460D01*
X8464944Y-14982460D02*
X8455420Y-14934841D01*
X8455420Y-14934841D02*
X8455420Y-14896746D01*
X8455420Y-14896746D02*
X8464944Y-14849127D01*
X8464944Y-14849127D02*
X8474468Y-14820555D01*
X8474468Y-14820555D02*
X8483991Y-14801508D01*
X8483991Y-14801508D02*
X8503039Y-14772936D01*
X8503039Y-14772936D02*
X8512563Y-14763412D01*
X8579230Y-14811031D02*
X8588753Y-14801508D01*
X8588753Y-14801508D02*
X8607801Y-14791984D01*
X8607801Y-14791984D02*
X8655420Y-14791984D01*
X8655420Y-14791984D02*
X8674468Y-14801508D01*
X8674468Y-14801508D02*
X8683991Y-14811031D01*
X8683991Y-14811031D02*
X8693515Y-14830079D01*
X8693515Y-14830079D02*
X8693515Y-14849127D01*
X8693515Y-14849127D02*
X8683991Y-14877698D01*
X8683991Y-14877698D02*
X8569706Y-14991984D01*
X8569706Y-14991984D02*
X8693515Y-14991984D01*
X8931611Y-14991984D02*
X8931611Y-14791984D01*
X9017325Y-14991984D02*
X9017325Y-14887222D01*
X9017325Y-14887222D02*
X9007801Y-14868174D01*
X9007801Y-14868174D02*
X8988753Y-14858650D01*
X8988753Y-14858650D02*
X8960182Y-14858650D01*
X8960182Y-14858650D02*
X8941134Y-14868174D01*
X8941134Y-14868174D02*
X8931611Y-14877698D01*
X9141134Y-14991984D02*
X9122087Y-14982460D01*
X9122087Y-14982460D02*
X9112563Y-14972936D01*
X9112563Y-14972936D02*
X9103039Y-14953888D01*
X9103039Y-14953888D02*
X9103039Y-14896746D01*
X9103039Y-14896746D02*
X9112563Y-14877698D01*
X9112563Y-14877698D02*
X9122087Y-14868174D01*
X9122087Y-14868174D02*
X9141134Y-14858650D01*
X9141134Y-14858650D02*
X9169706Y-14858650D01*
X9169706Y-14858650D02*
X9188753Y-14868174D01*
X9188753Y-14868174D02*
X9198277Y-14877698D01*
X9198277Y-14877698D02*
X9207801Y-14896746D01*
X9207801Y-14896746D02*
X9207801Y-14953888D01*
X9207801Y-14953888D02*
X9198277Y-14972936D01*
X9198277Y-14972936D02*
X9188753Y-14982460D01*
X9188753Y-14982460D02*
X9169706Y-14991984D01*
X9169706Y-14991984D02*
X9141134Y-14991984D01*
X9322087Y-14991984D02*
X9303039Y-14982460D01*
X9303039Y-14982460D02*
X9293515Y-14963412D01*
X9293515Y-14963412D02*
X9293515Y-14791984D01*
X9474468Y-14982460D02*
X9455420Y-14991984D01*
X9455420Y-14991984D02*
X9417325Y-14991984D01*
X9417325Y-14991984D02*
X9398277Y-14982460D01*
X9398277Y-14982460D02*
X9388753Y-14963412D01*
X9388753Y-14963412D02*
X9388753Y-14887222D01*
X9388753Y-14887222D02*
X9398277Y-14868174D01*
X9398277Y-14868174D02*
X9417325Y-14858650D01*
X9417325Y-14858650D02*
X9455420Y-14858650D01*
X9455420Y-14858650D02*
X9474468Y-14868174D01*
X9474468Y-14868174D02*
X9483992Y-14887222D01*
X9483992Y-14887222D02*
X9483992Y-14906269D01*
X9483992Y-14906269D02*
X9388753Y-14925317D01*
X9560182Y-14982460D02*
X9579230Y-14991984D01*
X9579230Y-14991984D02*
X9617325Y-14991984D01*
X9617325Y-14991984D02*
X9636373Y-14982460D01*
X9636373Y-14982460D02*
X9645896Y-14963412D01*
X9645896Y-14963412D02*
X9645896Y-14953888D01*
X9645896Y-14953888D02*
X9636373Y-14934841D01*
X9636373Y-14934841D02*
X9617325Y-14925317D01*
X9617325Y-14925317D02*
X9588753Y-14925317D01*
X9588753Y-14925317D02*
X9569706Y-14915793D01*
X9569706Y-14915793D02*
X9560182Y-14896746D01*
X9560182Y-14896746D02*
X9560182Y-14887222D01*
X9560182Y-14887222D02*
X9569706Y-14868174D01*
X9569706Y-14868174D02*
X9588753Y-14858650D01*
X9588753Y-14858650D02*
X9617325Y-14858650D01*
X9617325Y-14858650D02*
X9636373Y-14868174D01*
X9712563Y-15068174D02*
X9722087Y-15058650D01*
X9722087Y-15058650D02*
X9741134Y-15030079D01*
X9741134Y-15030079D02*
X9750658Y-15011031D01*
X9750658Y-15011031D02*
X9760182Y-14982460D01*
X9760182Y-14982460D02*
X9769706Y-14934841D01*
X9769706Y-14934841D02*
X9769706Y-14896746D01*
X9769706Y-14896746D02*
X9760182Y-14849127D01*
X9760182Y-14849127D02*
X9750658Y-14820555D01*
X9750658Y-14820555D02*
X9741134Y-14801508D01*
X9741134Y-14801508D02*
X9722087Y-14772936D01*
X9722087Y-14772936D02*
X9712563Y-14763412D01*
X10074468Y-15068174D02*
X10064944Y-15058650D01*
X10064944Y-15058650D02*
X10045896Y-15030079D01*
X10045896Y-15030079D02*
X10036373Y-15011031D01*
X10036373Y-15011031D02*
X10026849Y-14982460D01*
X10026849Y-14982460D02*
X10017325Y-14934841D01*
X10017325Y-14934841D02*
X10017325Y-14896746D01*
X10017325Y-14896746D02*
X10026849Y-14849127D01*
X10026849Y-14849127D02*
X10036373Y-14820555D01*
X10036373Y-14820555D02*
X10045896Y-14801508D01*
X10045896Y-14801508D02*
X10064944Y-14772936D01*
X10064944Y-14772936D02*
X10074468Y-14763412D01*
X10150658Y-14858650D02*
X10150658Y-14991984D01*
X10150658Y-14877698D02*
X10160182Y-14868174D01*
X10160182Y-14868174D02*
X10179230Y-14858650D01*
X10179230Y-14858650D02*
X10207801Y-14858650D01*
X10207801Y-14858650D02*
X10226849Y-14868174D01*
X10226849Y-14868174D02*
X10236373Y-14887222D01*
X10236373Y-14887222D02*
X10236373Y-14991984D01*
X10360182Y-14991984D02*
X10341134Y-14982460D01*
X10341134Y-14982460D02*
X10331611Y-14972936D01*
X10331611Y-14972936D02*
X10322087Y-14953888D01*
X10322087Y-14953888D02*
X10322087Y-14896746D01*
X10322087Y-14896746D02*
X10331611Y-14877698D01*
X10331611Y-14877698D02*
X10341134Y-14868174D01*
X10341134Y-14868174D02*
X10360182Y-14858650D01*
X10360182Y-14858650D02*
X10388754Y-14858650D01*
X10388754Y-14858650D02*
X10407801Y-14868174D01*
X10407801Y-14868174D02*
X10417325Y-14877698D01*
X10417325Y-14877698D02*
X10426849Y-14896746D01*
X10426849Y-14896746D02*
X10426849Y-14953888D01*
X10426849Y-14953888D02*
X10417325Y-14972936D01*
X10417325Y-14972936D02*
X10407801Y-14982460D01*
X10407801Y-14982460D02*
X10388754Y-14991984D01*
X10388754Y-14991984D02*
X10360182Y-14991984D01*
X10483992Y-14858650D02*
X10560182Y-14858650D01*
X10512563Y-14791984D02*
X10512563Y-14963412D01*
X10512563Y-14963412D02*
X10522087Y-14982460D01*
X10522087Y-14982460D02*
X10541134Y-14991984D01*
X10541134Y-14991984D02*
X10560182Y-14991984D01*
X10779230Y-14858650D02*
X10779230Y-15058650D01*
X10779230Y-14868174D02*
X10798277Y-14858650D01*
X10798277Y-14858650D02*
X10836373Y-14858650D01*
X10836373Y-14858650D02*
X10855420Y-14868174D01*
X10855420Y-14868174D02*
X10864944Y-14877698D01*
X10864944Y-14877698D02*
X10874468Y-14896746D01*
X10874468Y-14896746D02*
X10874468Y-14953888D01*
X10874468Y-14953888D02*
X10864944Y-14972936D01*
X10864944Y-14972936D02*
X10855420Y-14982460D01*
X10855420Y-14982460D02*
X10836373Y-14991984D01*
X10836373Y-14991984D02*
X10798277Y-14991984D01*
X10798277Y-14991984D02*
X10779230Y-14982460D01*
X10988754Y-14991984D02*
X10969706Y-14982460D01*
X10969706Y-14982460D02*
X10960182Y-14963412D01*
X10960182Y-14963412D02*
X10960182Y-14791984D01*
X11150658Y-14991984D02*
X11150658Y-14887222D01*
X11150658Y-14887222D02*
X11141135Y-14868174D01*
X11141135Y-14868174D02*
X11122087Y-14858650D01*
X11122087Y-14858650D02*
X11083992Y-14858650D01*
X11083992Y-14858650D02*
X11064944Y-14868174D01*
X11150658Y-14982460D02*
X11131611Y-14991984D01*
X11131611Y-14991984D02*
X11083992Y-14991984D01*
X11083992Y-14991984D02*
X11064944Y-14982460D01*
X11064944Y-14982460D02*
X11055420Y-14963412D01*
X11055420Y-14963412D02*
X11055420Y-14944365D01*
X11055420Y-14944365D02*
X11064944Y-14925317D01*
X11064944Y-14925317D02*
X11083992Y-14915793D01*
X11083992Y-14915793D02*
X11131611Y-14915793D01*
X11131611Y-14915793D02*
X11150658Y-14906269D01*
X11217325Y-14858650D02*
X11293515Y-14858650D01*
X11245896Y-14791984D02*
X11245896Y-14963412D01*
X11245896Y-14963412D02*
X11255420Y-14982460D01*
X11255420Y-14982460D02*
X11274468Y-14991984D01*
X11274468Y-14991984D02*
X11293515Y-14991984D01*
X11436373Y-14982460D02*
X11417325Y-14991984D01*
X11417325Y-14991984D02*
X11379230Y-14991984D01*
X11379230Y-14991984D02*
X11360182Y-14982460D01*
X11360182Y-14982460D02*
X11350658Y-14963412D01*
X11350658Y-14963412D02*
X11350658Y-14887222D01*
X11350658Y-14887222D02*
X11360182Y-14868174D01*
X11360182Y-14868174D02*
X11379230Y-14858650D01*
X11379230Y-14858650D02*
X11417325Y-14858650D01*
X11417325Y-14858650D02*
X11436373Y-14868174D01*
X11436373Y-14868174D02*
X11445896Y-14887222D01*
X11445896Y-14887222D02*
X11445896Y-14906269D01*
X11445896Y-14906269D02*
X11350658Y-14925317D01*
X11617325Y-14991984D02*
X11617325Y-14791984D01*
X11617325Y-14982460D02*
X11598277Y-14991984D01*
X11598277Y-14991984D02*
X11560182Y-14991984D01*
X11560182Y-14991984D02*
X11541134Y-14982460D01*
X11541134Y-14982460D02*
X11531611Y-14972936D01*
X11531611Y-14972936D02*
X11522087Y-14953888D01*
X11522087Y-14953888D02*
X11522087Y-14896746D01*
X11522087Y-14896746D02*
X11531611Y-14877698D01*
X11531611Y-14877698D02*
X11541134Y-14868174D01*
X11541134Y-14868174D02*
X11560182Y-14858650D01*
X11560182Y-14858650D02*
X11598277Y-14858650D01*
X11598277Y-14858650D02*
X11617325Y-14868174D01*
X11693515Y-15068174D02*
X11703039Y-15058650D01*
X11703039Y-15058650D02*
X11722087Y-15030079D01*
X11722087Y-15030079D02*
X11731611Y-15011031D01*
X11731611Y-15011031D02*
X11741134Y-14982460D01*
X11741134Y-14982460D02*
X11750658Y-14934841D01*
X11750658Y-14934841D02*
X11750658Y-14896746D01*
X11750658Y-14896746D02*
X11741134Y-14849127D01*
X11741134Y-14849127D02*
X11731611Y-14820555D01*
X11731611Y-14820555D02*
X11722087Y-14801508D01*
X11722087Y-14801508D02*
X11703039Y-14772936D01*
X11703039Y-14772936D02*
X11693515Y-14763412D01*
X4908211Y-15261211D02*
X4908211Y-15119789D01*
X4766789Y-15119789D01*
X4766789Y-15261211D01*
X4908211Y-15261211D01*
X5179229Y-15081984D02*
X5303039Y-15081984D01*
X5303039Y-15081984D02*
X5236372Y-15158174D01*
X5236372Y-15158174D02*
X5264944Y-15158174D01*
X5264944Y-15158174D02*
X5283991Y-15167698D01*
X5283991Y-15167698D02*
X5293515Y-15177222D01*
X5293515Y-15177222D02*
X5303039Y-15196269D01*
X5303039Y-15196269D02*
X5303039Y-15243888D01*
X5303039Y-15243888D02*
X5293515Y-15262936D01*
X5293515Y-15262936D02*
X5283991Y-15272460D01*
X5283991Y-15272460D02*
X5264944Y-15281984D01*
X5264944Y-15281984D02*
X5207801Y-15281984D01*
X5207801Y-15281984D02*
X5188753Y-15272460D01*
X5188753Y-15272460D02*
X5179229Y-15262936D01*
X5388753Y-15262936D02*
X5398277Y-15272460D01*
X5398277Y-15272460D02*
X5388753Y-15281984D01*
X5388753Y-15281984D02*
X5379229Y-15272460D01*
X5379229Y-15272460D02*
X5388753Y-15262936D01*
X5388753Y-15262936D02*
X5388753Y-15281984D01*
X5464944Y-15081984D02*
X5588753Y-15081984D01*
X5588753Y-15081984D02*
X5522086Y-15158174D01*
X5522086Y-15158174D02*
X5550658Y-15158174D01*
X5550658Y-15158174D02*
X5569705Y-15167698D01*
X5569705Y-15167698D02*
X5579229Y-15177222D01*
X5579229Y-15177222D02*
X5588753Y-15196269D01*
X5588753Y-15196269D02*
X5588753Y-15243888D01*
X5588753Y-15243888D02*
X5579229Y-15262936D01*
X5579229Y-15262936D02*
X5569705Y-15272460D01*
X5569705Y-15272460D02*
X5550658Y-15281984D01*
X5550658Y-15281984D02*
X5493515Y-15281984D01*
X5493515Y-15281984D02*
X5474467Y-15272460D01*
X5474467Y-15272460D02*
X5464944Y-15262936D01*
X5712562Y-15081984D02*
X5731610Y-15081984D01*
X5731610Y-15081984D02*
X5750658Y-15091508D01*
X5750658Y-15091508D02*
X5760182Y-15101031D01*
X5760182Y-15101031D02*
X5769705Y-15120079D01*
X5769705Y-15120079D02*
X5779229Y-15158174D01*
X5779229Y-15158174D02*
X5779229Y-15205793D01*
X5779229Y-15205793D02*
X5769705Y-15243888D01*
X5769705Y-15243888D02*
X5760182Y-15262936D01*
X5760182Y-15262936D02*
X5750658Y-15272460D01*
X5750658Y-15272460D02*
X5731610Y-15281984D01*
X5731610Y-15281984D02*
X5712562Y-15281984D01*
X5712562Y-15281984D02*
X5693515Y-15272460D01*
X5693515Y-15272460D02*
X5683991Y-15262936D01*
X5683991Y-15262936D02*
X5674467Y-15243888D01*
X5674467Y-15243888D02*
X5664943Y-15205793D01*
X5664943Y-15205793D02*
X5664943Y-15158174D01*
X5664943Y-15158174D02*
X5674467Y-15120079D01*
X5674467Y-15120079D02*
X5683991Y-15101031D01*
X5683991Y-15101031D02*
X5693515Y-15091508D01*
X5693515Y-15091508D02*
X5712562Y-15081984D01*
X5855420Y-15101031D02*
X5864943Y-15091508D01*
X5864943Y-15091508D02*
X5883991Y-15081984D01*
X5883991Y-15081984D02*
X5931610Y-15081984D01*
X5931610Y-15081984D02*
X5950658Y-15091508D01*
X5950658Y-15091508D02*
X5960182Y-15101031D01*
X5960182Y-15101031D02*
X5969705Y-15120079D01*
X5969705Y-15120079D02*
X5969705Y-15139127D01*
X5969705Y-15139127D02*
X5960182Y-15167698D01*
X5960182Y-15167698D02*
X5845896Y-15281984D01*
X5845896Y-15281984D02*
X5969705Y-15281984D01*
X6055420Y-15281984D02*
X6055420Y-15148650D01*
X6055420Y-15167698D02*
X6064943Y-15158174D01*
X6064943Y-15158174D02*
X6083991Y-15148650D01*
X6083991Y-15148650D02*
X6112563Y-15148650D01*
X6112563Y-15148650D02*
X6131610Y-15158174D01*
X6131610Y-15158174D02*
X6141134Y-15177222D01*
X6141134Y-15177222D02*
X6141134Y-15281984D01*
X6141134Y-15177222D02*
X6150658Y-15158174D01*
X6150658Y-15158174D02*
X6169705Y-15148650D01*
X6169705Y-15148650D02*
X6198277Y-15148650D01*
X6198277Y-15148650D02*
X6217324Y-15158174D01*
X6217324Y-15158174D02*
X6226848Y-15177222D01*
X6226848Y-15177222D02*
X6226848Y-15281984D01*
X6322086Y-15281984D02*
X6322086Y-15148650D01*
X6322086Y-15167698D02*
X6331610Y-15158174D01*
X6331610Y-15158174D02*
X6350658Y-15148650D01*
X6350658Y-15148650D02*
X6379229Y-15148650D01*
X6379229Y-15148650D02*
X6398277Y-15158174D01*
X6398277Y-15158174D02*
X6407801Y-15177222D01*
X6407801Y-15177222D02*
X6407801Y-15281984D01*
X6407801Y-15177222D02*
X6417324Y-15158174D01*
X6417324Y-15158174D02*
X6436372Y-15148650D01*
X6436372Y-15148650D02*
X6464943Y-15148650D01*
X6464943Y-15148650D02*
X6483991Y-15158174D01*
X6483991Y-15158174D02*
X6493515Y-15177222D01*
X6493515Y-15177222D02*
X6493515Y-15281984D01*
X6883991Y-15072460D02*
X6712563Y-15329603D01*
X7141134Y-15081984D02*
X7160182Y-15081984D01*
X7160182Y-15081984D02*
X7179229Y-15091508D01*
X7179229Y-15091508D02*
X7188753Y-15101031D01*
X7188753Y-15101031D02*
X7198277Y-15120079D01*
X7198277Y-15120079D02*
X7207801Y-15158174D01*
X7207801Y-15158174D02*
X7207801Y-15205793D01*
X7207801Y-15205793D02*
X7198277Y-15243888D01*
X7198277Y-15243888D02*
X7188753Y-15262936D01*
X7188753Y-15262936D02*
X7179229Y-15272460D01*
X7179229Y-15272460D02*
X7160182Y-15281984D01*
X7160182Y-15281984D02*
X7141134Y-15281984D01*
X7141134Y-15281984D02*
X7122086Y-15272460D01*
X7122086Y-15272460D02*
X7112563Y-15262936D01*
X7112563Y-15262936D02*
X7103039Y-15243888D01*
X7103039Y-15243888D02*
X7093515Y-15205793D01*
X7093515Y-15205793D02*
X7093515Y-15158174D01*
X7093515Y-15158174D02*
X7103039Y-15120079D01*
X7103039Y-15120079D02*
X7112563Y-15101031D01*
X7112563Y-15101031D02*
X7122086Y-15091508D01*
X7122086Y-15091508D02*
X7141134Y-15081984D01*
X7293515Y-15262936D02*
X7303039Y-15272460D01*
X7303039Y-15272460D02*
X7293515Y-15281984D01*
X7293515Y-15281984D02*
X7283991Y-15272460D01*
X7283991Y-15272460D02*
X7293515Y-15262936D01*
X7293515Y-15262936D02*
X7293515Y-15281984D01*
X7493515Y-15281984D02*
X7379229Y-15281984D01*
X7436372Y-15281984D02*
X7436372Y-15081984D01*
X7436372Y-15081984D02*
X7417325Y-15110555D01*
X7417325Y-15110555D02*
X7398277Y-15129603D01*
X7398277Y-15129603D02*
X7379229Y-15139127D01*
X7560182Y-15081984D02*
X7683991Y-15081984D01*
X7683991Y-15081984D02*
X7617325Y-15158174D01*
X7617325Y-15158174D02*
X7645896Y-15158174D01*
X7645896Y-15158174D02*
X7664944Y-15167698D01*
X7664944Y-15167698D02*
X7674467Y-15177222D01*
X7674467Y-15177222D02*
X7683991Y-15196269D01*
X7683991Y-15196269D02*
X7683991Y-15243888D01*
X7683991Y-15243888D02*
X7674467Y-15262936D01*
X7674467Y-15262936D02*
X7664944Y-15272460D01*
X7664944Y-15272460D02*
X7645896Y-15281984D01*
X7645896Y-15281984D02*
X7588753Y-15281984D01*
X7588753Y-15281984D02*
X7569706Y-15272460D01*
X7569706Y-15272460D02*
X7560182Y-15262936D01*
X7807801Y-15081984D02*
X7826848Y-15081984D01*
X7826848Y-15081984D02*
X7845896Y-15091508D01*
X7845896Y-15091508D02*
X7855420Y-15101031D01*
X7855420Y-15101031D02*
X7864944Y-15120079D01*
X7864944Y-15120079D02*
X7874467Y-15158174D01*
X7874467Y-15158174D02*
X7874467Y-15205793D01*
X7874467Y-15205793D02*
X7864944Y-15243888D01*
X7864944Y-15243888D02*
X7855420Y-15262936D01*
X7855420Y-15262936D02*
X7845896Y-15272460D01*
X7845896Y-15272460D02*
X7826848Y-15281984D01*
X7826848Y-15281984D02*
X7807801Y-15281984D01*
X7807801Y-15281984D02*
X7788753Y-15272460D01*
X7788753Y-15272460D02*
X7779229Y-15262936D01*
X7779229Y-15262936D02*
X7769706Y-15243888D01*
X7769706Y-15243888D02*
X7760182Y-15205793D01*
X7760182Y-15205793D02*
X7760182Y-15158174D01*
X7760182Y-15158174D02*
X7769706Y-15120079D01*
X7769706Y-15120079D02*
X7779229Y-15101031D01*
X7779229Y-15101031D02*
X7788753Y-15091508D01*
X7788753Y-15091508D02*
X7807801Y-15081984D01*
X7998277Y-15081984D02*
X8017325Y-15081984D01*
X8017325Y-15081984D02*
X8036372Y-15091508D01*
X8036372Y-15091508D02*
X8045896Y-15101031D01*
X8045896Y-15101031D02*
X8055420Y-15120079D01*
X8055420Y-15120079D02*
X8064944Y-15158174D01*
X8064944Y-15158174D02*
X8064944Y-15205793D01*
X8064944Y-15205793D02*
X8055420Y-15243888D01*
X8055420Y-15243888D02*
X8045896Y-15262936D01*
X8045896Y-15262936D02*
X8036372Y-15272460D01*
X8036372Y-15272460D02*
X8017325Y-15281984D01*
X8017325Y-15281984D02*
X7998277Y-15281984D01*
X7998277Y-15281984D02*
X7979229Y-15272460D01*
X7979229Y-15272460D02*
X7969706Y-15262936D01*
X7969706Y-15262936D02*
X7960182Y-15243888D01*
X7960182Y-15243888D02*
X7950658Y-15205793D01*
X7950658Y-15205793D02*
X7950658Y-15158174D01*
X7950658Y-15158174D02*
X7960182Y-15120079D01*
X7960182Y-15120079D02*
X7969706Y-15101031D01*
X7969706Y-15101031D02*
X7979229Y-15091508D01*
X7979229Y-15091508D02*
X7998277Y-15081984D01*
X8141134Y-15081984D02*
X8141134Y-15120079D01*
X8217325Y-15081984D02*
X8217325Y-15120079D01*
X8512563Y-15358174D02*
X8503039Y-15348650D01*
X8503039Y-15348650D02*
X8483991Y-15320079D01*
X8483991Y-15320079D02*
X8474468Y-15301031D01*
X8474468Y-15301031D02*
X8464944Y-15272460D01*
X8464944Y-15272460D02*
X8455420Y-15224841D01*
X8455420Y-15224841D02*
X8455420Y-15186746D01*
X8455420Y-15186746D02*
X8464944Y-15139127D01*
X8464944Y-15139127D02*
X8474468Y-15110555D01*
X8474468Y-15110555D02*
X8483991Y-15091508D01*
X8483991Y-15091508D02*
X8503039Y-15062936D01*
X8503039Y-15062936D02*
X8512563Y-15053412D01*
X8579230Y-15101031D02*
X8588753Y-15091508D01*
X8588753Y-15091508D02*
X8607801Y-15081984D01*
X8607801Y-15081984D02*
X8655420Y-15081984D01*
X8655420Y-15081984D02*
X8674468Y-15091508D01*
X8674468Y-15091508D02*
X8683991Y-15101031D01*
X8683991Y-15101031D02*
X8693515Y-15120079D01*
X8693515Y-15120079D02*
X8693515Y-15139127D01*
X8693515Y-15139127D02*
X8683991Y-15167698D01*
X8683991Y-15167698D02*
X8569706Y-15281984D01*
X8569706Y-15281984D02*
X8693515Y-15281984D01*
X8931611Y-15281984D02*
X8931611Y-15081984D01*
X9017325Y-15281984D02*
X9017325Y-15177222D01*
X9017325Y-15177222D02*
X9007801Y-15158174D01*
X9007801Y-15158174D02*
X8988753Y-15148650D01*
X8988753Y-15148650D02*
X8960182Y-15148650D01*
X8960182Y-15148650D02*
X8941134Y-15158174D01*
X8941134Y-15158174D02*
X8931611Y-15167698D01*
X9141134Y-15281984D02*
X9122087Y-15272460D01*
X9122087Y-15272460D02*
X9112563Y-15262936D01*
X9112563Y-15262936D02*
X9103039Y-15243888D01*
X9103039Y-15243888D02*
X9103039Y-15186746D01*
X9103039Y-15186746D02*
X9112563Y-15167698D01*
X9112563Y-15167698D02*
X9122087Y-15158174D01*
X9122087Y-15158174D02*
X9141134Y-15148650D01*
X9141134Y-15148650D02*
X9169706Y-15148650D01*
X9169706Y-15148650D02*
X9188753Y-15158174D01*
X9188753Y-15158174D02*
X9198277Y-15167698D01*
X9198277Y-15167698D02*
X9207801Y-15186746D01*
X9207801Y-15186746D02*
X9207801Y-15243888D01*
X9207801Y-15243888D02*
X9198277Y-15262936D01*
X9198277Y-15262936D02*
X9188753Y-15272460D01*
X9188753Y-15272460D02*
X9169706Y-15281984D01*
X9169706Y-15281984D02*
X9141134Y-15281984D01*
X9322087Y-15281984D02*
X9303039Y-15272460D01*
X9303039Y-15272460D02*
X9293515Y-15253412D01*
X9293515Y-15253412D02*
X9293515Y-15081984D01*
X9474468Y-15272460D02*
X9455420Y-15281984D01*
X9455420Y-15281984D02*
X9417325Y-15281984D01*
X9417325Y-15281984D02*
X9398277Y-15272460D01*
X9398277Y-15272460D02*
X9388753Y-15253412D01*
X9388753Y-15253412D02*
X9388753Y-15177222D01*
X9388753Y-15177222D02*
X9398277Y-15158174D01*
X9398277Y-15158174D02*
X9417325Y-15148650D01*
X9417325Y-15148650D02*
X9455420Y-15148650D01*
X9455420Y-15148650D02*
X9474468Y-15158174D01*
X9474468Y-15158174D02*
X9483992Y-15177222D01*
X9483992Y-15177222D02*
X9483992Y-15196269D01*
X9483992Y-15196269D02*
X9388753Y-15215317D01*
X9560182Y-15272460D02*
X9579230Y-15281984D01*
X9579230Y-15281984D02*
X9617325Y-15281984D01*
X9617325Y-15281984D02*
X9636373Y-15272460D01*
X9636373Y-15272460D02*
X9645896Y-15253412D01*
X9645896Y-15253412D02*
X9645896Y-15243888D01*
X9645896Y-15243888D02*
X9636373Y-15224841D01*
X9636373Y-15224841D02*
X9617325Y-15215317D01*
X9617325Y-15215317D02*
X9588753Y-15215317D01*
X9588753Y-15215317D02*
X9569706Y-15205793D01*
X9569706Y-15205793D02*
X9560182Y-15186746D01*
X9560182Y-15186746D02*
X9560182Y-15177222D01*
X9560182Y-15177222D02*
X9569706Y-15158174D01*
X9569706Y-15158174D02*
X9588753Y-15148650D01*
X9588753Y-15148650D02*
X9617325Y-15148650D01*
X9617325Y-15148650D02*
X9636373Y-15158174D01*
X9712563Y-15358174D02*
X9722087Y-15348650D01*
X9722087Y-15348650D02*
X9741134Y-15320079D01*
X9741134Y-15320079D02*
X9750658Y-15301031D01*
X9750658Y-15301031D02*
X9760182Y-15272460D01*
X9760182Y-15272460D02*
X9769706Y-15224841D01*
X9769706Y-15224841D02*
X9769706Y-15186746D01*
X9769706Y-15186746D02*
X9760182Y-15139127D01*
X9760182Y-15139127D02*
X9750658Y-15110555D01*
X9750658Y-15110555D02*
X9741134Y-15091508D01*
X9741134Y-15091508D02*
X9722087Y-15062936D01*
X9722087Y-15062936D02*
X9712563Y-15053412D01*
X10074468Y-15358174D02*
X10064944Y-15348650D01*
X10064944Y-15348650D02*
X10045896Y-15320079D01*
X10045896Y-15320079D02*
X10036373Y-15301031D01*
X10036373Y-15301031D02*
X10026849Y-15272460D01*
X10026849Y-15272460D02*
X10017325Y-15224841D01*
X10017325Y-15224841D02*
X10017325Y-15186746D01*
X10017325Y-15186746D02*
X10026849Y-15139127D01*
X10026849Y-15139127D02*
X10036373Y-15110555D01*
X10036373Y-15110555D02*
X10045896Y-15091508D01*
X10045896Y-15091508D02*
X10064944Y-15062936D01*
X10064944Y-15062936D02*
X10074468Y-15053412D01*
X10150658Y-15148650D02*
X10150658Y-15281984D01*
X10150658Y-15167698D02*
X10160182Y-15158174D01*
X10160182Y-15158174D02*
X10179230Y-15148650D01*
X10179230Y-15148650D02*
X10207801Y-15148650D01*
X10207801Y-15148650D02*
X10226849Y-15158174D01*
X10226849Y-15158174D02*
X10236373Y-15177222D01*
X10236373Y-15177222D02*
X10236373Y-15281984D01*
X10360182Y-15281984D02*
X10341134Y-15272460D01*
X10341134Y-15272460D02*
X10331611Y-15262936D01*
X10331611Y-15262936D02*
X10322087Y-15243888D01*
X10322087Y-15243888D02*
X10322087Y-15186746D01*
X10322087Y-15186746D02*
X10331611Y-15167698D01*
X10331611Y-15167698D02*
X10341134Y-15158174D01*
X10341134Y-15158174D02*
X10360182Y-15148650D01*
X10360182Y-15148650D02*
X10388754Y-15148650D01*
X10388754Y-15148650D02*
X10407801Y-15158174D01*
X10407801Y-15158174D02*
X10417325Y-15167698D01*
X10417325Y-15167698D02*
X10426849Y-15186746D01*
X10426849Y-15186746D02*
X10426849Y-15243888D01*
X10426849Y-15243888D02*
X10417325Y-15262936D01*
X10417325Y-15262936D02*
X10407801Y-15272460D01*
X10407801Y-15272460D02*
X10388754Y-15281984D01*
X10388754Y-15281984D02*
X10360182Y-15281984D01*
X10483992Y-15148650D02*
X10560182Y-15148650D01*
X10512563Y-15081984D02*
X10512563Y-15253412D01*
X10512563Y-15253412D02*
X10522087Y-15272460D01*
X10522087Y-15272460D02*
X10541134Y-15281984D01*
X10541134Y-15281984D02*
X10560182Y-15281984D01*
X10779230Y-15148650D02*
X10779230Y-15348650D01*
X10779230Y-15158174D02*
X10798277Y-15148650D01*
X10798277Y-15148650D02*
X10836373Y-15148650D01*
X10836373Y-15148650D02*
X10855420Y-15158174D01*
X10855420Y-15158174D02*
X10864944Y-15167698D01*
X10864944Y-15167698D02*
X10874468Y-15186746D01*
X10874468Y-15186746D02*
X10874468Y-15243888D01*
X10874468Y-15243888D02*
X10864944Y-15262936D01*
X10864944Y-15262936D02*
X10855420Y-15272460D01*
X10855420Y-15272460D02*
X10836373Y-15281984D01*
X10836373Y-15281984D02*
X10798277Y-15281984D01*
X10798277Y-15281984D02*
X10779230Y-15272460D01*
X10988754Y-15281984D02*
X10969706Y-15272460D01*
X10969706Y-15272460D02*
X10960182Y-15253412D01*
X10960182Y-15253412D02*
X10960182Y-15081984D01*
X11150658Y-15281984D02*
X11150658Y-15177222D01*
X11150658Y-15177222D02*
X11141135Y-15158174D01*
X11141135Y-15158174D02*
X11122087Y-15148650D01*
X11122087Y-15148650D02*
X11083992Y-15148650D01*
X11083992Y-15148650D02*
X11064944Y-15158174D01*
X11150658Y-15272460D02*
X11131611Y-15281984D01*
X11131611Y-15281984D02*
X11083992Y-15281984D01*
X11083992Y-15281984D02*
X11064944Y-15272460D01*
X11064944Y-15272460D02*
X11055420Y-15253412D01*
X11055420Y-15253412D02*
X11055420Y-15234365D01*
X11055420Y-15234365D02*
X11064944Y-15215317D01*
X11064944Y-15215317D02*
X11083992Y-15205793D01*
X11083992Y-15205793D02*
X11131611Y-15205793D01*
X11131611Y-15205793D02*
X11150658Y-15196269D01*
X11217325Y-15148650D02*
X11293515Y-15148650D01*
X11245896Y-15081984D02*
X11245896Y-15253412D01*
X11245896Y-15253412D02*
X11255420Y-15272460D01*
X11255420Y-15272460D02*
X11274468Y-15281984D01*
X11274468Y-15281984D02*
X11293515Y-15281984D01*
X11436373Y-15272460D02*
X11417325Y-15281984D01*
X11417325Y-15281984D02*
X11379230Y-15281984D01*
X11379230Y-15281984D02*
X11360182Y-15272460D01*
X11360182Y-15272460D02*
X11350658Y-15253412D01*
X11350658Y-15253412D02*
X11350658Y-15177222D01*
X11350658Y-15177222D02*
X11360182Y-15158174D01*
X11360182Y-15158174D02*
X11379230Y-15148650D01*
X11379230Y-15148650D02*
X11417325Y-15148650D01*
X11417325Y-15148650D02*
X11436373Y-15158174D01*
X11436373Y-15158174D02*
X11445896Y-15177222D01*
X11445896Y-15177222D02*
X11445896Y-15196269D01*
X11445896Y-15196269D02*
X11350658Y-15215317D01*
X11617325Y-15281984D02*
X11617325Y-15081984D01*
X11617325Y-15272460D02*
X11598277Y-15281984D01*
X11598277Y-15281984D02*
X11560182Y-15281984D01*
X11560182Y-15281984D02*
X11541134Y-15272460D01*
X11541134Y-15272460D02*
X11531611Y-15262936D01*
X11531611Y-15262936D02*
X11522087Y-15243888D01*
X11522087Y-15243888D02*
X11522087Y-15186746D01*
X11522087Y-15186746D02*
X11531611Y-15167698D01*
X11531611Y-15167698D02*
X11541134Y-15158174D01*
X11541134Y-15158174D02*
X11560182Y-15148650D01*
X11560182Y-15148650D02*
X11598277Y-15148650D01*
X11598277Y-15148650D02*
X11617325Y-15158174D01*
X11693515Y-15358174D02*
X11703039Y-15348650D01*
X11703039Y-15348650D02*
X11722087Y-15320079D01*
X11722087Y-15320079D02*
X11731611Y-15301031D01*
X11731611Y-15301031D02*
X11741134Y-15272460D01*
X11741134Y-15272460D02*
X11750658Y-15224841D01*
X11750658Y-15224841D02*
X11750658Y-15186746D01*
X11750658Y-15186746D02*
X11741134Y-15139127D01*
X11741134Y-15139127D02*
X11731611Y-15110555D01*
X11731611Y-15110555D02*
X11722087Y-15091508D01*
X11722087Y-15091508D02*
X11703039Y-15062936D01*
X11703039Y-15062936D02*
X11693515Y-15053412D01*
M02*
