%TF.GenerationSoftware,KiCad,Pcbnew,8.0.4*%
%TF.CreationDate,2024-08-16T00:11:27-05:00*%
%TF.ProjectId,Codex43,436f6465-7834-4332-9e6b-696361645f70,rev?*%
%TF.SameCoordinates,Original*%
%TF.FileFunction,Drillmap*%
%TF.FilePolarity,Positive*%
%FSLAX45Y45*%
G04 Gerber Fmt 4.5, Leading zero omitted, Abs format (unit mm)*
G04 Created by KiCad (PCBNEW 8.0.4) date 2024-08-16 00:11:27*
%MOMM*%
%LPD*%
G01*
G04 APERTURE LIST*
%ADD10C,0.050000*%
%ADD11C,0.010000*%
%ADD12C,0.200000*%
%ADD13C,0.100000*%
%ADD14C,0.120000*%
%ADD15C,0.320000*%
G04 APERTURE END LIST*
D10*
X14100000Y-4990000D02*
G75*
G02*
X14250000Y-5140000I0J-150000D01*
G01*
X4940000Y-5140000D02*
G75*
G02*
X5090000Y-4990000I150000J0D01*
G01*
X5090000Y-13730000D02*
X14100000Y-13730000D01*
X14250000Y-13580000D02*
G75*
G02*
X14100000Y-13730000I-150000J0D01*
G01*
X4940000Y-5140000D02*
X4940000Y-13580000D01*
X5090000Y-4990000D02*
X14100000Y-4990000D01*
X14250000Y-5140000D02*
X14250000Y-13580000D01*
X5090000Y-13730000D02*
G75*
G02*
X4940000Y-13580000I0J150000D01*
G01*
D11*
X11315000Y-10409466D02*
X11335000Y-10409466D01*
X11335000Y-10461466D02*
X11315000Y-10461466D01*
X11289000Y-10435466D02*
G75*
G02*
X11315000Y-10409466I26000J0D01*
G01*
X11315000Y-10461466D02*
G75*
G02*
X11289000Y-10435466I0J26000D01*
G01*
X11335000Y-10409466D02*
G75*
G02*
X11361000Y-10435466I0J-26000D01*
G01*
X11361000Y-10435466D02*
G75*
G02*
X11335000Y-10461466I-26000J0D01*
G01*
D12*
D13*
X12950000Y-10059500D02*
X12970000Y-10079500D01*
X12970000Y-10059500D02*
X12950000Y-10079500D01*
X12950000Y-10199500D02*
X12970000Y-10219500D01*
X12970000Y-10199500D02*
X12950000Y-10219500D01*
X13020000Y-9989500D02*
X13040000Y-10009500D01*
X13040000Y-9989500D02*
X13020000Y-10009500D01*
X13020000Y-10129500D02*
X13040000Y-10149500D01*
X13040000Y-10129500D02*
X13020000Y-10149500D01*
X13020000Y-10269500D02*
X13040000Y-10289500D01*
X13040000Y-10269500D02*
X13020000Y-10289500D01*
X13090000Y-10059500D02*
X13110000Y-10079500D01*
X13110000Y-10059500D02*
X13090000Y-10079500D01*
X13090000Y-10199500D02*
X13110000Y-10219500D01*
X13110000Y-10199500D02*
X13090000Y-10219500D01*
X13160000Y-9989500D02*
X13180000Y-10009500D01*
X13180000Y-9989500D02*
X13160000Y-10009500D01*
X13160000Y-10129500D02*
X13180000Y-10149500D01*
X13180000Y-10129500D02*
X13160000Y-10149500D01*
X13160000Y-10269500D02*
X13180000Y-10289500D01*
X13180000Y-10269500D02*
X13160000Y-10289500D01*
X13230000Y-10059500D02*
X13250000Y-10079500D01*
X13250000Y-10059500D02*
X13230000Y-10079500D01*
X13230000Y-10199500D02*
X13250000Y-10219500D01*
X13250000Y-10199500D02*
X13230000Y-10219500D01*
X5535000Y-7230000D02*
G75*
G02*
X5505000Y-7230000I-15000J0D01*
G01*
X5505000Y-7230000D02*
G75*
G02*
X5535000Y-7230000I15000J0D01*
G01*
X5555000Y-10270000D02*
G75*
G02*
X5525000Y-10270000I-15000J0D01*
G01*
X5525000Y-10270000D02*
G75*
G02*
X5555000Y-10270000I15000J0D01*
G01*
X5565000Y-10570000D02*
G75*
G02*
X5535000Y-10570000I-15000J0D01*
G01*
X5535000Y-10570000D02*
G75*
G02*
X5565000Y-10570000I15000J0D01*
G01*
X5805000Y-8493000D02*
G75*
G02*
X5775000Y-8493000I-15000J0D01*
G01*
X5775000Y-8493000D02*
G75*
G02*
X5805000Y-8493000I15000J0D01*
G01*
X6025000Y-12080000D02*
G75*
G02*
X5995000Y-12080000I-15000J0D01*
G01*
X5995000Y-12080000D02*
G75*
G02*
X6025000Y-12080000I15000J0D01*
G01*
X6055000Y-11470000D02*
G75*
G02*
X6025000Y-11470000I-15000J0D01*
G01*
X6025000Y-11470000D02*
G75*
G02*
X6055000Y-11470000I15000J0D01*
G01*
X6285000Y-7480000D02*
G75*
G02*
X6255000Y-7480000I-15000J0D01*
G01*
X6255000Y-7480000D02*
G75*
G02*
X6285000Y-7480000I15000J0D01*
G01*
X6297500Y-9302500D02*
G75*
G02*
X6267500Y-9302500I-15000J0D01*
G01*
X6267500Y-9302500D02*
G75*
G02*
X6297500Y-9302500I15000J0D01*
G01*
X6535000Y-11300000D02*
G75*
G02*
X6505000Y-11300000I-15000J0D01*
G01*
X6505000Y-11300000D02*
G75*
G02*
X6535000Y-11300000I15000J0D01*
G01*
X6542500Y-12393500D02*
G75*
G02*
X6512500Y-12393500I-15000J0D01*
G01*
X6512500Y-12393500D02*
G75*
G02*
X6542500Y-12393500I15000J0D01*
G01*
X6705000Y-8493000D02*
G75*
G02*
X6675000Y-8493000I-15000J0D01*
G01*
X6675000Y-8493000D02*
G75*
G02*
X6705000Y-8493000I15000J0D01*
G01*
X6955000Y-11990000D02*
G75*
G02*
X6925000Y-11990000I-15000J0D01*
G01*
X6925000Y-11990000D02*
G75*
G02*
X6955000Y-11990000I15000J0D01*
G01*
X7072500Y-9240000D02*
G75*
G02*
X7042500Y-9240000I-15000J0D01*
G01*
X7042500Y-9240000D02*
G75*
G02*
X7072500Y-9240000I15000J0D01*
G01*
X7185000Y-7480000D02*
G75*
G02*
X7155000Y-7480000I-15000J0D01*
G01*
X7155000Y-7480000D02*
G75*
G02*
X7185000Y-7480000I15000J0D01*
G01*
X7345000Y-10560000D02*
G75*
G02*
X7315000Y-10560000I-15000J0D01*
G01*
X7315000Y-10560000D02*
G75*
G02*
X7345000Y-10560000I15000J0D01*
G01*
X7545000Y-12690000D02*
G75*
G02*
X7515000Y-12690000I-15000J0D01*
G01*
X7515000Y-12690000D02*
G75*
G02*
X7545000Y-12690000I15000J0D01*
G01*
X7565000Y-12340000D02*
G75*
G02*
X7535000Y-12340000I-15000J0D01*
G01*
X7535000Y-12340000D02*
G75*
G02*
X7565000Y-12340000I15000J0D01*
G01*
X7595000Y-11180000D02*
G75*
G02*
X7565000Y-11180000I-15000J0D01*
G01*
X7565000Y-11180000D02*
G75*
G02*
X7595000Y-11180000I15000J0D01*
G01*
X7605000Y-8493000D02*
G75*
G02*
X7575000Y-8493000I-15000J0D01*
G01*
X7575000Y-8493000D02*
G75*
G02*
X7605000Y-8493000I15000J0D01*
G01*
X8007500Y-9165000D02*
G75*
G02*
X7977500Y-9165000I-15000J0D01*
G01*
X7977500Y-9165000D02*
G75*
G02*
X8007500Y-9165000I15000J0D01*
G01*
X8095000Y-11580000D02*
G75*
G02*
X8065000Y-11580000I-15000J0D01*
G01*
X8065000Y-11580000D02*
G75*
G02*
X8095000Y-11580000I15000J0D01*
G01*
X8155000Y-12390000D02*
G75*
G02*
X8125000Y-12390000I-15000J0D01*
G01*
X8125000Y-12390000D02*
G75*
G02*
X8155000Y-12390000I15000J0D01*
G01*
X8245000Y-10550000D02*
G75*
G02*
X8215000Y-10550000I-15000J0D01*
G01*
X8215000Y-10550000D02*
G75*
G02*
X8245000Y-10550000I15000J0D01*
G01*
X8505000Y-8493000D02*
G75*
G02*
X8475000Y-8493000I-15000J0D01*
G01*
X8475000Y-8493000D02*
G75*
G02*
X8505000Y-8493000I15000J0D01*
G01*
X8515000Y-11567500D02*
G75*
G02*
X8485000Y-11567500I-15000J0D01*
G01*
X8485000Y-11567500D02*
G75*
G02*
X8515000Y-11567500I15000J0D01*
G01*
X8615000Y-11567500D02*
G75*
G02*
X8585000Y-11567500I-15000J0D01*
G01*
X8585000Y-11567500D02*
G75*
G02*
X8615000Y-11567500I15000J0D01*
G01*
X8715000Y-6370000D02*
G75*
G02*
X8685000Y-6370000I-15000J0D01*
G01*
X8685000Y-6370000D02*
G75*
G02*
X8715000Y-6370000I15000J0D01*
G01*
X8745000Y-6520000D02*
G75*
G02*
X8715000Y-6520000I-15000J0D01*
G01*
X8715000Y-6520000D02*
G75*
G02*
X8745000Y-6520000I15000J0D01*
G01*
X8817500Y-9102500D02*
G75*
G02*
X8787500Y-9102500I-15000J0D01*
G01*
X8787500Y-9102500D02*
G75*
G02*
X8817500Y-9102500I15000J0D01*
G01*
X8855000Y-5680000D02*
G75*
G02*
X8825000Y-5680000I-15000J0D01*
G01*
X8825000Y-5680000D02*
G75*
G02*
X8855000Y-5680000I15000J0D01*
G01*
X8855000Y-11520000D02*
G75*
G02*
X8825000Y-11520000I-15000J0D01*
G01*
X8825000Y-11520000D02*
G75*
G02*
X8855000Y-11520000I15000J0D01*
G01*
X8885000Y-6520000D02*
G75*
G02*
X8855000Y-6520000I-15000J0D01*
G01*
X8855000Y-6520000D02*
G75*
G02*
X8885000Y-6520000I15000J0D01*
G01*
X8935000Y-9070000D02*
G75*
G02*
X8905000Y-9070000I-15000J0D01*
G01*
X8905000Y-9070000D02*
G75*
G02*
X8935000Y-9070000I15000J0D01*
G01*
X8975000Y-8390000D02*
G75*
G02*
X8945000Y-8390000I-15000J0D01*
G01*
X8945000Y-8390000D02*
G75*
G02*
X8975000Y-8390000I15000J0D01*
G01*
X9016250Y-6521250D02*
G75*
G02*
X8986250Y-6521250I-15000J0D01*
G01*
X8986250Y-6521250D02*
G75*
G02*
X9016250Y-6521250I15000J0D01*
G01*
X9075000Y-8750000D02*
G75*
G02*
X9045000Y-8750000I-15000J0D01*
G01*
X9045000Y-8750000D02*
G75*
G02*
X9075000Y-8750000I15000J0D01*
G01*
X9145000Y-12680000D02*
G75*
G02*
X9115000Y-12680000I-15000J0D01*
G01*
X9115000Y-12680000D02*
G75*
G02*
X9145000Y-12680000I15000J0D01*
G01*
X9155000Y-7880000D02*
G75*
G02*
X9125000Y-7880000I-15000J0D01*
G01*
X9125000Y-7880000D02*
G75*
G02*
X9155000Y-7880000I15000J0D01*
G01*
X9187501Y-6520000D02*
G75*
G02*
X9157501Y-6520000I-15000J0D01*
G01*
X9157501Y-6520000D02*
G75*
G02*
X9187501Y-6520000I15000J0D01*
G01*
X9335000Y-9050000D02*
G75*
G02*
X9305000Y-9050000I-15000J0D01*
G01*
X9305000Y-9050000D02*
G75*
G02*
X9335000Y-9050000I15000J0D01*
G01*
X9357177Y-8884753D02*
G75*
G02*
X9327177Y-8884753I-15000J0D01*
G01*
X9327177Y-8884753D02*
G75*
G02*
X9357177Y-8884753I15000J0D01*
G01*
X9437754Y-8913048D02*
G75*
G02*
X9407754Y-8913048I-15000J0D01*
G01*
X9407754Y-8913048D02*
G75*
G02*
X9437754Y-8913048I15000J0D01*
G01*
X9485000Y-8240000D02*
G75*
G02*
X9455000Y-8240000I-15000J0D01*
G01*
X9455000Y-8240000D02*
G75*
G02*
X9485000Y-8240000I15000J0D01*
G01*
X9505000Y-10030000D02*
G75*
G02*
X9475000Y-10030000I-15000J0D01*
G01*
X9475000Y-10030000D02*
G75*
G02*
X9505000Y-10030000I15000J0D01*
G01*
X9522500Y-8902500D02*
G75*
G02*
X9492500Y-8902500I-15000J0D01*
G01*
X9492500Y-8902500D02*
G75*
G02*
X9522500Y-8902500I15000J0D01*
G01*
X9575000Y-12680000D02*
G75*
G02*
X9545000Y-12680000I-15000J0D01*
G01*
X9545000Y-12680000D02*
G75*
G02*
X9575000Y-12680000I15000J0D01*
G01*
X9735000Y-9900000D02*
G75*
G02*
X9705000Y-9900000I-15000J0D01*
G01*
X9705000Y-9900000D02*
G75*
G02*
X9735000Y-9900000I15000J0D01*
G01*
X9775000Y-7220000D02*
G75*
G02*
X9745000Y-7220000I-15000J0D01*
G01*
X9745000Y-7220000D02*
G75*
G02*
X9775000Y-7220000I15000J0D01*
G01*
X9875000Y-7220000D02*
G75*
G02*
X9845000Y-7220000I-15000J0D01*
G01*
X9845000Y-7220000D02*
G75*
G02*
X9875000Y-7220000I15000J0D01*
G01*
X9905000Y-9740000D02*
G75*
G02*
X9875000Y-9740000I-15000J0D01*
G01*
X9875000Y-9740000D02*
G75*
G02*
X9905000Y-9740000I15000J0D01*
G01*
X9975000Y-7220000D02*
G75*
G02*
X9945000Y-7220000I-15000J0D01*
G01*
X9945000Y-7220000D02*
G75*
G02*
X9975000Y-7220000I15000J0D01*
G01*
X10055000Y-8640000D02*
G75*
G02*
X10025000Y-8640000I-15000J0D01*
G01*
X10025000Y-8640000D02*
G75*
G02*
X10055000Y-8640000I15000J0D01*
G01*
X10145000Y-13500000D02*
G75*
G02*
X10115000Y-13500000I-15000J0D01*
G01*
X10115000Y-13500000D02*
G75*
G02*
X10145000Y-13500000I15000J0D01*
G01*
X10155000Y-8600000D02*
G75*
G02*
X10125000Y-8600000I-15000J0D01*
G01*
X10125000Y-8600000D02*
G75*
G02*
X10155000Y-8600000I15000J0D01*
G01*
X10190000Y-9575000D02*
G75*
G02*
X10160000Y-9575000I-15000J0D01*
G01*
X10160000Y-9575000D02*
G75*
G02*
X10190000Y-9575000I15000J0D01*
G01*
X10215000Y-13020000D02*
G75*
G02*
X10185000Y-13020000I-15000J0D01*
G01*
X10185000Y-13020000D02*
G75*
G02*
X10215000Y-13020000I15000J0D01*
G01*
X10255000Y-8870000D02*
G75*
G02*
X10225000Y-8870000I-15000J0D01*
G01*
X10225000Y-8870000D02*
G75*
G02*
X10255000Y-8870000I15000J0D01*
G01*
X10300000Y-13430000D02*
G75*
G02*
X10270000Y-13430000I-15000J0D01*
G01*
X10270000Y-13430000D02*
G75*
G02*
X10300000Y-13430000I15000J0D01*
G01*
X10335000Y-6860000D02*
G75*
G02*
X10305000Y-6860000I-15000J0D01*
G01*
X10305000Y-6860000D02*
G75*
G02*
X10335000Y-6860000I15000J0D01*
G01*
X10335000Y-8790000D02*
G75*
G02*
X10305000Y-8790000I-15000J0D01*
G01*
X10305000Y-8790000D02*
G75*
G02*
X10335000Y-8790000I15000J0D01*
G01*
X10335000Y-13010000D02*
G75*
G02*
X10305000Y-13010000I-15000J0D01*
G01*
X10305000Y-13010000D02*
G75*
G02*
X10335000Y-13010000I15000J0D01*
G01*
X10337500Y-9382500D02*
G75*
G02*
X10307500Y-9382500I-15000J0D01*
G01*
X10307500Y-9382500D02*
G75*
G02*
X10337500Y-9382500I15000J0D01*
G01*
X10362500Y-12090000D02*
G75*
G02*
X10332500Y-12090000I-15000J0D01*
G01*
X10332500Y-12090000D02*
G75*
G02*
X10362500Y-12090000I15000J0D01*
G01*
X10390000Y-13425000D02*
G75*
G02*
X10360000Y-13425000I-15000J0D01*
G01*
X10360000Y-13425000D02*
G75*
G02*
X10390000Y-13425000I15000J0D01*
G01*
X10400000Y-10785000D02*
G75*
G02*
X10370000Y-10785000I-15000J0D01*
G01*
X10370000Y-10785000D02*
G75*
G02*
X10400000Y-10785000I15000J0D01*
G01*
X10515000Y-12575000D02*
G75*
G02*
X10485000Y-12575000I-15000J0D01*
G01*
X10485000Y-12575000D02*
G75*
G02*
X10515000Y-12575000I15000J0D01*
G01*
X10595000Y-11755000D02*
G75*
G02*
X10565000Y-11755000I-15000J0D01*
G01*
X10565000Y-11755000D02*
G75*
G02*
X10595000Y-11755000I15000J0D01*
G01*
X10755000Y-10430000D02*
G75*
G02*
X10725000Y-10430000I-15000J0D01*
G01*
X10725000Y-10430000D02*
G75*
G02*
X10755000Y-10430000I15000J0D01*
G01*
X10975000Y-10615467D02*
G75*
G02*
X10945000Y-10615467I-15000J0D01*
G01*
X10945000Y-10615467D02*
G75*
G02*
X10975000Y-10615467I15000J0D01*
G01*
X11002912Y-9837307D02*
G75*
G02*
X10972912Y-9837307I-15000J0D01*
G01*
X10972912Y-9837307D02*
G75*
G02*
X11002912Y-9837307I15000J0D01*
G01*
X11005000Y-10240000D02*
G75*
G02*
X10975000Y-10240000I-15000J0D01*
G01*
X10975000Y-10240000D02*
G75*
G02*
X11005000Y-10240000I15000J0D01*
G01*
X11025000Y-9760000D02*
G75*
G02*
X10995000Y-9760000I-15000J0D01*
G01*
X10995000Y-9760000D02*
G75*
G02*
X11025000Y-9760000I15000J0D01*
G01*
X11025000Y-13470000D02*
G75*
G02*
X10995000Y-13470000I-15000J0D01*
G01*
X10995000Y-13470000D02*
G75*
G02*
X11025000Y-13470000I15000J0D01*
G01*
X11045000Y-13145000D02*
G75*
G02*
X11015000Y-13145000I-15000J0D01*
G01*
X11015000Y-13145000D02*
G75*
G02*
X11045000Y-13145000I15000J0D01*
G01*
X11067165Y-10062165D02*
G75*
G02*
X11037165Y-10062165I-15000J0D01*
G01*
X11037165Y-10062165D02*
G75*
G02*
X11067165Y-10062165I15000J0D01*
G01*
X11090000Y-11905000D02*
G75*
G02*
X11060000Y-11905000I-15000J0D01*
G01*
X11060000Y-11905000D02*
G75*
G02*
X11090000Y-11905000I15000J0D01*
G01*
X11165000Y-10440000D02*
G75*
G02*
X11135000Y-10440000I-15000J0D01*
G01*
X11135000Y-10440000D02*
G75*
G02*
X11165000Y-10440000I15000J0D01*
G01*
X11185000Y-13110000D02*
G75*
G02*
X11155000Y-13110000I-15000J0D01*
G01*
X11155000Y-13110000D02*
G75*
G02*
X11185000Y-13110000I15000J0D01*
G01*
X11235000Y-7460000D02*
G75*
G02*
X11205000Y-7460000I-15000J0D01*
G01*
X11205000Y-7460000D02*
G75*
G02*
X11235000Y-7460000I15000J0D01*
G01*
X11397500Y-10107500D02*
G75*
G02*
X11367500Y-10107500I-15000J0D01*
G01*
X11367500Y-10107500D02*
G75*
G02*
X11397500Y-10107500I15000J0D01*
G01*
X11485000Y-10030000D02*
G75*
G02*
X11455000Y-10030000I-15000J0D01*
G01*
X11455000Y-10030000D02*
G75*
G02*
X11485000Y-10030000I15000J0D01*
G01*
X11525000Y-11470000D02*
G75*
G02*
X11495000Y-11470000I-15000J0D01*
G01*
X11495000Y-11470000D02*
G75*
G02*
X11525000Y-11470000I15000J0D01*
G01*
X11531100Y-9964129D02*
G75*
G02*
X11501100Y-9964129I-15000J0D01*
G01*
X11501100Y-9964129D02*
G75*
G02*
X11531100Y-9964129I15000J0D01*
G01*
X11575000Y-8290000D02*
G75*
G02*
X11545000Y-8290000I-15000J0D01*
G01*
X11545000Y-8290000D02*
G75*
G02*
X11575000Y-8290000I15000J0D01*
G01*
X11584079Y-9897148D02*
G75*
G02*
X11554079Y-9897148I-15000J0D01*
G01*
X11554079Y-9897148D02*
G75*
G02*
X11584079Y-9897148I15000J0D01*
G01*
X11645000Y-9220000D02*
G75*
G02*
X11615000Y-9220000I-15000J0D01*
G01*
X11615000Y-9220000D02*
G75*
G02*
X11645000Y-9220000I15000J0D01*
G01*
X11650476Y-9840042D02*
G75*
G02*
X11620476Y-9840042I-15000J0D01*
G01*
X11620476Y-9840042D02*
G75*
G02*
X11650476Y-9840042I15000J0D01*
G01*
X11695000Y-8680000D02*
G75*
G02*
X11665000Y-8680000I-15000J0D01*
G01*
X11665000Y-8680000D02*
G75*
G02*
X11695000Y-8680000I15000J0D01*
G01*
X11700000Y-9145000D02*
G75*
G02*
X11670000Y-9145000I-15000J0D01*
G01*
X11670000Y-9145000D02*
G75*
G02*
X11700000Y-9145000I15000J0D01*
G01*
X11702500Y-9772500D02*
G75*
G02*
X11672500Y-9772500I-15000J0D01*
G01*
X11672500Y-9772500D02*
G75*
G02*
X11702500Y-9772500I15000J0D01*
G01*
X11822500Y-10695000D02*
G75*
G02*
X11792500Y-10695000I-15000J0D01*
G01*
X11792500Y-10695000D02*
G75*
G02*
X11822500Y-10695000I15000J0D01*
G01*
X11890000Y-9725000D02*
G75*
G02*
X11860000Y-9725000I-15000J0D01*
G01*
X11860000Y-9725000D02*
G75*
G02*
X11890000Y-9725000I15000J0D01*
G01*
X11915000Y-9591000D02*
G75*
G02*
X11885000Y-9591000I-15000J0D01*
G01*
X11885000Y-9591000D02*
G75*
G02*
X11915000Y-9591000I15000J0D01*
G01*
X12085000Y-7790000D02*
G75*
G02*
X12055000Y-7790000I-15000J0D01*
G01*
X12055000Y-7790000D02*
G75*
G02*
X12085000Y-7790000I15000J0D01*
G01*
X12086000Y-11127250D02*
G75*
G02*
X12056000Y-11127250I-15000J0D01*
G01*
X12056000Y-11127250D02*
G75*
G02*
X12086000Y-11127250I15000J0D01*
G01*
X12185000Y-8030000D02*
G75*
G02*
X12155000Y-8030000I-15000J0D01*
G01*
X12155000Y-8030000D02*
G75*
G02*
X12185000Y-8030000I15000J0D01*
G01*
X12265000Y-11347500D02*
G75*
G02*
X12235000Y-11347500I-15000J0D01*
G01*
X12235000Y-11347500D02*
G75*
G02*
X12265000Y-11347500I15000J0D01*
G01*
X12595000Y-8820000D02*
G75*
G02*
X12565000Y-8820000I-15000J0D01*
G01*
X12565000Y-8820000D02*
G75*
G02*
X12595000Y-8820000I15000J0D01*
G01*
X12615000Y-8070000D02*
G75*
G02*
X12585000Y-8070000I-15000J0D01*
G01*
X12585000Y-8070000D02*
G75*
G02*
X12615000Y-8070000I15000J0D01*
G01*
X12705000Y-7210000D02*
G75*
G02*
X12675000Y-7210000I-15000J0D01*
G01*
X12675000Y-7210000D02*
G75*
G02*
X12705000Y-7210000I15000J0D01*
G01*
X12815000Y-7100000D02*
G75*
G02*
X12785000Y-7100000I-15000J0D01*
G01*
X12785000Y-7100000D02*
G75*
G02*
X12815000Y-7100000I15000J0D01*
G01*
X12915000Y-7230000D02*
G75*
G02*
X12885000Y-7230000I-15000J0D01*
G01*
X12885000Y-7230000D02*
G75*
G02*
X12915000Y-7230000I15000J0D01*
G01*
X13335000Y-7880000D02*
G75*
G02*
X13305000Y-7880000I-15000J0D01*
G01*
X13305000Y-7880000D02*
G75*
G02*
X13335000Y-7880000I15000J0D01*
G01*
X13375000Y-11340000D02*
G75*
G02*
X13345000Y-11340000I-15000J0D01*
G01*
X13345000Y-11340000D02*
G75*
G02*
X13375000Y-11340000I15000J0D01*
G01*
X13505000Y-11340000D02*
G75*
G02*
X13475000Y-11340000I-15000J0D01*
G01*
X13475000Y-11340000D02*
G75*
G02*
X13505000Y-11340000I15000J0D01*
G01*
X13630000Y-9237500D02*
G75*
G02*
X13600000Y-9237500I-15000J0D01*
G01*
X13600000Y-9237500D02*
G75*
G02*
X13630000Y-9237500I15000J0D01*
G01*
X13785000Y-8320000D02*
G75*
G02*
X13755000Y-8320000I-15000J0D01*
G01*
X13755000Y-8320000D02*
G75*
G02*
X13785000Y-8320000I15000J0D01*
G01*
X8282750Y-10760250D02*
X8282750Y-10800250D01*
X8262750Y-10780250D02*
X8302750Y-10780250D01*
X8912500Y-8685000D02*
X8912500Y-8725000D01*
X8892500Y-8705000D02*
X8932500Y-8705000D01*
X9040000Y-5370000D02*
X9040000Y-5410000D01*
X9020000Y-5390000D02*
X9060000Y-5390000D01*
X9260000Y-5590000D02*
X9260000Y-5630000D01*
X9240000Y-5610000D02*
X9280000Y-5610000D01*
X9450000Y-10830000D02*
X9450000Y-10870000D01*
X9430000Y-10850000D02*
X9470000Y-10850000D01*
X9510000Y-6680000D02*
X9510000Y-6720000D01*
X9490000Y-6700000D02*
X9530000Y-6700000D01*
X9610000Y-9380000D02*
X9610000Y-9420000D01*
X9590000Y-9400000D02*
X9630000Y-9400000D01*
X9710000Y-8860000D02*
X9710000Y-8900000D01*
X9690000Y-8880000D02*
X9730000Y-8880000D01*
X9780000Y-10300000D02*
X9780000Y-10340000D01*
X9760000Y-10320000D02*
X9800000Y-10320000D01*
X10740000Y-7450000D02*
X10740000Y-7490000D01*
X10720000Y-7470000D02*
X10760000Y-7470000D01*
X11420000Y-8066700D02*
X11420000Y-8106700D01*
X11400000Y-8086700D02*
X11440000Y-8086700D01*
X11505103Y-6969235D02*
X11505103Y-7009235D01*
X11485103Y-6989235D02*
X11525103Y-6989235D01*
X11685000Y-11387500D02*
X11685000Y-11427500D01*
X11665000Y-11407500D02*
X11705000Y-11407500D01*
X12280000Y-11840000D02*
X12280000Y-11880000D01*
X12260000Y-11860000D02*
X12300000Y-11860000D01*
X12282500Y-11462500D02*
X12282500Y-11502500D01*
X12262500Y-11482500D02*
X12302500Y-11482500D01*
X12770000Y-7680000D02*
X12770000Y-7720000D01*
X12750000Y-7700000D02*
X12790000Y-7700000D01*
X12927500Y-11462500D02*
X12927500Y-11502500D01*
X12907500Y-11482500D02*
X12947500Y-11482500D01*
X13310000Y-7720000D02*
X13310000Y-7760000D01*
X13290000Y-7740000D02*
X13330000Y-7740000D01*
X13750000Y-10510000D02*
X13750000Y-10550000D01*
X13730000Y-10530000D02*
X13770000Y-10530000D01*
X5857678Y-11077678D02*
X5857678Y-11042322D01*
X5822322Y-11042322D01*
X5822322Y-11077678D01*
X5857678Y-11077678D01*
X7377678Y-11347678D02*
X7377678Y-11312322D01*
X7342322Y-11312322D01*
X7342322Y-11347678D01*
X7377678Y-11347678D01*
X10710000Y-10250466D02*
X10740000Y-10220466D01*
X10710000Y-10190466D01*
X10680000Y-10220466D01*
X10710000Y-10250466D01*
X10697500Y-10250466D02*
X10722500Y-10250466D01*
X10722500Y-10190466D02*
G75*
G02*
X10722500Y-10250466I0J-30000D01*
G01*
X10722500Y-10190466D02*
X10697500Y-10190466D01*
X10697500Y-10190466D02*
G75*
G03*
X10697500Y-10250466I0J-30000D01*
G01*
X10710000Y-10680466D02*
X10740000Y-10650466D01*
X10710000Y-10620466D01*
X10680000Y-10650466D01*
X10710000Y-10680466D01*
X10697500Y-10680466D02*
X10722500Y-10680466D01*
X10722500Y-10620466D02*
G75*
G02*
X10722500Y-10680466I0J-30000D01*
G01*
X10722500Y-10620466D02*
X10697500Y-10620466D01*
X10697500Y-10620466D02*
G75*
G03*
X10697500Y-10680466I0J-30000D01*
G01*
X11190000Y-10250466D02*
X11220000Y-10220466D01*
X11190000Y-10190466D01*
X11160000Y-10220466D01*
X11190000Y-10250466D01*
X11177500Y-10250466D02*
X11202500Y-10250466D01*
X11202500Y-10190466D02*
G75*
G02*
X11202500Y-10250466I0J-30000D01*
G01*
X11202500Y-10190466D02*
X11177500Y-10190466D01*
X11177500Y-10190466D02*
G75*
G03*
X11177500Y-10250466I0J-30000D01*
G01*
X11190000Y-10680466D02*
X11220000Y-10650466D01*
X11190000Y-10620466D01*
X11160000Y-10650466D01*
X11190000Y-10680466D01*
X11177500Y-10680466D02*
X11202500Y-10680466D01*
X11202500Y-10620466D02*
G75*
G02*
X11202500Y-10680466I0J-30000D01*
G01*
X11202500Y-10620466D02*
X11177500Y-10620466D01*
X11177500Y-10620466D02*
G75*
G03*
X11177500Y-10680466I0J-30000D01*
G01*
X10967410Y-5762010D02*
X11061390Y-5855990D01*
X11061390Y-5762010D02*
X10967410Y-5855990D01*
X11061390Y-5809000D02*
G75*
G02*
X10967410Y-5809000I-46990J0D01*
G01*
X10967410Y-5809000D02*
G75*
G02*
X11061390Y-5809000I46990J0D01*
G01*
X11069010Y-5939810D02*
X11162990Y-6033790D01*
X11162990Y-5939810D02*
X11069010Y-6033790D01*
X11162990Y-5986800D02*
G75*
G02*
X11069010Y-5986800I-46990J0D01*
G01*
X11069010Y-5986800D02*
G75*
G02*
X11162990Y-5986800I46990J0D01*
G01*
X11170610Y-5762010D02*
X11264590Y-5855990D01*
X11264590Y-5762010D02*
X11170610Y-5855990D01*
X11264590Y-5809000D02*
G75*
G02*
X11170610Y-5809000I-46990J0D01*
G01*
X11170610Y-5809000D02*
G75*
G02*
X11264590Y-5809000I46990J0D01*
G01*
X11272210Y-5939810D02*
X11366190Y-6033790D01*
X11366190Y-5939810D02*
X11272210Y-6033790D01*
X11366190Y-5986800D02*
G75*
G02*
X11272210Y-5986800I-46990J0D01*
G01*
X11272210Y-5986800D02*
G75*
G02*
X11366190Y-5986800I46990J0D01*
G01*
X11373810Y-5762010D02*
X11467790Y-5855990D01*
X11467790Y-5762010D02*
X11373810Y-5855990D01*
X11467790Y-5809000D02*
G75*
G02*
X11373810Y-5809000I-46990J0D01*
G01*
X11373810Y-5809000D02*
G75*
G02*
X11467790Y-5809000I46990J0D01*
G01*
X11475410Y-5939810D02*
X11569390Y-6033790D01*
X11569390Y-5939810D02*
X11475410Y-6033790D01*
X11569390Y-5986800D02*
G75*
G02*
X11475410Y-5986800I-46990J0D01*
G01*
X11475410Y-5986800D02*
G75*
G02*
X11569390Y-5986800I46990J0D01*
G01*
X11577010Y-5762010D02*
X11670990Y-5855990D01*
X11670990Y-5762010D02*
X11577010Y-5855990D01*
X11670990Y-5809000D02*
G75*
G02*
X11577010Y-5809000I-46990J0D01*
G01*
X11577010Y-5809000D02*
G75*
G02*
X11670990Y-5809000I46990J0D01*
G01*
X11678610Y-5939810D02*
X11772590Y-6033790D01*
X11772590Y-5939810D02*
X11678610Y-6033790D01*
X11772590Y-5986800D02*
G75*
G02*
X11678610Y-5986800I-46990J0D01*
G01*
X11678610Y-5986800D02*
G75*
G02*
X11772590Y-5986800I46990J0D01*
G01*
X9420000Y-5150000D02*
X9520000Y-5250000D01*
X9520000Y-5150000D02*
X9420000Y-5250000D01*
X9470000Y-5150000D02*
X9470000Y-5250000D01*
X9420000Y-5200000D02*
X9520000Y-5200000D01*
X9420000Y-5404000D02*
X9520000Y-5504000D01*
X9520000Y-5404000D02*
X9420000Y-5504000D01*
X9470000Y-5404000D02*
X9470000Y-5504000D01*
X9420000Y-5454000D02*
X9520000Y-5454000D01*
X9800000Y-5150000D02*
X9900000Y-5250000D01*
X9900000Y-5150000D02*
X9800000Y-5250000D01*
X9850000Y-5150000D02*
X9850000Y-5250000D01*
X9800000Y-5200000D02*
X9900000Y-5200000D01*
X9800000Y-5404000D02*
X9900000Y-5504000D01*
X9900000Y-5404000D02*
X9800000Y-5504000D01*
X9850000Y-5404000D02*
X9850000Y-5504000D01*
X9800000Y-5454000D02*
X9900000Y-5454000D01*
X9800000Y-5658000D02*
X9900000Y-5758000D01*
X9900000Y-5658000D02*
X9800000Y-5758000D01*
X9850000Y-5658000D02*
X9850000Y-5758000D01*
X9800000Y-5708000D02*
X9900000Y-5708000D01*
X10054000Y-5150000D02*
X10154000Y-5250000D01*
X10154000Y-5150000D02*
X10054000Y-5250000D01*
X10104000Y-5150000D02*
X10104000Y-5250000D01*
X10054000Y-5200000D02*
X10154000Y-5200000D01*
X10054000Y-5404000D02*
X10154000Y-5504000D01*
X10154000Y-5404000D02*
X10054000Y-5504000D01*
X10104000Y-5404000D02*
X10104000Y-5504000D01*
X10054000Y-5454000D02*
X10154000Y-5454000D01*
X10054000Y-5658000D02*
X10154000Y-5758000D01*
X10154000Y-5658000D02*
X10054000Y-5758000D01*
X10104000Y-5658000D02*
X10104000Y-5758000D01*
X10054000Y-5708000D02*
X10154000Y-5708000D01*
X10308000Y-5150000D02*
X10408000Y-5250000D01*
X10408000Y-5150000D02*
X10308000Y-5250000D01*
X10358000Y-5150000D02*
X10358000Y-5250000D01*
X10308000Y-5200000D02*
X10408000Y-5200000D01*
X10308000Y-5404000D02*
X10408000Y-5504000D01*
X10408000Y-5404000D02*
X10308000Y-5504000D01*
X10358000Y-5404000D02*
X10358000Y-5504000D01*
X10308000Y-5454000D02*
X10408000Y-5454000D01*
X10308000Y-5658000D02*
X10408000Y-5758000D01*
X10408000Y-5658000D02*
X10308000Y-5758000D01*
X10358000Y-5658000D02*
X10358000Y-5758000D01*
X10308000Y-5708000D02*
X10408000Y-5708000D01*
X10520000Y-7926000D02*
X10620000Y-8026000D01*
X10620000Y-7926000D02*
X10520000Y-8026000D01*
X10570000Y-7926000D02*
X10570000Y-8026000D01*
X10520000Y-7976000D02*
X10620000Y-7976000D01*
X10520000Y-8180000D02*
X10620000Y-8280000D01*
X10620000Y-8180000D02*
X10520000Y-8280000D01*
X10570000Y-8180000D02*
X10570000Y-8280000D01*
X10520000Y-8230000D02*
X10620000Y-8230000D01*
X10520000Y-8434000D02*
X10620000Y-8534000D01*
X10620000Y-8434000D02*
X10520000Y-8534000D01*
X10570000Y-8434000D02*
X10570000Y-8534000D01*
X10520000Y-8484000D02*
X10620000Y-8484000D01*
X10520000Y-8688000D02*
X10620000Y-8788000D01*
X10620000Y-8688000D02*
X10520000Y-8788000D01*
X10570000Y-8688000D02*
X10570000Y-8788000D01*
X10520000Y-8738000D02*
X10620000Y-8738000D01*
X13510000Y-11698000D02*
X13610000Y-11798000D01*
X13610000Y-11698000D02*
X13510000Y-11798000D01*
X13560000Y-11698000D02*
X13560000Y-11798000D01*
X13510000Y-11748000D02*
X13610000Y-11748000D01*
X13510000Y-11952000D02*
X13610000Y-12052000D01*
X13610000Y-11952000D02*
X13510000Y-12052000D01*
X13560000Y-11952000D02*
X13560000Y-12052000D01*
X13510000Y-12002000D02*
X13610000Y-12002000D01*
X13510000Y-12206000D02*
X13610000Y-12306000D01*
X13610000Y-12206000D02*
X13510000Y-12306000D01*
X13560000Y-12206000D02*
X13560000Y-12306000D01*
X13510000Y-12256000D02*
X13610000Y-12256000D01*
X13510000Y-12460000D02*
X13610000Y-12560000D01*
X13610000Y-12460000D02*
X13510000Y-12560000D01*
X13560000Y-12460000D02*
X13560000Y-12560000D01*
X13510000Y-12510000D02*
X13610000Y-12510000D01*
D14*
X6400000Y-5370000D02*
X6520000Y-5490000D01*
X6520000Y-5370000D02*
X6400000Y-5490000D01*
X6502427Y-5472427D02*
X6502427Y-5387573D01*
X6417573Y-5387573D01*
X6417573Y-5472427D01*
X6502427Y-5472427D01*
X6408750Y-13205000D02*
X6528750Y-13325000D01*
X6528750Y-13205000D02*
X6408750Y-13325000D01*
X6511177Y-13307427D02*
X6511177Y-13222573D01*
X6426323Y-13222573D01*
X6426323Y-13307427D01*
X6511177Y-13307427D01*
X6900000Y-5370000D02*
X7020000Y-5490000D01*
X7020000Y-5370000D02*
X6900000Y-5490000D01*
X7002427Y-5472427D02*
X7002427Y-5387573D01*
X6917573Y-5387573D01*
X6917573Y-5472427D01*
X7002427Y-5472427D01*
X6908750Y-13205000D02*
X7028750Y-13325000D01*
X7028750Y-13205000D02*
X6908750Y-13325000D01*
X7011177Y-13307427D02*
X7011177Y-13222573D01*
X6926323Y-13222573D01*
X6926323Y-13307427D01*
X7011177Y-13307427D01*
X7400000Y-5370000D02*
X7520000Y-5490000D01*
X7520000Y-5370000D02*
X7400000Y-5490000D01*
X7502427Y-5472427D02*
X7502427Y-5387573D01*
X7417573Y-5387573D01*
X7417573Y-5472427D01*
X7502427Y-5472427D01*
X7525000Y-13205000D02*
X7645000Y-13325000D01*
X7645000Y-13205000D02*
X7525000Y-13325000D01*
X7627427Y-13307427D02*
X7627427Y-13222573D01*
X7542573Y-13222573D01*
X7542573Y-13307427D01*
X7627427Y-13307427D01*
X7900000Y-5370000D02*
X8020000Y-5490000D01*
X8020000Y-5370000D02*
X7900000Y-5490000D01*
X8002427Y-5472427D02*
X8002427Y-5387573D01*
X7917573Y-5387573D01*
X7917573Y-5472427D01*
X8002427Y-5472427D01*
X8025000Y-13205000D02*
X8145000Y-13325000D01*
X8145000Y-13205000D02*
X8025000Y-13325000D01*
X8127427Y-13307427D02*
X8127427Y-13222573D01*
X8042573Y-13222573D01*
X8042573Y-13307427D01*
X8127427Y-13307427D01*
X8400000Y-5370000D02*
X8520000Y-5490000D01*
X8520000Y-5370000D02*
X8400000Y-5490000D01*
X8502427Y-5472427D02*
X8502427Y-5387573D01*
X8417573Y-5387573D01*
X8417573Y-5472427D01*
X8502427Y-5472427D01*
X8525000Y-13205000D02*
X8645000Y-13325000D01*
X8645000Y-13205000D02*
X8525000Y-13325000D01*
X8627427Y-13307427D02*
X8627427Y-13222573D01*
X8542573Y-13222573D01*
X8542573Y-13307427D01*
X8627427Y-13307427D01*
X9025000Y-13205000D02*
X9145000Y-13325000D01*
X9145000Y-13205000D02*
X9025000Y-13325000D01*
X9127427Y-13307427D02*
X9127427Y-13222573D01*
X9042573Y-13222573D01*
X9042573Y-13307427D01*
X9127427Y-13307427D01*
X9525000Y-13205000D02*
X9645000Y-13325000D01*
X9645000Y-13205000D02*
X9525000Y-13325000D01*
X9627427Y-13307427D02*
X9627427Y-13222573D01*
X9542573Y-13222573D01*
X9542573Y-13307427D01*
X9627427Y-13307427D01*
X10025000Y-13205000D02*
X10145000Y-13325000D01*
X10145000Y-13205000D02*
X10025000Y-13325000D01*
X10127427Y-13307427D02*
X10127427Y-13222573D01*
X10042573Y-13222573D01*
X10042573Y-13307427D01*
X10127427Y-13307427D01*
D15*
X5185000Y-5200000D02*
X5505000Y-5520000D01*
X5505000Y-5200000D02*
X5185000Y-5520000D01*
X5345000Y-5520000D02*
X5505000Y-5360000D01*
X5345000Y-5200000D01*
X5185000Y-5360000D01*
X5345000Y-5520000D01*
X5185000Y-13200000D02*
X5505000Y-13520000D01*
X5505000Y-13200000D02*
X5185000Y-13520000D01*
X5345000Y-13520000D02*
X5505000Y-13360000D01*
X5345000Y-13200000D01*
X5185000Y-13360000D01*
X5345000Y-13520000D01*
X13685000Y-5200000D02*
X14005000Y-5520000D01*
X14005000Y-5200000D02*
X13685000Y-5520000D01*
X13845000Y-5520000D02*
X14005000Y-5360000D01*
X13845000Y-5200000D01*
X13685000Y-5360000D01*
X13845000Y-5520000D01*
X13685000Y-13200000D02*
X14005000Y-13520000D01*
X14005000Y-13200000D02*
X13685000Y-13520000D01*
X13845000Y-13520000D02*
X14005000Y-13360000D01*
X13845000Y-13200000D01*
X13685000Y-13360000D01*
X13845000Y-13520000D01*
D12*
X5198277Y-14043984D02*
X5198277Y-13843984D01*
X5198277Y-13843984D02*
X5245896Y-13843984D01*
X5245896Y-13843984D02*
X5274467Y-13853508D01*
X5274467Y-13853508D02*
X5293515Y-13872555D01*
X5293515Y-13872555D02*
X5303039Y-13891603D01*
X5303039Y-13891603D02*
X5312563Y-13929698D01*
X5312563Y-13929698D02*
X5312563Y-13958269D01*
X5312563Y-13958269D02*
X5303039Y-13996365D01*
X5303039Y-13996365D02*
X5293515Y-14015412D01*
X5293515Y-14015412D02*
X5274467Y-14034460D01*
X5274467Y-14034460D02*
X5245896Y-14043984D01*
X5245896Y-14043984D02*
X5198277Y-14043984D01*
X5398277Y-14043984D02*
X5398277Y-13910650D01*
X5398277Y-13948746D02*
X5407801Y-13929698D01*
X5407801Y-13929698D02*
X5417324Y-13920174D01*
X5417324Y-13920174D02*
X5436372Y-13910650D01*
X5436372Y-13910650D02*
X5455420Y-13910650D01*
X5522086Y-14043984D02*
X5522086Y-13910650D01*
X5522086Y-13843984D02*
X5512563Y-13853508D01*
X5512563Y-13853508D02*
X5522086Y-13863031D01*
X5522086Y-13863031D02*
X5531610Y-13853508D01*
X5531610Y-13853508D02*
X5522086Y-13843984D01*
X5522086Y-13843984D02*
X5522086Y-13863031D01*
X5645896Y-14043984D02*
X5626848Y-14034460D01*
X5626848Y-14034460D02*
X5617324Y-14015412D01*
X5617324Y-14015412D02*
X5617324Y-13843984D01*
X5750658Y-14043984D02*
X5731610Y-14034460D01*
X5731610Y-14034460D02*
X5722086Y-14015412D01*
X5722086Y-14015412D02*
X5722086Y-13843984D01*
X5979229Y-14043984D02*
X5979229Y-13843984D01*
X5979229Y-13843984D02*
X6045896Y-13986841D01*
X6045896Y-13986841D02*
X6112562Y-13843984D01*
X6112562Y-13843984D02*
X6112562Y-14043984D01*
X6293515Y-14043984D02*
X6293515Y-13939222D01*
X6293515Y-13939222D02*
X6283991Y-13920174D01*
X6283991Y-13920174D02*
X6264943Y-13910650D01*
X6264943Y-13910650D02*
X6226848Y-13910650D01*
X6226848Y-13910650D02*
X6207801Y-13920174D01*
X6293515Y-14034460D02*
X6274467Y-14043984D01*
X6274467Y-14043984D02*
X6226848Y-14043984D01*
X6226848Y-14043984D02*
X6207801Y-14034460D01*
X6207801Y-14034460D02*
X6198277Y-14015412D01*
X6198277Y-14015412D02*
X6198277Y-13996365D01*
X6198277Y-13996365D02*
X6207801Y-13977317D01*
X6207801Y-13977317D02*
X6226848Y-13967793D01*
X6226848Y-13967793D02*
X6274467Y-13967793D01*
X6274467Y-13967793D02*
X6293515Y-13958269D01*
X6388753Y-13910650D02*
X6388753Y-14110650D01*
X6388753Y-13920174D02*
X6407801Y-13910650D01*
X6407801Y-13910650D02*
X6445896Y-13910650D01*
X6445896Y-13910650D02*
X6464943Y-13920174D01*
X6464943Y-13920174D02*
X6474467Y-13929698D01*
X6474467Y-13929698D02*
X6483991Y-13948746D01*
X6483991Y-13948746D02*
X6483991Y-14005888D01*
X6483991Y-14005888D02*
X6474467Y-14024936D01*
X6474467Y-14024936D02*
X6464943Y-14034460D01*
X6464943Y-14034460D02*
X6445896Y-14043984D01*
X6445896Y-14043984D02*
X6407801Y-14043984D01*
X6407801Y-14043984D02*
X6388753Y-14034460D01*
X6569705Y-14024936D02*
X6579229Y-14034460D01*
X6579229Y-14034460D02*
X6569705Y-14043984D01*
X6569705Y-14043984D02*
X6560182Y-14034460D01*
X6560182Y-14034460D02*
X6569705Y-14024936D01*
X6569705Y-14024936D02*
X6569705Y-14043984D01*
X6569705Y-13920174D02*
X6579229Y-13929698D01*
X6579229Y-13929698D02*
X6569705Y-13939222D01*
X6569705Y-13939222D02*
X6560182Y-13929698D01*
X6560182Y-13929698D02*
X6569705Y-13920174D01*
X6569705Y-13920174D02*
X6569705Y-13939222D01*
D13*
X4917500Y-14362500D02*
X4937500Y-14382500D01*
X4937500Y-14362500D02*
X4917500Y-14382500D01*
D12*
X5236372Y-14263984D02*
X5255420Y-14263984D01*
X5255420Y-14263984D02*
X5274467Y-14273508D01*
X5274467Y-14273508D02*
X5283991Y-14283031D01*
X5283991Y-14283031D02*
X5293515Y-14302079D01*
X5293515Y-14302079D02*
X5303039Y-14340174D01*
X5303039Y-14340174D02*
X5303039Y-14387793D01*
X5303039Y-14387793D02*
X5293515Y-14425888D01*
X5293515Y-14425888D02*
X5283991Y-14444936D01*
X5283991Y-14444936D02*
X5274467Y-14454460D01*
X5274467Y-14454460D02*
X5255420Y-14463984D01*
X5255420Y-14463984D02*
X5236372Y-14463984D01*
X5236372Y-14463984D02*
X5217324Y-14454460D01*
X5217324Y-14454460D02*
X5207801Y-14444936D01*
X5207801Y-14444936D02*
X5198277Y-14425888D01*
X5198277Y-14425888D02*
X5188753Y-14387793D01*
X5188753Y-14387793D02*
X5188753Y-14340174D01*
X5188753Y-14340174D02*
X5198277Y-14302079D01*
X5198277Y-14302079D02*
X5207801Y-14283031D01*
X5207801Y-14283031D02*
X5217324Y-14273508D01*
X5217324Y-14273508D02*
X5236372Y-14263984D01*
X5388753Y-14444936D02*
X5398277Y-14454460D01*
X5398277Y-14454460D02*
X5388753Y-14463984D01*
X5388753Y-14463984D02*
X5379229Y-14454460D01*
X5379229Y-14454460D02*
X5388753Y-14444936D01*
X5388753Y-14444936D02*
X5388753Y-14463984D01*
X5474467Y-14283031D02*
X5483991Y-14273508D01*
X5483991Y-14273508D02*
X5503039Y-14263984D01*
X5503039Y-14263984D02*
X5550658Y-14263984D01*
X5550658Y-14263984D02*
X5569705Y-14273508D01*
X5569705Y-14273508D02*
X5579229Y-14283031D01*
X5579229Y-14283031D02*
X5588753Y-14302079D01*
X5588753Y-14302079D02*
X5588753Y-14321127D01*
X5588753Y-14321127D02*
X5579229Y-14349698D01*
X5579229Y-14349698D02*
X5464944Y-14463984D01*
X5464944Y-14463984D02*
X5588753Y-14463984D01*
X5712562Y-14263984D02*
X5731610Y-14263984D01*
X5731610Y-14263984D02*
X5750658Y-14273508D01*
X5750658Y-14273508D02*
X5760182Y-14283031D01*
X5760182Y-14283031D02*
X5769705Y-14302079D01*
X5769705Y-14302079D02*
X5779229Y-14340174D01*
X5779229Y-14340174D02*
X5779229Y-14387793D01*
X5779229Y-14387793D02*
X5769705Y-14425888D01*
X5769705Y-14425888D02*
X5760182Y-14444936D01*
X5760182Y-14444936D02*
X5750658Y-14454460D01*
X5750658Y-14454460D02*
X5731610Y-14463984D01*
X5731610Y-14463984D02*
X5712562Y-14463984D01*
X5712562Y-14463984D02*
X5693515Y-14454460D01*
X5693515Y-14454460D02*
X5683991Y-14444936D01*
X5683991Y-14444936D02*
X5674467Y-14425888D01*
X5674467Y-14425888D02*
X5664943Y-14387793D01*
X5664943Y-14387793D02*
X5664943Y-14340174D01*
X5664943Y-14340174D02*
X5674467Y-14302079D01*
X5674467Y-14302079D02*
X5683991Y-14283031D01*
X5683991Y-14283031D02*
X5693515Y-14273508D01*
X5693515Y-14273508D02*
X5712562Y-14263984D01*
X5903039Y-14263984D02*
X5922086Y-14263984D01*
X5922086Y-14263984D02*
X5941134Y-14273508D01*
X5941134Y-14273508D02*
X5950658Y-14283031D01*
X5950658Y-14283031D02*
X5960182Y-14302079D01*
X5960182Y-14302079D02*
X5969705Y-14340174D01*
X5969705Y-14340174D02*
X5969705Y-14387793D01*
X5969705Y-14387793D02*
X5960182Y-14425888D01*
X5960182Y-14425888D02*
X5950658Y-14444936D01*
X5950658Y-14444936D02*
X5941134Y-14454460D01*
X5941134Y-14454460D02*
X5922086Y-14463984D01*
X5922086Y-14463984D02*
X5903039Y-14463984D01*
X5903039Y-14463984D02*
X5883991Y-14454460D01*
X5883991Y-14454460D02*
X5874467Y-14444936D01*
X5874467Y-14444936D02*
X5864943Y-14425888D01*
X5864943Y-14425888D02*
X5855420Y-14387793D01*
X5855420Y-14387793D02*
X5855420Y-14340174D01*
X5855420Y-14340174D02*
X5864943Y-14302079D01*
X5864943Y-14302079D02*
X5874467Y-14283031D01*
X5874467Y-14283031D02*
X5883991Y-14273508D01*
X5883991Y-14273508D02*
X5903039Y-14263984D01*
X6055420Y-14463984D02*
X6055420Y-14330650D01*
X6055420Y-14349698D02*
X6064943Y-14340174D01*
X6064943Y-14340174D02*
X6083991Y-14330650D01*
X6083991Y-14330650D02*
X6112563Y-14330650D01*
X6112563Y-14330650D02*
X6131610Y-14340174D01*
X6131610Y-14340174D02*
X6141134Y-14359222D01*
X6141134Y-14359222D02*
X6141134Y-14463984D01*
X6141134Y-14359222D02*
X6150658Y-14340174D01*
X6150658Y-14340174D02*
X6169705Y-14330650D01*
X6169705Y-14330650D02*
X6198277Y-14330650D01*
X6198277Y-14330650D02*
X6217324Y-14340174D01*
X6217324Y-14340174D02*
X6226848Y-14359222D01*
X6226848Y-14359222D02*
X6226848Y-14463984D01*
X6322086Y-14463984D02*
X6322086Y-14330650D01*
X6322086Y-14349698D02*
X6331610Y-14340174D01*
X6331610Y-14340174D02*
X6350658Y-14330650D01*
X6350658Y-14330650D02*
X6379229Y-14330650D01*
X6379229Y-14330650D02*
X6398277Y-14340174D01*
X6398277Y-14340174D02*
X6407801Y-14359222D01*
X6407801Y-14359222D02*
X6407801Y-14463984D01*
X6407801Y-14359222D02*
X6417324Y-14340174D01*
X6417324Y-14340174D02*
X6436372Y-14330650D01*
X6436372Y-14330650D02*
X6464943Y-14330650D01*
X6464943Y-14330650D02*
X6483991Y-14340174D01*
X6483991Y-14340174D02*
X6493515Y-14359222D01*
X6493515Y-14359222D02*
X6493515Y-14463984D01*
X6883991Y-14254460D02*
X6712563Y-14511603D01*
X7141134Y-14263984D02*
X7160182Y-14263984D01*
X7160182Y-14263984D02*
X7179229Y-14273508D01*
X7179229Y-14273508D02*
X7188753Y-14283031D01*
X7188753Y-14283031D02*
X7198277Y-14302079D01*
X7198277Y-14302079D02*
X7207801Y-14340174D01*
X7207801Y-14340174D02*
X7207801Y-14387793D01*
X7207801Y-14387793D02*
X7198277Y-14425888D01*
X7198277Y-14425888D02*
X7188753Y-14444936D01*
X7188753Y-14444936D02*
X7179229Y-14454460D01*
X7179229Y-14454460D02*
X7160182Y-14463984D01*
X7160182Y-14463984D02*
X7141134Y-14463984D01*
X7141134Y-14463984D02*
X7122086Y-14454460D01*
X7122086Y-14454460D02*
X7112563Y-14444936D01*
X7112563Y-14444936D02*
X7103039Y-14425888D01*
X7103039Y-14425888D02*
X7093515Y-14387793D01*
X7093515Y-14387793D02*
X7093515Y-14340174D01*
X7093515Y-14340174D02*
X7103039Y-14302079D01*
X7103039Y-14302079D02*
X7112563Y-14283031D01*
X7112563Y-14283031D02*
X7122086Y-14273508D01*
X7122086Y-14273508D02*
X7141134Y-14263984D01*
X7293515Y-14444936D02*
X7303039Y-14454460D01*
X7303039Y-14454460D02*
X7293515Y-14463984D01*
X7293515Y-14463984D02*
X7283991Y-14454460D01*
X7283991Y-14454460D02*
X7293515Y-14444936D01*
X7293515Y-14444936D02*
X7293515Y-14463984D01*
X7426848Y-14263984D02*
X7445896Y-14263984D01*
X7445896Y-14263984D02*
X7464944Y-14273508D01*
X7464944Y-14273508D02*
X7474467Y-14283031D01*
X7474467Y-14283031D02*
X7483991Y-14302079D01*
X7483991Y-14302079D02*
X7493515Y-14340174D01*
X7493515Y-14340174D02*
X7493515Y-14387793D01*
X7493515Y-14387793D02*
X7483991Y-14425888D01*
X7483991Y-14425888D02*
X7474467Y-14444936D01*
X7474467Y-14444936D02*
X7464944Y-14454460D01*
X7464944Y-14454460D02*
X7445896Y-14463984D01*
X7445896Y-14463984D02*
X7426848Y-14463984D01*
X7426848Y-14463984D02*
X7407801Y-14454460D01*
X7407801Y-14454460D02*
X7398277Y-14444936D01*
X7398277Y-14444936D02*
X7388753Y-14425888D01*
X7388753Y-14425888D02*
X7379229Y-14387793D01*
X7379229Y-14387793D02*
X7379229Y-14340174D01*
X7379229Y-14340174D02*
X7388753Y-14302079D01*
X7388753Y-14302079D02*
X7398277Y-14283031D01*
X7398277Y-14283031D02*
X7407801Y-14273508D01*
X7407801Y-14273508D02*
X7426848Y-14263984D01*
X7617325Y-14263984D02*
X7636372Y-14263984D01*
X7636372Y-14263984D02*
X7655420Y-14273508D01*
X7655420Y-14273508D02*
X7664944Y-14283031D01*
X7664944Y-14283031D02*
X7674467Y-14302079D01*
X7674467Y-14302079D02*
X7683991Y-14340174D01*
X7683991Y-14340174D02*
X7683991Y-14387793D01*
X7683991Y-14387793D02*
X7674467Y-14425888D01*
X7674467Y-14425888D02*
X7664944Y-14444936D01*
X7664944Y-14444936D02*
X7655420Y-14454460D01*
X7655420Y-14454460D02*
X7636372Y-14463984D01*
X7636372Y-14463984D02*
X7617325Y-14463984D01*
X7617325Y-14463984D02*
X7598277Y-14454460D01*
X7598277Y-14454460D02*
X7588753Y-14444936D01*
X7588753Y-14444936D02*
X7579229Y-14425888D01*
X7579229Y-14425888D02*
X7569706Y-14387793D01*
X7569706Y-14387793D02*
X7569706Y-14340174D01*
X7569706Y-14340174D02*
X7579229Y-14302079D01*
X7579229Y-14302079D02*
X7588753Y-14283031D01*
X7588753Y-14283031D02*
X7598277Y-14273508D01*
X7598277Y-14273508D02*
X7617325Y-14263984D01*
X7750658Y-14263984D02*
X7883991Y-14263984D01*
X7883991Y-14263984D02*
X7798277Y-14463984D01*
X7969706Y-14463984D02*
X8007801Y-14463984D01*
X8007801Y-14463984D02*
X8026848Y-14454460D01*
X8026848Y-14454460D02*
X8036372Y-14444936D01*
X8036372Y-14444936D02*
X8055420Y-14416365D01*
X8055420Y-14416365D02*
X8064944Y-14378269D01*
X8064944Y-14378269D02*
X8064944Y-14302079D01*
X8064944Y-14302079D02*
X8055420Y-14283031D01*
X8055420Y-14283031D02*
X8045896Y-14273508D01*
X8045896Y-14273508D02*
X8026848Y-14263984D01*
X8026848Y-14263984D02*
X7988753Y-14263984D01*
X7988753Y-14263984D02*
X7969706Y-14273508D01*
X7969706Y-14273508D02*
X7960182Y-14283031D01*
X7960182Y-14283031D02*
X7950658Y-14302079D01*
X7950658Y-14302079D02*
X7950658Y-14349698D01*
X7950658Y-14349698D02*
X7960182Y-14368746D01*
X7960182Y-14368746D02*
X7969706Y-14378269D01*
X7969706Y-14378269D02*
X7988753Y-14387793D01*
X7988753Y-14387793D02*
X8026848Y-14387793D01*
X8026848Y-14387793D02*
X8045896Y-14378269D01*
X8045896Y-14378269D02*
X8055420Y-14368746D01*
X8055420Y-14368746D02*
X8064944Y-14349698D01*
X8141134Y-14263984D02*
X8141134Y-14302079D01*
X8217325Y-14263984D02*
X8217325Y-14302079D01*
X8512563Y-14540174D02*
X8503039Y-14530650D01*
X8503039Y-14530650D02*
X8483991Y-14502079D01*
X8483991Y-14502079D02*
X8474468Y-14483031D01*
X8474468Y-14483031D02*
X8464944Y-14454460D01*
X8464944Y-14454460D02*
X8455420Y-14406841D01*
X8455420Y-14406841D02*
X8455420Y-14368746D01*
X8455420Y-14368746D02*
X8464944Y-14321127D01*
X8464944Y-14321127D02*
X8474468Y-14292555D01*
X8474468Y-14292555D02*
X8483991Y-14273508D01*
X8483991Y-14273508D02*
X8503039Y-14244936D01*
X8503039Y-14244936D02*
X8512563Y-14235412D01*
X8693515Y-14463984D02*
X8579230Y-14463984D01*
X8636372Y-14463984D02*
X8636372Y-14263984D01*
X8636372Y-14263984D02*
X8617325Y-14292555D01*
X8617325Y-14292555D02*
X8598277Y-14311603D01*
X8598277Y-14311603D02*
X8579230Y-14321127D01*
X8769706Y-14283031D02*
X8779230Y-14273508D01*
X8779230Y-14273508D02*
X8798277Y-14263984D01*
X8798277Y-14263984D02*
X8845896Y-14263984D01*
X8845896Y-14263984D02*
X8864944Y-14273508D01*
X8864944Y-14273508D02*
X8874468Y-14283031D01*
X8874468Y-14283031D02*
X8883991Y-14302079D01*
X8883991Y-14302079D02*
X8883991Y-14321127D01*
X8883991Y-14321127D02*
X8874468Y-14349698D01*
X8874468Y-14349698D02*
X8760182Y-14463984D01*
X8760182Y-14463984D02*
X8883991Y-14463984D01*
X9122087Y-14463984D02*
X9122087Y-14263984D01*
X9207801Y-14463984D02*
X9207801Y-14359222D01*
X9207801Y-14359222D02*
X9198277Y-14340174D01*
X9198277Y-14340174D02*
X9179230Y-14330650D01*
X9179230Y-14330650D02*
X9150658Y-14330650D01*
X9150658Y-14330650D02*
X9131611Y-14340174D01*
X9131611Y-14340174D02*
X9122087Y-14349698D01*
X9331611Y-14463984D02*
X9312563Y-14454460D01*
X9312563Y-14454460D02*
X9303039Y-14444936D01*
X9303039Y-14444936D02*
X9293515Y-14425888D01*
X9293515Y-14425888D02*
X9293515Y-14368746D01*
X9293515Y-14368746D02*
X9303039Y-14349698D01*
X9303039Y-14349698D02*
X9312563Y-14340174D01*
X9312563Y-14340174D02*
X9331611Y-14330650D01*
X9331611Y-14330650D02*
X9360182Y-14330650D01*
X9360182Y-14330650D02*
X9379230Y-14340174D01*
X9379230Y-14340174D02*
X9388753Y-14349698D01*
X9388753Y-14349698D02*
X9398277Y-14368746D01*
X9398277Y-14368746D02*
X9398277Y-14425888D01*
X9398277Y-14425888D02*
X9388753Y-14444936D01*
X9388753Y-14444936D02*
X9379230Y-14454460D01*
X9379230Y-14454460D02*
X9360182Y-14463984D01*
X9360182Y-14463984D02*
X9331611Y-14463984D01*
X9512563Y-14463984D02*
X9493515Y-14454460D01*
X9493515Y-14454460D02*
X9483992Y-14435412D01*
X9483992Y-14435412D02*
X9483992Y-14263984D01*
X9664944Y-14454460D02*
X9645896Y-14463984D01*
X9645896Y-14463984D02*
X9607801Y-14463984D01*
X9607801Y-14463984D02*
X9588753Y-14454460D01*
X9588753Y-14454460D02*
X9579230Y-14435412D01*
X9579230Y-14435412D02*
X9579230Y-14359222D01*
X9579230Y-14359222D02*
X9588753Y-14340174D01*
X9588753Y-14340174D02*
X9607801Y-14330650D01*
X9607801Y-14330650D02*
X9645896Y-14330650D01*
X9645896Y-14330650D02*
X9664944Y-14340174D01*
X9664944Y-14340174D02*
X9674468Y-14359222D01*
X9674468Y-14359222D02*
X9674468Y-14378269D01*
X9674468Y-14378269D02*
X9579230Y-14397317D01*
X9750658Y-14454460D02*
X9769706Y-14463984D01*
X9769706Y-14463984D02*
X9807801Y-14463984D01*
X9807801Y-14463984D02*
X9826849Y-14454460D01*
X9826849Y-14454460D02*
X9836373Y-14435412D01*
X9836373Y-14435412D02*
X9836373Y-14425888D01*
X9836373Y-14425888D02*
X9826849Y-14406841D01*
X9826849Y-14406841D02*
X9807801Y-14397317D01*
X9807801Y-14397317D02*
X9779230Y-14397317D01*
X9779230Y-14397317D02*
X9760182Y-14387793D01*
X9760182Y-14387793D02*
X9750658Y-14368746D01*
X9750658Y-14368746D02*
X9750658Y-14359222D01*
X9750658Y-14359222D02*
X9760182Y-14340174D01*
X9760182Y-14340174D02*
X9779230Y-14330650D01*
X9779230Y-14330650D02*
X9807801Y-14330650D01*
X9807801Y-14330650D02*
X9826849Y-14340174D01*
X9903039Y-14540174D02*
X9912563Y-14530650D01*
X9912563Y-14530650D02*
X9931611Y-14502079D01*
X9931611Y-14502079D02*
X9941134Y-14483031D01*
X9941134Y-14483031D02*
X9950658Y-14454460D01*
X9950658Y-14454460D02*
X9960182Y-14406841D01*
X9960182Y-14406841D02*
X9960182Y-14368746D01*
X9960182Y-14368746D02*
X9950658Y-14321127D01*
X9950658Y-14321127D02*
X9941134Y-14292555D01*
X9941134Y-14292555D02*
X9931611Y-14273508D01*
X9931611Y-14273508D02*
X9912563Y-14244936D01*
X9912563Y-14244936D02*
X9903039Y-14235412D01*
D13*
X4937500Y-14636500D02*
G75*
G02*
X4907500Y-14636500I-15000J0D01*
G01*
X4907500Y-14636500D02*
G75*
G02*
X4937500Y-14636500I15000J0D01*
G01*
D12*
X5236372Y-14527984D02*
X5255420Y-14527984D01*
X5255420Y-14527984D02*
X5274467Y-14537508D01*
X5274467Y-14537508D02*
X5283991Y-14547031D01*
X5283991Y-14547031D02*
X5293515Y-14566079D01*
X5293515Y-14566079D02*
X5303039Y-14604174D01*
X5303039Y-14604174D02*
X5303039Y-14651793D01*
X5303039Y-14651793D02*
X5293515Y-14689888D01*
X5293515Y-14689888D02*
X5283991Y-14708936D01*
X5283991Y-14708936D02*
X5274467Y-14718460D01*
X5274467Y-14718460D02*
X5255420Y-14727984D01*
X5255420Y-14727984D02*
X5236372Y-14727984D01*
X5236372Y-14727984D02*
X5217324Y-14718460D01*
X5217324Y-14718460D02*
X5207801Y-14708936D01*
X5207801Y-14708936D02*
X5198277Y-14689888D01*
X5198277Y-14689888D02*
X5188753Y-14651793D01*
X5188753Y-14651793D02*
X5188753Y-14604174D01*
X5188753Y-14604174D02*
X5198277Y-14566079D01*
X5198277Y-14566079D02*
X5207801Y-14547031D01*
X5207801Y-14547031D02*
X5217324Y-14537508D01*
X5217324Y-14537508D02*
X5236372Y-14527984D01*
X5388753Y-14708936D02*
X5398277Y-14718460D01*
X5398277Y-14718460D02*
X5388753Y-14727984D01*
X5388753Y-14727984D02*
X5379229Y-14718460D01*
X5379229Y-14718460D02*
X5388753Y-14708936D01*
X5388753Y-14708936D02*
X5388753Y-14727984D01*
X5464944Y-14527984D02*
X5588753Y-14527984D01*
X5588753Y-14527984D02*
X5522086Y-14604174D01*
X5522086Y-14604174D02*
X5550658Y-14604174D01*
X5550658Y-14604174D02*
X5569705Y-14613698D01*
X5569705Y-14613698D02*
X5579229Y-14623222D01*
X5579229Y-14623222D02*
X5588753Y-14642269D01*
X5588753Y-14642269D02*
X5588753Y-14689888D01*
X5588753Y-14689888D02*
X5579229Y-14708936D01*
X5579229Y-14708936D02*
X5569705Y-14718460D01*
X5569705Y-14718460D02*
X5550658Y-14727984D01*
X5550658Y-14727984D02*
X5493515Y-14727984D01*
X5493515Y-14727984D02*
X5474467Y-14718460D01*
X5474467Y-14718460D02*
X5464944Y-14708936D01*
X5712562Y-14527984D02*
X5731610Y-14527984D01*
X5731610Y-14527984D02*
X5750658Y-14537508D01*
X5750658Y-14537508D02*
X5760182Y-14547031D01*
X5760182Y-14547031D02*
X5769705Y-14566079D01*
X5769705Y-14566079D02*
X5779229Y-14604174D01*
X5779229Y-14604174D02*
X5779229Y-14651793D01*
X5779229Y-14651793D02*
X5769705Y-14689888D01*
X5769705Y-14689888D02*
X5760182Y-14708936D01*
X5760182Y-14708936D02*
X5750658Y-14718460D01*
X5750658Y-14718460D02*
X5731610Y-14727984D01*
X5731610Y-14727984D02*
X5712562Y-14727984D01*
X5712562Y-14727984D02*
X5693515Y-14718460D01*
X5693515Y-14718460D02*
X5683991Y-14708936D01*
X5683991Y-14708936D02*
X5674467Y-14689888D01*
X5674467Y-14689888D02*
X5664943Y-14651793D01*
X5664943Y-14651793D02*
X5664943Y-14604174D01*
X5664943Y-14604174D02*
X5674467Y-14566079D01*
X5674467Y-14566079D02*
X5683991Y-14547031D01*
X5683991Y-14547031D02*
X5693515Y-14537508D01*
X5693515Y-14537508D02*
X5712562Y-14527984D01*
X5903039Y-14527984D02*
X5922086Y-14527984D01*
X5922086Y-14527984D02*
X5941134Y-14537508D01*
X5941134Y-14537508D02*
X5950658Y-14547031D01*
X5950658Y-14547031D02*
X5960182Y-14566079D01*
X5960182Y-14566079D02*
X5969705Y-14604174D01*
X5969705Y-14604174D02*
X5969705Y-14651793D01*
X5969705Y-14651793D02*
X5960182Y-14689888D01*
X5960182Y-14689888D02*
X5950658Y-14708936D01*
X5950658Y-14708936D02*
X5941134Y-14718460D01*
X5941134Y-14718460D02*
X5922086Y-14727984D01*
X5922086Y-14727984D02*
X5903039Y-14727984D01*
X5903039Y-14727984D02*
X5883991Y-14718460D01*
X5883991Y-14718460D02*
X5874467Y-14708936D01*
X5874467Y-14708936D02*
X5864943Y-14689888D01*
X5864943Y-14689888D02*
X5855420Y-14651793D01*
X5855420Y-14651793D02*
X5855420Y-14604174D01*
X5855420Y-14604174D02*
X5864943Y-14566079D01*
X5864943Y-14566079D02*
X5874467Y-14547031D01*
X5874467Y-14547031D02*
X5883991Y-14537508D01*
X5883991Y-14537508D02*
X5903039Y-14527984D01*
X6055420Y-14727984D02*
X6055420Y-14594650D01*
X6055420Y-14613698D02*
X6064943Y-14604174D01*
X6064943Y-14604174D02*
X6083991Y-14594650D01*
X6083991Y-14594650D02*
X6112563Y-14594650D01*
X6112563Y-14594650D02*
X6131610Y-14604174D01*
X6131610Y-14604174D02*
X6141134Y-14623222D01*
X6141134Y-14623222D02*
X6141134Y-14727984D01*
X6141134Y-14623222D02*
X6150658Y-14604174D01*
X6150658Y-14604174D02*
X6169705Y-14594650D01*
X6169705Y-14594650D02*
X6198277Y-14594650D01*
X6198277Y-14594650D02*
X6217324Y-14604174D01*
X6217324Y-14604174D02*
X6226848Y-14623222D01*
X6226848Y-14623222D02*
X6226848Y-14727984D01*
X6322086Y-14727984D02*
X6322086Y-14594650D01*
X6322086Y-14613698D02*
X6331610Y-14604174D01*
X6331610Y-14604174D02*
X6350658Y-14594650D01*
X6350658Y-14594650D02*
X6379229Y-14594650D01*
X6379229Y-14594650D02*
X6398277Y-14604174D01*
X6398277Y-14604174D02*
X6407801Y-14623222D01*
X6407801Y-14623222D02*
X6407801Y-14727984D01*
X6407801Y-14623222D02*
X6417324Y-14604174D01*
X6417324Y-14604174D02*
X6436372Y-14594650D01*
X6436372Y-14594650D02*
X6464943Y-14594650D01*
X6464943Y-14594650D02*
X6483991Y-14604174D01*
X6483991Y-14604174D02*
X6493515Y-14623222D01*
X6493515Y-14623222D02*
X6493515Y-14727984D01*
X6883991Y-14518460D02*
X6712563Y-14775603D01*
X7141134Y-14527984D02*
X7160182Y-14527984D01*
X7160182Y-14527984D02*
X7179229Y-14537508D01*
X7179229Y-14537508D02*
X7188753Y-14547031D01*
X7188753Y-14547031D02*
X7198277Y-14566079D01*
X7198277Y-14566079D02*
X7207801Y-14604174D01*
X7207801Y-14604174D02*
X7207801Y-14651793D01*
X7207801Y-14651793D02*
X7198277Y-14689888D01*
X7198277Y-14689888D02*
X7188753Y-14708936D01*
X7188753Y-14708936D02*
X7179229Y-14718460D01*
X7179229Y-14718460D02*
X7160182Y-14727984D01*
X7160182Y-14727984D02*
X7141134Y-14727984D01*
X7141134Y-14727984D02*
X7122086Y-14718460D01*
X7122086Y-14718460D02*
X7112563Y-14708936D01*
X7112563Y-14708936D02*
X7103039Y-14689888D01*
X7103039Y-14689888D02*
X7093515Y-14651793D01*
X7093515Y-14651793D02*
X7093515Y-14604174D01*
X7093515Y-14604174D02*
X7103039Y-14566079D01*
X7103039Y-14566079D02*
X7112563Y-14547031D01*
X7112563Y-14547031D02*
X7122086Y-14537508D01*
X7122086Y-14537508D02*
X7141134Y-14527984D01*
X7293515Y-14708936D02*
X7303039Y-14718460D01*
X7303039Y-14718460D02*
X7293515Y-14727984D01*
X7293515Y-14727984D02*
X7283991Y-14718460D01*
X7283991Y-14718460D02*
X7293515Y-14708936D01*
X7293515Y-14708936D02*
X7293515Y-14727984D01*
X7426848Y-14527984D02*
X7445896Y-14527984D01*
X7445896Y-14527984D02*
X7464944Y-14537508D01*
X7464944Y-14537508D02*
X7474467Y-14547031D01*
X7474467Y-14547031D02*
X7483991Y-14566079D01*
X7483991Y-14566079D02*
X7493515Y-14604174D01*
X7493515Y-14604174D02*
X7493515Y-14651793D01*
X7493515Y-14651793D02*
X7483991Y-14689888D01*
X7483991Y-14689888D02*
X7474467Y-14708936D01*
X7474467Y-14708936D02*
X7464944Y-14718460D01*
X7464944Y-14718460D02*
X7445896Y-14727984D01*
X7445896Y-14727984D02*
X7426848Y-14727984D01*
X7426848Y-14727984D02*
X7407801Y-14718460D01*
X7407801Y-14718460D02*
X7398277Y-14708936D01*
X7398277Y-14708936D02*
X7388753Y-14689888D01*
X7388753Y-14689888D02*
X7379229Y-14651793D01*
X7379229Y-14651793D02*
X7379229Y-14604174D01*
X7379229Y-14604174D02*
X7388753Y-14566079D01*
X7388753Y-14566079D02*
X7398277Y-14547031D01*
X7398277Y-14547031D02*
X7407801Y-14537508D01*
X7407801Y-14537508D02*
X7426848Y-14527984D01*
X7683991Y-14727984D02*
X7569706Y-14727984D01*
X7626848Y-14727984D02*
X7626848Y-14527984D01*
X7626848Y-14527984D02*
X7607801Y-14556555D01*
X7607801Y-14556555D02*
X7588753Y-14575603D01*
X7588753Y-14575603D02*
X7569706Y-14585127D01*
X7874467Y-14727984D02*
X7760182Y-14727984D01*
X7817325Y-14727984D02*
X7817325Y-14527984D01*
X7817325Y-14527984D02*
X7798277Y-14556555D01*
X7798277Y-14556555D02*
X7779229Y-14575603D01*
X7779229Y-14575603D02*
X7760182Y-14585127D01*
X7988753Y-14613698D02*
X7969706Y-14604174D01*
X7969706Y-14604174D02*
X7960182Y-14594650D01*
X7960182Y-14594650D02*
X7950658Y-14575603D01*
X7950658Y-14575603D02*
X7950658Y-14566079D01*
X7950658Y-14566079D02*
X7960182Y-14547031D01*
X7960182Y-14547031D02*
X7969706Y-14537508D01*
X7969706Y-14537508D02*
X7988753Y-14527984D01*
X7988753Y-14527984D02*
X8026848Y-14527984D01*
X8026848Y-14527984D02*
X8045896Y-14537508D01*
X8045896Y-14537508D02*
X8055420Y-14547031D01*
X8055420Y-14547031D02*
X8064944Y-14566079D01*
X8064944Y-14566079D02*
X8064944Y-14575603D01*
X8064944Y-14575603D02*
X8055420Y-14594650D01*
X8055420Y-14594650D02*
X8045896Y-14604174D01*
X8045896Y-14604174D02*
X8026848Y-14613698D01*
X8026848Y-14613698D02*
X7988753Y-14613698D01*
X7988753Y-14613698D02*
X7969706Y-14623222D01*
X7969706Y-14623222D02*
X7960182Y-14632746D01*
X7960182Y-14632746D02*
X7950658Y-14651793D01*
X7950658Y-14651793D02*
X7950658Y-14689888D01*
X7950658Y-14689888D02*
X7960182Y-14708936D01*
X7960182Y-14708936D02*
X7969706Y-14718460D01*
X7969706Y-14718460D02*
X7988753Y-14727984D01*
X7988753Y-14727984D02*
X8026848Y-14727984D01*
X8026848Y-14727984D02*
X8045896Y-14718460D01*
X8045896Y-14718460D02*
X8055420Y-14708936D01*
X8055420Y-14708936D02*
X8064944Y-14689888D01*
X8064944Y-14689888D02*
X8064944Y-14651793D01*
X8064944Y-14651793D02*
X8055420Y-14632746D01*
X8055420Y-14632746D02*
X8045896Y-14623222D01*
X8045896Y-14623222D02*
X8026848Y-14613698D01*
X8141134Y-14527984D02*
X8141134Y-14566079D01*
X8217325Y-14527984D02*
X8217325Y-14566079D01*
X8512563Y-14804174D02*
X8503039Y-14794650D01*
X8503039Y-14794650D02*
X8483991Y-14766079D01*
X8483991Y-14766079D02*
X8474468Y-14747031D01*
X8474468Y-14747031D02*
X8464944Y-14718460D01*
X8464944Y-14718460D02*
X8455420Y-14670841D01*
X8455420Y-14670841D02*
X8455420Y-14632746D01*
X8455420Y-14632746D02*
X8464944Y-14585127D01*
X8464944Y-14585127D02*
X8474468Y-14556555D01*
X8474468Y-14556555D02*
X8483991Y-14537508D01*
X8483991Y-14537508D02*
X8503039Y-14508936D01*
X8503039Y-14508936D02*
X8512563Y-14499412D01*
X8693515Y-14727984D02*
X8579230Y-14727984D01*
X8636372Y-14727984D02*
X8636372Y-14527984D01*
X8636372Y-14527984D02*
X8617325Y-14556555D01*
X8617325Y-14556555D02*
X8598277Y-14575603D01*
X8598277Y-14575603D02*
X8579230Y-14585127D01*
X8817325Y-14527984D02*
X8836372Y-14527984D01*
X8836372Y-14527984D02*
X8855420Y-14537508D01*
X8855420Y-14537508D02*
X8864944Y-14547031D01*
X8864944Y-14547031D02*
X8874468Y-14566079D01*
X8874468Y-14566079D02*
X8883991Y-14604174D01*
X8883991Y-14604174D02*
X8883991Y-14651793D01*
X8883991Y-14651793D02*
X8874468Y-14689888D01*
X8874468Y-14689888D02*
X8864944Y-14708936D01*
X8864944Y-14708936D02*
X8855420Y-14718460D01*
X8855420Y-14718460D02*
X8836372Y-14727984D01*
X8836372Y-14727984D02*
X8817325Y-14727984D01*
X8817325Y-14727984D02*
X8798277Y-14718460D01*
X8798277Y-14718460D02*
X8788753Y-14708936D01*
X8788753Y-14708936D02*
X8779230Y-14689888D01*
X8779230Y-14689888D02*
X8769706Y-14651793D01*
X8769706Y-14651793D02*
X8769706Y-14604174D01*
X8769706Y-14604174D02*
X8779230Y-14566079D01*
X8779230Y-14566079D02*
X8788753Y-14547031D01*
X8788753Y-14547031D02*
X8798277Y-14537508D01*
X8798277Y-14537508D02*
X8817325Y-14527984D01*
X8950658Y-14527984D02*
X9083991Y-14527984D01*
X9083991Y-14527984D02*
X8998277Y-14727984D01*
X9312563Y-14727984D02*
X9312563Y-14527984D01*
X9398277Y-14727984D02*
X9398277Y-14623222D01*
X9398277Y-14623222D02*
X9388753Y-14604174D01*
X9388753Y-14604174D02*
X9369706Y-14594650D01*
X9369706Y-14594650D02*
X9341134Y-14594650D01*
X9341134Y-14594650D02*
X9322087Y-14604174D01*
X9322087Y-14604174D02*
X9312563Y-14613698D01*
X9522087Y-14727984D02*
X9503039Y-14718460D01*
X9503039Y-14718460D02*
X9493515Y-14708936D01*
X9493515Y-14708936D02*
X9483992Y-14689888D01*
X9483992Y-14689888D02*
X9483992Y-14632746D01*
X9483992Y-14632746D02*
X9493515Y-14613698D01*
X9493515Y-14613698D02*
X9503039Y-14604174D01*
X9503039Y-14604174D02*
X9522087Y-14594650D01*
X9522087Y-14594650D02*
X9550658Y-14594650D01*
X9550658Y-14594650D02*
X9569706Y-14604174D01*
X9569706Y-14604174D02*
X9579230Y-14613698D01*
X9579230Y-14613698D02*
X9588753Y-14632746D01*
X9588753Y-14632746D02*
X9588753Y-14689888D01*
X9588753Y-14689888D02*
X9579230Y-14708936D01*
X9579230Y-14708936D02*
X9569706Y-14718460D01*
X9569706Y-14718460D02*
X9550658Y-14727984D01*
X9550658Y-14727984D02*
X9522087Y-14727984D01*
X9703039Y-14727984D02*
X9683992Y-14718460D01*
X9683992Y-14718460D02*
X9674468Y-14699412D01*
X9674468Y-14699412D02*
X9674468Y-14527984D01*
X9855420Y-14718460D02*
X9836373Y-14727984D01*
X9836373Y-14727984D02*
X9798277Y-14727984D01*
X9798277Y-14727984D02*
X9779230Y-14718460D01*
X9779230Y-14718460D02*
X9769706Y-14699412D01*
X9769706Y-14699412D02*
X9769706Y-14623222D01*
X9769706Y-14623222D02*
X9779230Y-14604174D01*
X9779230Y-14604174D02*
X9798277Y-14594650D01*
X9798277Y-14594650D02*
X9836373Y-14594650D01*
X9836373Y-14594650D02*
X9855420Y-14604174D01*
X9855420Y-14604174D02*
X9864944Y-14623222D01*
X9864944Y-14623222D02*
X9864944Y-14642269D01*
X9864944Y-14642269D02*
X9769706Y-14661317D01*
X9941134Y-14718460D02*
X9960182Y-14727984D01*
X9960182Y-14727984D02*
X9998277Y-14727984D01*
X9998277Y-14727984D02*
X10017325Y-14718460D01*
X10017325Y-14718460D02*
X10026849Y-14699412D01*
X10026849Y-14699412D02*
X10026849Y-14689888D01*
X10026849Y-14689888D02*
X10017325Y-14670841D01*
X10017325Y-14670841D02*
X9998277Y-14661317D01*
X9998277Y-14661317D02*
X9969706Y-14661317D01*
X9969706Y-14661317D02*
X9950658Y-14651793D01*
X9950658Y-14651793D02*
X9941134Y-14632746D01*
X9941134Y-14632746D02*
X9941134Y-14623222D01*
X9941134Y-14623222D02*
X9950658Y-14604174D01*
X9950658Y-14604174D02*
X9969706Y-14594650D01*
X9969706Y-14594650D02*
X9998277Y-14594650D01*
X9998277Y-14594650D02*
X10017325Y-14604174D01*
X10093515Y-14804174D02*
X10103039Y-14794650D01*
X10103039Y-14794650D02*
X10122087Y-14766079D01*
X10122087Y-14766079D02*
X10131611Y-14747031D01*
X10131611Y-14747031D02*
X10141134Y-14718460D01*
X10141134Y-14718460D02*
X10150658Y-14670841D01*
X10150658Y-14670841D02*
X10150658Y-14632746D01*
X10150658Y-14632746D02*
X10141134Y-14585127D01*
X10141134Y-14585127D02*
X10131611Y-14556555D01*
X10131611Y-14556555D02*
X10122087Y-14537508D01*
X10122087Y-14537508D02*
X10103039Y-14508936D01*
X10103039Y-14508936D02*
X10093515Y-14499412D01*
D13*
X4917500Y-14880500D02*
X4917500Y-14920500D01*
X4897500Y-14900500D02*
X4937500Y-14900500D01*
D12*
X5236372Y-14791984D02*
X5255420Y-14791984D01*
X5255420Y-14791984D02*
X5274467Y-14801508D01*
X5274467Y-14801508D02*
X5283991Y-14811031D01*
X5283991Y-14811031D02*
X5293515Y-14830079D01*
X5293515Y-14830079D02*
X5303039Y-14868174D01*
X5303039Y-14868174D02*
X5303039Y-14915793D01*
X5303039Y-14915793D02*
X5293515Y-14953888D01*
X5293515Y-14953888D02*
X5283991Y-14972936D01*
X5283991Y-14972936D02*
X5274467Y-14982460D01*
X5274467Y-14982460D02*
X5255420Y-14991984D01*
X5255420Y-14991984D02*
X5236372Y-14991984D01*
X5236372Y-14991984D02*
X5217324Y-14982460D01*
X5217324Y-14982460D02*
X5207801Y-14972936D01*
X5207801Y-14972936D02*
X5198277Y-14953888D01*
X5198277Y-14953888D02*
X5188753Y-14915793D01*
X5188753Y-14915793D02*
X5188753Y-14868174D01*
X5188753Y-14868174D02*
X5198277Y-14830079D01*
X5198277Y-14830079D02*
X5207801Y-14811031D01*
X5207801Y-14811031D02*
X5217324Y-14801508D01*
X5217324Y-14801508D02*
X5236372Y-14791984D01*
X5388753Y-14972936D02*
X5398277Y-14982460D01*
X5398277Y-14982460D02*
X5388753Y-14991984D01*
X5388753Y-14991984D02*
X5379229Y-14982460D01*
X5379229Y-14982460D02*
X5388753Y-14972936D01*
X5388753Y-14972936D02*
X5388753Y-14991984D01*
X5569705Y-14858650D02*
X5569705Y-14991984D01*
X5522086Y-14782460D02*
X5474467Y-14925317D01*
X5474467Y-14925317D02*
X5598277Y-14925317D01*
X5712562Y-14791984D02*
X5731610Y-14791984D01*
X5731610Y-14791984D02*
X5750658Y-14801508D01*
X5750658Y-14801508D02*
X5760182Y-14811031D01*
X5760182Y-14811031D02*
X5769705Y-14830079D01*
X5769705Y-14830079D02*
X5779229Y-14868174D01*
X5779229Y-14868174D02*
X5779229Y-14915793D01*
X5779229Y-14915793D02*
X5769705Y-14953888D01*
X5769705Y-14953888D02*
X5760182Y-14972936D01*
X5760182Y-14972936D02*
X5750658Y-14982460D01*
X5750658Y-14982460D02*
X5731610Y-14991984D01*
X5731610Y-14991984D02*
X5712562Y-14991984D01*
X5712562Y-14991984D02*
X5693515Y-14982460D01*
X5693515Y-14982460D02*
X5683991Y-14972936D01*
X5683991Y-14972936D02*
X5674467Y-14953888D01*
X5674467Y-14953888D02*
X5664943Y-14915793D01*
X5664943Y-14915793D02*
X5664943Y-14868174D01*
X5664943Y-14868174D02*
X5674467Y-14830079D01*
X5674467Y-14830079D02*
X5683991Y-14811031D01*
X5683991Y-14811031D02*
X5693515Y-14801508D01*
X5693515Y-14801508D02*
X5712562Y-14791984D01*
X5903039Y-14791984D02*
X5922086Y-14791984D01*
X5922086Y-14791984D02*
X5941134Y-14801508D01*
X5941134Y-14801508D02*
X5950658Y-14811031D01*
X5950658Y-14811031D02*
X5960182Y-14830079D01*
X5960182Y-14830079D02*
X5969705Y-14868174D01*
X5969705Y-14868174D02*
X5969705Y-14915793D01*
X5969705Y-14915793D02*
X5960182Y-14953888D01*
X5960182Y-14953888D02*
X5950658Y-14972936D01*
X5950658Y-14972936D02*
X5941134Y-14982460D01*
X5941134Y-14982460D02*
X5922086Y-14991984D01*
X5922086Y-14991984D02*
X5903039Y-14991984D01*
X5903039Y-14991984D02*
X5883991Y-14982460D01*
X5883991Y-14982460D02*
X5874467Y-14972936D01*
X5874467Y-14972936D02*
X5864943Y-14953888D01*
X5864943Y-14953888D02*
X5855420Y-14915793D01*
X5855420Y-14915793D02*
X5855420Y-14868174D01*
X5855420Y-14868174D02*
X5864943Y-14830079D01*
X5864943Y-14830079D02*
X5874467Y-14811031D01*
X5874467Y-14811031D02*
X5883991Y-14801508D01*
X5883991Y-14801508D02*
X5903039Y-14791984D01*
X6055420Y-14991984D02*
X6055420Y-14858650D01*
X6055420Y-14877698D02*
X6064943Y-14868174D01*
X6064943Y-14868174D02*
X6083991Y-14858650D01*
X6083991Y-14858650D02*
X6112563Y-14858650D01*
X6112563Y-14858650D02*
X6131610Y-14868174D01*
X6131610Y-14868174D02*
X6141134Y-14887222D01*
X6141134Y-14887222D02*
X6141134Y-14991984D01*
X6141134Y-14887222D02*
X6150658Y-14868174D01*
X6150658Y-14868174D02*
X6169705Y-14858650D01*
X6169705Y-14858650D02*
X6198277Y-14858650D01*
X6198277Y-14858650D02*
X6217324Y-14868174D01*
X6217324Y-14868174D02*
X6226848Y-14887222D01*
X6226848Y-14887222D02*
X6226848Y-14991984D01*
X6322086Y-14991984D02*
X6322086Y-14858650D01*
X6322086Y-14877698D02*
X6331610Y-14868174D01*
X6331610Y-14868174D02*
X6350658Y-14858650D01*
X6350658Y-14858650D02*
X6379229Y-14858650D01*
X6379229Y-14858650D02*
X6398277Y-14868174D01*
X6398277Y-14868174D02*
X6407801Y-14887222D01*
X6407801Y-14887222D02*
X6407801Y-14991984D01*
X6407801Y-14887222D02*
X6417324Y-14868174D01*
X6417324Y-14868174D02*
X6436372Y-14858650D01*
X6436372Y-14858650D02*
X6464943Y-14858650D01*
X6464943Y-14858650D02*
X6483991Y-14868174D01*
X6483991Y-14868174D02*
X6493515Y-14887222D01*
X6493515Y-14887222D02*
X6493515Y-14991984D01*
X6883991Y-14782460D02*
X6712563Y-15039603D01*
X7141134Y-14791984D02*
X7160182Y-14791984D01*
X7160182Y-14791984D02*
X7179229Y-14801508D01*
X7179229Y-14801508D02*
X7188753Y-14811031D01*
X7188753Y-14811031D02*
X7198277Y-14830079D01*
X7198277Y-14830079D02*
X7207801Y-14868174D01*
X7207801Y-14868174D02*
X7207801Y-14915793D01*
X7207801Y-14915793D02*
X7198277Y-14953888D01*
X7198277Y-14953888D02*
X7188753Y-14972936D01*
X7188753Y-14972936D02*
X7179229Y-14982460D01*
X7179229Y-14982460D02*
X7160182Y-14991984D01*
X7160182Y-14991984D02*
X7141134Y-14991984D01*
X7141134Y-14991984D02*
X7122086Y-14982460D01*
X7122086Y-14982460D02*
X7112563Y-14972936D01*
X7112563Y-14972936D02*
X7103039Y-14953888D01*
X7103039Y-14953888D02*
X7093515Y-14915793D01*
X7093515Y-14915793D02*
X7093515Y-14868174D01*
X7093515Y-14868174D02*
X7103039Y-14830079D01*
X7103039Y-14830079D02*
X7112563Y-14811031D01*
X7112563Y-14811031D02*
X7122086Y-14801508D01*
X7122086Y-14801508D02*
X7141134Y-14791984D01*
X7293515Y-14972936D02*
X7303039Y-14982460D01*
X7303039Y-14982460D02*
X7293515Y-14991984D01*
X7293515Y-14991984D02*
X7283991Y-14982460D01*
X7283991Y-14982460D02*
X7293515Y-14972936D01*
X7293515Y-14972936D02*
X7293515Y-14991984D01*
X7426848Y-14791984D02*
X7445896Y-14791984D01*
X7445896Y-14791984D02*
X7464944Y-14801508D01*
X7464944Y-14801508D02*
X7474467Y-14811031D01*
X7474467Y-14811031D02*
X7483991Y-14830079D01*
X7483991Y-14830079D02*
X7493515Y-14868174D01*
X7493515Y-14868174D02*
X7493515Y-14915793D01*
X7493515Y-14915793D02*
X7483991Y-14953888D01*
X7483991Y-14953888D02*
X7474467Y-14972936D01*
X7474467Y-14972936D02*
X7464944Y-14982460D01*
X7464944Y-14982460D02*
X7445896Y-14991984D01*
X7445896Y-14991984D02*
X7426848Y-14991984D01*
X7426848Y-14991984D02*
X7407801Y-14982460D01*
X7407801Y-14982460D02*
X7398277Y-14972936D01*
X7398277Y-14972936D02*
X7388753Y-14953888D01*
X7388753Y-14953888D02*
X7379229Y-14915793D01*
X7379229Y-14915793D02*
X7379229Y-14868174D01*
X7379229Y-14868174D02*
X7388753Y-14830079D01*
X7388753Y-14830079D02*
X7398277Y-14811031D01*
X7398277Y-14811031D02*
X7407801Y-14801508D01*
X7407801Y-14801508D02*
X7426848Y-14791984D01*
X7683991Y-14991984D02*
X7569706Y-14991984D01*
X7626848Y-14991984D02*
X7626848Y-14791984D01*
X7626848Y-14791984D02*
X7607801Y-14820555D01*
X7607801Y-14820555D02*
X7588753Y-14839603D01*
X7588753Y-14839603D02*
X7569706Y-14849127D01*
X7864944Y-14791984D02*
X7769706Y-14791984D01*
X7769706Y-14791984D02*
X7760182Y-14887222D01*
X7760182Y-14887222D02*
X7769706Y-14877698D01*
X7769706Y-14877698D02*
X7788753Y-14868174D01*
X7788753Y-14868174D02*
X7836372Y-14868174D01*
X7836372Y-14868174D02*
X7855420Y-14877698D01*
X7855420Y-14877698D02*
X7864944Y-14887222D01*
X7864944Y-14887222D02*
X7874467Y-14906269D01*
X7874467Y-14906269D02*
X7874467Y-14953888D01*
X7874467Y-14953888D02*
X7864944Y-14972936D01*
X7864944Y-14972936D02*
X7855420Y-14982460D01*
X7855420Y-14982460D02*
X7836372Y-14991984D01*
X7836372Y-14991984D02*
X7788753Y-14991984D01*
X7788753Y-14991984D02*
X7769706Y-14982460D01*
X7769706Y-14982460D02*
X7760182Y-14972936D01*
X7941134Y-14791984D02*
X8074467Y-14791984D01*
X8074467Y-14791984D02*
X7988753Y-14991984D01*
X8141134Y-14791984D02*
X8141134Y-14830079D01*
X8217325Y-14791984D02*
X8217325Y-14830079D01*
X8512563Y-15068174D02*
X8503039Y-15058650D01*
X8503039Y-15058650D02*
X8483991Y-15030079D01*
X8483991Y-15030079D02*
X8474468Y-15011031D01*
X8474468Y-15011031D02*
X8464944Y-14982460D01*
X8464944Y-14982460D02*
X8455420Y-14934841D01*
X8455420Y-14934841D02*
X8455420Y-14896746D01*
X8455420Y-14896746D02*
X8464944Y-14849127D01*
X8464944Y-14849127D02*
X8474468Y-14820555D01*
X8474468Y-14820555D02*
X8483991Y-14801508D01*
X8483991Y-14801508D02*
X8503039Y-14772936D01*
X8503039Y-14772936D02*
X8512563Y-14763412D01*
X8693515Y-14991984D02*
X8579230Y-14991984D01*
X8636372Y-14991984D02*
X8636372Y-14791984D01*
X8636372Y-14791984D02*
X8617325Y-14820555D01*
X8617325Y-14820555D02*
X8598277Y-14839603D01*
X8598277Y-14839603D02*
X8579230Y-14849127D01*
X8788753Y-14991984D02*
X8826849Y-14991984D01*
X8826849Y-14991984D02*
X8845896Y-14982460D01*
X8845896Y-14982460D02*
X8855420Y-14972936D01*
X8855420Y-14972936D02*
X8874468Y-14944365D01*
X8874468Y-14944365D02*
X8883991Y-14906269D01*
X8883991Y-14906269D02*
X8883991Y-14830079D01*
X8883991Y-14830079D02*
X8874468Y-14811031D01*
X8874468Y-14811031D02*
X8864944Y-14801508D01*
X8864944Y-14801508D02*
X8845896Y-14791984D01*
X8845896Y-14791984D02*
X8807801Y-14791984D01*
X8807801Y-14791984D02*
X8788753Y-14801508D01*
X8788753Y-14801508D02*
X8779230Y-14811031D01*
X8779230Y-14811031D02*
X8769706Y-14830079D01*
X8769706Y-14830079D02*
X8769706Y-14877698D01*
X8769706Y-14877698D02*
X8779230Y-14896746D01*
X8779230Y-14896746D02*
X8788753Y-14906269D01*
X8788753Y-14906269D02*
X8807801Y-14915793D01*
X8807801Y-14915793D02*
X8845896Y-14915793D01*
X8845896Y-14915793D02*
X8864944Y-14906269D01*
X8864944Y-14906269D02*
X8874468Y-14896746D01*
X8874468Y-14896746D02*
X8883991Y-14877698D01*
X9122087Y-14991984D02*
X9122087Y-14791984D01*
X9207801Y-14991984D02*
X9207801Y-14887222D01*
X9207801Y-14887222D02*
X9198277Y-14868174D01*
X9198277Y-14868174D02*
X9179230Y-14858650D01*
X9179230Y-14858650D02*
X9150658Y-14858650D01*
X9150658Y-14858650D02*
X9131611Y-14868174D01*
X9131611Y-14868174D02*
X9122087Y-14877698D01*
X9331611Y-14991984D02*
X9312563Y-14982460D01*
X9312563Y-14982460D02*
X9303039Y-14972936D01*
X9303039Y-14972936D02*
X9293515Y-14953888D01*
X9293515Y-14953888D02*
X9293515Y-14896746D01*
X9293515Y-14896746D02*
X9303039Y-14877698D01*
X9303039Y-14877698D02*
X9312563Y-14868174D01*
X9312563Y-14868174D02*
X9331611Y-14858650D01*
X9331611Y-14858650D02*
X9360182Y-14858650D01*
X9360182Y-14858650D02*
X9379230Y-14868174D01*
X9379230Y-14868174D02*
X9388753Y-14877698D01*
X9388753Y-14877698D02*
X9398277Y-14896746D01*
X9398277Y-14896746D02*
X9398277Y-14953888D01*
X9398277Y-14953888D02*
X9388753Y-14972936D01*
X9388753Y-14972936D02*
X9379230Y-14982460D01*
X9379230Y-14982460D02*
X9360182Y-14991984D01*
X9360182Y-14991984D02*
X9331611Y-14991984D01*
X9512563Y-14991984D02*
X9493515Y-14982460D01*
X9493515Y-14982460D02*
X9483992Y-14963412D01*
X9483992Y-14963412D02*
X9483992Y-14791984D01*
X9664944Y-14982460D02*
X9645896Y-14991984D01*
X9645896Y-14991984D02*
X9607801Y-14991984D01*
X9607801Y-14991984D02*
X9588753Y-14982460D01*
X9588753Y-14982460D02*
X9579230Y-14963412D01*
X9579230Y-14963412D02*
X9579230Y-14887222D01*
X9579230Y-14887222D02*
X9588753Y-14868174D01*
X9588753Y-14868174D02*
X9607801Y-14858650D01*
X9607801Y-14858650D02*
X9645896Y-14858650D01*
X9645896Y-14858650D02*
X9664944Y-14868174D01*
X9664944Y-14868174D02*
X9674468Y-14887222D01*
X9674468Y-14887222D02*
X9674468Y-14906269D01*
X9674468Y-14906269D02*
X9579230Y-14925317D01*
X9750658Y-14982460D02*
X9769706Y-14991984D01*
X9769706Y-14991984D02*
X9807801Y-14991984D01*
X9807801Y-14991984D02*
X9826849Y-14982460D01*
X9826849Y-14982460D02*
X9836373Y-14963412D01*
X9836373Y-14963412D02*
X9836373Y-14953888D01*
X9836373Y-14953888D02*
X9826849Y-14934841D01*
X9826849Y-14934841D02*
X9807801Y-14925317D01*
X9807801Y-14925317D02*
X9779230Y-14925317D01*
X9779230Y-14925317D02*
X9760182Y-14915793D01*
X9760182Y-14915793D02*
X9750658Y-14896746D01*
X9750658Y-14896746D02*
X9750658Y-14887222D01*
X9750658Y-14887222D02*
X9760182Y-14868174D01*
X9760182Y-14868174D02*
X9779230Y-14858650D01*
X9779230Y-14858650D02*
X9807801Y-14858650D01*
X9807801Y-14858650D02*
X9826849Y-14868174D01*
X9903039Y-15068174D02*
X9912563Y-15058650D01*
X9912563Y-15058650D02*
X9931611Y-15030079D01*
X9931611Y-15030079D02*
X9941134Y-15011031D01*
X9941134Y-15011031D02*
X9950658Y-14982460D01*
X9950658Y-14982460D02*
X9960182Y-14934841D01*
X9960182Y-14934841D02*
X9960182Y-14896746D01*
X9960182Y-14896746D02*
X9950658Y-14849127D01*
X9950658Y-14849127D02*
X9941134Y-14820555D01*
X9941134Y-14820555D02*
X9931611Y-14801508D01*
X9931611Y-14801508D02*
X9912563Y-14772936D01*
X9912563Y-14772936D02*
X9903039Y-14763412D01*
D13*
X4930178Y-15182178D02*
X4930178Y-15146822D01*
X4894822Y-15146822D01*
X4894822Y-15182178D01*
X4930178Y-15182178D01*
D12*
X5236372Y-15055984D02*
X5255420Y-15055984D01*
X5255420Y-15055984D02*
X5274467Y-15065508D01*
X5274467Y-15065508D02*
X5283991Y-15075031D01*
X5283991Y-15075031D02*
X5293515Y-15094079D01*
X5293515Y-15094079D02*
X5303039Y-15132174D01*
X5303039Y-15132174D02*
X5303039Y-15179793D01*
X5303039Y-15179793D02*
X5293515Y-15217888D01*
X5293515Y-15217888D02*
X5283991Y-15236936D01*
X5283991Y-15236936D02*
X5274467Y-15246460D01*
X5274467Y-15246460D02*
X5255420Y-15255984D01*
X5255420Y-15255984D02*
X5236372Y-15255984D01*
X5236372Y-15255984D02*
X5217324Y-15246460D01*
X5217324Y-15246460D02*
X5207801Y-15236936D01*
X5207801Y-15236936D02*
X5198277Y-15217888D01*
X5198277Y-15217888D02*
X5188753Y-15179793D01*
X5188753Y-15179793D02*
X5188753Y-15132174D01*
X5188753Y-15132174D02*
X5198277Y-15094079D01*
X5198277Y-15094079D02*
X5207801Y-15075031D01*
X5207801Y-15075031D02*
X5217324Y-15065508D01*
X5217324Y-15065508D02*
X5236372Y-15055984D01*
X5388753Y-15236936D02*
X5398277Y-15246460D01*
X5398277Y-15246460D02*
X5388753Y-15255984D01*
X5388753Y-15255984D02*
X5379229Y-15246460D01*
X5379229Y-15246460D02*
X5388753Y-15236936D01*
X5388753Y-15236936D02*
X5388753Y-15255984D01*
X5579229Y-15055984D02*
X5483991Y-15055984D01*
X5483991Y-15055984D02*
X5474467Y-15151222D01*
X5474467Y-15151222D02*
X5483991Y-15141698D01*
X5483991Y-15141698D02*
X5503039Y-15132174D01*
X5503039Y-15132174D02*
X5550658Y-15132174D01*
X5550658Y-15132174D02*
X5569705Y-15141698D01*
X5569705Y-15141698D02*
X5579229Y-15151222D01*
X5579229Y-15151222D02*
X5588753Y-15170269D01*
X5588753Y-15170269D02*
X5588753Y-15217888D01*
X5588753Y-15217888D02*
X5579229Y-15236936D01*
X5579229Y-15236936D02*
X5569705Y-15246460D01*
X5569705Y-15246460D02*
X5550658Y-15255984D01*
X5550658Y-15255984D02*
X5503039Y-15255984D01*
X5503039Y-15255984D02*
X5483991Y-15246460D01*
X5483991Y-15246460D02*
X5474467Y-15236936D01*
X5712562Y-15055984D02*
X5731610Y-15055984D01*
X5731610Y-15055984D02*
X5750658Y-15065508D01*
X5750658Y-15065508D02*
X5760182Y-15075031D01*
X5760182Y-15075031D02*
X5769705Y-15094079D01*
X5769705Y-15094079D02*
X5779229Y-15132174D01*
X5779229Y-15132174D02*
X5779229Y-15179793D01*
X5779229Y-15179793D02*
X5769705Y-15217888D01*
X5769705Y-15217888D02*
X5760182Y-15236936D01*
X5760182Y-15236936D02*
X5750658Y-15246460D01*
X5750658Y-15246460D02*
X5731610Y-15255984D01*
X5731610Y-15255984D02*
X5712562Y-15255984D01*
X5712562Y-15255984D02*
X5693515Y-15246460D01*
X5693515Y-15246460D02*
X5683991Y-15236936D01*
X5683991Y-15236936D02*
X5674467Y-15217888D01*
X5674467Y-15217888D02*
X5664943Y-15179793D01*
X5664943Y-15179793D02*
X5664943Y-15132174D01*
X5664943Y-15132174D02*
X5674467Y-15094079D01*
X5674467Y-15094079D02*
X5683991Y-15075031D01*
X5683991Y-15075031D02*
X5693515Y-15065508D01*
X5693515Y-15065508D02*
X5712562Y-15055984D01*
X5903039Y-15055984D02*
X5922086Y-15055984D01*
X5922086Y-15055984D02*
X5941134Y-15065508D01*
X5941134Y-15065508D02*
X5950658Y-15075031D01*
X5950658Y-15075031D02*
X5960182Y-15094079D01*
X5960182Y-15094079D02*
X5969705Y-15132174D01*
X5969705Y-15132174D02*
X5969705Y-15179793D01*
X5969705Y-15179793D02*
X5960182Y-15217888D01*
X5960182Y-15217888D02*
X5950658Y-15236936D01*
X5950658Y-15236936D02*
X5941134Y-15246460D01*
X5941134Y-15246460D02*
X5922086Y-15255984D01*
X5922086Y-15255984D02*
X5903039Y-15255984D01*
X5903039Y-15255984D02*
X5883991Y-15246460D01*
X5883991Y-15246460D02*
X5874467Y-15236936D01*
X5874467Y-15236936D02*
X5864943Y-15217888D01*
X5864943Y-15217888D02*
X5855420Y-15179793D01*
X5855420Y-15179793D02*
X5855420Y-15132174D01*
X5855420Y-15132174D02*
X5864943Y-15094079D01*
X5864943Y-15094079D02*
X5874467Y-15075031D01*
X5874467Y-15075031D02*
X5883991Y-15065508D01*
X5883991Y-15065508D02*
X5903039Y-15055984D01*
X6055420Y-15255984D02*
X6055420Y-15122650D01*
X6055420Y-15141698D02*
X6064943Y-15132174D01*
X6064943Y-15132174D02*
X6083991Y-15122650D01*
X6083991Y-15122650D02*
X6112563Y-15122650D01*
X6112563Y-15122650D02*
X6131610Y-15132174D01*
X6131610Y-15132174D02*
X6141134Y-15151222D01*
X6141134Y-15151222D02*
X6141134Y-15255984D01*
X6141134Y-15151222D02*
X6150658Y-15132174D01*
X6150658Y-15132174D02*
X6169705Y-15122650D01*
X6169705Y-15122650D02*
X6198277Y-15122650D01*
X6198277Y-15122650D02*
X6217324Y-15132174D01*
X6217324Y-15132174D02*
X6226848Y-15151222D01*
X6226848Y-15151222D02*
X6226848Y-15255984D01*
X6322086Y-15255984D02*
X6322086Y-15122650D01*
X6322086Y-15141698D02*
X6331610Y-15132174D01*
X6331610Y-15132174D02*
X6350658Y-15122650D01*
X6350658Y-15122650D02*
X6379229Y-15122650D01*
X6379229Y-15122650D02*
X6398277Y-15132174D01*
X6398277Y-15132174D02*
X6407801Y-15151222D01*
X6407801Y-15151222D02*
X6407801Y-15255984D01*
X6407801Y-15151222D02*
X6417324Y-15132174D01*
X6417324Y-15132174D02*
X6436372Y-15122650D01*
X6436372Y-15122650D02*
X6464943Y-15122650D01*
X6464943Y-15122650D02*
X6483991Y-15132174D01*
X6483991Y-15132174D02*
X6493515Y-15151222D01*
X6493515Y-15151222D02*
X6493515Y-15255984D01*
X6883991Y-15046460D02*
X6712563Y-15303603D01*
X7141134Y-15055984D02*
X7160182Y-15055984D01*
X7160182Y-15055984D02*
X7179229Y-15065508D01*
X7179229Y-15065508D02*
X7188753Y-15075031D01*
X7188753Y-15075031D02*
X7198277Y-15094079D01*
X7198277Y-15094079D02*
X7207801Y-15132174D01*
X7207801Y-15132174D02*
X7207801Y-15179793D01*
X7207801Y-15179793D02*
X7198277Y-15217888D01*
X7198277Y-15217888D02*
X7188753Y-15236936D01*
X7188753Y-15236936D02*
X7179229Y-15246460D01*
X7179229Y-15246460D02*
X7160182Y-15255984D01*
X7160182Y-15255984D02*
X7141134Y-15255984D01*
X7141134Y-15255984D02*
X7122086Y-15246460D01*
X7122086Y-15246460D02*
X7112563Y-15236936D01*
X7112563Y-15236936D02*
X7103039Y-15217888D01*
X7103039Y-15217888D02*
X7093515Y-15179793D01*
X7093515Y-15179793D02*
X7093515Y-15132174D01*
X7093515Y-15132174D02*
X7103039Y-15094079D01*
X7103039Y-15094079D02*
X7112563Y-15075031D01*
X7112563Y-15075031D02*
X7122086Y-15065508D01*
X7122086Y-15065508D02*
X7141134Y-15055984D01*
X7293515Y-15236936D02*
X7303039Y-15246460D01*
X7303039Y-15246460D02*
X7293515Y-15255984D01*
X7293515Y-15255984D02*
X7283991Y-15246460D01*
X7283991Y-15246460D02*
X7293515Y-15236936D01*
X7293515Y-15236936D02*
X7293515Y-15255984D01*
X7426848Y-15055984D02*
X7445896Y-15055984D01*
X7445896Y-15055984D02*
X7464944Y-15065508D01*
X7464944Y-15065508D02*
X7474467Y-15075031D01*
X7474467Y-15075031D02*
X7483991Y-15094079D01*
X7483991Y-15094079D02*
X7493515Y-15132174D01*
X7493515Y-15132174D02*
X7493515Y-15179793D01*
X7493515Y-15179793D02*
X7483991Y-15217888D01*
X7483991Y-15217888D02*
X7474467Y-15236936D01*
X7474467Y-15236936D02*
X7464944Y-15246460D01*
X7464944Y-15246460D02*
X7445896Y-15255984D01*
X7445896Y-15255984D02*
X7426848Y-15255984D01*
X7426848Y-15255984D02*
X7407801Y-15246460D01*
X7407801Y-15246460D02*
X7398277Y-15236936D01*
X7398277Y-15236936D02*
X7388753Y-15217888D01*
X7388753Y-15217888D02*
X7379229Y-15179793D01*
X7379229Y-15179793D02*
X7379229Y-15132174D01*
X7379229Y-15132174D02*
X7388753Y-15094079D01*
X7388753Y-15094079D02*
X7398277Y-15075031D01*
X7398277Y-15075031D02*
X7407801Y-15065508D01*
X7407801Y-15065508D02*
X7426848Y-15055984D01*
X7683991Y-15255984D02*
X7569706Y-15255984D01*
X7626848Y-15255984D02*
X7626848Y-15055984D01*
X7626848Y-15055984D02*
X7607801Y-15084555D01*
X7607801Y-15084555D02*
X7588753Y-15103603D01*
X7588753Y-15103603D02*
X7569706Y-15113127D01*
X7779229Y-15255984D02*
X7817325Y-15255984D01*
X7817325Y-15255984D02*
X7836372Y-15246460D01*
X7836372Y-15246460D02*
X7845896Y-15236936D01*
X7845896Y-15236936D02*
X7864944Y-15208365D01*
X7864944Y-15208365D02*
X7874467Y-15170269D01*
X7874467Y-15170269D02*
X7874467Y-15094079D01*
X7874467Y-15094079D02*
X7864944Y-15075031D01*
X7864944Y-15075031D02*
X7855420Y-15065508D01*
X7855420Y-15065508D02*
X7836372Y-15055984D01*
X7836372Y-15055984D02*
X7798277Y-15055984D01*
X7798277Y-15055984D02*
X7779229Y-15065508D01*
X7779229Y-15065508D02*
X7769706Y-15075031D01*
X7769706Y-15075031D02*
X7760182Y-15094079D01*
X7760182Y-15094079D02*
X7760182Y-15141698D01*
X7760182Y-15141698D02*
X7769706Y-15160746D01*
X7769706Y-15160746D02*
X7779229Y-15170269D01*
X7779229Y-15170269D02*
X7798277Y-15179793D01*
X7798277Y-15179793D02*
X7836372Y-15179793D01*
X7836372Y-15179793D02*
X7855420Y-15170269D01*
X7855420Y-15170269D02*
X7864944Y-15160746D01*
X7864944Y-15160746D02*
X7874467Y-15141698D01*
X7941134Y-15055984D02*
X8074467Y-15055984D01*
X8074467Y-15055984D02*
X7988753Y-15255984D01*
X8141134Y-15055984D02*
X8141134Y-15094079D01*
X8217325Y-15055984D02*
X8217325Y-15094079D01*
X8512563Y-15332174D02*
X8503039Y-15322650D01*
X8503039Y-15322650D02*
X8483991Y-15294079D01*
X8483991Y-15294079D02*
X8474468Y-15275031D01*
X8474468Y-15275031D02*
X8464944Y-15246460D01*
X8464944Y-15246460D02*
X8455420Y-15198841D01*
X8455420Y-15198841D02*
X8455420Y-15160746D01*
X8455420Y-15160746D02*
X8464944Y-15113127D01*
X8464944Y-15113127D02*
X8474468Y-15084555D01*
X8474468Y-15084555D02*
X8483991Y-15065508D01*
X8483991Y-15065508D02*
X8503039Y-15036936D01*
X8503039Y-15036936D02*
X8512563Y-15027412D01*
X8579230Y-15075031D02*
X8588753Y-15065508D01*
X8588753Y-15065508D02*
X8607801Y-15055984D01*
X8607801Y-15055984D02*
X8655420Y-15055984D01*
X8655420Y-15055984D02*
X8674468Y-15065508D01*
X8674468Y-15065508D02*
X8683991Y-15075031D01*
X8683991Y-15075031D02*
X8693515Y-15094079D01*
X8693515Y-15094079D02*
X8693515Y-15113127D01*
X8693515Y-15113127D02*
X8683991Y-15141698D01*
X8683991Y-15141698D02*
X8569706Y-15255984D01*
X8569706Y-15255984D02*
X8693515Y-15255984D01*
X8931611Y-15255984D02*
X8931611Y-15055984D01*
X9017325Y-15255984D02*
X9017325Y-15151222D01*
X9017325Y-15151222D02*
X9007801Y-15132174D01*
X9007801Y-15132174D02*
X8988753Y-15122650D01*
X8988753Y-15122650D02*
X8960182Y-15122650D01*
X8960182Y-15122650D02*
X8941134Y-15132174D01*
X8941134Y-15132174D02*
X8931611Y-15141698D01*
X9141134Y-15255984D02*
X9122087Y-15246460D01*
X9122087Y-15246460D02*
X9112563Y-15236936D01*
X9112563Y-15236936D02*
X9103039Y-15217888D01*
X9103039Y-15217888D02*
X9103039Y-15160746D01*
X9103039Y-15160746D02*
X9112563Y-15141698D01*
X9112563Y-15141698D02*
X9122087Y-15132174D01*
X9122087Y-15132174D02*
X9141134Y-15122650D01*
X9141134Y-15122650D02*
X9169706Y-15122650D01*
X9169706Y-15122650D02*
X9188753Y-15132174D01*
X9188753Y-15132174D02*
X9198277Y-15141698D01*
X9198277Y-15141698D02*
X9207801Y-15160746D01*
X9207801Y-15160746D02*
X9207801Y-15217888D01*
X9207801Y-15217888D02*
X9198277Y-15236936D01*
X9198277Y-15236936D02*
X9188753Y-15246460D01*
X9188753Y-15246460D02*
X9169706Y-15255984D01*
X9169706Y-15255984D02*
X9141134Y-15255984D01*
X9322087Y-15255984D02*
X9303039Y-15246460D01*
X9303039Y-15246460D02*
X9293515Y-15227412D01*
X9293515Y-15227412D02*
X9293515Y-15055984D01*
X9474468Y-15246460D02*
X9455420Y-15255984D01*
X9455420Y-15255984D02*
X9417325Y-15255984D01*
X9417325Y-15255984D02*
X9398277Y-15246460D01*
X9398277Y-15246460D02*
X9388753Y-15227412D01*
X9388753Y-15227412D02*
X9388753Y-15151222D01*
X9388753Y-15151222D02*
X9398277Y-15132174D01*
X9398277Y-15132174D02*
X9417325Y-15122650D01*
X9417325Y-15122650D02*
X9455420Y-15122650D01*
X9455420Y-15122650D02*
X9474468Y-15132174D01*
X9474468Y-15132174D02*
X9483992Y-15151222D01*
X9483992Y-15151222D02*
X9483992Y-15170269D01*
X9483992Y-15170269D02*
X9388753Y-15189317D01*
X9560182Y-15246460D02*
X9579230Y-15255984D01*
X9579230Y-15255984D02*
X9617325Y-15255984D01*
X9617325Y-15255984D02*
X9636373Y-15246460D01*
X9636373Y-15246460D02*
X9645896Y-15227412D01*
X9645896Y-15227412D02*
X9645896Y-15217888D01*
X9645896Y-15217888D02*
X9636373Y-15198841D01*
X9636373Y-15198841D02*
X9617325Y-15189317D01*
X9617325Y-15189317D02*
X9588753Y-15189317D01*
X9588753Y-15189317D02*
X9569706Y-15179793D01*
X9569706Y-15179793D02*
X9560182Y-15160746D01*
X9560182Y-15160746D02*
X9560182Y-15151222D01*
X9560182Y-15151222D02*
X9569706Y-15132174D01*
X9569706Y-15132174D02*
X9588753Y-15122650D01*
X9588753Y-15122650D02*
X9617325Y-15122650D01*
X9617325Y-15122650D02*
X9636373Y-15132174D01*
X9712563Y-15332174D02*
X9722087Y-15322650D01*
X9722087Y-15322650D02*
X9741134Y-15294079D01*
X9741134Y-15294079D02*
X9750658Y-15275031D01*
X9750658Y-15275031D02*
X9760182Y-15246460D01*
X9760182Y-15246460D02*
X9769706Y-15198841D01*
X9769706Y-15198841D02*
X9769706Y-15160746D01*
X9769706Y-15160746D02*
X9760182Y-15113127D01*
X9760182Y-15113127D02*
X9750658Y-15084555D01*
X9750658Y-15084555D02*
X9741134Y-15065508D01*
X9741134Y-15065508D02*
X9722087Y-15036936D01*
X9722087Y-15036936D02*
X9712563Y-15027412D01*
D13*
X4907500Y-15458500D02*
X4937500Y-15428500D01*
X4907500Y-15398500D01*
X4877500Y-15428500D01*
X4907500Y-15458500D01*
D12*
X5236372Y-15319984D02*
X5255420Y-15319984D01*
X5255420Y-15319984D02*
X5274467Y-15329508D01*
X5274467Y-15329508D02*
X5283991Y-15339031D01*
X5283991Y-15339031D02*
X5293515Y-15358079D01*
X5293515Y-15358079D02*
X5303039Y-15396174D01*
X5303039Y-15396174D02*
X5303039Y-15443793D01*
X5303039Y-15443793D02*
X5293515Y-15481888D01*
X5293515Y-15481888D02*
X5283991Y-15500936D01*
X5283991Y-15500936D02*
X5274467Y-15510460D01*
X5274467Y-15510460D02*
X5255420Y-15519984D01*
X5255420Y-15519984D02*
X5236372Y-15519984D01*
X5236372Y-15519984D02*
X5217324Y-15510460D01*
X5217324Y-15510460D02*
X5207801Y-15500936D01*
X5207801Y-15500936D02*
X5198277Y-15481888D01*
X5198277Y-15481888D02*
X5188753Y-15443793D01*
X5188753Y-15443793D02*
X5188753Y-15396174D01*
X5188753Y-15396174D02*
X5198277Y-15358079D01*
X5198277Y-15358079D02*
X5207801Y-15339031D01*
X5207801Y-15339031D02*
X5217324Y-15329508D01*
X5217324Y-15329508D02*
X5236372Y-15319984D01*
X5388753Y-15500936D02*
X5398277Y-15510460D01*
X5398277Y-15510460D02*
X5388753Y-15519984D01*
X5388753Y-15519984D02*
X5379229Y-15510460D01*
X5379229Y-15510460D02*
X5388753Y-15500936D01*
X5388753Y-15500936D02*
X5388753Y-15519984D01*
X5569705Y-15319984D02*
X5531610Y-15319984D01*
X5531610Y-15319984D02*
X5512563Y-15329508D01*
X5512563Y-15329508D02*
X5503039Y-15339031D01*
X5503039Y-15339031D02*
X5483991Y-15367603D01*
X5483991Y-15367603D02*
X5474467Y-15405698D01*
X5474467Y-15405698D02*
X5474467Y-15481888D01*
X5474467Y-15481888D02*
X5483991Y-15500936D01*
X5483991Y-15500936D02*
X5493515Y-15510460D01*
X5493515Y-15510460D02*
X5512563Y-15519984D01*
X5512563Y-15519984D02*
X5550658Y-15519984D01*
X5550658Y-15519984D02*
X5569705Y-15510460D01*
X5569705Y-15510460D02*
X5579229Y-15500936D01*
X5579229Y-15500936D02*
X5588753Y-15481888D01*
X5588753Y-15481888D02*
X5588753Y-15434269D01*
X5588753Y-15434269D02*
X5579229Y-15415222D01*
X5579229Y-15415222D02*
X5569705Y-15405698D01*
X5569705Y-15405698D02*
X5550658Y-15396174D01*
X5550658Y-15396174D02*
X5512563Y-15396174D01*
X5512563Y-15396174D02*
X5493515Y-15405698D01*
X5493515Y-15405698D02*
X5483991Y-15415222D01*
X5483991Y-15415222D02*
X5474467Y-15434269D01*
X5712562Y-15319984D02*
X5731610Y-15319984D01*
X5731610Y-15319984D02*
X5750658Y-15329508D01*
X5750658Y-15329508D02*
X5760182Y-15339031D01*
X5760182Y-15339031D02*
X5769705Y-15358079D01*
X5769705Y-15358079D02*
X5779229Y-15396174D01*
X5779229Y-15396174D02*
X5779229Y-15443793D01*
X5779229Y-15443793D02*
X5769705Y-15481888D01*
X5769705Y-15481888D02*
X5760182Y-15500936D01*
X5760182Y-15500936D02*
X5750658Y-15510460D01*
X5750658Y-15510460D02*
X5731610Y-15519984D01*
X5731610Y-15519984D02*
X5712562Y-15519984D01*
X5712562Y-15519984D02*
X5693515Y-15510460D01*
X5693515Y-15510460D02*
X5683991Y-15500936D01*
X5683991Y-15500936D02*
X5674467Y-15481888D01*
X5674467Y-15481888D02*
X5664943Y-15443793D01*
X5664943Y-15443793D02*
X5664943Y-15396174D01*
X5664943Y-15396174D02*
X5674467Y-15358079D01*
X5674467Y-15358079D02*
X5683991Y-15339031D01*
X5683991Y-15339031D02*
X5693515Y-15329508D01*
X5693515Y-15329508D02*
X5712562Y-15319984D01*
X5903039Y-15319984D02*
X5922086Y-15319984D01*
X5922086Y-15319984D02*
X5941134Y-15329508D01*
X5941134Y-15329508D02*
X5950658Y-15339031D01*
X5950658Y-15339031D02*
X5960182Y-15358079D01*
X5960182Y-15358079D02*
X5969705Y-15396174D01*
X5969705Y-15396174D02*
X5969705Y-15443793D01*
X5969705Y-15443793D02*
X5960182Y-15481888D01*
X5960182Y-15481888D02*
X5950658Y-15500936D01*
X5950658Y-15500936D02*
X5941134Y-15510460D01*
X5941134Y-15510460D02*
X5922086Y-15519984D01*
X5922086Y-15519984D02*
X5903039Y-15519984D01*
X5903039Y-15519984D02*
X5883991Y-15510460D01*
X5883991Y-15510460D02*
X5874467Y-15500936D01*
X5874467Y-15500936D02*
X5864943Y-15481888D01*
X5864943Y-15481888D02*
X5855420Y-15443793D01*
X5855420Y-15443793D02*
X5855420Y-15396174D01*
X5855420Y-15396174D02*
X5864943Y-15358079D01*
X5864943Y-15358079D02*
X5874467Y-15339031D01*
X5874467Y-15339031D02*
X5883991Y-15329508D01*
X5883991Y-15329508D02*
X5903039Y-15319984D01*
X6055420Y-15519984D02*
X6055420Y-15386650D01*
X6055420Y-15405698D02*
X6064943Y-15396174D01*
X6064943Y-15396174D02*
X6083991Y-15386650D01*
X6083991Y-15386650D02*
X6112563Y-15386650D01*
X6112563Y-15386650D02*
X6131610Y-15396174D01*
X6131610Y-15396174D02*
X6141134Y-15415222D01*
X6141134Y-15415222D02*
X6141134Y-15519984D01*
X6141134Y-15415222D02*
X6150658Y-15396174D01*
X6150658Y-15396174D02*
X6169705Y-15386650D01*
X6169705Y-15386650D02*
X6198277Y-15386650D01*
X6198277Y-15386650D02*
X6217324Y-15396174D01*
X6217324Y-15396174D02*
X6226848Y-15415222D01*
X6226848Y-15415222D02*
X6226848Y-15519984D01*
X6322086Y-15519984D02*
X6322086Y-15386650D01*
X6322086Y-15405698D02*
X6331610Y-15396174D01*
X6331610Y-15396174D02*
X6350658Y-15386650D01*
X6350658Y-15386650D02*
X6379229Y-15386650D01*
X6379229Y-15386650D02*
X6398277Y-15396174D01*
X6398277Y-15396174D02*
X6407801Y-15415222D01*
X6407801Y-15415222D02*
X6407801Y-15519984D01*
X6407801Y-15415222D02*
X6417324Y-15396174D01*
X6417324Y-15396174D02*
X6436372Y-15386650D01*
X6436372Y-15386650D02*
X6464943Y-15386650D01*
X6464943Y-15386650D02*
X6483991Y-15396174D01*
X6483991Y-15396174D02*
X6493515Y-15415222D01*
X6493515Y-15415222D02*
X6493515Y-15519984D01*
X6883991Y-15310460D02*
X6712563Y-15567603D01*
X7141134Y-15319984D02*
X7160182Y-15319984D01*
X7160182Y-15319984D02*
X7179229Y-15329508D01*
X7179229Y-15329508D02*
X7188753Y-15339031D01*
X7188753Y-15339031D02*
X7198277Y-15358079D01*
X7198277Y-15358079D02*
X7207801Y-15396174D01*
X7207801Y-15396174D02*
X7207801Y-15443793D01*
X7207801Y-15443793D02*
X7198277Y-15481888D01*
X7198277Y-15481888D02*
X7188753Y-15500936D01*
X7188753Y-15500936D02*
X7179229Y-15510460D01*
X7179229Y-15510460D02*
X7160182Y-15519984D01*
X7160182Y-15519984D02*
X7141134Y-15519984D01*
X7141134Y-15519984D02*
X7122086Y-15510460D01*
X7122086Y-15510460D02*
X7112563Y-15500936D01*
X7112563Y-15500936D02*
X7103039Y-15481888D01*
X7103039Y-15481888D02*
X7093515Y-15443793D01*
X7093515Y-15443793D02*
X7093515Y-15396174D01*
X7093515Y-15396174D02*
X7103039Y-15358079D01*
X7103039Y-15358079D02*
X7112563Y-15339031D01*
X7112563Y-15339031D02*
X7122086Y-15329508D01*
X7122086Y-15329508D02*
X7141134Y-15319984D01*
X7293515Y-15500936D02*
X7303039Y-15510460D01*
X7303039Y-15510460D02*
X7293515Y-15519984D01*
X7293515Y-15519984D02*
X7283991Y-15510460D01*
X7283991Y-15510460D02*
X7293515Y-15500936D01*
X7293515Y-15500936D02*
X7293515Y-15519984D01*
X7426848Y-15319984D02*
X7445896Y-15319984D01*
X7445896Y-15319984D02*
X7464944Y-15329508D01*
X7464944Y-15329508D02*
X7474467Y-15339031D01*
X7474467Y-15339031D02*
X7483991Y-15358079D01*
X7483991Y-15358079D02*
X7493515Y-15396174D01*
X7493515Y-15396174D02*
X7493515Y-15443793D01*
X7493515Y-15443793D02*
X7483991Y-15481888D01*
X7483991Y-15481888D02*
X7474467Y-15500936D01*
X7474467Y-15500936D02*
X7464944Y-15510460D01*
X7464944Y-15510460D02*
X7445896Y-15519984D01*
X7445896Y-15519984D02*
X7426848Y-15519984D01*
X7426848Y-15519984D02*
X7407801Y-15510460D01*
X7407801Y-15510460D02*
X7398277Y-15500936D01*
X7398277Y-15500936D02*
X7388753Y-15481888D01*
X7388753Y-15481888D02*
X7379229Y-15443793D01*
X7379229Y-15443793D02*
X7379229Y-15396174D01*
X7379229Y-15396174D02*
X7388753Y-15358079D01*
X7388753Y-15358079D02*
X7398277Y-15339031D01*
X7398277Y-15339031D02*
X7407801Y-15329508D01*
X7407801Y-15329508D02*
X7426848Y-15319984D01*
X7569706Y-15339031D02*
X7579229Y-15329508D01*
X7579229Y-15329508D02*
X7598277Y-15319984D01*
X7598277Y-15319984D02*
X7645896Y-15319984D01*
X7645896Y-15319984D02*
X7664944Y-15329508D01*
X7664944Y-15329508D02*
X7674467Y-15339031D01*
X7674467Y-15339031D02*
X7683991Y-15358079D01*
X7683991Y-15358079D02*
X7683991Y-15377127D01*
X7683991Y-15377127D02*
X7674467Y-15405698D01*
X7674467Y-15405698D02*
X7560182Y-15519984D01*
X7560182Y-15519984D02*
X7683991Y-15519984D01*
X7750658Y-15319984D02*
X7874467Y-15319984D01*
X7874467Y-15319984D02*
X7807801Y-15396174D01*
X7807801Y-15396174D02*
X7836372Y-15396174D01*
X7836372Y-15396174D02*
X7855420Y-15405698D01*
X7855420Y-15405698D02*
X7864944Y-15415222D01*
X7864944Y-15415222D02*
X7874467Y-15434269D01*
X7874467Y-15434269D02*
X7874467Y-15481888D01*
X7874467Y-15481888D02*
X7864944Y-15500936D01*
X7864944Y-15500936D02*
X7855420Y-15510460D01*
X7855420Y-15510460D02*
X7836372Y-15519984D01*
X7836372Y-15519984D02*
X7779229Y-15519984D01*
X7779229Y-15519984D02*
X7760182Y-15510460D01*
X7760182Y-15510460D02*
X7750658Y-15500936D01*
X8045896Y-15319984D02*
X8007801Y-15319984D01*
X8007801Y-15319984D02*
X7988753Y-15329508D01*
X7988753Y-15329508D02*
X7979229Y-15339031D01*
X7979229Y-15339031D02*
X7960182Y-15367603D01*
X7960182Y-15367603D02*
X7950658Y-15405698D01*
X7950658Y-15405698D02*
X7950658Y-15481888D01*
X7950658Y-15481888D02*
X7960182Y-15500936D01*
X7960182Y-15500936D02*
X7969706Y-15510460D01*
X7969706Y-15510460D02*
X7988753Y-15519984D01*
X7988753Y-15519984D02*
X8026848Y-15519984D01*
X8026848Y-15519984D02*
X8045896Y-15510460D01*
X8045896Y-15510460D02*
X8055420Y-15500936D01*
X8055420Y-15500936D02*
X8064944Y-15481888D01*
X8064944Y-15481888D02*
X8064944Y-15434269D01*
X8064944Y-15434269D02*
X8055420Y-15415222D01*
X8055420Y-15415222D02*
X8045896Y-15405698D01*
X8045896Y-15405698D02*
X8026848Y-15396174D01*
X8026848Y-15396174D02*
X7988753Y-15396174D01*
X7988753Y-15396174D02*
X7969706Y-15405698D01*
X7969706Y-15405698D02*
X7960182Y-15415222D01*
X7960182Y-15415222D02*
X7950658Y-15434269D01*
X8141134Y-15319984D02*
X8141134Y-15358079D01*
X8217325Y-15319984D02*
X8217325Y-15358079D01*
X8512563Y-15596174D02*
X8503039Y-15586650D01*
X8503039Y-15586650D02*
X8483991Y-15558079D01*
X8483991Y-15558079D02*
X8474468Y-15539031D01*
X8474468Y-15539031D02*
X8464944Y-15510460D01*
X8464944Y-15510460D02*
X8455420Y-15462841D01*
X8455420Y-15462841D02*
X8455420Y-15424746D01*
X8455420Y-15424746D02*
X8464944Y-15377127D01*
X8464944Y-15377127D02*
X8474468Y-15348555D01*
X8474468Y-15348555D02*
X8483991Y-15329508D01*
X8483991Y-15329508D02*
X8503039Y-15300936D01*
X8503039Y-15300936D02*
X8512563Y-15291412D01*
X8626849Y-15319984D02*
X8645896Y-15319984D01*
X8645896Y-15319984D02*
X8664944Y-15329508D01*
X8664944Y-15329508D02*
X8674468Y-15339031D01*
X8674468Y-15339031D02*
X8683991Y-15358079D01*
X8683991Y-15358079D02*
X8693515Y-15396174D01*
X8693515Y-15396174D02*
X8693515Y-15443793D01*
X8693515Y-15443793D02*
X8683991Y-15481888D01*
X8683991Y-15481888D02*
X8674468Y-15500936D01*
X8674468Y-15500936D02*
X8664944Y-15510460D01*
X8664944Y-15510460D02*
X8645896Y-15519984D01*
X8645896Y-15519984D02*
X8626849Y-15519984D01*
X8626849Y-15519984D02*
X8607801Y-15510460D01*
X8607801Y-15510460D02*
X8598277Y-15500936D01*
X8598277Y-15500936D02*
X8588753Y-15481888D01*
X8588753Y-15481888D02*
X8579230Y-15443793D01*
X8579230Y-15443793D02*
X8579230Y-15396174D01*
X8579230Y-15396174D02*
X8588753Y-15358079D01*
X8588753Y-15358079D02*
X8598277Y-15339031D01*
X8598277Y-15339031D02*
X8607801Y-15329508D01*
X8607801Y-15329508D02*
X8626849Y-15319984D01*
X8931611Y-15519984D02*
X8931611Y-15319984D01*
X9017325Y-15519984D02*
X9017325Y-15415222D01*
X9017325Y-15415222D02*
X9007801Y-15396174D01*
X9007801Y-15396174D02*
X8988753Y-15386650D01*
X8988753Y-15386650D02*
X8960182Y-15386650D01*
X8960182Y-15386650D02*
X8941134Y-15396174D01*
X8941134Y-15396174D02*
X8931611Y-15405698D01*
X9141134Y-15519984D02*
X9122087Y-15510460D01*
X9122087Y-15510460D02*
X9112563Y-15500936D01*
X9112563Y-15500936D02*
X9103039Y-15481888D01*
X9103039Y-15481888D02*
X9103039Y-15424746D01*
X9103039Y-15424746D02*
X9112563Y-15405698D01*
X9112563Y-15405698D02*
X9122087Y-15396174D01*
X9122087Y-15396174D02*
X9141134Y-15386650D01*
X9141134Y-15386650D02*
X9169706Y-15386650D01*
X9169706Y-15386650D02*
X9188753Y-15396174D01*
X9188753Y-15396174D02*
X9198277Y-15405698D01*
X9198277Y-15405698D02*
X9207801Y-15424746D01*
X9207801Y-15424746D02*
X9207801Y-15481888D01*
X9207801Y-15481888D02*
X9198277Y-15500936D01*
X9198277Y-15500936D02*
X9188753Y-15510460D01*
X9188753Y-15510460D02*
X9169706Y-15519984D01*
X9169706Y-15519984D02*
X9141134Y-15519984D01*
X9322087Y-15519984D02*
X9303039Y-15510460D01*
X9303039Y-15510460D02*
X9293515Y-15491412D01*
X9293515Y-15491412D02*
X9293515Y-15319984D01*
X9474468Y-15510460D02*
X9455420Y-15519984D01*
X9455420Y-15519984D02*
X9417325Y-15519984D01*
X9417325Y-15519984D02*
X9398277Y-15510460D01*
X9398277Y-15510460D02*
X9388753Y-15491412D01*
X9388753Y-15491412D02*
X9388753Y-15415222D01*
X9388753Y-15415222D02*
X9398277Y-15396174D01*
X9398277Y-15396174D02*
X9417325Y-15386650D01*
X9417325Y-15386650D02*
X9455420Y-15386650D01*
X9455420Y-15386650D02*
X9474468Y-15396174D01*
X9474468Y-15396174D02*
X9483992Y-15415222D01*
X9483992Y-15415222D02*
X9483992Y-15434269D01*
X9483992Y-15434269D02*
X9388753Y-15453317D01*
X9560182Y-15510460D02*
X9579230Y-15519984D01*
X9579230Y-15519984D02*
X9617325Y-15519984D01*
X9617325Y-15519984D02*
X9636373Y-15510460D01*
X9636373Y-15510460D02*
X9645896Y-15491412D01*
X9645896Y-15491412D02*
X9645896Y-15481888D01*
X9645896Y-15481888D02*
X9636373Y-15462841D01*
X9636373Y-15462841D02*
X9617325Y-15453317D01*
X9617325Y-15453317D02*
X9588753Y-15453317D01*
X9588753Y-15453317D02*
X9569706Y-15443793D01*
X9569706Y-15443793D02*
X9560182Y-15424746D01*
X9560182Y-15424746D02*
X9560182Y-15415222D01*
X9560182Y-15415222D02*
X9569706Y-15396174D01*
X9569706Y-15396174D02*
X9588753Y-15386650D01*
X9588753Y-15386650D02*
X9617325Y-15386650D01*
X9617325Y-15386650D02*
X9636373Y-15396174D01*
X9883992Y-15443793D02*
X10036373Y-15443793D01*
X9960182Y-15519984D02*
X9960182Y-15367603D01*
X10369706Y-15386650D02*
X10369706Y-15519984D01*
X10322087Y-15310460D02*
X10274468Y-15453317D01*
X10274468Y-15453317D02*
X10398277Y-15453317D01*
X10617325Y-15510460D02*
X10636373Y-15519984D01*
X10636373Y-15519984D02*
X10674468Y-15519984D01*
X10674468Y-15519984D02*
X10693516Y-15510460D01*
X10693516Y-15510460D02*
X10703039Y-15491412D01*
X10703039Y-15491412D02*
X10703039Y-15481888D01*
X10703039Y-15481888D02*
X10693516Y-15462841D01*
X10693516Y-15462841D02*
X10674468Y-15453317D01*
X10674468Y-15453317D02*
X10645896Y-15453317D01*
X10645896Y-15453317D02*
X10626849Y-15443793D01*
X10626849Y-15443793D02*
X10617325Y-15424746D01*
X10617325Y-15424746D02*
X10617325Y-15415222D01*
X10617325Y-15415222D02*
X10626849Y-15396174D01*
X10626849Y-15396174D02*
X10645896Y-15386650D01*
X10645896Y-15386650D02*
X10674468Y-15386650D01*
X10674468Y-15386650D02*
X10693516Y-15396174D01*
X10817325Y-15519984D02*
X10798277Y-15510460D01*
X10798277Y-15510460D02*
X10788754Y-15491412D01*
X10788754Y-15491412D02*
X10788754Y-15319984D01*
X10922087Y-15519984D02*
X10903039Y-15510460D01*
X10903039Y-15510460D02*
X10893516Y-15500936D01*
X10893516Y-15500936D02*
X10883992Y-15481888D01*
X10883992Y-15481888D02*
X10883992Y-15424746D01*
X10883992Y-15424746D02*
X10893516Y-15405698D01*
X10893516Y-15405698D02*
X10903039Y-15396174D01*
X10903039Y-15396174D02*
X10922087Y-15386650D01*
X10922087Y-15386650D02*
X10950658Y-15386650D01*
X10950658Y-15386650D02*
X10969706Y-15396174D01*
X10969706Y-15396174D02*
X10979230Y-15405698D01*
X10979230Y-15405698D02*
X10988754Y-15424746D01*
X10988754Y-15424746D02*
X10988754Y-15481888D01*
X10988754Y-15481888D02*
X10979230Y-15500936D01*
X10979230Y-15500936D02*
X10969706Y-15510460D01*
X10969706Y-15510460D02*
X10950658Y-15519984D01*
X10950658Y-15519984D02*
X10922087Y-15519984D01*
X11045897Y-15386650D02*
X11122087Y-15386650D01*
X11074468Y-15319984D02*
X11074468Y-15491412D01*
X11074468Y-15491412D02*
X11083992Y-15510460D01*
X11083992Y-15510460D02*
X11103039Y-15519984D01*
X11103039Y-15519984D02*
X11122087Y-15519984D01*
X11179230Y-15510460D02*
X11198277Y-15519984D01*
X11198277Y-15519984D02*
X11236373Y-15519984D01*
X11236373Y-15519984D02*
X11255420Y-15510460D01*
X11255420Y-15510460D02*
X11264944Y-15491412D01*
X11264944Y-15491412D02*
X11264944Y-15481888D01*
X11264944Y-15481888D02*
X11255420Y-15462841D01*
X11255420Y-15462841D02*
X11236373Y-15453317D01*
X11236373Y-15453317D02*
X11207801Y-15453317D01*
X11207801Y-15453317D02*
X11188754Y-15443793D01*
X11188754Y-15443793D02*
X11179230Y-15424746D01*
X11179230Y-15424746D02*
X11179230Y-15415222D01*
X11179230Y-15415222D02*
X11188754Y-15396174D01*
X11188754Y-15396174D02*
X11207801Y-15386650D01*
X11207801Y-15386650D02*
X11236373Y-15386650D01*
X11236373Y-15386650D02*
X11255420Y-15396174D01*
X11331611Y-15596174D02*
X11341135Y-15586650D01*
X11341135Y-15586650D02*
X11360182Y-15558079D01*
X11360182Y-15558079D02*
X11369706Y-15539031D01*
X11369706Y-15539031D02*
X11379230Y-15510460D01*
X11379230Y-15510460D02*
X11388754Y-15462841D01*
X11388754Y-15462841D02*
X11388754Y-15424746D01*
X11388754Y-15424746D02*
X11379230Y-15377127D01*
X11379230Y-15377127D02*
X11369706Y-15348555D01*
X11369706Y-15348555D02*
X11360182Y-15329508D01*
X11360182Y-15329508D02*
X11341135Y-15300936D01*
X11341135Y-15300936D02*
X11331611Y-15291412D01*
D13*
X4843520Y-15645510D02*
X4937500Y-15739490D01*
X4937500Y-15645510D02*
X4843520Y-15739490D01*
X4937500Y-15692500D02*
G75*
G02*
X4843520Y-15692500I-46990J0D01*
G01*
X4843520Y-15692500D02*
G75*
G02*
X4937500Y-15692500I46990J0D01*
G01*
D12*
X5236372Y-15583984D02*
X5255420Y-15583984D01*
X5255420Y-15583984D02*
X5274467Y-15593508D01*
X5274467Y-15593508D02*
X5283991Y-15603031D01*
X5283991Y-15603031D02*
X5293515Y-15622079D01*
X5293515Y-15622079D02*
X5303039Y-15660174D01*
X5303039Y-15660174D02*
X5303039Y-15707793D01*
X5303039Y-15707793D02*
X5293515Y-15745888D01*
X5293515Y-15745888D02*
X5283991Y-15764936D01*
X5283991Y-15764936D02*
X5274467Y-15774460D01*
X5274467Y-15774460D02*
X5255420Y-15783984D01*
X5255420Y-15783984D02*
X5236372Y-15783984D01*
X5236372Y-15783984D02*
X5217324Y-15774460D01*
X5217324Y-15774460D02*
X5207801Y-15764936D01*
X5207801Y-15764936D02*
X5198277Y-15745888D01*
X5198277Y-15745888D02*
X5188753Y-15707793D01*
X5188753Y-15707793D02*
X5188753Y-15660174D01*
X5188753Y-15660174D02*
X5198277Y-15622079D01*
X5198277Y-15622079D02*
X5207801Y-15603031D01*
X5207801Y-15603031D02*
X5217324Y-15593508D01*
X5217324Y-15593508D02*
X5236372Y-15583984D01*
X5388753Y-15764936D02*
X5398277Y-15774460D01*
X5398277Y-15774460D02*
X5388753Y-15783984D01*
X5388753Y-15783984D02*
X5379229Y-15774460D01*
X5379229Y-15774460D02*
X5388753Y-15764936D01*
X5388753Y-15764936D02*
X5388753Y-15783984D01*
X5493515Y-15783984D02*
X5531610Y-15783984D01*
X5531610Y-15783984D02*
X5550658Y-15774460D01*
X5550658Y-15774460D02*
X5560182Y-15764936D01*
X5560182Y-15764936D02*
X5579229Y-15736365D01*
X5579229Y-15736365D02*
X5588753Y-15698269D01*
X5588753Y-15698269D02*
X5588753Y-15622079D01*
X5588753Y-15622079D02*
X5579229Y-15603031D01*
X5579229Y-15603031D02*
X5569705Y-15593508D01*
X5569705Y-15593508D02*
X5550658Y-15583984D01*
X5550658Y-15583984D02*
X5512563Y-15583984D01*
X5512563Y-15583984D02*
X5493515Y-15593508D01*
X5493515Y-15593508D02*
X5483991Y-15603031D01*
X5483991Y-15603031D02*
X5474467Y-15622079D01*
X5474467Y-15622079D02*
X5474467Y-15669698D01*
X5474467Y-15669698D02*
X5483991Y-15688746D01*
X5483991Y-15688746D02*
X5493515Y-15698269D01*
X5493515Y-15698269D02*
X5512563Y-15707793D01*
X5512563Y-15707793D02*
X5550658Y-15707793D01*
X5550658Y-15707793D02*
X5569705Y-15698269D01*
X5569705Y-15698269D02*
X5579229Y-15688746D01*
X5579229Y-15688746D02*
X5588753Y-15669698D01*
X5760182Y-15650650D02*
X5760182Y-15783984D01*
X5712562Y-15574460D02*
X5664943Y-15717317D01*
X5664943Y-15717317D02*
X5788753Y-15717317D01*
X5903039Y-15583984D02*
X5922086Y-15583984D01*
X5922086Y-15583984D02*
X5941134Y-15593508D01*
X5941134Y-15593508D02*
X5950658Y-15603031D01*
X5950658Y-15603031D02*
X5960182Y-15622079D01*
X5960182Y-15622079D02*
X5969705Y-15660174D01*
X5969705Y-15660174D02*
X5969705Y-15707793D01*
X5969705Y-15707793D02*
X5960182Y-15745888D01*
X5960182Y-15745888D02*
X5950658Y-15764936D01*
X5950658Y-15764936D02*
X5941134Y-15774460D01*
X5941134Y-15774460D02*
X5922086Y-15783984D01*
X5922086Y-15783984D02*
X5903039Y-15783984D01*
X5903039Y-15783984D02*
X5883991Y-15774460D01*
X5883991Y-15774460D02*
X5874467Y-15764936D01*
X5874467Y-15764936D02*
X5864943Y-15745888D01*
X5864943Y-15745888D02*
X5855420Y-15707793D01*
X5855420Y-15707793D02*
X5855420Y-15660174D01*
X5855420Y-15660174D02*
X5864943Y-15622079D01*
X5864943Y-15622079D02*
X5874467Y-15603031D01*
X5874467Y-15603031D02*
X5883991Y-15593508D01*
X5883991Y-15593508D02*
X5903039Y-15583984D01*
X6055420Y-15783984D02*
X6055420Y-15650650D01*
X6055420Y-15669698D02*
X6064943Y-15660174D01*
X6064943Y-15660174D02*
X6083991Y-15650650D01*
X6083991Y-15650650D02*
X6112563Y-15650650D01*
X6112563Y-15650650D02*
X6131610Y-15660174D01*
X6131610Y-15660174D02*
X6141134Y-15679222D01*
X6141134Y-15679222D02*
X6141134Y-15783984D01*
X6141134Y-15679222D02*
X6150658Y-15660174D01*
X6150658Y-15660174D02*
X6169705Y-15650650D01*
X6169705Y-15650650D02*
X6198277Y-15650650D01*
X6198277Y-15650650D02*
X6217324Y-15660174D01*
X6217324Y-15660174D02*
X6226848Y-15679222D01*
X6226848Y-15679222D02*
X6226848Y-15783984D01*
X6322086Y-15783984D02*
X6322086Y-15650650D01*
X6322086Y-15669698D02*
X6331610Y-15660174D01*
X6331610Y-15660174D02*
X6350658Y-15650650D01*
X6350658Y-15650650D02*
X6379229Y-15650650D01*
X6379229Y-15650650D02*
X6398277Y-15660174D01*
X6398277Y-15660174D02*
X6407801Y-15679222D01*
X6407801Y-15679222D02*
X6407801Y-15783984D01*
X6407801Y-15679222D02*
X6417324Y-15660174D01*
X6417324Y-15660174D02*
X6436372Y-15650650D01*
X6436372Y-15650650D02*
X6464943Y-15650650D01*
X6464943Y-15650650D02*
X6483991Y-15660174D01*
X6483991Y-15660174D02*
X6493515Y-15679222D01*
X6493515Y-15679222D02*
X6493515Y-15783984D01*
X6883991Y-15574460D02*
X6712563Y-15831603D01*
X7141134Y-15583984D02*
X7160182Y-15583984D01*
X7160182Y-15583984D02*
X7179229Y-15593508D01*
X7179229Y-15593508D02*
X7188753Y-15603031D01*
X7188753Y-15603031D02*
X7198277Y-15622079D01*
X7198277Y-15622079D02*
X7207801Y-15660174D01*
X7207801Y-15660174D02*
X7207801Y-15707793D01*
X7207801Y-15707793D02*
X7198277Y-15745888D01*
X7198277Y-15745888D02*
X7188753Y-15764936D01*
X7188753Y-15764936D02*
X7179229Y-15774460D01*
X7179229Y-15774460D02*
X7160182Y-15783984D01*
X7160182Y-15783984D02*
X7141134Y-15783984D01*
X7141134Y-15783984D02*
X7122086Y-15774460D01*
X7122086Y-15774460D02*
X7112563Y-15764936D01*
X7112563Y-15764936D02*
X7103039Y-15745888D01*
X7103039Y-15745888D02*
X7093515Y-15707793D01*
X7093515Y-15707793D02*
X7093515Y-15660174D01*
X7093515Y-15660174D02*
X7103039Y-15622079D01*
X7103039Y-15622079D02*
X7112563Y-15603031D01*
X7112563Y-15603031D02*
X7122086Y-15593508D01*
X7122086Y-15593508D02*
X7141134Y-15583984D01*
X7293515Y-15764936D02*
X7303039Y-15774460D01*
X7303039Y-15774460D02*
X7293515Y-15783984D01*
X7293515Y-15783984D02*
X7283991Y-15774460D01*
X7283991Y-15774460D02*
X7293515Y-15764936D01*
X7293515Y-15764936D02*
X7293515Y-15783984D01*
X7426848Y-15583984D02*
X7445896Y-15583984D01*
X7445896Y-15583984D02*
X7464944Y-15593508D01*
X7464944Y-15593508D02*
X7474467Y-15603031D01*
X7474467Y-15603031D02*
X7483991Y-15622079D01*
X7483991Y-15622079D02*
X7493515Y-15660174D01*
X7493515Y-15660174D02*
X7493515Y-15707793D01*
X7493515Y-15707793D02*
X7483991Y-15745888D01*
X7483991Y-15745888D02*
X7474467Y-15764936D01*
X7474467Y-15764936D02*
X7464944Y-15774460D01*
X7464944Y-15774460D02*
X7445896Y-15783984D01*
X7445896Y-15783984D02*
X7426848Y-15783984D01*
X7426848Y-15783984D02*
X7407801Y-15774460D01*
X7407801Y-15774460D02*
X7398277Y-15764936D01*
X7398277Y-15764936D02*
X7388753Y-15745888D01*
X7388753Y-15745888D02*
X7379229Y-15707793D01*
X7379229Y-15707793D02*
X7379229Y-15660174D01*
X7379229Y-15660174D02*
X7388753Y-15622079D01*
X7388753Y-15622079D02*
X7398277Y-15603031D01*
X7398277Y-15603031D02*
X7407801Y-15593508D01*
X7407801Y-15593508D02*
X7426848Y-15583984D01*
X7560182Y-15583984D02*
X7683991Y-15583984D01*
X7683991Y-15583984D02*
X7617325Y-15660174D01*
X7617325Y-15660174D02*
X7645896Y-15660174D01*
X7645896Y-15660174D02*
X7664944Y-15669698D01*
X7664944Y-15669698D02*
X7674467Y-15679222D01*
X7674467Y-15679222D02*
X7683991Y-15698269D01*
X7683991Y-15698269D02*
X7683991Y-15745888D01*
X7683991Y-15745888D02*
X7674467Y-15764936D01*
X7674467Y-15764936D02*
X7664944Y-15774460D01*
X7664944Y-15774460D02*
X7645896Y-15783984D01*
X7645896Y-15783984D02*
X7588753Y-15783984D01*
X7588753Y-15783984D02*
X7569706Y-15774460D01*
X7569706Y-15774460D02*
X7560182Y-15764936D01*
X7750658Y-15583984D02*
X7883991Y-15583984D01*
X7883991Y-15583984D02*
X7798277Y-15783984D01*
X7998277Y-15583984D02*
X8017325Y-15583984D01*
X8017325Y-15583984D02*
X8036372Y-15593508D01*
X8036372Y-15593508D02*
X8045896Y-15603031D01*
X8045896Y-15603031D02*
X8055420Y-15622079D01*
X8055420Y-15622079D02*
X8064944Y-15660174D01*
X8064944Y-15660174D02*
X8064944Y-15707793D01*
X8064944Y-15707793D02*
X8055420Y-15745888D01*
X8055420Y-15745888D02*
X8045896Y-15764936D01*
X8045896Y-15764936D02*
X8036372Y-15774460D01*
X8036372Y-15774460D02*
X8017325Y-15783984D01*
X8017325Y-15783984D02*
X7998277Y-15783984D01*
X7998277Y-15783984D02*
X7979229Y-15774460D01*
X7979229Y-15774460D02*
X7969706Y-15764936D01*
X7969706Y-15764936D02*
X7960182Y-15745888D01*
X7960182Y-15745888D02*
X7950658Y-15707793D01*
X7950658Y-15707793D02*
X7950658Y-15660174D01*
X7950658Y-15660174D02*
X7960182Y-15622079D01*
X7960182Y-15622079D02*
X7969706Y-15603031D01*
X7969706Y-15603031D02*
X7979229Y-15593508D01*
X7979229Y-15593508D02*
X7998277Y-15583984D01*
X8141134Y-15583984D02*
X8141134Y-15622079D01*
X8217325Y-15583984D02*
X8217325Y-15622079D01*
X8512563Y-15860174D02*
X8503039Y-15850650D01*
X8503039Y-15850650D02*
X8483991Y-15822079D01*
X8483991Y-15822079D02*
X8474468Y-15803031D01*
X8474468Y-15803031D02*
X8464944Y-15774460D01*
X8464944Y-15774460D02*
X8455420Y-15726841D01*
X8455420Y-15726841D02*
X8455420Y-15688746D01*
X8455420Y-15688746D02*
X8464944Y-15641127D01*
X8464944Y-15641127D02*
X8474468Y-15612555D01*
X8474468Y-15612555D02*
X8483991Y-15593508D01*
X8483991Y-15593508D02*
X8503039Y-15564936D01*
X8503039Y-15564936D02*
X8512563Y-15555412D01*
X8617325Y-15669698D02*
X8598277Y-15660174D01*
X8598277Y-15660174D02*
X8588753Y-15650650D01*
X8588753Y-15650650D02*
X8579230Y-15631603D01*
X8579230Y-15631603D02*
X8579230Y-15622079D01*
X8579230Y-15622079D02*
X8588753Y-15603031D01*
X8588753Y-15603031D02*
X8598277Y-15593508D01*
X8598277Y-15593508D02*
X8617325Y-15583984D01*
X8617325Y-15583984D02*
X8655420Y-15583984D01*
X8655420Y-15583984D02*
X8674468Y-15593508D01*
X8674468Y-15593508D02*
X8683991Y-15603031D01*
X8683991Y-15603031D02*
X8693515Y-15622079D01*
X8693515Y-15622079D02*
X8693515Y-15631603D01*
X8693515Y-15631603D02*
X8683991Y-15650650D01*
X8683991Y-15650650D02*
X8674468Y-15660174D01*
X8674468Y-15660174D02*
X8655420Y-15669698D01*
X8655420Y-15669698D02*
X8617325Y-15669698D01*
X8617325Y-15669698D02*
X8598277Y-15679222D01*
X8598277Y-15679222D02*
X8588753Y-15688746D01*
X8588753Y-15688746D02*
X8579230Y-15707793D01*
X8579230Y-15707793D02*
X8579230Y-15745888D01*
X8579230Y-15745888D02*
X8588753Y-15764936D01*
X8588753Y-15764936D02*
X8598277Y-15774460D01*
X8598277Y-15774460D02*
X8617325Y-15783984D01*
X8617325Y-15783984D02*
X8655420Y-15783984D01*
X8655420Y-15783984D02*
X8674468Y-15774460D01*
X8674468Y-15774460D02*
X8683991Y-15764936D01*
X8683991Y-15764936D02*
X8693515Y-15745888D01*
X8693515Y-15745888D02*
X8693515Y-15707793D01*
X8693515Y-15707793D02*
X8683991Y-15688746D01*
X8683991Y-15688746D02*
X8674468Y-15679222D01*
X8674468Y-15679222D02*
X8655420Y-15669698D01*
X8931611Y-15783984D02*
X8931611Y-15583984D01*
X9017325Y-15783984D02*
X9017325Y-15679222D01*
X9017325Y-15679222D02*
X9007801Y-15660174D01*
X9007801Y-15660174D02*
X8988753Y-15650650D01*
X8988753Y-15650650D02*
X8960182Y-15650650D01*
X8960182Y-15650650D02*
X8941134Y-15660174D01*
X8941134Y-15660174D02*
X8931611Y-15669698D01*
X9141134Y-15783984D02*
X9122087Y-15774460D01*
X9122087Y-15774460D02*
X9112563Y-15764936D01*
X9112563Y-15764936D02*
X9103039Y-15745888D01*
X9103039Y-15745888D02*
X9103039Y-15688746D01*
X9103039Y-15688746D02*
X9112563Y-15669698D01*
X9112563Y-15669698D02*
X9122087Y-15660174D01*
X9122087Y-15660174D02*
X9141134Y-15650650D01*
X9141134Y-15650650D02*
X9169706Y-15650650D01*
X9169706Y-15650650D02*
X9188753Y-15660174D01*
X9188753Y-15660174D02*
X9198277Y-15669698D01*
X9198277Y-15669698D02*
X9207801Y-15688746D01*
X9207801Y-15688746D02*
X9207801Y-15745888D01*
X9207801Y-15745888D02*
X9198277Y-15764936D01*
X9198277Y-15764936D02*
X9188753Y-15774460D01*
X9188753Y-15774460D02*
X9169706Y-15783984D01*
X9169706Y-15783984D02*
X9141134Y-15783984D01*
X9322087Y-15783984D02*
X9303039Y-15774460D01*
X9303039Y-15774460D02*
X9293515Y-15755412D01*
X9293515Y-15755412D02*
X9293515Y-15583984D01*
X9474468Y-15774460D02*
X9455420Y-15783984D01*
X9455420Y-15783984D02*
X9417325Y-15783984D01*
X9417325Y-15783984D02*
X9398277Y-15774460D01*
X9398277Y-15774460D02*
X9388753Y-15755412D01*
X9388753Y-15755412D02*
X9388753Y-15679222D01*
X9388753Y-15679222D02*
X9398277Y-15660174D01*
X9398277Y-15660174D02*
X9417325Y-15650650D01*
X9417325Y-15650650D02*
X9455420Y-15650650D01*
X9455420Y-15650650D02*
X9474468Y-15660174D01*
X9474468Y-15660174D02*
X9483992Y-15679222D01*
X9483992Y-15679222D02*
X9483992Y-15698269D01*
X9483992Y-15698269D02*
X9388753Y-15717317D01*
X9560182Y-15774460D02*
X9579230Y-15783984D01*
X9579230Y-15783984D02*
X9617325Y-15783984D01*
X9617325Y-15783984D02*
X9636373Y-15774460D01*
X9636373Y-15774460D02*
X9645896Y-15755412D01*
X9645896Y-15755412D02*
X9645896Y-15745888D01*
X9645896Y-15745888D02*
X9636373Y-15726841D01*
X9636373Y-15726841D02*
X9617325Y-15717317D01*
X9617325Y-15717317D02*
X9588753Y-15717317D01*
X9588753Y-15717317D02*
X9569706Y-15707793D01*
X9569706Y-15707793D02*
X9560182Y-15688746D01*
X9560182Y-15688746D02*
X9560182Y-15679222D01*
X9560182Y-15679222D02*
X9569706Y-15660174D01*
X9569706Y-15660174D02*
X9588753Y-15650650D01*
X9588753Y-15650650D02*
X9617325Y-15650650D01*
X9617325Y-15650650D02*
X9636373Y-15660174D01*
X9712563Y-15860174D02*
X9722087Y-15850650D01*
X9722087Y-15850650D02*
X9741134Y-15822079D01*
X9741134Y-15822079D02*
X9750658Y-15803031D01*
X9750658Y-15803031D02*
X9760182Y-15774460D01*
X9760182Y-15774460D02*
X9769706Y-15726841D01*
X9769706Y-15726841D02*
X9769706Y-15688746D01*
X9769706Y-15688746D02*
X9760182Y-15641127D01*
X9760182Y-15641127D02*
X9750658Y-15612555D01*
X9750658Y-15612555D02*
X9741134Y-15593508D01*
X9741134Y-15593508D02*
X9722087Y-15564936D01*
X9722087Y-15564936D02*
X9712563Y-15555412D01*
D13*
X4837500Y-15906500D02*
X4937500Y-16006500D01*
X4937500Y-15906500D02*
X4837500Y-16006500D01*
X4887500Y-15906500D02*
X4887500Y-16006500D01*
X4837500Y-15956500D02*
X4937500Y-15956500D01*
D12*
X5303039Y-16047984D02*
X5188753Y-16047984D01*
X5245896Y-16047984D02*
X5245896Y-15847984D01*
X5245896Y-15847984D02*
X5226848Y-15876555D01*
X5226848Y-15876555D02*
X5207801Y-15895603D01*
X5207801Y-15895603D02*
X5188753Y-15905127D01*
X5388753Y-16028936D02*
X5398277Y-16038460D01*
X5398277Y-16038460D02*
X5388753Y-16047984D01*
X5388753Y-16047984D02*
X5379229Y-16038460D01*
X5379229Y-16038460D02*
X5388753Y-16028936D01*
X5388753Y-16028936D02*
X5388753Y-16047984D01*
X5522086Y-15847984D02*
X5541134Y-15847984D01*
X5541134Y-15847984D02*
X5560182Y-15857508D01*
X5560182Y-15857508D02*
X5569705Y-15867031D01*
X5569705Y-15867031D02*
X5579229Y-15886079D01*
X5579229Y-15886079D02*
X5588753Y-15924174D01*
X5588753Y-15924174D02*
X5588753Y-15971793D01*
X5588753Y-15971793D02*
X5579229Y-16009888D01*
X5579229Y-16009888D02*
X5569705Y-16028936D01*
X5569705Y-16028936D02*
X5560182Y-16038460D01*
X5560182Y-16038460D02*
X5541134Y-16047984D01*
X5541134Y-16047984D02*
X5522086Y-16047984D01*
X5522086Y-16047984D02*
X5503039Y-16038460D01*
X5503039Y-16038460D02*
X5493515Y-16028936D01*
X5493515Y-16028936D02*
X5483991Y-16009888D01*
X5483991Y-16009888D02*
X5474467Y-15971793D01*
X5474467Y-15971793D02*
X5474467Y-15924174D01*
X5474467Y-15924174D02*
X5483991Y-15886079D01*
X5483991Y-15886079D02*
X5493515Y-15867031D01*
X5493515Y-15867031D02*
X5503039Y-15857508D01*
X5503039Y-15857508D02*
X5522086Y-15847984D01*
X5712562Y-15847984D02*
X5731610Y-15847984D01*
X5731610Y-15847984D02*
X5750658Y-15857508D01*
X5750658Y-15857508D02*
X5760182Y-15867031D01*
X5760182Y-15867031D02*
X5769705Y-15886079D01*
X5769705Y-15886079D02*
X5779229Y-15924174D01*
X5779229Y-15924174D02*
X5779229Y-15971793D01*
X5779229Y-15971793D02*
X5769705Y-16009888D01*
X5769705Y-16009888D02*
X5760182Y-16028936D01*
X5760182Y-16028936D02*
X5750658Y-16038460D01*
X5750658Y-16038460D02*
X5731610Y-16047984D01*
X5731610Y-16047984D02*
X5712562Y-16047984D01*
X5712562Y-16047984D02*
X5693515Y-16038460D01*
X5693515Y-16038460D02*
X5683991Y-16028936D01*
X5683991Y-16028936D02*
X5674467Y-16009888D01*
X5674467Y-16009888D02*
X5664943Y-15971793D01*
X5664943Y-15971793D02*
X5664943Y-15924174D01*
X5664943Y-15924174D02*
X5674467Y-15886079D01*
X5674467Y-15886079D02*
X5683991Y-15867031D01*
X5683991Y-15867031D02*
X5693515Y-15857508D01*
X5693515Y-15857508D02*
X5712562Y-15847984D01*
X5903039Y-15847984D02*
X5922086Y-15847984D01*
X5922086Y-15847984D02*
X5941134Y-15857508D01*
X5941134Y-15857508D02*
X5950658Y-15867031D01*
X5950658Y-15867031D02*
X5960182Y-15886079D01*
X5960182Y-15886079D02*
X5969705Y-15924174D01*
X5969705Y-15924174D02*
X5969705Y-15971793D01*
X5969705Y-15971793D02*
X5960182Y-16009888D01*
X5960182Y-16009888D02*
X5950658Y-16028936D01*
X5950658Y-16028936D02*
X5941134Y-16038460D01*
X5941134Y-16038460D02*
X5922086Y-16047984D01*
X5922086Y-16047984D02*
X5903039Y-16047984D01*
X5903039Y-16047984D02*
X5883991Y-16038460D01*
X5883991Y-16038460D02*
X5874467Y-16028936D01*
X5874467Y-16028936D02*
X5864943Y-16009888D01*
X5864943Y-16009888D02*
X5855420Y-15971793D01*
X5855420Y-15971793D02*
X5855420Y-15924174D01*
X5855420Y-15924174D02*
X5864943Y-15886079D01*
X5864943Y-15886079D02*
X5874467Y-15867031D01*
X5874467Y-15867031D02*
X5883991Y-15857508D01*
X5883991Y-15857508D02*
X5903039Y-15847984D01*
X6055420Y-16047984D02*
X6055420Y-15914650D01*
X6055420Y-15933698D02*
X6064943Y-15924174D01*
X6064943Y-15924174D02*
X6083991Y-15914650D01*
X6083991Y-15914650D02*
X6112563Y-15914650D01*
X6112563Y-15914650D02*
X6131610Y-15924174D01*
X6131610Y-15924174D02*
X6141134Y-15943222D01*
X6141134Y-15943222D02*
X6141134Y-16047984D01*
X6141134Y-15943222D02*
X6150658Y-15924174D01*
X6150658Y-15924174D02*
X6169705Y-15914650D01*
X6169705Y-15914650D02*
X6198277Y-15914650D01*
X6198277Y-15914650D02*
X6217324Y-15924174D01*
X6217324Y-15924174D02*
X6226848Y-15943222D01*
X6226848Y-15943222D02*
X6226848Y-16047984D01*
X6322086Y-16047984D02*
X6322086Y-15914650D01*
X6322086Y-15933698D02*
X6331610Y-15924174D01*
X6331610Y-15924174D02*
X6350658Y-15914650D01*
X6350658Y-15914650D02*
X6379229Y-15914650D01*
X6379229Y-15914650D02*
X6398277Y-15924174D01*
X6398277Y-15924174D02*
X6407801Y-15943222D01*
X6407801Y-15943222D02*
X6407801Y-16047984D01*
X6407801Y-15943222D02*
X6417324Y-15924174D01*
X6417324Y-15924174D02*
X6436372Y-15914650D01*
X6436372Y-15914650D02*
X6464943Y-15914650D01*
X6464943Y-15914650D02*
X6483991Y-15924174D01*
X6483991Y-15924174D02*
X6493515Y-15943222D01*
X6493515Y-15943222D02*
X6493515Y-16047984D01*
X6883991Y-15838460D02*
X6712563Y-16095603D01*
X7141134Y-15847984D02*
X7160182Y-15847984D01*
X7160182Y-15847984D02*
X7179229Y-15857508D01*
X7179229Y-15857508D02*
X7188753Y-15867031D01*
X7188753Y-15867031D02*
X7198277Y-15886079D01*
X7198277Y-15886079D02*
X7207801Y-15924174D01*
X7207801Y-15924174D02*
X7207801Y-15971793D01*
X7207801Y-15971793D02*
X7198277Y-16009888D01*
X7198277Y-16009888D02*
X7188753Y-16028936D01*
X7188753Y-16028936D02*
X7179229Y-16038460D01*
X7179229Y-16038460D02*
X7160182Y-16047984D01*
X7160182Y-16047984D02*
X7141134Y-16047984D01*
X7141134Y-16047984D02*
X7122086Y-16038460D01*
X7122086Y-16038460D02*
X7112563Y-16028936D01*
X7112563Y-16028936D02*
X7103039Y-16009888D01*
X7103039Y-16009888D02*
X7093515Y-15971793D01*
X7093515Y-15971793D02*
X7093515Y-15924174D01*
X7093515Y-15924174D02*
X7103039Y-15886079D01*
X7103039Y-15886079D02*
X7112563Y-15867031D01*
X7112563Y-15867031D02*
X7122086Y-15857508D01*
X7122086Y-15857508D02*
X7141134Y-15847984D01*
X7293515Y-16028936D02*
X7303039Y-16038460D01*
X7303039Y-16038460D02*
X7293515Y-16047984D01*
X7293515Y-16047984D02*
X7283991Y-16038460D01*
X7283991Y-16038460D02*
X7293515Y-16028936D01*
X7293515Y-16028936D02*
X7293515Y-16047984D01*
X7426848Y-15847984D02*
X7445896Y-15847984D01*
X7445896Y-15847984D02*
X7464944Y-15857508D01*
X7464944Y-15857508D02*
X7474467Y-15867031D01*
X7474467Y-15867031D02*
X7483991Y-15886079D01*
X7483991Y-15886079D02*
X7493515Y-15924174D01*
X7493515Y-15924174D02*
X7493515Y-15971793D01*
X7493515Y-15971793D02*
X7483991Y-16009888D01*
X7483991Y-16009888D02*
X7474467Y-16028936D01*
X7474467Y-16028936D02*
X7464944Y-16038460D01*
X7464944Y-16038460D02*
X7445896Y-16047984D01*
X7445896Y-16047984D02*
X7426848Y-16047984D01*
X7426848Y-16047984D02*
X7407801Y-16038460D01*
X7407801Y-16038460D02*
X7398277Y-16028936D01*
X7398277Y-16028936D02*
X7388753Y-16009888D01*
X7388753Y-16009888D02*
X7379229Y-15971793D01*
X7379229Y-15971793D02*
X7379229Y-15924174D01*
X7379229Y-15924174D02*
X7388753Y-15886079D01*
X7388753Y-15886079D02*
X7398277Y-15867031D01*
X7398277Y-15867031D02*
X7407801Y-15857508D01*
X7407801Y-15857508D02*
X7426848Y-15847984D01*
X7560182Y-15847984D02*
X7683991Y-15847984D01*
X7683991Y-15847984D02*
X7617325Y-15924174D01*
X7617325Y-15924174D02*
X7645896Y-15924174D01*
X7645896Y-15924174D02*
X7664944Y-15933698D01*
X7664944Y-15933698D02*
X7674467Y-15943222D01*
X7674467Y-15943222D02*
X7683991Y-15962269D01*
X7683991Y-15962269D02*
X7683991Y-16009888D01*
X7683991Y-16009888D02*
X7674467Y-16028936D01*
X7674467Y-16028936D02*
X7664944Y-16038460D01*
X7664944Y-16038460D02*
X7645896Y-16047984D01*
X7645896Y-16047984D02*
X7588753Y-16047984D01*
X7588753Y-16047984D02*
X7569706Y-16038460D01*
X7569706Y-16038460D02*
X7560182Y-16028936D01*
X7779229Y-16047984D02*
X7817325Y-16047984D01*
X7817325Y-16047984D02*
X7836372Y-16038460D01*
X7836372Y-16038460D02*
X7845896Y-16028936D01*
X7845896Y-16028936D02*
X7864944Y-16000365D01*
X7864944Y-16000365D02*
X7874467Y-15962269D01*
X7874467Y-15962269D02*
X7874467Y-15886079D01*
X7874467Y-15886079D02*
X7864944Y-15867031D01*
X7864944Y-15867031D02*
X7855420Y-15857508D01*
X7855420Y-15857508D02*
X7836372Y-15847984D01*
X7836372Y-15847984D02*
X7798277Y-15847984D01*
X7798277Y-15847984D02*
X7779229Y-15857508D01*
X7779229Y-15857508D02*
X7769706Y-15867031D01*
X7769706Y-15867031D02*
X7760182Y-15886079D01*
X7760182Y-15886079D02*
X7760182Y-15933698D01*
X7760182Y-15933698D02*
X7769706Y-15952746D01*
X7769706Y-15952746D02*
X7779229Y-15962269D01*
X7779229Y-15962269D02*
X7798277Y-15971793D01*
X7798277Y-15971793D02*
X7836372Y-15971793D01*
X7836372Y-15971793D02*
X7855420Y-15962269D01*
X7855420Y-15962269D02*
X7864944Y-15952746D01*
X7864944Y-15952746D02*
X7874467Y-15933698D01*
X8045896Y-15914650D02*
X8045896Y-16047984D01*
X7998277Y-15838460D02*
X7950658Y-15981317D01*
X7950658Y-15981317D02*
X8074467Y-15981317D01*
X8141134Y-15847984D02*
X8141134Y-15886079D01*
X8217325Y-15847984D02*
X8217325Y-15886079D01*
X8512563Y-16124174D02*
X8503039Y-16114650D01*
X8503039Y-16114650D02*
X8483991Y-16086079D01*
X8483991Y-16086079D02*
X8474468Y-16067031D01*
X8474468Y-16067031D02*
X8464944Y-16038460D01*
X8464944Y-16038460D02*
X8455420Y-15990841D01*
X8455420Y-15990841D02*
X8455420Y-15952746D01*
X8455420Y-15952746D02*
X8464944Y-15905127D01*
X8464944Y-15905127D02*
X8474468Y-15876555D01*
X8474468Y-15876555D02*
X8483991Y-15857508D01*
X8483991Y-15857508D02*
X8503039Y-15828936D01*
X8503039Y-15828936D02*
X8512563Y-15819412D01*
X8693515Y-16047984D02*
X8579230Y-16047984D01*
X8636372Y-16047984D02*
X8636372Y-15847984D01*
X8636372Y-15847984D02*
X8617325Y-15876555D01*
X8617325Y-15876555D02*
X8598277Y-15895603D01*
X8598277Y-15895603D02*
X8579230Y-15905127D01*
X8788753Y-16047984D02*
X8826849Y-16047984D01*
X8826849Y-16047984D02*
X8845896Y-16038460D01*
X8845896Y-16038460D02*
X8855420Y-16028936D01*
X8855420Y-16028936D02*
X8874468Y-16000365D01*
X8874468Y-16000365D02*
X8883991Y-15962269D01*
X8883991Y-15962269D02*
X8883991Y-15886079D01*
X8883991Y-15886079D02*
X8874468Y-15867031D01*
X8874468Y-15867031D02*
X8864944Y-15857508D01*
X8864944Y-15857508D02*
X8845896Y-15847984D01*
X8845896Y-15847984D02*
X8807801Y-15847984D01*
X8807801Y-15847984D02*
X8788753Y-15857508D01*
X8788753Y-15857508D02*
X8779230Y-15867031D01*
X8779230Y-15867031D02*
X8769706Y-15886079D01*
X8769706Y-15886079D02*
X8769706Y-15933698D01*
X8769706Y-15933698D02*
X8779230Y-15952746D01*
X8779230Y-15952746D02*
X8788753Y-15962269D01*
X8788753Y-15962269D02*
X8807801Y-15971793D01*
X8807801Y-15971793D02*
X8845896Y-15971793D01*
X8845896Y-15971793D02*
X8864944Y-15962269D01*
X8864944Y-15962269D02*
X8874468Y-15952746D01*
X8874468Y-15952746D02*
X8883991Y-15933698D01*
X9122087Y-16047984D02*
X9122087Y-15847984D01*
X9207801Y-16047984D02*
X9207801Y-15943222D01*
X9207801Y-15943222D02*
X9198277Y-15924174D01*
X9198277Y-15924174D02*
X9179230Y-15914650D01*
X9179230Y-15914650D02*
X9150658Y-15914650D01*
X9150658Y-15914650D02*
X9131611Y-15924174D01*
X9131611Y-15924174D02*
X9122087Y-15933698D01*
X9331611Y-16047984D02*
X9312563Y-16038460D01*
X9312563Y-16038460D02*
X9303039Y-16028936D01*
X9303039Y-16028936D02*
X9293515Y-16009888D01*
X9293515Y-16009888D02*
X9293515Y-15952746D01*
X9293515Y-15952746D02*
X9303039Y-15933698D01*
X9303039Y-15933698D02*
X9312563Y-15924174D01*
X9312563Y-15924174D02*
X9331611Y-15914650D01*
X9331611Y-15914650D02*
X9360182Y-15914650D01*
X9360182Y-15914650D02*
X9379230Y-15924174D01*
X9379230Y-15924174D02*
X9388753Y-15933698D01*
X9388753Y-15933698D02*
X9398277Y-15952746D01*
X9398277Y-15952746D02*
X9398277Y-16009888D01*
X9398277Y-16009888D02*
X9388753Y-16028936D01*
X9388753Y-16028936D02*
X9379230Y-16038460D01*
X9379230Y-16038460D02*
X9360182Y-16047984D01*
X9360182Y-16047984D02*
X9331611Y-16047984D01*
X9512563Y-16047984D02*
X9493515Y-16038460D01*
X9493515Y-16038460D02*
X9483992Y-16019412D01*
X9483992Y-16019412D02*
X9483992Y-15847984D01*
X9664944Y-16038460D02*
X9645896Y-16047984D01*
X9645896Y-16047984D02*
X9607801Y-16047984D01*
X9607801Y-16047984D02*
X9588753Y-16038460D01*
X9588753Y-16038460D02*
X9579230Y-16019412D01*
X9579230Y-16019412D02*
X9579230Y-15943222D01*
X9579230Y-15943222D02*
X9588753Y-15924174D01*
X9588753Y-15924174D02*
X9607801Y-15914650D01*
X9607801Y-15914650D02*
X9645896Y-15914650D01*
X9645896Y-15914650D02*
X9664944Y-15924174D01*
X9664944Y-15924174D02*
X9674468Y-15943222D01*
X9674468Y-15943222D02*
X9674468Y-15962269D01*
X9674468Y-15962269D02*
X9579230Y-15981317D01*
X9750658Y-16038460D02*
X9769706Y-16047984D01*
X9769706Y-16047984D02*
X9807801Y-16047984D01*
X9807801Y-16047984D02*
X9826849Y-16038460D01*
X9826849Y-16038460D02*
X9836373Y-16019412D01*
X9836373Y-16019412D02*
X9836373Y-16009888D01*
X9836373Y-16009888D02*
X9826849Y-15990841D01*
X9826849Y-15990841D02*
X9807801Y-15981317D01*
X9807801Y-15981317D02*
X9779230Y-15981317D01*
X9779230Y-15981317D02*
X9760182Y-15971793D01*
X9760182Y-15971793D02*
X9750658Y-15952746D01*
X9750658Y-15952746D02*
X9750658Y-15943222D01*
X9750658Y-15943222D02*
X9760182Y-15924174D01*
X9760182Y-15924174D02*
X9779230Y-15914650D01*
X9779230Y-15914650D02*
X9807801Y-15914650D01*
X9807801Y-15914650D02*
X9826849Y-15924174D01*
X9903039Y-16124174D02*
X9912563Y-16114650D01*
X9912563Y-16114650D02*
X9931611Y-16086079D01*
X9931611Y-16086079D02*
X9941134Y-16067031D01*
X9941134Y-16067031D02*
X9950658Y-16038460D01*
X9950658Y-16038460D02*
X9960182Y-15990841D01*
X9960182Y-15990841D02*
X9960182Y-15952746D01*
X9960182Y-15952746D02*
X9950658Y-15905127D01*
X9950658Y-15905127D02*
X9941134Y-15876555D01*
X9941134Y-15876555D02*
X9931611Y-15857508D01*
X9931611Y-15857508D02*
X9912563Y-15828936D01*
X9912563Y-15828936D02*
X9903039Y-15819412D01*
D14*
X4817500Y-16160500D02*
X4937500Y-16280500D01*
X4937500Y-16160500D02*
X4817500Y-16280500D01*
X4919927Y-16262927D02*
X4919927Y-16178073D01*
X4835073Y-16178073D01*
X4835073Y-16262927D01*
X4919927Y-16262927D01*
D12*
X5303039Y-16311984D02*
X5188753Y-16311984D01*
X5245896Y-16311984D02*
X5245896Y-16111984D01*
X5245896Y-16111984D02*
X5226848Y-16140555D01*
X5226848Y-16140555D02*
X5207801Y-16159603D01*
X5207801Y-16159603D02*
X5188753Y-16169127D01*
X5388753Y-16292936D02*
X5398277Y-16302460D01*
X5398277Y-16302460D02*
X5388753Y-16311984D01*
X5388753Y-16311984D02*
X5379229Y-16302460D01*
X5379229Y-16302460D02*
X5388753Y-16292936D01*
X5388753Y-16292936D02*
X5388753Y-16311984D01*
X5474467Y-16131031D02*
X5483991Y-16121508D01*
X5483991Y-16121508D02*
X5503039Y-16111984D01*
X5503039Y-16111984D02*
X5550658Y-16111984D01*
X5550658Y-16111984D02*
X5569705Y-16121508D01*
X5569705Y-16121508D02*
X5579229Y-16131031D01*
X5579229Y-16131031D02*
X5588753Y-16150079D01*
X5588753Y-16150079D02*
X5588753Y-16169127D01*
X5588753Y-16169127D02*
X5579229Y-16197698D01*
X5579229Y-16197698D02*
X5464944Y-16311984D01*
X5464944Y-16311984D02*
X5588753Y-16311984D01*
X5712562Y-16111984D02*
X5731610Y-16111984D01*
X5731610Y-16111984D02*
X5750658Y-16121508D01*
X5750658Y-16121508D02*
X5760182Y-16131031D01*
X5760182Y-16131031D02*
X5769705Y-16150079D01*
X5769705Y-16150079D02*
X5779229Y-16188174D01*
X5779229Y-16188174D02*
X5779229Y-16235793D01*
X5779229Y-16235793D02*
X5769705Y-16273888D01*
X5769705Y-16273888D02*
X5760182Y-16292936D01*
X5760182Y-16292936D02*
X5750658Y-16302460D01*
X5750658Y-16302460D02*
X5731610Y-16311984D01*
X5731610Y-16311984D02*
X5712562Y-16311984D01*
X5712562Y-16311984D02*
X5693515Y-16302460D01*
X5693515Y-16302460D02*
X5683991Y-16292936D01*
X5683991Y-16292936D02*
X5674467Y-16273888D01*
X5674467Y-16273888D02*
X5664943Y-16235793D01*
X5664943Y-16235793D02*
X5664943Y-16188174D01*
X5664943Y-16188174D02*
X5674467Y-16150079D01*
X5674467Y-16150079D02*
X5683991Y-16131031D01*
X5683991Y-16131031D02*
X5693515Y-16121508D01*
X5693515Y-16121508D02*
X5712562Y-16111984D01*
X5903039Y-16111984D02*
X5922086Y-16111984D01*
X5922086Y-16111984D02*
X5941134Y-16121508D01*
X5941134Y-16121508D02*
X5950658Y-16131031D01*
X5950658Y-16131031D02*
X5960182Y-16150079D01*
X5960182Y-16150079D02*
X5969705Y-16188174D01*
X5969705Y-16188174D02*
X5969705Y-16235793D01*
X5969705Y-16235793D02*
X5960182Y-16273888D01*
X5960182Y-16273888D02*
X5950658Y-16292936D01*
X5950658Y-16292936D02*
X5941134Y-16302460D01*
X5941134Y-16302460D02*
X5922086Y-16311984D01*
X5922086Y-16311984D02*
X5903039Y-16311984D01*
X5903039Y-16311984D02*
X5883991Y-16302460D01*
X5883991Y-16302460D02*
X5874467Y-16292936D01*
X5874467Y-16292936D02*
X5864943Y-16273888D01*
X5864943Y-16273888D02*
X5855420Y-16235793D01*
X5855420Y-16235793D02*
X5855420Y-16188174D01*
X5855420Y-16188174D02*
X5864943Y-16150079D01*
X5864943Y-16150079D02*
X5874467Y-16131031D01*
X5874467Y-16131031D02*
X5883991Y-16121508D01*
X5883991Y-16121508D02*
X5903039Y-16111984D01*
X6055420Y-16311984D02*
X6055420Y-16178650D01*
X6055420Y-16197698D02*
X6064943Y-16188174D01*
X6064943Y-16188174D02*
X6083991Y-16178650D01*
X6083991Y-16178650D02*
X6112563Y-16178650D01*
X6112563Y-16178650D02*
X6131610Y-16188174D01*
X6131610Y-16188174D02*
X6141134Y-16207222D01*
X6141134Y-16207222D02*
X6141134Y-16311984D01*
X6141134Y-16207222D02*
X6150658Y-16188174D01*
X6150658Y-16188174D02*
X6169705Y-16178650D01*
X6169705Y-16178650D02*
X6198277Y-16178650D01*
X6198277Y-16178650D02*
X6217324Y-16188174D01*
X6217324Y-16188174D02*
X6226848Y-16207222D01*
X6226848Y-16207222D02*
X6226848Y-16311984D01*
X6322086Y-16311984D02*
X6322086Y-16178650D01*
X6322086Y-16197698D02*
X6331610Y-16188174D01*
X6331610Y-16188174D02*
X6350658Y-16178650D01*
X6350658Y-16178650D02*
X6379229Y-16178650D01*
X6379229Y-16178650D02*
X6398277Y-16188174D01*
X6398277Y-16188174D02*
X6407801Y-16207222D01*
X6407801Y-16207222D02*
X6407801Y-16311984D01*
X6407801Y-16207222D02*
X6417324Y-16188174D01*
X6417324Y-16188174D02*
X6436372Y-16178650D01*
X6436372Y-16178650D02*
X6464943Y-16178650D01*
X6464943Y-16178650D02*
X6483991Y-16188174D01*
X6483991Y-16188174D02*
X6493515Y-16207222D01*
X6493515Y-16207222D02*
X6493515Y-16311984D01*
X6883991Y-16102460D02*
X6712563Y-16359603D01*
X7141134Y-16111984D02*
X7160182Y-16111984D01*
X7160182Y-16111984D02*
X7179229Y-16121508D01*
X7179229Y-16121508D02*
X7188753Y-16131031D01*
X7188753Y-16131031D02*
X7198277Y-16150079D01*
X7198277Y-16150079D02*
X7207801Y-16188174D01*
X7207801Y-16188174D02*
X7207801Y-16235793D01*
X7207801Y-16235793D02*
X7198277Y-16273888D01*
X7198277Y-16273888D02*
X7188753Y-16292936D01*
X7188753Y-16292936D02*
X7179229Y-16302460D01*
X7179229Y-16302460D02*
X7160182Y-16311984D01*
X7160182Y-16311984D02*
X7141134Y-16311984D01*
X7141134Y-16311984D02*
X7122086Y-16302460D01*
X7122086Y-16302460D02*
X7112563Y-16292936D01*
X7112563Y-16292936D02*
X7103039Y-16273888D01*
X7103039Y-16273888D02*
X7093515Y-16235793D01*
X7093515Y-16235793D02*
X7093515Y-16188174D01*
X7093515Y-16188174D02*
X7103039Y-16150079D01*
X7103039Y-16150079D02*
X7112563Y-16131031D01*
X7112563Y-16131031D02*
X7122086Y-16121508D01*
X7122086Y-16121508D02*
X7141134Y-16111984D01*
X7293515Y-16292936D02*
X7303039Y-16302460D01*
X7303039Y-16302460D02*
X7293515Y-16311984D01*
X7293515Y-16311984D02*
X7283991Y-16302460D01*
X7283991Y-16302460D02*
X7293515Y-16292936D01*
X7293515Y-16292936D02*
X7293515Y-16311984D01*
X7426848Y-16111984D02*
X7445896Y-16111984D01*
X7445896Y-16111984D02*
X7464944Y-16121508D01*
X7464944Y-16121508D02*
X7474467Y-16131031D01*
X7474467Y-16131031D02*
X7483991Y-16150079D01*
X7483991Y-16150079D02*
X7493515Y-16188174D01*
X7493515Y-16188174D02*
X7493515Y-16235793D01*
X7493515Y-16235793D02*
X7483991Y-16273888D01*
X7483991Y-16273888D02*
X7474467Y-16292936D01*
X7474467Y-16292936D02*
X7464944Y-16302460D01*
X7464944Y-16302460D02*
X7445896Y-16311984D01*
X7445896Y-16311984D02*
X7426848Y-16311984D01*
X7426848Y-16311984D02*
X7407801Y-16302460D01*
X7407801Y-16302460D02*
X7398277Y-16292936D01*
X7398277Y-16292936D02*
X7388753Y-16273888D01*
X7388753Y-16273888D02*
X7379229Y-16235793D01*
X7379229Y-16235793D02*
X7379229Y-16188174D01*
X7379229Y-16188174D02*
X7388753Y-16150079D01*
X7388753Y-16150079D02*
X7398277Y-16131031D01*
X7398277Y-16131031D02*
X7407801Y-16121508D01*
X7407801Y-16121508D02*
X7426848Y-16111984D01*
X7664944Y-16178650D02*
X7664944Y-16311984D01*
X7617325Y-16102460D02*
X7569706Y-16245317D01*
X7569706Y-16245317D02*
X7693515Y-16245317D01*
X7750658Y-16111984D02*
X7883991Y-16111984D01*
X7883991Y-16111984D02*
X7798277Y-16311984D01*
X7950658Y-16131031D02*
X7960182Y-16121508D01*
X7960182Y-16121508D02*
X7979229Y-16111984D01*
X7979229Y-16111984D02*
X8026848Y-16111984D01*
X8026848Y-16111984D02*
X8045896Y-16121508D01*
X8045896Y-16121508D02*
X8055420Y-16131031D01*
X8055420Y-16131031D02*
X8064944Y-16150079D01*
X8064944Y-16150079D02*
X8064944Y-16169127D01*
X8064944Y-16169127D02*
X8055420Y-16197698D01*
X8055420Y-16197698D02*
X7941134Y-16311984D01*
X7941134Y-16311984D02*
X8064944Y-16311984D01*
X8141134Y-16111984D02*
X8141134Y-16150079D01*
X8217325Y-16111984D02*
X8217325Y-16150079D01*
X8512563Y-16388174D02*
X8503039Y-16378650D01*
X8503039Y-16378650D02*
X8483991Y-16350079D01*
X8483991Y-16350079D02*
X8474468Y-16331031D01*
X8474468Y-16331031D02*
X8464944Y-16302460D01*
X8464944Y-16302460D02*
X8455420Y-16254841D01*
X8455420Y-16254841D02*
X8455420Y-16216746D01*
X8455420Y-16216746D02*
X8464944Y-16169127D01*
X8464944Y-16169127D02*
X8474468Y-16140555D01*
X8474468Y-16140555D02*
X8483991Y-16121508D01*
X8483991Y-16121508D02*
X8503039Y-16092936D01*
X8503039Y-16092936D02*
X8512563Y-16083412D01*
X8693515Y-16311984D02*
X8579230Y-16311984D01*
X8636372Y-16311984D02*
X8636372Y-16111984D01*
X8636372Y-16111984D02*
X8617325Y-16140555D01*
X8617325Y-16140555D02*
X8598277Y-16159603D01*
X8598277Y-16159603D02*
X8579230Y-16169127D01*
X8760182Y-16111984D02*
X8883991Y-16111984D01*
X8883991Y-16111984D02*
X8817325Y-16188174D01*
X8817325Y-16188174D02*
X8845896Y-16188174D01*
X8845896Y-16188174D02*
X8864944Y-16197698D01*
X8864944Y-16197698D02*
X8874468Y-16207222D01*
X8874468Y-16207222D02*
X8883991Y-16226269D01*
X8883991Y-16226269D02*
X8883991Y-16273888D01*
X8883991Y-16273888D02*
X8874468Y-16292936D01*
X8874468Y-16292936D02*
X8864944Y-16302460D01*
X8864944Y-16302460D02*
X8845896Y-16311984D01*
X8845896Y-16311984D02*
X8788753Y-16311984D01*
X8788753Y-16311984D02*
X8769706Y-16302460D01*
X8769706Y-16302460D02*
X8760182Y-16292936D01*
X9122087Y-16311984D02*
X9122087Y-16111984D01*
X9207801Y-16311984D02*
X9207801Y-16207222D01*
X9207801Y-16207222D02*
X9198277Y-16188174D01*
X9198277Y-16188174D02*
X9179230Y-16178650D01*
X9179230Y-16178650D02*
X9150658Y-16178650D01*
X9150658Y-16178650D02*
X9131611Y-16188174D01*
X9131611Y-16188174D02*
X9122087Y-16197698D01*
X9331611Y-16311984D02*
X9312563Y-16302460D01*
X9312563Y-16302460D02*
X9303039Y-16292936D01*
X9303039Y-16292936D02*
X9293515Y-16273888D01*
X9293515Y-16273888D02*
X9293515Y-16216746D01*
X9293515Y-16216746D02*
X9303039Y-16197698D01*
X9303039Y-16197698D02*
X9312563Y-16188174D01*
X9312563Y-16188174D02*
X9331611Y-16178650D01*
X9331611Y-16178650D02*
X9360182Y-16178650D01*
X9360182Y-16178650D02*
X9379230Y-16188174D01*
X9379230Y-16188174D02*
X9388753Y-16197698D01*
X9388753Y-16197698D02*
X9398277Y-16216746D01*
X9398277Y-16216746D02*
X9398277Y-16273888D01*
X9398277Y-16273888D02*
X9388753Y-16292936D01*
X9388753Y-16292936D02*
X9379230Y-16302460D01*
X9379230Y-16302460D02*
X9360182Y-16311984D01*
X9360182Y-16311984D02*
X9331611Y-16311984D01*
X9512563Y-16311984D02*
X9493515Y-16302460D01*
X9493515Y-16302460D02*
X9483992Y-16283412D01*
X9483992Y-16283412D02*
X9483992Y-16111984D01*
X9664944Y-16302460D02*
X9645896Y-16311984D01*
X9645896Y-16311984D02*
X9607801Y-16311984D01*
X9607801Y-16311984D02*
X9588753Y-16302460D01*
X9588753Y-16302460D02*
X9579230Y-16283412D01*
X9579230Y-16283412D02*
X9579230Y-16207222D01*
X9579230Y-16207222D02*
X9588753Y-16188174D01*
X9588753Y-16188174D02*
X9607801Y-16178650D01*
X9607801Y-16178650D02*
X9645896Y-16178650D01*
X9645896Y-16178650D02*
X9664944Y-16188174D01*
X9664944Y-16188174D02*
X9674468Y-16207222D01*
X9674468Y-16207222D02*
X9674468Y-16226269D01*
X9674468Y-16226269D02*
X9579230Y-16245317D01*
X9750658Y-16302460D02*
X9769706Y-16311984D01*
X9769706Y-16311984D02*
X9807801Y-16311984D01*
X9807801Y-16311984D02*
X9826849Y-16302460D01*
X9826849Y-16302460D02*
X9836373Y-16283412D01*
X9836373Y-16283412D02*
X9836373Y-16273888D01*
X9836373Y-16273888D02*
X9826849Y-16254841D01*
X9826849Y-16254841D02*
X9807801Y-16245317D01*
X9807801Y-16245317D02*
X9779230Y-16245317D01*
X9779230Y-16245317D02*
X9760182Y-16235793D01*
X9760182Y-16235793D02*
X9750658Y-16216746D01*
X9750658Y-16216746D02*
X9750658Y-16207222D01*
X9750658Y-16207222D02*
X9760182Y-16188174D01*
X9760182Y-16188174D02*
X9779230Y-16178650D01*
X9779230Y-16178650D02*
X9807801Y-16178650D01*
X9807801Y-16178650D02*
X9826849Y-16188174D01*
X9903039Y-16388174D02*
X9912563Y-16378650D01*
X9912563Y-16378650D02*
X9931611Y-16350079D01*
X9931611Y-16350079D02*
X9941134Y-16331031D01*
X9941134Y-16331031D02*
X9950658Y-16302460D01*
X9950658Y-16302460D02*
X9960182Y-16254841D01*
X9960182Y-16254841D02*
X9960182Y-16216746D01*
X9960182Y-16216746D02*
X9950658Y-16169127D01*
X9950658Y-16169127D02*
X9941134Y-16140555D01*
X9941134Y-16140555D02*
X9931611Y-16121508D01*
X9931611Y-16121508D02*
X9912563Y-16092936D01*
X9912563Y-16092936D02*
X9903039Y-16083412D01*
X4737500Y-16384500D02*
X4937500Y-16584500D01*
X4937500Y-16384500D02*
X4737500Y-16584500D01*
X4837500Y-16584500D02*
X4937500Y-16484500D01*
X4837500Y-16384500D01*
X4737500Y-16484500D01*
X4837500Y-16584500D01*
X5179229Y-16375984D02*
X5303039Y-16375984D01*
X5303039Y-16375984D02*
X5236372Y-16452174D01*
X5236372Y-16452174D02*
X5264944Y-16452174D01*
X5264944Y-16452174D02*
X5283991Y-16461698D01*
X5283991Y-16461698D02*
X5293515Y-16471222D01*
X5293515Y-16471222D02*
X5303039Y-16490269D01*
X5303039Y-16490269D02*
X5303039Y-16537888D01*
X5303039Y-16537888D02*
X5293515Y-16556936D01*
X5293515Y-16556936D02*
X5283991Y-16566460D01*
X5283991Y-16566460D02*
X5264944Y-16575984D01*
X5264944Y-16575984D02*
X5207801Y-16575984D01*
X5207801Y-16575984D02*
X5188753Y-16566460D01*
X5188753Y-16566460D02*
X5179229Y-16556936D01*
X5388753Y-16556936D02*
X5398277Y-16566460D01*
X5398277Y-16566460D02*
X5388753Y-16575984D01*
X5388753Y-16575984D02*
X5379229Y-16566460D01*
X5379229Y-16566460D02*
X5388753Y-16556936D01*
X5388753Y-16556936D02*
X5388753Y-16575984D01*
X5474467Y-16395031D02*
X5483991Y-16385508D01*
X5483991Y-16385508D02*
X5503039Y-16375984D01*
X5503039Y-16375984D02*
X5550658Y-16375984D01*
X5550658Y-16375984D02*
X5569705Y-16385508D01*
X5569705Y-16385508D02*
X5579229Y-16395031D01*
X5579229Y-16395031D02*
X5588753Y-16414079D01*
X5588753Y-16414079D02*
X5588753Y-16433127D01*
X5588753Y-16433127D02*
X5579229Y-16461698D01*
X5579229Y-16461698D02*
X5464944Y-16575984D01*
X5464944Y-16575984D02*
X5588753Y-16575984D01*
X5712562Y-16375984D02*
X5731610Y-16375984D01*
X5731610Y-16375984D02*
X5750658Y-16385508D01*
X5750658Y-16385508D02*
X5760182Y-16395031D01*
X5760182Y-16395031D02*
X5769705Y-16414079D01*
X5769705Y-16414079D02*
X5779229Y-16452174D01*
X5779229Y-16452174D02*
X5779229Y-16499793D01*
X5779229Y-16499793D02*
X5769705Y-16537888D01*
X5769705Y-16537888D02*
X5760182Y-16556936D01*
X5760182Y-16556936D02*
X5750658Y-16566460D01*
X5750658Y-16566460D02*
X5731610Y-16575984D01*
X5731610Y-16575984D02*
X5712562Y-16575984D01*
X5712562Y-16575984D02*
X5693515Y-16566460D01*
X5693515Y-16566460D02*
X5683991Y-16556936D01*
X5683991Y-16556936D02*
X5674467Y-16537888D01*
X5674467Y-16537888D02*
X5664943Y-16499793D01*
X5664943Y-16499793D02*
X5664943Y-16452174D01*
X5664943Y-16452174D02*
X5674467Y-16414079D01*
X5674467Y-16414079D02*
X5683991Y-16395031D01*
X5683991Y-16395031D02*
X5693515Y-16385508D01*
X5693515Y-16385508D02*
X5712562Y-16375984D01*
X5903039Y-16375984D02*
X5922086Y-16375984D01*
X5922086Y-16375984D02*
X5941134Y-16385508D01*
X5941134Y-16385508D02*
X5950658Y-16395031D01*
X5950658Y-16395031D02*
X5960182Y-16414079D01*
X5960182Y-16414079D02*
X5969705Y-16452174D01*
X5969705Y-16452174D02*
X5969705Y-16499793D01*
X5969705Y-16499793D02*
X5960182Y-16537888D01*
X5960182Y-16537888D02*
X5950658Y-16556936D01*
X5950658Y-16556936D02*
X5941134Y-16566460D01*
X5941134Y-16566460D02*
X5922086Y-16575984D01*
X5922086Y-16575984D02*
X5903039Y-16575984D01*
X5903039Y-16575984D02*
X5883991Y-16566460D01*
X5883991Y-16566460D02*
X5874467Y-16556936D01*
X5874467Y-16556936D02*
X5864943Y-16537888D01*
X5864943Y-16537888D02*
X5855420Y-16499793D01*
X5855420Y-16499793D02*
X5855420Y-16452174D01*
X5855420Y-16452174D02*
X5864943Y-16414079D01*
X5864943Y-16414079D02*
X5874467Y-16395031D01*
X5874467Y-16395031D02*
X5883991Y-16385508D01*
X5883991Y-16385508D02*
X5903039Y-16375984D01*
X6055420Y-16575984D02*
X6055420Y-16442650D01*
X6055420Y-16461698D02*
X6064943Y-16452174D01*
X6064943Y-16452174D02*
X6083991Y-16442650D01*
X6083991Y-16442650D02*
X6112563Y-16442650D01*
X6112563Y-16442650D02*
X6131610Y-16452174D01*
X6131610Y-16452174D02*
X6141134Y-16471222D01*
X6141134Y-16471222D02*
X6141134Y-16575984D01*
X6141134Y-16471222D02*
X6150658Y-16452174D01*
X6150658Y-16452174D02*
X6169705Y-16442650D01*
X6169705Y-16442650D02*
X6198277Y-16442650D01*
X6198277Y-16442650D02*
X6217324Y-16452174D01*
X6217324Y-16452174D02*
X6226848Y-16471222D01*
X6226848Y-16471222D02*
X6226848Y-16575984D01*
X6322086Y-16575984D02*
X6322086Y-16442650D01*
X6322086Y-16461698D02*
X6331610Y-16452174D01*
X6331610Y-16452174D02*
X6350658Y-16442650D01*
X6350658Y-16442650D02*
X6379229Y-16442650D01*
X6379229Y-16442650D02*
X6398277Y-16452174D01*
X6398277Y-16452174D02*
X6407801Y-16471222D01*
X6407801Y-16471222D02*
X6407801Y-16575984D01*
X6407801Y-16471222D02*
X6417324Y-16452174D01*
X6417324Y-16452174D02*
X6436372Y-16442650D01*
X6436372Y-16442650D02*
X6464943Y-16442650D01*
X6464943Y-16442650D02*
X6483991Y-16452174D01*
X6483991Y-16452174D02*
X6493515Y-16471222D01*
X6493515Y-16471222D02*
X6493515Y-16575984D01*
X6883991Y-16366460D02*
X6712563Y-16623603D01*
X7141134Y-16375984D02*
X7160182Y-16375984D01*
X7160182Y-16375984D02*
X7179229Y-16385508D01*
X7179229Y-16385508D02*
X7188753Y-16395031D01*
X7188753Y-16395031D02*
X7198277Y-16414079D01*
X7198277Y-16414079D02*
X7207801Y-16452174D01*
X7207801Y-16452174D02*
X7207801Y-16499793D01*
X7207801Y-16499793D02*
X7198277Y-16537888D01*
X7198277Y-16537888D02*
X7188753Y-16556936D01*
X7188753Y-16556936D02*
X7179229Y-16566460D01*
X7179229Y-16566460D02*
X7160182Y-16575984D01*
X7160182Y-16575984D02*
X7141134Y-16575984D01*
X7141134Y-16575984D02*
X7122086Y-16566460D01*
X7122086Y-16566460D02*
X7112563Y-16556936D01*
X7112563Y-16556936D02*
X7103039Y-16537888D01*
X7103039Y-16537888D02*
X7093515Y-16499793D01*
X7093515Y-16499793D02*
X7093515Y-16452174D01*
X7093515Y-16452174D02*
X7103039Y-16414079D01*
X7103039Y-16414079D02*
X7112563Y-16395031D01*
X7112563Y-16395031D02*
X7122086Y-16385508D01*
X7122086Y-16385508D02*
X7141134Y-16375984D01*
X7293515Y-16556936D02*
X7303039Y-16566460D01*
X7303039Y-16566460D02*
X7293515Y-16575984D01*
X7293515Y-16575984D02*
X7283991Y-16566460D01*
X7283991Y-16566460D02*
X7293515Y-16556936D01*
X7293515Y-16556936D02*
X7293515Y-16575984D01*
X7493515Y-16575984D02*
X7379229Y-16575984D01*
X7436372Y-16575984D02*
X7436372Y-16375984D01*
X7436372Y-16375984D02*
X7417325Y-16404555D01*
X7417325Y-16404555D02*
X7398277Y-16423603D01*
X7398277Y-16423603D02*
X7379229Y-16433127D01*
X7569706Y-16395031D02*
X7579229Y-16385508D01*
X7579229Y-16385508D02*
X7598277Y-16375984D01*
X7598277Y-16375984D02*
X7645896Y-16375984D01*
X7645896Y-16375984D02*
X7664944Y-16385508D01*
X7664944Y-16385508D02*
X7674467Y-16395031D01*
X7674467Y-16395031D02*
X7683991Y-16414079D01*
X7683991Y-16414079D02*
X7683991Y-16433127D01*
X7683991Y-16433127D02*
X7674467Y-16461698D01*
X7674467Y-16461698D02*
X7560182Y-16575984D01*
X7560182Y-16575984D02*
X7683991Y-16575984D01*
X7855420Y-16375984D02*
X7817325Y-16375984D01*
X7817325Y-16375984D02*
X7798277Y-16385508D01*
X7798277Y-16385508D02*
X7788753Y-16395031D01*
X7788753Y-16395031D02*
X7769706Y-16423603D01*
X7769706Y-16423603D02*
X7760182Y-16461698D01*
X7760182Y-16461698D02*
X7760182Y-16537888D01*
X7760182Y-16537888D02*
X7769706Y-16556936D01*
X7769706Y-16556936D02*
X7779229Y-16566460D01*
X7779229Y-16566460D02*
X7798277Y-16575984D01*
X7798277Y-16575984D02*
X7836372Y-16575984D01*
X7836372Y-16575984D02*
X7855420Y-16566460D01*
X7855420Y-16566460D02*
X7864944Y-16556936D01*
X7864944Y-16556936D02*
X7874467Y-16537888D01*
X7874467Y-16537888D02*
X7874467Y-16490269D01*
X7874467Y-16490269D02*
X7864944Y-16471222D01*
X7864944Y-16471222D02*
X7855420Y-16461698D01*
X7855420Y-16461698D02*
X7836372Y-16452174D01*
X7836372Y-16452174D02*
X7798277Y-16452174D01*
X7798277Y-16452174D02*
X7779229Y-16461698D01*
X7779229Y-16461698D02*
X7769706Y-16471222D01*
X7769706Y-16471222D02*
X7760182Y-16490269D01*
X7998277Y-16375984D02*
X8017325Y-16375984D01*
X8017325Y-16375984D02*
X8036372Y-16385508D01*
X8036372Y-16385508D02*
X8045896Y-16395031D01*
X8045896Y-16395031D02*
X8055420Y-16414079D01*
X8055420Y-16414079D02*
X8064944Y-16452174D01*
X8064944Y-16452174D02*
X8064944Y-16499793D01*
X8064944Y-16499793D02*
X8055420Y-16537888D01*
X8055420Y-16537888D02*
X8045896Y-16556936D01*
X8045896Y-16556936D02*
X8036372Y-16566460D01*
X8036372Y-16566460D02*
X8017325Y-16575984D01*
X8017325Y-16575984D02*
X7998277Y-16575984D01*
X7998277Y-16575984D02*
X7979229Y-16566460D01*
X7979229Y-16566460D02*
X7969706Y-16556936D01*
X7969706Y-16556936D02*
X7960182Y-16537888D01*
X7960182Y-16537888D02*
X7950658Y-16499793D01*
X7950658Y-16499793D02*
X7950658Y-16452174D01*
X7950658Y-16452174D02*
X7960182Y-16414079D01*
X7960182Y-16414079D02*
X7969706Y-16395031D01*
X7969706Y-16395031D02*
X7979229Y-16385508D01*
X7979229Y-16385508D02*
X7998277Y-16375984D01*
X8141134Y-16375984D02*
X8141134Y-16414079D01*
X8217325Y-16375984D02*
X8217325Y-16414079D01*
X8512563Y-16652174D02*
X8503039Y-16642650D01*
X8503039Y-16642650D02*
X8483991Y-16614079D01*
X8483991Y-16614079D02*
X8474468Y-16595031D01*
X8474468Y-16595031D02*
X8464944Y-16566460D01*
X8464944Y-16566460D02*
X8455420Y-16518841D01*
X8455420Y-16518841D02*
X8455420Y-16480746D01*
X8455420Y-16480746D02*
X8464944Y-16433127D01*
X8464944Y-16433127D02*
X8474468Y-16404555D01*
X8474468Y-16404555D02*
X8483991Y-16385508D01*
X8483991Y-16385508D02*
X8503039Y-16356936D01*
X8503039Y-16356936D02*
X8512563Y-16347412D01*
X8674468Y-16442650D02*
X8674468Y-16575984D01*
X8626849Y-16366460D02*
X8579230Y-16509317D01*
X8579230Y-16509317D02*
X8703039Y-16509317D01*
X8931611Y-16575984D02*
X8931611Y-16375984D01*
X9017325Y-16575984D02*
X9017325Y-16471222D01*
X9017325Y-16471222D02*
X9007801Y-16452174D01*
X9007801Y-16452174D02*
X8988753Y-16442650D01*
X8988753Y-16442650D02*
X8960182Y-16442650D01*
X8960182Y-16442650D02*
X8941134Y-16452174D01*
X8941134Y-16452174D02*
X8931611Y-16461698D01*
X9141134Y-16575984D02*
X9122087Y-16566460D01*
X9122087Y-16566460D02*
X9112563Y-16556936D01*
X9112563Y-16556936D02*
X9103039Y-16537888D01*
X9103039Y-16537888D02*
X9103039Y-16480746D01*
X9103039Y-16480746D02*
X9112563Y-16461698D01*
X9112563Y-16461698D02*
X9122087Y-16452174D01*
X9122087Y-16452174D02*
X9141134Y-16442650D01*
X9141134Y-16442650D02*
X9169706Y-16442650D01*
X9169706Y-16442650D02*
X9188753Y-16452174D01*
X9188753Y-16452174D02*
X9198277Y-16461698D01*
X9198277Y-16461698D02*
X9207801Y-16480746D01*
X9207801Y-16480746D02*
X9207801Y-16537888D01*
X9207801Y-16537888D02*
X9198277Y-16556936D01*
X9198277Y-16556936D02*
X9188753Y-16566460D01*
X9188753Y-16566460D02*
X9169706Y-16575984D01*
X9169706Y-16575984D02*
X9141134Y-16575984D01*
X9322087Y-16575984D02*
X9303039Y-16566460D01*
X9303039Y-16566460D02*
X9293515Y-16547412D01*
X9293515Y-16547412D02*
X9293515Y-16375984D01*
X9474468Y-16566460D02*
X9455420Y-16575984D01*
X9455420Y-16575984D02*
X9417325Y-16575984D01*
X9417325Y-16575984D02*
X9398277Y-16566460D01*
X9398277Y-16566460D02*
X9388753Y-16547412D01*
X9388753Y-16547412D02*
X9388753Y-16471222D01*
X9388753Y-16471222D02*
X9398277Y-16452174D01*
X9398277Y-16452174D02*
X9417325Y-16442650D01*
X9417325Y-16442650D02*
X9455420Y-16442650D01*
X9455420Y-16442650D02*
X9474468Y-16452174D01*
X9474468Y-16452174D02*
X9483992Y-16471222D01*
X9483992Y-16471222D02*
X9483992Y-16490269D01*
X9483992Y-16490269D02*
X9388753Y-16509317D01*
X9560182Y-16566460D02*
X9579230Y-16575984D01*
X9579230Y-16575984D02*
X9617325Y-16575984D01*
X9617325Y-16575984D02*
X9636373Y-16566460D01*
X9636373Y-16566460D02*
X9645896Y-16547412D01*
X9645896Y-16547412D02*
X9645896Y-16537888D01*
X9645896Y-16537888D02*
X9636373Y-16518841D01*
X9636373Y-16518841D02*
X9617325Y-16509317D01*
X9617325Y-16509317D02*
X9588753Y-16509317D01*
X9588753Y-16509317D02*
X9569706Y-16499793D01*
X9569706Y-16499793D02*
X9560182Y-16480746D01*
X9560182Y-16480746D02*
X9560182Y-16471222D01*
X9560182Y-16471222D02*
X9569706Y-16452174D01*
X9569706Y-16452174D02*
X9588753Y-16442650D01*
X9588753Y-16442650D02*
X9617325Y-16442650D01*
X9617325Y-16442650D02*
X9636373Y-16452174D01*
X9712563Y-16652174D02*
X9722087Y-16642650D01*
X9722087Y-16642650D02*
X9741134Y-16614079D01*
X9741134Y-16614079D02*
X9750658Y-16595031D01*
X9750658Y-16595031D02*
X9760182Y-16566460D01*
X9760182Y-16566460D02*
X9769706Y-16518841D01*
X9769706Y-16518841D02*
X9769706Y-16480746D01*
X9769706Y-16480746D02*
X9760182Y-16433127D01*
X9760182Y-16433127D02*
X9750658Y-16404555D01*
X9750658Y-16404555D02*
X9741134Y-16385508D01*
X9741134Y-16385508D02*
X9722087Y-16356936D01*
X9722087Y-16356936D02*
X9712563Y-16347412D01*
M02*
