G04 #@! TF.GenerationSoftware,KiCad,Pcbnew,8.0.4*
G04 #@! TF.CreationDate,2024-08-16T00:10:32-05:00*
G04 #@! TF.ProjectId,Codex43,436f6465-7834-4332-9e6b-696361645f70,rev?*
G04 #@! TF.SameCoordinates,Original*
G04 #@! TF.FileFunction,Legend,Bot*
G04 #@! TF.FilePolarity,Positive*
%FSLAX46Y46*%
G04 Gerber Fmt 4.6, Leading zero omitted, Abs format (unit mm)*
G04 Created by KiCad (PCBNEW 8.0.4) date 2024-08-16 00:10:32*
%MOMM*%
%LPD*%
G01*
G04 APERTURE LIST*
G04 Aperture macros list*
%AMRoundRect*
0 Rectangle with rounded corners*
0 $1 Rounding radius*
0 $2 $3 $4 $5 $6 $7 $8 $9 X,Y pos of 4 corners*
0 Add a 4 corners polygon primitive as box body*
4,1,4,$2,$3,$4,$5,$6,$7,$8,$9,$2,$3,0*
0 Add four circle primitives for the rounded corners*
1,1,$1+$1,$2,$3*
1,1,$1+$1,$4,$5*
1,1,$1+$1,$6,$7*
1,1,$1+$1,$8,$9*
0 Add four rect primitives between the rounded corners*
20,1,$1+$1,$2,$3,$4,$5,0*
20,1,$1+$1,$4,$5,$6,$7,0*
20,1,$1+$1,$6,$7,$8,$9,0*
20,1,$1+$1,$8,$9,$2,$3,0*%
G04 Aperture macros list end*
%ADD10C,0.100000*%
%ADD11C,0.140000*%
%ADD12C,0.120000*%
%ADD13C,2.500000*%
%ADD14R,1.700000X1.700000*%
%ADD15O,1.700000X1.700000*%
%ADD16RoundRect,0.102000X0.754000X-0.754000X0.754000X0.754000X-0.754000X0.754000X-0.754000X-0.754000X0*%
%ADD17C,1.712000*%
%ADD18C,3.600000*%
%ADD19C,5.700000*%
%ADD20C,0.520000*%
%ADD21O,2.404000X1.304000*%
%ADD22C,0.950000*%
%ADD23C,1.700000*%
%ADD24C,3.302000*%
%ADD25RoundRect,0.102000X0.723900X0.723900X-0.723900X0.723900X-0.723900X-0.723900X0.723900X-0.723900X0*%
%ADD26C,1.651800*%
%ADD27RoundRect,0.102000X-0.900000X-0.900000X0.900000X-0.900000X0.900000X0.900000X-0.900000X0.900000X0*%
%ADD28C,2.004000*%
%ADD29R,1.000000X1.500000*%
G04 APERTURE END LIST*
D10*
X91038095Y-52479961D02*
X90942857Y-52527580D01*
X90942857Y-52527580D02*
X90800000Y-52527580D01*
X90800000Y-52527580D02*
X90657143Y-52479961D01*
X90657143Y-52479961D02*
X90561905Y-52384723D01*
X90561905Y-52384723D02*
X90514286Y-52289485D01*
X90514286Y-52289485D02*
X90466667Y-52099009D01*
X90466667Y-52099009D02*
X90466667Y-51956152D01*
X90466667Y-51956152D02*
X90514286Y-51765676D01*
X90514286Y-51765676D02*
X90561905Y-51670438D01*
X90561905Y-51670438D02*
X90657143Y-51575200D01*
X90657143Y-51575200D02*
X90800000Y-51527580D01*
X90800000Y-51527580D02*
X90895238Y-51527580D01*
X90895238Y-51527580D02*
X91038095Y-51575200D01*
X91038095Y-51575200D02*
X91085714Y-51622819D01*
X91085714Y-51622819D02*
X91085714Y-51956152D01*
X91085714Y-51956152D02*
X90895238Y-51956152D01*
X91514286Y-51527580D02*
X91514286Y-52527580D01*
X91514286Y-52527580D02*
X92085714Y-51527580D01*
X92085714Y-51527580D02*
X92085714Y-52527580D01*
X92561905Y-51527580D02*
X92561905Y-52527580D01*
X92561905Y-52527580D02*
X92800000Y-52527580D01*
X92800000Y-52527580D02*
X92942857Y-52479961D01*
X92942857Y-52479961D02*
X93038095Y-52384723D01*
X93038095Y-52384723D02*
X93085714Y-52289485D01*
X93085714Y-52289485D02*
X93133333Y-52099009D01*
X93133333Y-52099009D02*
X93133333Y-51956152D01*
X93133333Y-51956152D02*
X93085714Y-51765676D01*
X93085714Y-51765676D02*
X93038095Y-51670438D01*
X93038095Y-51670438D02*
X92942857Y-51575200D01*
X92942857Y-51575200D02*
X92800000Y-51527580D01*
X92800000Y-51527580D02*
X92561905Y-51527580D01*
X91303884Y-54308533D02*
X92065789Y-54308533D01*
X91684836Y-53927580D02*
X91684836Y-54689485D01*
X93018169Y-54927580D02*
X92541979Y-54927580D01*
X92541979Y-54927580D02*
X92494360Y-54451390D01*
X92494360Y-54451390D02*
X92541979Y-54499009D01*
X92541979Y-54499009D02*
X92637217Y-54546628D01*
X92637217Y-54546628D02*
X92875312Y-54546628D01*
X92875312Y-54546628D02*
X92970550Y-54499009D01*
X92970550Y-54499009D02*
X93018169Y-54451390D01*
X93018169Y-54451390D02*
X93065788Y-54356152D01*
X93065788Y-54356152D02*
X93065788Y-54118057D01*
X93065788Y-54118057D02*
X93018169Y-54022819D01*
X93018169Y-54022819D02*
X92970550Y-53975200D01*
X92970550Y-53975200D02*
X92875312Y-53927580D01*
X92875312Y-53927580D02*
X92637217Y-53927580D01*
X92637217Y-53927580D02*
X92541979Y-53975200D01*
X92541979Y-53975200D02*
X92494360Y-54022819D01*
D11*
X84828572Y-56854137D02*
X84828572Y-56054137D01*
X84542857Y-57311280D02*
X84257143Y-56454137D01*
X84257143Y-56454137D02*
X85000000Y-56454137D01*
X79200000Y-57254137D02*
X79942857Y-57254137D01*
X79942857Y-57254137D02*
X79542857Y-56796994D01*
X79542857Y-56796994D02*
X79714286Y-56796994D01*
X79714286Y-56796994D02*
X79828572Y-56739851D01*
X79828572Y-56739851D02*
X79885714Y-56682708D01*
X79885714Y-56682708D02*
X79942857Y-56568422D01*
X79942857Y-56568422D02*
X79942857Y-56282708D01*
X79942857Y-56282708D02*
X79885714Y-56168422D01*
X79885714Y-56168422D02*
X79828572Y-56111280D01*
X79828572Y-56111280D02*
X79714286Y-56054137D01*
X79714286Y-56054137D02*
X79371429Y-56054137D01*
X79371429Y-56054137D02*
X79257143Y-56111280D01*
X79257143Y-56111280D02*
X79200000Y-56168422D01*
X74257143Y-57139851D02*
X74314286Y-57196994D01*
X74314286Y-57196994D02*
X74428572Y-57254137D01*
X74428572Y-57254137D02*
X74714286Y-57254137D01*
X74714286Y-57254137D02*
X74828572Y-57196994D01*
X74828572Y-57196994D02*
X74885714Y-57139851D01*
X74885714Y-57139851D02*
X74942857Y-57025565D01*
X74942857Y-57025565D02*
X74942857Y-56911280D01*
X74942857Y-56911280D02*
X74885714Y-56739851D01*
X74885714Y-56739851D02*
X74200000Y-56054137D01*
X74200000Y-56054137D02*
X74942857Y-56054137D01*
X69942857Y-56054137D02*
X69257143Y-56054137D01*
X69600000Y-56054137D02*
X69600000Y-57254137D01*
X69600000Y-57254137D02*
X69485714Y-57082708D01*
X69485714Y-57082708D02*
X69371429Y-56968422D01*
X69371429Y-56968422D02*
X69257143Y-56911280D01*
X63000000Y-56511280D02*
X63914286Y-56511280D01*
X63457143Y-56054137D02*
X63457143Y-56968422D01*
X65114285Y-56054137D02*
X64428571Y-56054137D01*
X64771428Y-56054137D02*
X64771428Y-57254137D01*
X64771428Y-57254137D02*
X64657142Y-57082708D01*
X64657142Y-57082708D02*
X64542857Y-56968422D01*
X64542857Y-56968422D02*
X64428571Y-56911280D01*
X65571428Y-57139851D02*
X65628571Y-57196994D01*
X65628571Y-57196994D02*
X65742857Y-57254137D01*
X65742857Y-57254137D02*
X66028571Y-57254137D01*
X66028571Y-57254137D02*
X66142857Y-57196994D01*
X66142857Y-57196994D02*
X66199999Y-57139851D01*
X66199999Y-57139851D02*
X66257142Y-57025565D01*
X66257142Y-57025565D02*
X66257142Y-56911280D01*
X66257142Y-56911280D02*
X66199999Y-56739851D01*
X66199999Y-56739851D02*
X65514285Y-56054137D01*
X65514285Y-56054137D02*
X66257142Y-56054137D01*
D10*
X102528571Y-58537580D02*
X102528571Y-59537580D01*
X102528571Y-59537580D02*
X102766666Y-59537580D01*
X102766666Y-59537580D02*
X102909523Y-59489961D01*
X102909523Y-59489961D02*
X103004761Y-59394723D01*
X103004761Y-59394723D02*
X103052380Y-59299485D01*
X103052380Y-59299485D02*
X103099999Y-59109009D01*
X103099999Y-59109009D02*
X103099999Y-58966152D01*
X103099999Y-58966152D02*
X103052380Y-58775676D01*
X103052380Y-58775676D02*
X103004761Y-58680438D01*
X103004761Y-58680438D02*
X102909523Y-58585200D01*
X102909523Y-58585200D02*
X102766666Y-58537580D01*
X102766666Y-58537580D02*
X102528571Y-58537580D01*
X103480952Y-58823295D02*
X103957142Y-58823295D01*
X103385714Y-58537580D02*
X103719047Y-59537580D01*
X103719047Y-59537580D02*
X104052380Y-58537580D01*
X104242857Y-59537580D02*
X104814285Y-59537580D01*
X104528571Y-58537580D02*
X104528571Y-59537580D01*
X100182857Y-58908533D02*
X100944762Y-58908533D01*
X100563809Y-58527580D02*
X100563809Y-59289485D01*
X101897142Y-59527580D02*
X101420952Y-59527580D01*
X101420952Y-59527580D02*
X101373333Y-59051390D01*
X101373333Y-59051390D02*
X101420952Y-59099009D01*
X101420952Y-59099009D02*
X101516190Y-59146628D01*
X101516190Y-59146628D02*
X101754285Y-59146628D01*
X101754285Y-59146628D02*
X101849523Y-59099009D01*
X101849523Y-59099009D02*
X101897142Y-59051390D01*
X101897142Y-59051390D02*
X101944761Y-58956152D01*
X101944761Y-58956152D02*
X101944761Y-58718057D01*
X101944761Y-58718057D02*
X101897142Y-58622819D01*
X101897142Y-58622819D02*
X101849523Y-58575200D01*
X101849523Y-58575200D02*
X101754285Y-58527580D01*
X101754285Y-58527580D02*
X101516190Y-58527580D01*
X101516190Y-58527580D02*
X101420952Y-58575200D01*
X101420952Y-58575200D02*
X101373333Y-58622819D01*
X97738095Y-59489961D02*
X97642857Y-59537580D01*
X97642857Y-59537580D02*
X97500000Y-59537580D01*
X97500000Y-59537580D02*
X97357143Y-59489961D01*
X97357143Y-59489961D02*
X97261905Y-59394723D01*
X97261905Y-59394723D02*
X97214286Y-59299485D01*
X97214286Y-59299485D02*
X97166667Y-59109009D01*
X97166667Y-59109009D02*
X97166667Y-58966152D01*
X97166667Y-58966152D02*
X97214286Y-58775676D01*
X97214286Y-58775676D02*
X97261905Y-58680438D01*
X97261905Y-58680438D02*
X97357143Y-58585200D01*
X97357143Y-58585200D02*
X97500000Y-58537580D01*
X97500000Y-58537580D02*
X97595238Y-58537580D01*
X97595238Y-58537580D02*
X97738095Y-58585200D01*
X97738095Y-58585200D02*
X97785714Y-58632819D01*
X97785714Y-58632819D02*
X97785714Y-58966152D01*
X97785714Y-58966152D02*
X97595238Y-58966152D01*
X98214286Y-58537580D02*
X98214286Y-59537580D01*
X98214286Y-59537580D02*
X98785714Y-58537580D01*
X98785714Y-58537580D02*
X98785714Y-59537580D01*
X99261905Y-58537580D02*
X99261905Y-59537580D01*
X99261905Y-59537580D02*
X99500000Y-59537580D01*
X99500000Y-59537580D02*
X99642857Y-59489961D01*
X99642857Y-59489961D02*
X99738095Y-59394723D01*
X99738095Y-59394723D02*
X99785714Y-59299485D01*
X99785714Y-59299485D02*
X99833333Y-59109009D01*
X99833333Y-59109009D02*
X99833333Y-58966152D01*
X99833333Y-58966152D02*
X99785714Y-58775676D01*
X99785714Y-58775676D02*
X99738095Y-58680438D01*
X99738095Y-58680438D02*
X99642857Y-58585200D01*
X99642857Y-58585200D02*
X99500000Y-58537580D01*
X99500000Y-58537580D02*
X99261905Y-58537580D01*
X96224687Y-57642580D02*
X96843734Y-57642580D01*
X96843734Y-57642580D02*
X96510401Y-57261628D01*
X96510401Y-57261628D02*
X96653258Y-57261628D01*
X96653258Y-57261628D02*
X96748496Y-57214009D01*
X96748496Y-57214009D02*
X96796115Y-57166390D01*
X96796115Y-57166390D02*
X96843734Y-57071152D01*
X96843734Y-57071152D02*
X96843734Y-56833057D01*
X96843734Y-56833057D02*
X96796115Y-56737819D01*
X96796115Y-56737819D02*
X96748496Y-56690200D01*
X96748496Y-56690200D02*
X96653258Y-56642580D01*
X96653258Y-56642580D02*
X96367544Y-56642580D01*
X96367544Y-56642580D02*
X96272306Y-56690200D01*
X96272306Y-56690200D02*
X96224687Y-56737819D01*
X96272306Y-54947342D02*
X96319925Y-54994961D01*
X96319925Y-54994961D02*
X96415163Y-55042580D01*
X96415163Y-55042580D02*
X96653258Y-55042580D01*
X96653258Y-55042580D02*
X96748496Y-54994961D01*
X96748496Y-54994961D02*
X96796115Y-54947342D01*
X96796115Y-54947342D02*
X96843734Y-54852104D01*
X96843734Y-54852104D02*
X96843734Y-54756866D01*
X96843734Y-54756866D02*
X96796115Y-54614009D01*
X96796115Y-54614009D02*
X96224687Y-54042580D01*
X96224687Y-54042580D02*
X96843734Y-54042580D01*
X97043734Y-51542580D02*
X96472306Y-51542580D01*
X96758020Y-51542580D02*
X96758020Y-52542580D01*
X96758020Y-52542580D02*
X96662782Y-52399723D01*
X96662782Y-52399723D02*
X96567544Y-52304485D01*
X96567544Y-52304485D02*
X96472306Y-52256866D01*
D11*
X102042856Y-129545862D02*
X101299999Y-129545862D01*
X101299999Y-129545862D02*
X101699999Y-130003005D01*
X101699999Y-130003005D02*
X101528570Y-130003005D01*
X101528570Y-130003005D02*
X101414285Y-130060148D01*
X101414285Y-130060148D02*
X101357142Y-130117291D01*
X101357142Y-130117291D02*
X101299999Y-130231577D01*
X101299999Y-130231577D02*
X101299999Y-130517291D01*
X101299999Y-130517291D02*
X101357142Y-130631577D01*
X101357142Y-130631577D02*
X101414285Y-130688720D01*
X101414285Y-130688720D02*
X101528570Y-130745862D01*
X101528570Y-130745862D02*
X101871427Y-130745862D01*
X101871427Y-130745862D02*
X101985713Y-130688720D01*
X101985713Y-130688720D02*
X102042856Y-130631577D01*
X100785713Y-130288720D02*
X99871428Y-130288720D01*
X96942856Y-129545862D02*
X96199999Y-129545862D01*
X96199999Y-129545862D02*
X96599999Y-130003005D01*
X96599999Y-130003005D02*
X96428570Y-130003005D01*
X96428570Y-130003005D02*
X96314285Y-130060148D01*
X96314285Y-130060148D02*
X96257142Y-130117291D01*
X96257142Y-130117291D02*
X96199999Y-130231577D01*
X96199999Y-130231577D02*
X96199999Y-130517291D01*
X96199999Y-130517291D02*
X96257142Y-130631577D01*
X96257142Y-130631577D02*
X96314285Y-130688720D01*
X96314285Y-130688720D02*
X96428570Y-130745862D01*
X96428570Y-130745862D02*
X96771427Y-130745862D01*
X96771427Y-130745862D02*
X96885713Y-130688720D01*
X96885713Y-130688720D02*
X96942856Y-130631577D01*
X95685713Y-130288720D02*
X94771428Y-130288720D01*
X95228570Y-130745862D02*
X95228570Y-129831577D01*
X91985713Y-129660148D02*
X91928570Y-129603005D01*
X91928570Y-129603005D02*
X91814285Y-129545862D01*
X91814285Y-129545862D02*
X91528570Y-129545862D01*
X91528570Y-129545862D02*
X91414285Y-129603005D01*
X91414285Y-129603005D02*
X91357142Y-129660148D01*
X91357142Y-129660148D02*
X91299999Y-129774434D01*
X91299999Y-129774434D02*
X91299999Y-129888720D01*
X91299999Y-129888720D02*
X91357142Y-130060148D01*
X91357142Y-130060148D02*
X92042856Y-130745862D01*
X92042856Y-130745862D02*
X91299999Y-130745862D01*
X90785713Y-130288720D02*
X89871428Y-130288720D01*
X86885713Y-129660148D02*
X86828570Y-129603005D01*
X86828570Y-129603005D02*
X86714285Y-129545862D01*
X86714285Y-129545862D02*
X86428570Y-129545862D01*
X86428570Y-129545862D02*
X86314285Y-129603005D01*
X86314285Y-129603005D02*
X86257142Y-129660148D01*
X86257142Y-129660148D02*
X86199999Y-129774434D01*
X86199999Y-129774434D02*
X86199999Y-129888720D01*
X86199999Y-129888720D02*
X86257142Y-130060148D01*
X86257142Y-130060148D02*
X86942856Y-130745862D01*
X86942856Y-130745862D02*
X86199999Y-130745862D01*
X85685713Y-130288720D02*
X84771428Y-130288720D01*
X85228570Y-130745862D02*
X85228570Y-129831577D01*
X81299999Y-130745862D02*
X81985713Y-130745862D01*
X81642856Y-130745862D02*
X81642856Y-129545862D01*
X81642856Y-129545862D02*
X81757142Y-129717291D01*
X81757142Y-129717291D02*
X81871427Y-129831577D01*
X81871427Y-129831577D02*
X81985713Y-129888720D01*
X80785713Y-130288720D02*
X79871428Y-130288720D01*
X76199999Y-130745862D02*
X76885713Y-130745862D01*
X76542856Y-130745862D02*
X76542856Y-129545862D01*
X76542856Y-129545862D02*
X76657142Y-129717291D01*
X76657142Y-129717291D02*
X76771427Y-129831577D01*
X76771427Y-129831577D02*
X76885713Y-129888720D01*
X75685713Y-130288720D02*
X74771428Y-130288720D01*
X75228570Y-130745862D02*
X75228570Y-129831577D01*
X71299999Y-130288720D02*
X70385714Y-130288720D01*
X70842856Y-130745862D02*
X70842856Y-129831577D01*
X69185714Y-130745862D02*
X69871428Y-130745862D01*
X69528571Y-130745862D02*
X69528571Y-129545862D01*
X69528571Y-129545862D02*
X69642857Y-129717291D01*
X69642857Y-129717291D02*
X69757142Y-129831577D01*
X69757142Y-129831577D02*
X69871428Y-129888720D01*
X68728571Y-129660148D02*
X68671428Y-129603005D01*
X68671428Y-129603005D02*
X68557143Y-129545862D01*
X68557143Y-129545862D02*
X68271428Y-129545862D01*
X68271428Y-129545862D02*
X68157143Y-129603005D01*
X68157143Y-129603005D02*
X68100000Y-129660148D01*
X68100000Y-129660148D02*
X68042857Y-129774434D01*
X68042857Y-129774434D02*
X68042857Y-129888720D01*
X68042857Y-129888720D02*
X68100000Y-130060148D01*
X68100000Y-130060148D02*
X68785714Y-130745862D01*
X68785714Y-130745862D02*
X68042857Y-130745862D01*
X65614285Y-129603005D02*
X65728571Y-129545862D01*
X65728571Y-129545862D02*
X65899999Y-129545862D01*
X65899999Y-129545862D02*
X66071428Y-129603005D01*
X66071428Y-129603005D02*
X66185713Y-129717291D01*
X66185713Y-129717291D02*
X66242856Y-129831577D01*
X66242856Y-129831577D02*
X66299999Y-130060148D01*
X66299999Y-130060148D02*
X66299999Y-130231577D01*
X66299999Y-130231577D02*
X66242856Y-130460148D01*
X66242856Y-130460148D02*
X66185713Y-130574434D01*
X66185713Y-130574434D02*
X66071428Y-130688720D01*
X66071428Y-130688720D02*
X65899999Y-130745862D01*
X65899999Y-130745862D02*
X65785713Y-130745862D01*
X65785713Y-130745862D02*
X65614285Y-130688720D01*
X65614285Y-130688720D02*
X65557142Y-130631577D01*
X65557142Y-130631577D02*
X65557142Y-130231577D01*
X65557142Y-130231577D02*
X65785713Y-130231577D01*
X65042856Y-130745862D02*
X65042856Y-129545862D01*
X65042856Y-129545862D02*
X64357142Y-130745862D01*
X64357142Y-130745862D02*
X64357142Y-129545862D01*
X63785713Y-130745862D02*
X63785713Y-129545862D01*
X63785713Y-129545862D02*
X63499999Y-129545862D01*
X63499999Y-129545862D02*
X63328570Y-129603005D01*
X63328570Y-129603005D02*
X63214285Y-129717291D01*
X63214285Y-129717291D02*
X63157142Y-129831577D01*
X63157142Y-129831577D02*
X63099999Y-130060148D01*
X63099999Y-130060148D02*
X63099999Y-130231577D01*
X63099999Y-130231577D02*
X63157142Y-130460148D01*
X63157142Y-130460148D02*
X63214285Y-130574434D01*
X63214285Y-130574434D02*
X63328570Y-130688720D01*
X63328570Y-130688720D02*
X63499999Y-130745862D01*
X63499999Y-130745862D02*
X63785713Y-130745862D01*
X140806390Y-125647862D02*
X141206390Y-125076434D01*
X141492104Y-125647862D02*
X141492104Y-124447862D01*
X141492104Y-124447862D02*
X141034961Y-124447862D01*
X141034961Y-124447862D02*
X140920676Y-124505005D01*
X140920676Y-124505005D02*
X140863533Y-124562148D01*
X140863533Y-124562148D02*
X140806390Y-124676434D01*
X140806390Y-124676434D02*
X140806390Y-124847862D01*
X140806390Y-124847862D02*
X140863533Y-124962148D01*
X140863533Y-124962148D02*
X140920676Y-125019291D01*
X140920676Y-125019291D02*
X141034961Y-125076434D01*
X141034961Y-125076434D02*
X141492104Y-125076434D01*
X140406390Y-124447862D02*
X139606390Y-125647862D01*
X139606390Y-124447862D02*
X140406390Y-125647862D01*
X139149247Y-125647862D02*
X139149247Y-124447862D01*
X139149247Y-124447862D02*
X138863533Y-124447862D01*
X138863533Y-124447862D02*
X138692104Y-124505005D01*
X138692104Y-124505005D02*
X138577819Y-124619291D01*
X138577819Y-124619291D02*
X138520676Y-124733577D01*
X138520676Y-124733577D02*
X138463533Y-124962148D01*
X138463533Y-124962148D02*
X138463533Y-125133577D01*
X138463533Y-125133577D02*
X138520676Y-125362148D01*
X138520676Y-125362148D02*
X138577819Y-125476434D01*
X138577819Y-125476434D02*
X138692104Y-125590720D01*
X138692104Y-125590720D02*
X138863533Y-125647862D01*
X138863533Y-125647862D02*
X139149247Y-125647862D01*
X137720676Y-124447862D02*
X137606390Y-124447862D01*
X137606390Y-124447862D02*
X137492104Y-124505005D01*
X137492104Y-124505005D02*
X137434962Y-124562148D01*
X137434962Y-124562148D02*
X137377819Y-124676434D01*
X137377819Y-124676434D02*
X137320676Y-124905005D01*
X137320676Y-124905005D02*
X137320676Y-125190720D01*
X137320676Y-125190720D02*
X137377819Y-125419291D01*
X137377819Y-125419291D02*
X137434962Y-125533577D01*
X137434962Y-125533577D02*
X137492104Y-125590720D01*
X137492104Y-125590720D02*
X137606390Y-125647862D01*
X137606390Y-125647862D02*
X137720676Y-125647862D01*
X137720676Y-125647862D02*
X137834962Y-125590720D01*
X137834962Y-125590720D02*
X137892104Y-125533577D01*
X137892104Y-125533577D02*
X137949247Y-125419291D01*
X137949247Y-125419291D02*
X138006390Y-125190720D01*
X138006390Y-125190720D02*
X138006390Y-124905005D01*
X138006390Y-124905005D02*
X137949247Y-124676434D01*
X137949247Y-124676434D02*
X137892104Y-124562148D01*
X137892104Y-124562148D02*
X137834962Y-124505005D01*
X137834962Y-124505005D02*
X137720676Y-124447862D01*
X141377819Y-121947862D02*
X140692105Y-121947862D01*
X141034962Y-123147862D02*
X141034962Y-121947862D01*
X140406390Y-121947862D02*
X139606390Y-123147862D01*
X139606390Y-121947862D02*
X140406390Y-123147862D01*
X139149247Y-123147862D02*
X139149247Y-121947862D01*
X139149247Y-121947862D02*
X138863533Y-121947862D01*
X138863533Y-121947862D02*
X138692104Y-122005005D01*
X138692104Y-122005005D02*
X138577819Y-122119291D01*
X138577819Y-122119291D02*
X138520676Y-122233577D01*
X138520676Y-122233577D02*
X138463533Y-122462148D01*
X138463533Y-122462148D02*
X138463533Y-122633577D01*
X138463533Y-122633577D02*
X138520676Y-122862148D01*
X138520676Y-122862148D02*
X138577819Y-122976434D01*
X138577819Y-122976434D02*
X138692104Y-123090720D01*
X138692104Y-123090720D02*
X138863533Y-123147862D01*
X138863533Y-123147862D02*
X139149247Y-123147862D01*
X137720676Y-121947862D02*
X137606390Y-121947862D01*
X137606390Y-121947862D02*
X137492104Y-122005005D01*
X137492104Y-122005005D02*
X137434962Y-122062148D01*
X137434962Y-122062148D02*
X137377819Y-122176434D01*
X137377819Y-122176434D02*
X137320676Y-122405005D01*
X137320676Y-122405005D02*
X137320676Y-122690720D01*
X137320676Y-122690720D02*
X137377819Y-122919291D01*
X137377819Y-122919291D02*
X137434962Y-123033577D01*
X137434962Y-123033577D02*
X137492104Y-123090720D01*
X137492104Y-123090720D02*
X137606390Y-123147862D01*
X137606390Y-123147862D02*
X137720676Y-123147862D01*
X137720676Y-123147862D02*
X137834962Y-123090720D01*
X137834962Y-123090720D02*
X137892104Y-123033577D01*
X137892104Y-123033577D02*
X137949247Y-122919291D01*
X137949247Y-122919291D02*
X138006390Y-122690720D01*
X138006390Y-122690720D02*
X138006390Y-122405005D01*
X138006390Y-122405005D02*
X137949247Y-122176434D01*
X137949247Y-122176434D02*
X137892104Y-122062148D01*
X137892104Y-122062148D02*
X137834962Y-122005005D01*
X137834962Y-122005005D02*
X137720676Y-121947862D01*
X139834962Y-119405005D02*
X139949248Y-119347862D01*
X139949248Y-119347862D02*
X140120676Y-119347862D01*
X140120676Y-119347862D02*
X140292105Y-119405005D01*
X140292105Y-119405005D02*
X140406390Y-119519291D01*
X140406390Y-119519291D02*
X140463533Y-119633577D01*
X140463533Y-119633577D02*
X140520676Y-119862148D01*
X140520676Y-119862148D02*
X140520676Y-120033577D01*
X140520676Y-120033577D02*
X140463533Y-120262148D01*
X140463533Y-120262148D02*
X140406390Y-120376434D01*
X140406390Y-120376434D02*
X140292105Y-120490720D01*
X140292105Y-120490720D02*
X140120676Y-120547862D01*
X140120676Y-120547862D02*
X140006390Y-120547862D01*
X140006390Y-120547862D02*
X139834962Y-120490720D01*
X139834962Y-120490720D02*
X139777819Y-120433577D01*
X139777819Y-120433577D02*
X139777819Y-120033577D01*
X139777819Y-120033577D02*
X140006390Y-120033577D01*
X139263533Y-120547862D02*
X139263533Y-119347862D01*
X139263533Y-119347862D02*
X138577819Y-120547862D01*
X138577819Y-120547862D02*
X138577819Y-119347862D01*
X138006390Y-120547862D02*
X138006390Y-119347862D01*
X138006390Y-119347862D02*
X137720676Y-119347862D01*
X137720676Y-119347862D02*
X137549247Y-119405005D01*
X137549247Y-119405005D02*
X137434962Y-119519291D01*
X137434962Y-119519291D02*
X137377819Y-119633577D01*
X137377819Y-119633577D02*
X137320676Y-119862148D01*
X137320676Y-119862148D02*
X137320676Y-120033577D01*
X137320676Y-120033577D02*
X137377819Y-120262148D01*
X137377819Y-120262148D02*
X137434962Y-120376434D01*
X137434962Y-120376434D02*
X137549247Y-120490720D01*
X137549247Y-120490720D02*
X137720676Y-120547862D01*
X137720676Y-120547862D02*
X138006390Y-120547862D01*
X139777819Y-116847862D02*
X139034962Y-116847862D01*
X139034962Y-116847862D02*
X139434962Y-117305005D01*
X139434962Y-117305005D02*
X139263533Y-117305005D01*
X139263533Y-117305005D02*
X139149248Y-117362148D01*
X139149248Y-117362148D02*
X139092105Y-117419291D01*
X139092105Y-117419291D02*
X139034962Y-117533577D01*
X139034962Y-117533577D02*
X139034962Y-117819291D01*
X139034962Y-117819291D02*
X139092105Y-117933577D01*
X139092105Y-117933577D02*
X139149248Y-117990720D01*
X139149248Y-117990720D02*
X139263533Y-118047862D01*
X139263533Y-118047862D02*
X139606390Y-118047862D01*
X139606390Y-118047862D02*
X139720676Y-117990720D01*
X139720676Y-117990720D02*
X139777819Y-117933577D01*
X138520676Y-117933577D02*
X138463533Y-117990720D01*
X138463533Y-117990720D02*
X138520676Y-118047862D01*
X138520676Y-118047862D02*
X138577819Y-117990720D01*
X138577819Y-117990720D02*
X138520676Y-117933577D01*
X138520676Y-117933577D02*
X138520676Y-118047862D01*
X138063533Y-116847862D02*
X137320676Y-116847862D01*
X137320676Y-116847862D02*
X137720676Y-117305005D01*
X137720676Y-117305005D02*
X137549247Y-117305005D01*
X137549247Y-117305005D02*
X137434962Y-117362148D01*
X137434962Y-117362148D02*
X137377819Y-117419291D01*
X137377819Y-117419291D02*
X137320676Y-117533577D01*
X137320676Y-117533577D02*
X137320676Y-117819291D01*
X137320676Y-117819291D02*
X137377819Y-117933577D01*
X137377819Y-117933577D02*
X137434962Y-117990720D01*
X137434962Y-117990720D02*
X137549247Y-118047862D01*
X137549247Y-118047862D02*
X137892104Y-118047862D01*
X137892104Y-118047862D02*
X138006390Y-117990720D01*
X138006390Y-117990720D02*
X138063533Y-117933577D01*
X139542856Y-81245862D02*
X139942856Y-80674434D01*
X140228570Y-81245862D02*
X140228570Y-80045862D01*
X140228570Y-80045862D02*
X139771427Y-80045862D01*
X139771427Y-80045862D02*
X139657142Y-80103005D01*
X139657142Y-80103005D02*
X139599999Y-80160148D01*
X139599999Y-80160148D02*
X139542856Y-80274434D01*
X139542856Y-80274434D02*
X139542856Y-80445862D01*
X139542856Y-80445862D02*
X139599999Y-80560148D01*
X139599999Y-80560148D02*
X139657142Y-80617291D01*
X139657142Y-80617291D02*
X139771427Y-80674434D01*
X139771427Y-80674434D02*
X140228570Y-80674434D01*
X139028570Y-80617291D02*
X138628570Y-80617291D01*
X138457142Y-81245862D02*
X139028570Y-81245862D01*
X139028570Y-81245862D02*
X139028570Y-80045862D01*
X139028570Y-80045862D02*
X138457142Y-80045862D01*
X137999999Y-81188720D02*
X137828571Y-81245862D01*
X137828571Y-81245862D02*
X137542856Y-81245862D01*
X137542856Y-81245862D02*
X137428571Y-81188720D01*
X137428571Y-81188720D02*
X137371428Y-81131577D01*
X137371428Y-81131577D02*
X137314285Y-81017291D01*
X137314285Y-81017291D02*
X137314285Y-80903005D01*
X137314285Y-80903005D02*
X137371428Y-80788720D01*
X137371428Y-80788720D02*
X137428571Y-80731577D01*
X137428571Y-80731577D02*
X137542856Y-80674434D01*
X137542856Y-80674434D02*
X137771428Y-80617291D01*
X137771428Y-80617291D02*
X137885713Y-80560148D01*
X137885713Y-80560148D02*
X137942856Y-80503005D01*
X137942856Y-80503005D02*
X137999999Y-80388720D01*
X137999999Y-80388720D02*
X137999999Y-80274434D01*
X137999999Y-80274434D02*
X137942856Y-80160148D01*
X137942856Y-80160148D02*
X137885713Y-80103005D01*
X137885713Y-80103005D02*
X137771428Y-80045862D01*
X137771428Y-80045862D02*
X137485713Y-80045862D01*
X137485713Y-80045862D02*
X137314285Y-80103005D01*
X136799999Y-80617291D02*
X136399999Y-80617291D01*
X136228571Y-81245862D02*
X136799999Y-81245862D01*
X136799999Y-81245862D02*
X136799999Y-80045862D01*
X136799999Y-80045862D02*
X136228571Y-80045862D01*
X135885714Y-80045862D02*
X135200000Y-80045862D01*
X135542857Y-81245862D02*
X135542857Y-80045862D01*
X87850137Y-90099999D02*
X87850137Y-89871427D01*
X87850137Y-89871427D02*
X87792994Y-89757142D01*
X87792994Y-89757142D02*
X87678708Y-89642856D01*
X87678708Y-89642856D02*
X87450137Y-89585713D01*
X87450137Y-89585713D02*
X87050137Y-89585713D01*
X87050137Y-89585713D02*
X86821565Y-89642856D01*
X86821565Y-89642856D02*
X86707280Y-89757142D01*
X86707280Y-89757142D02*
X86650137Y-89871427D01*
X86650137Y-89871427D02*
X86650137Y-90099999D01*
X86650137Y-90099999D02*
X86707280Y-90214285D01*
X86707280Y-90214285D02*
X86821565Y-90328570D01*
X86821565Y-90328570D02*
X87050137Y-90385713D01*
X87050137Y-90385713D02*
X87450137Y-90385713D01*
X87450137Y-90385713D02*
X87678708Y-90328570D01*
X87678708Y-90328570D02*
X87792994Y-90214285D01*
X87792994Y-90214285D02*
X87850137Y-90099999D01*
X87450137Y-88557142D02*
X86650137Y-88557142D01*
X87450137Y-89071427D02*
X86821565Y-89071427D01*
X86821565Y-89071427D02*
X86707280Y-89014284D01*
X86707280Y-89014284D02*
X86650137Y-88899999D01*
X86650137Y-88899999D02*
X86650137Y-88728570D01*
X86650137Y-88728570D02*
X86707280Y-88614284D01*
X86707280Y-88614284D02*
X86764422Y-88557142D01*
X87450137Y-88157142D02*
X87450137Y-87699999D01*
X87850137Y-87985713D02*
X86821565Y-87985713D01*
X86821565Y-87985713D02*
X86707280Y-87928570D01*
X86707280Y-87928570D02*
X86650137Y-87814285D01*
X86650137Y-87814285D02*
X86650137Y-87699999D01*
X77642856Y-78581996D02*
X77642856Y-77381996D01*
X77642856Y-77381996D02*
X77357142Y-77381996D01*
X77357142Y-77381996D02*
X77185713Y-77439139D01*
X77185713Y-77439139D02*
X77071428Y-77553425D01*
X77071428Y-77553425D02*
X77014285Y-77667711D01*
X77014285Y-77667711D02*
X76957142Y-77896282D01*
X76957142Y-77896282D02*
X76957142Y-78067711D01*
X76957142Y-78067711D02*
X77014285Y-78296282D01*
X77014285Y-78296282D02*
X77071428Y-78410568D01*
X77071428Y-78410568D02*
X77185713Y-78524854D01*
X77185713Y-78524854D02*
X77357142Y-78581996D01*
X77357142Y-78581996D02*
X77642856Y-78581996D01*
X75928571Y-78581996D02*
X75928571Y-77953425D01*
X75928571Y-77953425D02*
X75985713Y-77839139D01*
X75985713Y-77839139D02*
X76099999Y-77781996D01*
X76099999Y-77781996D02*
X76328571Y-77781996D01*
X76328571Y-77781996D02*
X76442856Y-77839139D01*
X75928571Y-78524854D02*
X76042856Y-78581996D01*
X76042856Y-78581996D02*
X76328571Y-78581996D01*
X76328571Y-78581996D02*
X76442856Y-78524854D01*
X76442856Y-78524854D02*
X76499999Y-78410568D01*
X76499999Y-78410568D02*
X76499999Y-78296282D01*
X76499999Y-78296282D02*
X76442856Y-78181996D01*
X76442856Y-78181996D02*
X76328571Y-78124854D01*
X76328571Y-78124854D02*
X76042856Y-78124854D01*
X76042856Y-78124854D02*
X75928571Y-78067711D01*
X75528571Y-77781996D02*
X75071428Y-77781996D01*
X75357142Y-77381996D02*
X75357142Y-78410568D01*
X75357142Y-78410568D02*
X75299999Y-78524854D01*
X75299999Y-78524854D02*
X75185714Y-78581996D01*
X75185714Y-78581996D02*
X75071428Y-78581996D01*
X74157143Y-78581996D02*
X74157143Y-77953425D01*
X74157143Y-77953425D02*
X74214285Y-77839139D01*
X74214285Y-77839139D02*
X74328571Y-77781996D01*
X74328571Y-77781996D02*
X74557143Y-77781996D01*
X74557143Y-77781996D02*
X74671428Y-77839139D01*
X74157143Y-78524854D02*
X74271428Y-78581996D01*
X74271428Y-78581996D02*
X74557143Y-78581996D01*
X74557143Y-78581996D02*
X74671428Y-78524854D01*
X74671428Y-78524854D02*
X74728571Y-78410568D01*
X74728571Y-78410568D02*
X74728571Y-78296282D01*
X74728571Y-78296282D02*
X74671428Y-78181996D01*
X74671428Y-78181996D02*
X74557143Y-78124854D01*
X74557143Y-78124854D02*
X74271428Y-78124854D01*
X74271428Y-78124854D02*
X74157143Y-78067711D01*
X78328570Y-79313929D02*
X78099998Y-79313929D01*
X78099998Y-79313929D02*
X77985713Y-79371072D01*
X77985713Y-79371072D02*
X77871427Y-79485358D01*
X77871427Y-79485358D02*
X77814284Y-79713929D01*
X77814284Y-79713929D02*
X77814284Y-80113929D01*
X77814284Y-80113929D02*
X77871427Y-80342501D01*
X77871427Y-80342501D02*
X77985713Y-80456787D01*
X77985713Y-80456787D02*
X78099998Y-80513929D01*
X78099998Y-80513929D02*
X78328570Y-80513929D01*
X78328570Y-80513929D02*
X78442856Y-80456787D01*
X78442856Y-80456787D02*
X78557141Y-80342501D01*
X78557141Y-80342501D02*
X78614284Y-80113929D01*
X78614284Y-80113929D02*
X78614284Y-79713929D01*
X78614284Y-79713929D02*
X78557141Y-79485358D01*
X78557141Y-79485358D02*
X78442856Y-79371072D01*
X78442856Y-79371072D02*
X78328570Y-79313929D01*
X76785713Y-79713929D02*
X76785713Y-80513929D01*
X77299998Y-79713929D02*
X77299998Y-80342501D01*
X77299998Y-80342501D02*
X77242855Y-80456787D01*
X77242855Y-80456787D02*
X77128570Y-80513929D01*
X77128570Y-80513929D02*
X76957141Y-80513929D01*
X76957141Y-80513929D02*
X76842855Y-80456787D01*
X76842855Y-80456787D02*
X76785713Y-80399644D01*
X76385713Y-79713929D02*
X75928570Y-79713929D01*
X76214284Y-79313929D02*
X76214284Y-80342501D01*
X76214284Y-80342501D02*
X76157141Y-80456787D01*
X76157141Y-80456787D02*
X76042856Y-80513929D01*
X76042856Y-80513929D02*
X75928570Y-80513929D01*
X75528570Y-79713929D02*
X75528570Y-80913929D01*
X75528570Y-79771072D02*
X75414285Y-79713929D01*
X75414285Y-79713929D02*
X75185713Y-79713929D01*
X75185713Y-79713929D02*
X75071427Y-79771072D01*
X75071427Y-79771072D02*
X75014285Y-79828215D01*
X75014285Y-79828215D02*
X74957142Y-79942501D01*
X74957142Y-79942501D02*
X74957142Y-80285358D01*
X74957142Y-80285358D02*
X75014285Y-80399644D01*
X75014285Y-80399644D02*
X75071427Y-80456787D01*
X75071427Y-80456787D02*
X75185713Y-80513929D01*
X75185713Y-80513929D02*
X75414285Y-80513929D01*
X75414285Y-80513929D02*
X75528570Y-80456787D01*
X73928571Y-79713929D02*
X73928571Y-80513929D01*
X74442856Y-79713929D02*
X74442856Y-80342501D01*
X74442856Y-80342501D02*
X74385713Y-80456787D01*
X74385713Y-80456787D02*
X74271428Y-80513929D01*
X74271428Y-80513929D02*
X74099999Y-80513929D01*
X74099999Y-80513929D02*
X73985713Y-80456787D01*
X73985713Y-80456787D02*
X73928571Y-80399644D01*
X73528571Y-79713929D02*
X73071428Y-79713929D01*
X73357142Y-79313929D02*
X73357142Y-80342501D01*
X73357142Y-80342501D02*
X73299999Y-80456787D01*
X73299999Y-80456787D02*
X73185714Y-80513929D01*
X73185714Y-80513929D02*
X73071428Y-80513929D01*
X78728571Y-81245862D02*
X77985714Y-81245862D01*
X77985714Y-81245862D02*
X78385714Y-81703005D01*
X78385714Y-81703005D02*
X78214285Y-81703005D01*
X78214285Y-81703005D02*
X78100000Y-81760148D01*
X78100000Y-81760148D02*
X78042857Y-81817291D01*
X78042857Y-81817291D02*
X77985714Y-81931577D01*
X77985714Y-81931577D02*
X77985714Y-82217291D01*
X77985714Y-82217291D02*
X78042857Y-82331577D01*
X78042857Y-82331577D02*
X78100000Y-82388720D01*
X78100000Y-82388720D02*
X78214285Y-82445862D01*
X78214285Y-82445862D02*
X78557142Y-82445862D01*
X78557142Y-82445862D02*
X78671428Y-82388720D01*
X78671428Y-82388720D02*
X78728571Y-82331577D01*
X76557142Y-82445862D02*
X76557142Y-81245862D01*
X76557142Y-81245862D02*
X76099999Y-81245862D01*
X76099999Y-81245862D02*
X75985714Y-81303005D01*
X75985714Y-81303005D02*
X75928571Y-81360148D01*
X75928571Y-81360148D02*
X75871428Y-81474434D01*
X75871428Y-81474434D02*
X75871428Y-81645862D01*
X75871428Y-81645862D02*
X75928571Y-81760148D01*
X75928571Y-81760148D02*
X75985714Y-81817291D01*
X75985714Y-81817291D02*
X76099999Y-81874434D01*
X76099999Y-81874434D02*
X76557142Y-81874434D01*
X75471428Y-81245862D02*
X75185714Y-82445862D01*
X75185714Y-82445862D02*
X74957142Y-81588720D01*
X74957142Y-81588720D02*
X74728571Y-82445862D01*
X74728571Y-82445862D02*
X74442857Y-81245862D01*
X73985713Y-82445862D02*
X73985713Y-81245862D01*
X73985713Y-81245862D02*
X73585713Y-82103005D01*
X73585713Y-82103005D02*
X73185713Y-81245862D01*
X73185713Y-81245862D02*
X73185713Y-82445862D01*
X86642856Y-78681996D02*
X86642856Y-77481996D01*
X86642856Y-77481996D02*
X86357142Y-77481996D01*
X86357142Y-77481996D02*
X86185713Y-77539139D01*
X86185713Y-77539139D02*
X86071428Y-77653425D01*
X86071428Y-77653425D02*
X86014285Y-77767711D01*
X86014285Y-77767711D02*
X85957142Y-77996282D01*
X85957142Y-77996282D02*
X85957142Y-78167711D01*
X85957142Y-78167711D02*
X86014285Y-78396282D01*
X86014285Y-78396282D02*
X86071428Y-78510568D01*
X86071428Y-78510568D02*
X86185713Y-78624854D01*
X86185713Y-78624854D02*
X86357142Y-78681996D01*
X86357142Y-78681996D02*
X86642856Y-78681996D01*
X84928571Y-78681996D02*
X84928571Y-78053425D01*
X84928571Y-78053425D02*
X84985713Y-77939139D01*
X84985713Y-77939139D02*
X85099999Y-77881996D01*
X85099999Y-77881996D02*
X85328571Y-77881996D01*
X85328571Y-77881996D02*
X85442856Y-77939139D01*
X84928571Y-78624854D02*
X85042856Y-78681996D01*
X85042856Y-78681996D02*
X85328571Y-78681996D01*
X85328571Y-78681996D02*
X85442856Y-78624854D01*
X85442856Y-78624854D02*
X85499999Y-78510568D01*
X85499999Y-78510568D02*
X85499999Y-78396282D01*
X85499999Y-78396282D02*
X85442856Y-78281996D01*
X85442856Y-78281996D02*
X85328571Y-78224854D01*
X85328571Y-78224854D02*
X85042856Y-78224854D01*
X85042856Y-78224854D02*
X84928571Y-78167711D01*
X84528571Y-77881996D02*
X84071428Y-77881996D01*
X84357142Y-77481996D02*
X84357142Y-78510568D01*
X84357142Y-78510568D02*
X84299999Y-78624854D01*
X84299999Y-78624854D02*
X84185714Y-78681996D01*
X84185714Y-78681996D02*
X84071428Y-78681996D01*
X83157143Y-78681996D02*
X83157143Y-78053425D01*
X83157143Y-78053425D02*
X83214285Y-77939139D01*
X83214285Y-77939139D02*
X83328571Y-77881996D01*
X83328571Y-77881996D02*
X83557143Y-77881996D01*
X83557143Y-77881996D02*
X83671428Y-77939139D01*
X83157143Y-78624854D02*
X83271428Y-78681996D01*
X83271428Y-78681996D02*
X83557143Y-78681996D01*
X83557143Y-78681996D02*
X83671428Y-78624854D01*
X83671428Y-78624854D02*
X83728571Y-78510568D01*
X83728571Y-78510568D02*
X83728571Y-78396282D01*
X83728571Y-78396282D02*
X83671428Y-78281996D01*
X83671428Y-78281996D02*
X83557143Y-78224854D01*
X83557143Y-78224854D02*
X83271428Y-78224854D01*
X83271428Y-78224854D02*
X83157143Y-78167711D01*
X87328570Y-79413929D02*
X87099998Y-79413929D01*
X87099998Y-79413929D02*
X86985713Y-79471072D01*
X86985713Y-79471072D02*
X86871427Y-79585358D01*
X86871427Y-79585358D02*
X86814284Y-79813929D01*
X86814284Y-79813929D02*
X86814284Y-80213929D01*
X86814284Y-80213929D02*
X86871427Y-80442501D01*
X86871427Y-80442501D02*
X86985713Y-80556787D01*
X86985713Y-80556787D02*
X87099998Y-80613929D01*
X87099998Y-80613929D02*
X87328570Y-80613929D01*
X87328570Y-80613929D02*
X87442856Y-80556787D01*
X87442856Y-80556787D02*
X87557141Y-80442501D01*
X87557141Y-80442501D02*
X87614284Y-80213929D01*
X87614284Y-80213929D02*
X87614284Y-79813929D01*
X87614284Y-79813929D02*
X87557141Y-79585358D01*
X87557141Y-79585358D02*
X87442856Y-79471072D01*
X87442856Y-79471072D02*
X87328570Y-79413929D01*
X85785713Y-79813929D02*
X85785713Y-80613929D01*
X86299998Y-79813929D02*
X86299998Y-80442501D01*
X86299998Y-80442501D02*
X86242855Y-80556787D01*
X86242855Y-80556787D02*
X86128570Y-80613929D01*
X86128570Y-80613929D02*
X85957141Y-80613929D01*
X85957141Y-80613929D02*
X85842855Y-80556787D01*
X85842855Y-80556787D02*
X85785713Y-80499644D01*
X85385713Y-79813929D02*
X84928570Y-79813929D01*
X85214284Y-79413929D02*
X85214284Y-80442501D01*
X85214284Y-80442501D02*
X85157141Y-80556787D01*
X85157141Y-80556787D02*
X85042856Y-80613929D01*
X85042856Y-80613929D02*
X84928570Y-80613929D01*
X84528570Y-79813929D02*
X84528570Y-81013929D01*
X84528570Y-79871072D02*
X84414285Y-79813929D01*
X84414285Y-79813929D02*
X84185713Y-79813929D01*
X84185713Y-79813929D02*
X84071427Y-79871072D01*
X84071427Y-79871072D02*
X84014285Y-79928215D01*
X84014285Y-79928215D02*
X83957142Y-80042501D01*
X83957142Y-80042501D02*
X83957142Y-80385358D01*
X83957142Y-80385358D02*
X84014285Y-80499644D01*
X84014285Y-80499644D02*
X84071427Y-80556787D01*
X84071427Y-80556787D02*
X84185713Y-80613929D01*
X84185713Y-80613929D02*
X84414285Y-80613929D01*
X84414285Y-80613929D02*
X84528570Y-80556787D01*
X82928571Y-79813929D02*
X82928571Y-80613929D01*
X83442856Y-79813929D02*
X83442856Y-80442501D01*
X83442856Y-80442501D02*
X83385713Y-80556787D01*
X83385713Y-80556787D02*
X83271428Y-80613929D01*
X83271428Y-80613929D02*
X83099999Y-80613929D01*
X83099999Y-80613929D02*
X82985713Y-80556787D01*
X82985713Y-80556787D02*
X82928571Y-80499644D01*
X82528571Y-79813929D02*
X82071428Y-79813929D01*
X82357142Y-79413929D02*
X82357142Y-80442501D01*
X82357142Y-80442501D02*
X82299999Y-80556787D01*
X82299999Y-80556787D02*
X82185714Y-80613929D01*
X82185714Y-80613929D02*
X82071428Y-80613929D01*
X87100000Y-81745862D02*
X87100000Y-82545862D01*
X87385714Y-81288720D02*
X87671428Y-82145862D01*
X87671428Y-82145862D02*
X86928571Y-82145862D01*
X85557142Y-82545862D02*
X85557142Y-81345862D01*
X85557142Y-81345862D02*
X85099999Y-81345862D01*
X85099999Y-81345862D02*
X84985714Y-81403005D01*
X84985714Y-81403005D02*
X84928571Y-81460148D01*
X84928571Y-81460148D02*
X84871428Y-81574434D01*
X84871428Y-81574434D02*
X84871428Y-81745862D01*
X84871428Y-81745862D02*
X84928571Y-81860148D01*
X84928571Y-81860148D02*
X84985714Y-81917291D01*
X84985714Y-81917291D02*
X85099999Y-81974434D01*
X85099999Y-81974434D02*
X85557142Y-81974434D01*
X84471428Y-81345862D02*
X84185714Y-82545862D01*
X84185714Y-82545862D02*
X83957142Y-81688720D01*
X83957142Y-81688720D02*
X83728571Y-82545862D01*
X83728571Y-82545862D02*
X83442857Y-81345862D01*
X82985713Y-82545862D02*
X82985713Y-81345862D01*
X82985713Y-81345862D02*
X82585713Y-82203005D01*
X82585713Y-82203005D02*
X82185713Y-81345862D01*
X82185713Y-81345862D02*
X82185713Y-82545862D01*
X97471428Y-80845862D02*
X97071428Y-82045862D01*
X97071428Y-82045862D02*
X96671428Y-80845862D01*
X95700000Y-82045862D02*
X96271428Y-82045862D01*
X96271428Y-82045862D02*
X96271428Y-80845862D01*
X95128571Y-82045862D02*
X95242856Y-81988720D01*
X95242856Y-81988720D02*
X95299999Y-81931577D01*
X95299999Y-81931577D02*
X95357142Y-81817291D01*
X95357142Y-81817291D02*
X95357142Y-81474434D01*
X95357142Y-81474434D02*
X95299999Y-81360148D01*
X95299999Y-81360148D02*
X95242856Y-81303005D01*
X95242856Y-81303005D02*
X95128571Y-81245862D01*
X95128571Y-81245862D02*
X94957142Y-81245862D01*
X94957142Y-81245862D02*
X94842856Y-81303005D01*
X94842856Y-81303005D02*
X94785714Y-81360148D01*
X94785714Y-81360148D02*
X94728571Y-81474434D01*
X94728571Y-81474434D02*
X94728571Y-81817291D01*
X94728571Y-81817291D02*
X94785714Y-81931577D01*
X94785714Y-81931577D02*
X94842856Y-81988720D01*
X94842856Y-81988720D02*
X94957142Y-82045862D01*
X94957142Y-82045862D02*
X95128571Y-82045862D01*
X93700000Y-81245862D02*
X93700000Y-82217291D01*
X93700000Y-82217291D02*
X93757142Y-82331577D01*
X93757142Y-82331577D02*
X93814285Y-82388720D01*
X93814285Y-82388720D02*
X93928571Y-82445862D01*
X93928571Y-82445862D02*
X94100000Y-82445862D01*
X94100000Y-82445862D02*
X94214285Y-82388720D01*
X93700000Y-81988720D02*
X93814285Y-82045862D01*
X93814285Y-82045862D02*
X94042857Y-82045862D01*
X94042857Y-82045862D02*
X94157142Y-81988720D01*
X94157142Y-81988720D02*
X94214285Y-81931577D01*
X94214285Y-81931577D02*
X94271428Y-81817291D01*
X94271428Y-81817291D02*
X94271428Y-81474434D01*
X94271428Y-81474434D02*
X94214285Y-81360148D01*
X94214285Y-81360148D02*
X94157142Y-81303005D01*
X94157142Y-81303005D02*
X94042857Y-81245862D01*
X94042857Y-81245862D02*
X93814285Y-81245862D01*
X93814285Y-81245862D02*
X93700000Y-81303005D01*
X93128571Y-82045862D02*
X93128571Y-81245862D01*
X93128571Y-80845862D02*
X93185714Y-80903005D01*
X93185714Y-80903005D02*
X93128571Y-80960148D01*
X93128571Y-80960148D02*
X93071428Y-80903005D01*
X93071428Y-80903005D02*
X93128571Y-80845862D01*
X93128571Y-80845862D02*
X93128571Y-80960148D01*
X92042857Y-81988720D02*
X92157142Y-82045862D01*
X92157142Y-82045862D02*
X92385714Y-82045862D01*
X92385714Y-82045862D02*
X92499999Y-81988720D01*
X92499999Y-81988720D02*
X92557142Y-81931577D01*
X92557142Y-81931577D02*
X92614285Y-81817291D01*
X92614285Y-81817291D02*
X92614285Y-81474434D01*
X92614285Y-81474434D02*
X92557142Y-81360148D01*
X92557142Y-81360148D02*
X92499999Y-81303005D01*
X92499999Y-81303005D02*
X92385714Y-81245862D01*
X92385714Y-81245862D02*
X92157142Y-81245862D01*
X92157142Y-81245862D02*
X92042857Y-81303005D01*
X122822180Y-108617291D02*
X122650752Y-108674434D01*
X122650752Y-108674434D02*
X122593609Y-108731577D01*
X122593609Y-108731577D02*
X122536466Y-108845862D01*
X122536466Y-108845862D02*
X122536466Y-109017291D01*
X122536466Y-109017291D02*
X122593609Y-109131577D01*
X122593609Y-109131577D02*
X122650752Y-109188720D01*
X122650752Y-109188720D02*
X122765037Y-109245862D01*
X122765037Y-109245862D02*
X123222180Y-109245862D01*
X123222180Y-109245862D02*
X123222180Y-108045862D01*
X123222180Y-108045862D02*
X122822180Y-108045862D01*
X122822180Y-108045862D02*
X122707895Y-108103005D01*
X122707895Y-108103005D02*
X122650752Y-108160148D01*
X122650752Y-108160148D02*
X122593609Y-108274434D01*
X122593609Y-108274434D02*
X122593609Y-108388720D01*
X122593609Y-108388720D02*
X122650752Y-108503005D01*
X122650752Y-108503005D02*
X122707895Y-108560148D01*
X122707895Y-108560148D02*
X122822180Y-108617291D01*
X122822180Y-108617291D02*
X123222180Y-108617291D01*
X121793609Y-108045862D02*
X121565037Y-108045862D01*
X121565037Y-108045862D02*
X121450752Y-108103005D01*
X121450752Y-108103005D02*
X121336466Y-108217291D01*
X121336466Y-108217291D02*
X121279323Y-108445862D01*
X121279323Y-108445862D02*
X121279323Y-108845862D01*
X121279323Y-108845862D02*
X121336466Y-109074434D01*
X121336466Y-109074434D02*
X121450752Y-109188720D01*
X121450752Y-109188720D02*
X121565037Y-109245862D01*
X121565037Y-109245862D02*
X121793609Y-109245862D01*
X121793609Y-109245862D02*
X121907895Y-109188720D01*
X121907895Y-109188720D02*
X122022180Y-109074434D01*
X122022180Y-109074434D02*
X122079323Y-108845862D01*
X122079323Y-108845862D02*
X122079323Y-108445862D01*
X122079323Y-108445862D02*
X122022180Y-108217291D01*
X122022180Y-108217291D02*
X121907895Y-108103005D01*
X121907895Y-108103005D02*
X121793609Y-108045862D01*
X120536466Y-108045862D02*
X120307894Y-108045862D01*
X120307894Y-108045862D02*
X120193609Y-108103005D01*
X120193609Y-108103005D02*
X120079323Y-108217291D01*
X120079323Y-108217291D02*
X120022180Y-108445862D01*
X120022180Y-108445862D02*
X120022180Y-108845862D01*
X120022180Y-108845862D02*
X120079323Y-109074434D01*
X120079323Y-109074434D02*
X120193609Y-109188720D01*
X120193609Y-109188720D02*
X120307894Y-109245862D01*
X120307894Y-109245862D02*
X120536466Y-109245862D01*
X120536466Y-109245862D02*
X120650752Y-109188720D01*
X120650752Y-109188720D02*
X120765037Y-109074434D01*
X120765037Y-109074434D02*
X120822180Y-108845862D01*
X120822180Y-108845862D02*
X120822180Y-108445862D01*
X120822180Y-108445862D02*
X120765037Y-108217291D01*
X120765037Y-108217291D02*
X120650752Y-108103005D01*
X120650752Y-108103005D02*
X120536466Y-108045862D01*
X119679323Y-108045862D02*
X118993609Y-108045862D01*
X119336466Y-109245862D02*
X119336466Y-108045862D01*
X118365037Y-108045862D02*
X118250751Y-108045862D01*
X118250751Y-108045862D02*
X118136465Y-108103005D01*
X118136465Y-108103005D02*
X118079323Y-108160148D01*
X118079323Y-108160148D02*
X118022180Y-108274434D01*
X118022180Y-108274434D02*
X117965037Y-108503005D01*
X117965037Y-108503005D02*
X117965037Y-108788720D01*
X117965037Y-108788720D02*
X118022180Y-109017291D01*
X118022180Y-109017291D02*
X118079323Y-109131577D01*
X118079323Y-109131577D02*
X118136465Y-109188720D01*
X118136465Y-109188720D02*
X118250751Y-109245862D01*
X118250751Y-109245862D02*
X118365037Y-109245862D01*
X118365037Y-109245862D02*
X118479323Y-109188720D01*
X118479323Y-109188720D02*
X118536465Y-109131577D01*
X118536465Y-109131577D02*
X118593608Y-109017291D01*
X118593608Y-109017291D02*
X118650751Y-108788720D01*
X118650751Y-108788720D02*
X118650751Y-108503005D01*
X118650751Y-108503005D02*
X118593608Y-108274434D01*
X118593608Y-108274434D02*
X118536465Y-108160148D01*
X118536465Y-108160148D02*
X118479323Y-108103005D01*
X118479323Y-108103005D02*
X118365037Y-108045862D01*
X59642856Y-78581996D02*
X59642856Y-77381996D01*
X59642856Y-77381996D02*
X59357142Y-77381996D01*
X59357142Y-77381996D02*
X59185713Y-77439139D01*
X59185713Y-77439139D02*
X59071428Y-77553425D01*
X59071428Y-77553425D02*
X59014285Y-77667711D01*
X59014285Y-77667711D02*
X58957142Y-77896282D01*
X58957142Y-77896282D02*
X58957142Y-78067711D01*
X58957142Y-78067711D02*
X59014285Y-78296282D01*
X59014285Y-78296282D02*
X59071428Y-78410568D01*
X59071428Y-78410568D02*
X59185713Y-78524854D01*
X59185713Y-78524854D02*
X59357142Y-78581996D01*
X59357142Y-78581996D02*
X59642856Y-78581996D01*
X57928571Y-78581996D02*
X57928571Y-77953425D01*
X57928571Y-77953425D02*
X57985713Y-77839139D01*
X57985713Y-77839139D02*
X58099999Y-77781996D01*
X58099999Y-77781996D02*
X58328571Y-77781996D01*
X58328571Y-77781996D02*
X58442856Y-77839139D01*
X57928571Y-78524854D02*
X58042856Y-78581996D01*
X58042856Y-78581996D02*
X58328571Y-78581996D01*
X58328571Y-78581996D02*
X58442856Y-78524854D01*
X58442856Y-78524854D02*
X58499999Y-78410568D01*
X58499999Y-78410568D02*
X58499999Y-78296282D01*
X58499999Y-78296282D02*
X58442856Y-78181996D01*
X58442856Y-78181996D02*
X58328571Y-78124854D01*
X58328571Y-78124854D02*
X58042856Y-78124854D01*
X58042856Y-78124854D02*
X57928571Y-78067711D01*
X57528571Y-77781996D02*
X57071428Y-77781996D01*
X57357142Y-77381996D02*
X57357142Y-78410568D01*
X57357142Y-78410568D02*
X57299999Y-78524854D01*
X57299999Y-78524854D02*
X57185714Y-78581996D01*
X57185714Y-78581996D02*
X57071428Y-78581996D01*
X56157143Y-78581996D02*
X56157143Y-77953425D01*
X56157143Y-77953425D02*
X56214285Y-77839139D01*
X56214285Y-77839139D02*
X56328571Y-77781996D01*
X56328571Y-77781996D02*
X56557143Y-77781996D01*
X56557143Y-77781996D02*
X56671428Y-77839139D01*
X56157143Y-78524854D02*
X56271428Y-78581996D01*
X56271428Y-78581996D02*
X56557143Y-78581996D01*
X56557143Y-78581996D02*
X56671428Y-78524854D01*
X56671428Y-78524854D02*
X56728571Y-78410568D01*
X56728571Y-78410568D02*
X56728571Y-78296282D01*
X56728571Y-78296282D02*
X56671428Y-78181996D01*
X56671428Y-78181996D02*
X56557143Y-78124854D01*
X56557143Y-78124854D02*
X56271428Y-78124854D01*
X56271428Y-78124854D02*
X56157143Y-78067711D01*
X60328570Y-79313929D02*
X60099998Y-79313929D01*
X60099998Y-79313929D02*
X59985713Y-79371072D01*
X59985713Y-79371072D02*
X59871427Y-79485358D01*
X59871427Y-79485358D02*
X59814284Y-79713929D01*
X59814284Y-79713929D02*
X59814284Y-80113929D01*
X59814284Y-80113929D02*
X59871427Y-80342501D01*
X59871427Y-80342501D02*
X59985713Y-80456787D01*
X59985713Y-80456787D02*
X60099998Y-80513929D01*
X60099998Y-80513929D02*
X60328570Y-80513929D01*
X60328570Y-80513929D02*
X60442856Y-80456787D01*
X60442856Y-80456787D02*
X60557141Y-80342501D01*
X60557141Y-80342501D02*
X60614284Y-80113929D01*
X60614284Y-80113929D02*
X60614284Y-79713929D01*
X60614284Y-79713929D02*
X60557141Y-79485358D01*
X60557141Y-79485358D02*
X60442856Y-79371072D01*
X60442856Y-79371072D02*
X60328570Y-79313929D01*
X58785713Y-79713929D02*
X58785713Y-80513929D01*
X59299998Y-79713929D02*
X59299998Y-80342501D01*
X59299998Y-80342501D02*
X59242855Y-80456787D01*
X59242855Y-80456787D02*
X59128570Y-80513929D01*
X59128570Y-80513929D02*
X58957141Y-80513929D01*
X58957141Y-80513929D02*
X58842855Y-80456787D01*
X58842855Y-80456787D02*
X58785713Y-80399644D01*
X58385713Y-79713929D02*
X57928570Y-79713929D01*
X58214284Y-79313929D02*
X58214284Y-80342501D01*
X58214284Y-80342501D02*
X58157141Y-80456787D01*
X58157141Y-80456787D02*
X58042856Y-80513929D01*
X58042856Y-80513929D02*
X57928570Y-80513929D01*
X57528570Y-79713929D02*
X57528570Y-80913929D01*
X57528570Y-79771072D02*
X57414285Y-79713929D01*
X57414285Y-79713929D02*
X57185713Y-79713929D01*
X57185713Y-79713929D02*
X57071427Y-79771072D01*
X57071427Y-79771072D02*
X57014285Y-79828215D01*
X57014285Y-79828215D02*
X56957142Y-79942501D01*
X56957142Y-79942501D02*
X56957142Y-80285358D01*
X56957142Y-80285358D02*
X57014285Y-80399644D01*
X57014285Y-80399644D02*
X57071427Y-80456787D01*
X57071427Y-80456787D02*
X57185713Y-80513929D01*
X57185713Y-80513929D02*
X57414285Y-80513929D01*
X57414285Y-80513929D02*
X57528570Y-80456787D01*
X55928571Y-79713929D02*
X55928571Y-80513929D01*
X56442856Y-79713929D02*
X56442856Y-80342501D01*
X56442856Y-80342501D02*
X56385713Y-80456787D01*
X56385713Y-80456787D02*
X56271428Y-80513929D01*
X56271428Y-80513929D02*
X56099999Y-80513929D01*
X56099999Y-80513929D02*
X55985713Y-80456787D01*
X55985713Y-80456787D02*
X55928571Y-80399644D01*
X55528571Y-79713929D02*
X55071428Y-79713929D01*
X55357142Y-79313929D02*
X55357142Y-80342501D01*
X55357142Y-80342501D02*
X55299999Y-80456787D01*
X55299999Y-80456787D02*
X55185714Y-80513929D01*
X55185714Y-80513929D02*
X55071428Y-80513929D01*
X59985714Y-82445862D02*
X60671428Y-82445862D01*
X60328571Y-82445862D02*
X60328571Y-81245862D01*
X60328571Y-81245862D02*
X60442857Y-81417291D01*
X60442857Y-81417291D02*
X60557142Y-81531577D01*
X60557142Y-81531577D02*
X60671428Y-81588720D01*
X58557142Y-82445862D02*
X58557142Y-81245862D01*
X58557142Y-81245862D02*
X58099999Y-81245862D01*
X58099999Y-81245862D02*
X57985714Y-81303005D01*
X57985714Y-81303005D02*
X57928571Y-81360148D01*
X57928571Y-81360148D02*
X57871428Y-81474434D01*
X57871428Y-81474434D02*
X57871428Y-81645862D01*
X57871428Y-81645862D02*
X57928571Y-81760148D01*
X57928571Y-81760148D02*
X57985714Y-81817291D01*
X57985714Y-81817291D02*
X58099999Y-81874434D01*
X58099999Y-81874434D02*
X58557142Y-81874434D01*
X57471428Y-81245862D02*
X57185714Y-82445862D01*
X57185714Y-82445862D02*
X56957142Y-81588720D01*
X56957142Y-81588720D02*
X56728571Y-82445862D01*
X56728571Y-82445862D02*
X56442857Y-81245862D01*
X55985713Y-82445862D02*
X55985713Y-81245862D01*
X55985713Y-81245862D02*
X55585713Y-82103005D01*
X55585713Y-82103005D02*
X55185713Y-81245862D01*
X55185713Y-81245862D02*
X55185713Y-82445862D01*
X94149862Y-88557143D02*
X92949862Y-88557143D01*
X93349862Y-89128572D02*
X94149862Y-89128572D01*
X93464148Y-89128572D02*
X93407005Y-89185715D01*
X93407005Y-89185715D02*
X93349862Y-89300000D01*
X93349862Y-89300000D02*
X93349862Y-89471429D01*
X93349862Y-89471429D02*
X93407005Y-89585715D01*
X93407005Y-89585715D02*
X93521291Y-89642858D01*
X93521291Y-89642858D02*
X94149862Y-89642858D01*
X97202819Y-82997862D02*
X97774247Y-82997862D01*
X97774247Y-82997862D02*
X97831390Y-83569291D01*
X97831390Y-83569291D02*
X97774247Y-83512148D01*
X97774247Y-83512148D02*
X97659962Y-83455005D01*
X97659962Y-83455005D02*
X97374247Y-83455005D01*
X97374247Y-83455005D02*
X97259962Y-83512148D01*
X97259962Y-83512148D02*
X97202819Y-83569291D01*
X97202819Y-83569291D02*
X97145676Y-83683577D01*
X97145676Y-83683577D02*
X97145676Y-83969291D01*
X97145676Y-83969291D02*
X97202819Y-84083577D01*
X97202819Y-84083577D02*
X97259962Y-84140720D01*
X97259962Y-84140720D02*
X97374247Y-84197862D01*
X97374247Y-84197862D02*
X97659962Y-84197862D01*
X97659962Y-84197862D02*
X97774247Y-84140720D01*
X97774247Y-84140720D02*
X97831390Y-84083577D01*
X94114284Y-91849862D02*
X94114284Y-90649862D01*
X94114284Y-90649862D02*
X93828570Y-90649862D01*
X93828570Y-90649862D02*
X93657141Y-90707005D01*
X93657141Y-90707005D02*
X93542856Y-90821291D01*
X93542856Y-90821291D02*
X93485713Y-90935577D01*
X93485713Y-90935577D02*
X93428570Y-91164148D01*
X93428570Y-91164148D02*
X93428570Y-91335577D01*
X93428570Y-91335577D02*
X93485713Y-91564148D01*
X93485713Y-91564148D02*
X93542856Y-91678434D01*
X93542856Y-91678434D02*
X93657141Y-91792720D01*
X93657141Y-91792720D02*
X93828570Y-91849862D01*
X93828570Y-91849862D02*
X94114284Y-91849862D01*
X92914284Y-91849862D02*
X92914284Y-91049862D01*
X92914284Y-90649862D02*
X92971427Y-90707005D01*
X92971427Y-90707005D02*
X92914284Y-90764148D01*
X92914284Y-90764148D02*
X92857141Y-90707005D01*
X92857141Y-90707005D02*
X92914284Y-90649862D01*
X92914284Y-90649862D02*
X92914284Y-90764148D01*
X92342855Y-91849862D02*
X92342855Y-91049862D01*
X92342855Y-91278434D02*
X92285712Y-91164148D01*
X92285712Y-91164148D02*
X92228570Y-91107005D01*
X92228570Y-91107005D02*
X92114284Y-91049862D01*
X92114284Y-91049862D02*
X91999998Y-91049862D01*
X91142855Y-91792720D02*
X91257141Y-91849862D01*
X91257141Y-91849862D02*
X91485713Y-91849862D01*
X91485713Y-91849862D02*
X91599998Y-91792720D01*
X91599998Y-91792720D02*
X91657141Y-91678434D01*
X91657141Y-91678434D02*
X91657141Y-91221291D01*
X91657141Y-91221291D02*
X91599998Y-91107005D01*
X91599998Y-91107005D02*
X91485713Y-91049862D01*
X91485713Y-91049862D02*
X91257141Y-91049862D01*
X91257141Y-91049862D02*
X91142855Y-91107005D01*
X91142855Y-91107005D02*
X91085713Y-91221291D01*
X91085713Y-91221291D02*
X91085713Y-91335577D01*
X91085713Y-91335577D02*
X91657141Y-91449862D01*
X90057142Y-91792720D02*
X90171427Y-91849862D01*
X90171427Y-91849862D02*
X90399999Y-91849862D01*
X90399999Y-91849862D02*
X90514284Y-91792720D01*
X90514284Y-91792720D02*
X90571427Y-91735577D01*
X90571427Y-91735577D02*
X90628570Y-91621291D01*
X90628570Y-91621291D02*
X90628570Y-91278434D01*
X90628570Y-91278434D02*
X90571427Y-91164148D01*
X90571427Y-91164148D02*
X90514284Y-91107005D01*
X90514284Y-91107005D02*
X90399999Y-91049862D01*
X90399999Y-91049862D02*
X90171427Y-91049862D01*
X90171427Y-91049862D02*
X90057142Y-91107005D01*
X89714285Y-91049862D02*
X89257142Y-91049862D01*
X89542856Y-90649862D02*
X89542856Y-91678434D01*
X89542856Y-91678434D02*
X89485713Y-91792720D01*
X89485713Y-91792720D02*
X89371428Y-91849862D01*
X89371428Y-91849862D02*
X89257142Y-91849862D01*
X88857142Y-91849862D02*
X88857142Y-91049862D01*
X88857142Y-90649862D02*
X88914285Y-90707005D01*
X88914285Y-90707005D02*
X88857142Y-90764148D01*
X88857142Y-90764148D02*
X88799999Y-90707005D01*
X88799999Y-90707005D02*
X88857142Y-90649862D01*
X88857142Y-90649862D02*
X88857142Y-90764148D01*
X88114285Y-91849862D02*
X88228570Y-91792720D01*
X88228570Y-91792720D02*
X88285713Y-91735577D01*
X88285713Y-91735577D02*
X88342856Y-91621291D01*
X88342856Y-91621291D02*
X88342856Y-91278434D01*
X88342856Y-91278434D02*
X88285713Y-91164148D01*
X88285713Y-91164148D02*
X88228570Y-91107005D01*
X88228570Y-91107005D02*
X88114285Y-91049862D01*
X88114285Y-91049862D02*
X87942856Y-91049862D01*
X87942856Y-91049862D02*
X87828570Y-91107005D01*
X87828570Y-91107005D02*
X87771428Y-91164148D01*
X87771428Y-91164148D02*
X87714285Y-91278434D01*
X87714285Y-91278434D02*
X87714285Y-91621291D01*
X87714285Y-91621291D02*
X87771428Y-91735577D01*
X87771428Y-91735577D02*
X87828570Y-91792720D01*
X87828570Y-91792720D02*
X87942856Y-91849862D01*
X87942856Y-91849862D02*
X88114285Y-91849862D01*
X87199999Y-91049862D02*
X87199999Y-91849862D01*
X87199999Y-91164148D02*
X87142856Y-91107005D01*
X87142856Y-91107005D02*
X87028571Y-91049862D01*
X87028571Y-91049862D02*
X86857142Y-91049862D01*
X86857142Y-91049862D02*
X86742856Y-91107005D01*
X86742856Y-91107005D02*
X86685714Y-91221291D01*
X86685714Y-91221291D02*
X86685714Y-91849862D01*
X92461466Y-82997862D02*
X91718609Y-82997862D01*
X91718609Y-82997862D02*
X92118609Y-83455005D01*
X92118609Y-83455005D02*
X91947180Y-83455005D01*
X91947180Y-83455005D02*
X91832895Y-83512148D01*
X91832895Y-83512148D02*
X91775752Y-83569291D01*
X91775752Y-83569291D02*
X91718609Y-83683577D01*
X91718609Y-83683577D02*
X91718609Y-83969291D01*
X91718609Y-83969291D02*
X91775752Y-84083577D01*
X91775752Y-84083577D02*
X91832895Y-84140720D01*
X91832895Y-84140720D02*
X91947180Y-84197862D01*
X91947180Y-84197862D02*
X92290037Y-84197862D01*
X92290037Y-84197862D02*
X92404323Y-84140720D01*
X92404323Y-84140720D02*
X92461466Y-84083577D01*
X68642856Y-78581996D02*
X68642856Y-77381996D01*
X68642856Y-77381996D02*
X68357142Y-77381996D01*
X68357142Y-77381996D02*
X68185713Y-77439139D01*
X68185713Y-77439139D02*
X68071428Y-77553425D01*
X68071428Y-77553425D02*
X68014285Y-77667711D01*
X68014285Y-77667711D02*
X67957142Y-77896282D01*
X67957142Y-77896282D02*
X67957142Y-78067711D01*
X67957142Y-78067711D02*
X68014285Y-78296282D01*
X68014285Y-78296282D02*
X68071428Y-78410568D01*
X68071428Y-78410568D02*
X68185713Y-78524854D01*
X68185713Y-78524854D02*
X68357142Y-78581996D01*
X68357142Y-78581996D02*
X68642856Y-78581996D01*
X66928571Y-78581996D02*
X66928571Y-77953425D01*
X66928571Y-77953425D02*
X66985713Y-77839139D01*
X66985713Y-77839139D02*
X67099999Y-77781996D01*
X67099999Y-77781996D02*
X67328571Y-77781996D01*
X67328571Y-77781996D02*
X67442856Y-77839139D01*
X66928571Y-78524854D02*
X67042856Y-78581996D01*
X67042856Y-78581996D02*
X67328571Y-78581996D01*
X67328571Y-78581996D02*
X67442856Y-78524854D01*
X67442856Y-78524854D02*
X67499999Y-78410568D01*
X67499999Y-78410568D02*
X67499999Y-78296282D01*
X67499999Y-78296282D02*
X67442856Y-78181996D01*
X67442856Y-78181996D02*
X67328571Y-78124854D01*
X67328571Y-78124854D02*
X67042856Y-78124854D01*
X67042856Y-78124854D02*
X66928571Y-78067711D01*
X66528571Y-77781996D02*
X66071428Y-77781996D01*
X66357142Y-77381996D02*
X66357142Y-78410568D01*
X66357142Y-78410568D02*
X66299999Y-78524854D01*
X66299999Y-78524854D02*
X66185714Y-78581996D01*
X66185714Y-78581996D02*
X66071428Y-78581996D01*
X65157143Y-78581996D02*
X65157143Y-77953425D01*
X65157143Y-77953425D02*
X65214285Y-77839139D01*
X65214285Y-77839139D02*
X65328571Y-77781996D01*
X65328571Y-77781996D02*
X65557143Y-77781996D01*
X65557143Y-77781996D02*
X65671428Y-77839139D01*
X65157143Y-78524854D02*
X65271428Y-78581996D01*
X65271428Y-78581996D02*
X65557143Y-78581996D01*
X65557143Y-78581996D02*
X65671428Y-78524854D01*
X65671428Y-78524854D02*
X65728571Y-78410568D01*
X65728571Y-78410568D02*
X65728571Y-78296282D01*
X65728571Y-78296282D02*
X65671428Y-78181996D01*
X65671428Y-78181996D02*
X65557143Y-78124854D01*
X65557143Y-78124854D02*
X65271428Y-78124854D01*
X65271428Y-78124854D02*
X65157143Y-78067711D01*
X69328570Y-79313929D02*
X69099998Y-79313929D01*
X69099998Y-79313929D02*
X68985713Y-79371072D01*
X68985713Y-79371072D02*
X68871427Y-79485358D01*
X68871427Y-79485358D02*
X68814284Y-79713929D01*
X68814284Y-79713929D02*
X68814284Y-80113929D01*
X68814284Y-80113929D02*
X68871427Y-80342501D01*
X68871427Y-80342501D02*
X68985713Y-80456787D01*
X68985713Y-80456787D02*
X69099998Y-80513929D01*
X69099998Y-80513929D02*
X69328570Y-80513929D01*
X69328570Y-80513929D02*
X69442856Y-80456787D01*
X69442856Y-80456787D02*
X69557141Y-80342501D01*
X69557141Y-80342501D02*
X69614284Y-80113929D01*
X69614284Y-80113929D02*
X69614284Y-79713929D01*
X69614284Y-79713929D02*
X69557141Y-79485358D01*
X69557141Y-79485358D02*
X69442856Y-79371072D01*
X69442856Y-79371072D02*
X69328570Y-79313929D01*
X67785713Y-79713929D02*
X67785713Y-80513929D01*
X68299998Y-79713929D02*
X68299998Y-80342501D01*
X68299998Y-80342501D02*
X68242855Y-80456787D01*
X68242855Y-80456787D02*
X68128570Y-80513929D01*
X68128570Y-80513929D02*
X67957141Y-80513929D01*
X67957141Y-80513929D02*
X67842855Y-80456787D01*
X67842855Y-80456787D02*
X67785713Y-80399644D01*
X67385713Y-79713929D02*
X66928570Y-79713929D01*
X67214284Y-79313929D02*
X67214284Y-80342501D01*
X67214284Y-80342501D02*
X67157141Y-80456787D01*
X67157141Y-80456787D02*
X67042856Y-80513929D01*
X67042856Y-80513929D02*
X66928570Y-80513929D01*
X66528570Y-79713929D02*
X66528570Y-80913929D01*
X66528570Y-79771072D02*
X66414285Y-79713929D01*
X66414285Y-79713929D02*
X66185713Y-79713929D01*
X66185713Y-79713929D02*
X66071427Y-79771072D01*
X66071427Y-79771072D02*
X66014285Y-79828215D01*
X66014285Y-79828215D02*
X65957142Y-79942501D01*
X65957142Y-79942501D02*
X65957142Y-80285358D01*
X65957142Y-80285358D02*
X66014285Y-80399644D01*
X66014285Y-80399644D02*
X66071427Y-80456787D01*
X66071427Y-80456787D02*
X66185713Y-80513929D01*
X66185713Y-80513929D02*
X66414285Y-80513929D01*
X66414285Y-80513929D02*
X66528570Y-80456787D01*
X64928571Y-79713929D02*
X64928571Y-80513929D01*
X65442856Y-79713929D02*
X65442856Y-80342501D01*
X65442856Y-80342501D02*
X65385713Y-80456787D01*
X65385713Y-80456787D02*
X65271428Y-80513929D01*
X65271428Y-80513929D02*
X65099999Y-80513929D01*
X65099999Y-80513929D02*
X64985713Y-80456787D01*
X64985713Y-80456787D02*
X64928571Y-80399644D01*
X64528571Y-79713929D02*
X64071428Y-79713929D01*
X64357142Y-79313929D02*
X64357142Y-80342501D01*
X64357142Y-80342501D02*
X64299999Y-80456787D01*
X64299999Y-80456787D02*
X64185714Y-80513929D01*
X64185714Y-80513929D02*
X64071428Y-80513929D01*
X69671428Y-81360148D02*
X69614285Y-81303005D01*
X69614285Y-81303005D02*
X69500000Y-81245862D01*
X69500000Y-81245862D02*
X69214285Y-81245862D01*
X69214285Y-81245862D02*
X69100000Y-81303005D01*
X69100000Y-81303005D02*
X69042857Y-81360148D01*
X69042857Y-81360148D02*
X68985714Y-81474434D01*
X68985714Y-81474434D02*
X68985714Y-81588720D01*
X68985714Y-81588720D02*
X69042857Y-81760148D01*
X69042857Y-81760148D02*
X69728571Y-82445862D01*
X69728571Y-82445862D02*
X68985714Y-82445862D01*
X67557142Y-82445862D02*
X67557142Y-81245862D01*
X67557142Y-81245862D02*
X67099999Y-81245862D01*
X67099999Y-81245862D02*
X66985714Y-81303005D01*
X66985714Y-81303005D02*
X66928571Y-81360148D01*
X66928571Y-81360148D02*
X66871428Y-81474434D01*
X66871428Y-81474434D02*
X66871428Y-81645862D01*
X66871428Y-81645862D02*
X66928571Y-81760148D01*
X66928571Y-81760148D02*
X66985714Y-81817291D01*
X66985714Y-81817291D02*
X67099999Y-81874434D01*
X67099999Y-81874434D02*
X67557142Y-81874434D01*
X66471428Y-81245862D02*
X66185714Y-82445862D01*
X66185714Y-82445862D02*
X65957142Y-81588720D01*
X65957142Y-81588720D02*
X65728571Y-82445862D01*
X65728571Y-82445862D02*
X65442857Y-81245862D01*
X64985713Y-82445862D02*
X64985713Y-81245862D01*
X64985713Y-81245862D02*
X64585713Y-82103005D01*
X64585713Y-82103005D02*
X64185713Y-81245862D01*
X64185713Y-81245862D02*
X64185713Y-82445862D01*
X99249999Y-60935577D02*
X99307142Y-60992720D01*
X99307142Y-60992720D02*
X99478570Y-61049862D01*
X99478570Y-61049862D02*
X99592856Y-61049862D01*
X99592856Y-61049862D02*
X99764285Y-60992720D01*
X99764285Y-60992720D02*
X99878570Y-60878434D01*
X99878570Y-60878434D02*
X99935713Y-60764148D01*
X99935713Y-60764148D02*
X99992856Y-60535577D01*
X99992856Y-60535577D02*
X99992856Y-60364148D01*
X99992856Y-60364148D02*
X99935713Y-60135577D01*
X99935713Y-60135577D02*
X99878570Y-60021291D01*
X99878570Y-60021291D02*
X99764285Y-59907005D01*
X99764285Y-59907005D02*
X99592856Y-59849862D01*
X99592856Y-59849862D02*
X99478570Y-59849862D01*
X99478570Y-59849862D02*
X99307142Y-59907005D01*
X99307142Y-59907005D02*
X99249999Y-59964148D01*
X98221428Y-60249862D02*
X98221428Y-61049862D01*
X98735713Y-60249862D02*
X98735713Y-60878434D01*
X98735713Y-60878434D02*
X98678570Y-60992720D01*
X98678570Y-60992720D02*
X98564285Y-61049862D01*
X98564285Y-61049862D02*
X98392856Y-61049862D01*
X98392856Y-61049862D02*
X98278570Y-60992720D01*
X98278570Y-60992720D02*
X98221428Y-60935577D01*
X97821428Y-60249862D02*
X97364285Y-60249862D01*
X97649999Y-59849862D02*
X97649999Y-60878434D01*
X97649999Y-60878434D02*
X97592856Y-60992720D01*
X97592856Y-60992720D02*
X97478571Y-61049862D01*
X97478571Y-61049862D02*
X97364285Y-61049862D01*
X96221428Y-60249862D02*
X95764285Y-60249862D01*
X96049999Y-59849862D02*
X96049999Y-60878434D01*
X96049999Y-60878434D02*
X95992856Y-60992720D01*
X95992856Y-60992720D02*
X95878571Y-61049862D01*
X95878571Y-61049862D02*
X95764285Y-61049862D01*
X95192857Y-61049862D02*
X95307142Y-60992720D01*
X95307142Y-60992720D02*
X95364285Y-60935577D01*
X95364285Y-60935577D02*
X95421428Y-60821291D01*
X95421428Y-60821291D02*
X95421428Y-60478434D01*
X95421428Y-60478434D02*
X95364285Y-60364148D01*
X95364285Y-60364148D02*
X95307142Y-60307005D01*
X95307142Y-60307005D02*
X95192857Y-60249862D01*
X95192857Y-60249862D02*
X95021428Y-60249862D01*
X95021428Y-60249862D02*
X94907142Y-60307005D01*
X94907142Y-60307005D02*
X94850000Y-60364148D01*
X94850000Y-60364148D02*
X94792857Y-60478434D01*
X94792857Y-60478434D02*
X94792857Y-60821291D01*
X94792857Y-60821291D02*
X94850000Y-60935577D01*
X94850000Y-60935577D02*
X94907142Y-60992720D01*
X94907142Y-60992720D02*
X95021428Y-61049862D01*
X95021428Y-61049862D02*
X95192857Y-61049862D01*
X93421428Y-60992720D02*
X93307142Y-61049862D01*
X93307142Y-61049862D02*
X93078571Y-61049862D01*
X93078571Y-61049862D02*
X92964285Y-60992720D01*
X92964285Y-60992720D02*
X92907142Y-60878434D01*
X92907142Y-60878434D02*
X92907142Y-60821291D01*
X92907142Y-60821291D02*
X92964285Y-60707005D01*
X92964285Y-60707005D02*
X93078571Y-60649862D01*
X93078571Y-60649862D02*
X93250000Y-60649862D01*
X93250000Y-60649862D02*
X93364285Y-60592720D01*
X93364285Y-60592720D02*
X93421428Y-60478434D01*
X93421428Y-60478434D02*
X93421428Y-60421291D01*
X93421428Y-60421291D02*
X93364285Y-60307005D01*
X93364285Y-60307005D02*
X93250000Y-60249862D01*
X93250000Y-60249862D02*
X93078571Y-60249862D01*
X93078571Y-60249862D02*
X92964285Y-60307005D01*
X91878571Y-60249862D02*
X91878571Y-61049862D01*
X92392856Y-60249862D02*
X92392856Y-60878434D01*
X92392856Y-60878434D02*
X92335713Y-60992720D01*
X92335713Y-60992720D02*
X92221428Y-61049862D01*
X92221428Y-61049862D02*
X92049999Y-61049862D01*
X92049999Y-61049862D02*
X91935713Y-60992720D01*
X91935713Y-60992720D02*
X91878571Y-60935577D01*
X91307142Y-60249862D02*
X91307142Y-61449862D01*
X91307142Y-60307005D02*
X91192857Y-60249862D01*
X91192857Y-60249862D02*
X90964285Y-60249862D01*
X90964285Y-60249862D02*
X90849999Y-60307005D01*
X90849999Y-60307005D02*
X90792857Y-60364148D01*
X90792857Y-60364148D02*
X90735714Y-60478434D01*
X90735714Y-60478434D02*
X90735714Y-60821291D01*
X90735714Y-60821291D02*
X90792857Y-60935577D01*
X90792857Y-60935577D02*
X90849999Y-60992720D01*
X90849999Y-60992720D02*
X90964285Y-61049862D01*
X90964285Y-61049862D02*
X91192857Y-61049862D01*
X91192857Y-61049862D02*
X91307142Y-60992720D01*
X90221428Y-60249862D02*
X90221428Y-61449862D01*
X90221428Y-60307005D02*
X90107143Y-60249862D01*
X90107143Y-60249862D02*
X89878571Y-60249862D01*
X89878571Y-60249862D02*
X89764285Y-60307005D01*
X89764285Y-60307005D02*
X89707143Y-60364148D01*
X89707143Y-60364148D02*
X89650000Y-60478434D01*
X89650000Y-60478434D02*
X89650000Y-60821291D01*
X89650000Y-60821291D02*
X89707143Y-60935577D01*
X89707143Y-60935577D02*
X89764285Y-60992720D01*
X89764285Y-60992720D02*
X89878571Y-61049862D01*
X89878571Y-61049862D02*
X90107143Y-61049862D01*
X90107143Y-61049862D02*
X90221428Y-60992720D01*
X88964286Y-61049862D02*
X89078571Y-60992720D01*
X89078571Y-60992720D02*
X89135714Y-60878434D01*
X89135714Y-60878434D02*
X89135714Y-59849862D01*
X88621429Y-60249862D02*
X88335715Y-61049862D01*
X88050000Y-60249862D02*
X88335715Y-61049862D01*
X88335715Y-61049862D02*
X88450000Y-61335577D01*
X88450000Y-61335577D02*
X88507143Y-61392720D01*
X88507143Y-61392720D02*
X88621429Y-61449862D01*
X98935712Y-62924653D02*
X99049998Y-62981795D01*
X99049998Y-62981795D02*
X99278570Y-62981795D01*
X99278570Y-62981795D02*
X99392855Y-62924653D01*
X99392855Y-62924653D02*
X99449998Y-62810367D01*
X99449998Y-62810367D02*
X99449998Y-62353224D01*
X99449998Y-62353224D02*
X99392855Y-62238938D01*
X99392855Y-62238938D02*
X99278570Y-62181795D01*
X99278570Y-62181795D02*
X99049998Y-62181795D01*
X99049998Y-62181795D02*
X98935712Y-62238938D01*
X98935712Y-62238938D02*
X98878570Y-62353224D01*
X98878570Y-62353224D02*
X98878570Y-62467510D01*
X98878570Y-62467510D02*
X99449998Y-62581795D01*
X98478570Y-62981795D02*
X97849999Y-62181795D01*
X98478570Y-62181795D02*
X97849999Y-62981795D01*
X97564284Y-62181795D02*
X97107141Y-62181795D01*
X97392855Y-61781795D02*
X97392855Y-62810367D01*
X97392855Y-62810367D02*
X97335712Y-62924653D01*
X97335712Y-62924653D02*
X97221427Y-62981795D01*
X97221427Y-62981795D02*
X97107141Y-62981795D01*
X96249998Y-62924653D02*
X96364284Y-62981795D01*
X96364284Y-62981795D02*
X96592856Y-62981795D01*
X96592856Y-62981795D02*
X96707141Y-62924653D01*
X96707141Y-62924653D02*
X96764284Y-62810367D01*
X96764284Y-62810367D02*
X96764284Y-62353224D01*
X96764284Y-62353224D02*
X96707141Y-62238938D01*
X96707141Y-62238938D02*
X96592856Y-62181795D01*
X96592856Y-62181795D02*
X96364284Y-62181795D01*
X96364284Y-62181795D02*
X96249998Y-62238938D01*
X96249998Y-62238938D02*
X96192856Y-62353224D01*
X96192856Y-62353224D02*
X96192856Y-62467510D01*
X96192856Y-62467510D02*
X96764284Y-62581795D01*
X95678570Y-62981795D02*
X95678570Y-62181795D01*
X95678570Y-62410367D02*
X95621427Y-62296081D01*
X95621427Y-62296081D02*
X95564285Y-62238938D01*
X95564285Y-62238938D02*
X95449999Y-62181795D01*
X95449999Y-62181795D02*
X95335713Y-62181795D01*
X94935713Y-62181795D02*
X94935713Y-62981795D01*
X94935713Y-62296081D02*
X94878570Y-62238938D01*
X94878570Y-62238938D02*
X94764285Y-62181795D01*
X94764285Y-62181795D02*
X94592856Y-62181795D01*
X94592856Y-62181795D02*
X94478570Y-62238938D01*
X94478570Y-62238938D02*
X94421428Y-62353224D01*
X94421428Y-62353224D02*
X94421428Y-62981795D01*
X93335714Y-62981795D02*
X93335714Y-62353224D01*
X93335714Y-62353224D02*
X93392856Y-62238938D01*
X93392856Y-62238938D02*
X93507142Y-62181795D01*
X93507142Y-62181795D02*
X93735714Y-62181795D01*
X93735714Y-62181795D02*
X93849999Y-62238938D01*
X93335714Y-62924653D02*
X93449999Y-62981795D01*
X93449999Y-62981795D02*
X93735714Y-62981795D01*
X93735714Y-62981795D02*
X93849999Y-62924653D01*
X93849999Y-62924653D02*
X93907142Y-62810367D01*
X93907142Y-62810367D02*
X93907142Y-62696081D01*
X93907142Y-62696081D02*
X93849999Y-62581795D01*
X93849999Y-62581795D02*
X93735714Y-62524653D01*
X93735714Y-62524653D02*
X93449999Y-62524653D01*
X93449999Y-62524653D02*
X93335714Y-62467510D01*
X92592857Y-62981795D02*
X92707142Y-62924653D01*
X92707142Y-62924653D02*
X92764285Y-62810367D01*
X92764285Y-62810367D02*
X92764285Y-61781795D01*
X90650000Y-61781795D02*
X91221428Y-61781795D01*
X91221428Y-61781795D02*
X91278571Y-62353224D01*
X91278571Y-62353224D02*
X91221428Y-62296081D01*
X91221428Y-62296081D02*
X91107143Y-62238938D01*
X91107143Y-62238938D02*
X90821428Y-62238938D01*
X90821428Y-62238938D02*
X90707143Y-62296081D01*
X90707143Y-62296081D02*
X90650000Y-62353224D01*
X90650000Y-62353224D02*
X90592857Y-62467510D01*
X90592857Y-62467510D02*
X90592857Y-62753224D01*
X90592857Y-62753224D02*
X90650000Y-62867510D01*
X90650000Y-62867510D02*
X90707143Y-62924653D01*
X90707143Y-62924653D02*
X90821428Y-62981795D01*
X90821428Y-62981795D02*
X91107143Y-62981795D01*
X91107143Y-62981795D02*
X91221428Y-62924653D01*
X91221428Y-62924653D02*
X91278571Y-62867510D01*
X89335714Y-61781795D02*
X88935714Y-62981795D01*
X88935714Y-62981795D02*
X88535714Y-61781795D01*
D12*
X139250000Y-83200000D02*
G75*
G02*
X136350000Y-83200000I-1450000J0D01*
G01*
X136350000Y-83200000D02*
G75*
G02*
X139250000Y-83200000I1450000J0D01*
G01*
X77350000Y-84930000D02*
G75*
G02*
X74450000Y-84930000I-1450000J0D01*
G01*
X74450000Y-84930000D02*
G75*
G02*
X77350000Y-84930000I1450000J0D01*
G01*
X92725000Y-82650000D02*
X96825000Y-82650000D01*
X92725000Y-84650000D02*
X92725000Y-82650000D01*
X95775000Y-85150000D02*
X96075000Y-84850000D01*
X95775000Y-85150000D02*
X96375000Y-85150000D01*
X96375000Y-85150000D02*
X96075000Y-84850000D01*
X96825000Y-82650000D02*
X96825000Y-84650000D01*
X96825000Y-84650000D02*
X92725000Y-84650000D01*
X122160000Y-111272500D02*
G75*
G02*
X119260000Y-111272500I-1450000J0D01*
G01*
X119260000Y-111272500D02*
G75*
G02*
X122160000Y-111272500I1450000J0D01*
G01*
X86350000Y-84930000D02*
G75*
G02*
X83450000Y-84930000I-1450000J0D01*
G01*
X83450000Y-84930000D02*
G75*
G02*
X86350000Y-84930000I1450000J0D01*
G01*
X59350000Y-84930000D02*
G75*
G02*
X56450000Y-84930000I-1450000J0D01*
G01*
X56450000Y-84930000D02*
G75*
G02*
X59350000Y-84930000I1450000J0D01*
G01*
X88375000Y-88125000D02*
X92475000Y-88125000D01*
X88375000Y-90125000D02*
X88375000Y-88125000D01*
X88825000Y-87625000D02*
X89125000Y-87925000D01*
X89425000Y-87625000D02*
X88825000Y-87625000D01*
X89425000Y-87625000D02*
X89125000Y-87925000D01*
X92475000Y-88125000D02*
X92475000Y-90125000D01*
X92475000Y-90125000D02*
X88375000Y-90125000D01*
X68350000Y-84930000D02*
G75*
G02*
X65450000Y-84930000I-1450000J0D01*
G01*
X65450000Y-84930000D02*
G75*
G02*
X68350000Y-84930000I1450000J0D01*
G01*
X92650000Y-57150000D02*
X95450000Y-57150000D01*
X92650000Y-59150000D02*
X92650000Y-57150000D01*
X95450000Y-57150000D02*
X95450000Y-59150000D01*
X95450000Y-59150000D02*
X92650000Y-59150000D01*
%LPC*%
D13*
X137800000Y-83200000D03*
D14*
X135600000Y-117480000D03*
D15*
X135600000Y-120020000D03*
X135600000Y-122560000D03*
X135600000Y-125100000D03*
D14*
X94700000Y-52000000D03*
D15*
X94700000Y-54540000D03*
D14*
X101040000Y-52000000D03*
D15*
X101040000Y-54540000D03*
X101040000Y-57080000D03*
D16*
X105700000Y-87380000D03*
D17*
X105700000Y-84840000D03*
X105700000Y-82300000D03*
X105700000Y-79760000D03*
D18*
X138450000Y-133600000D03*
D19*
X138450000Y-133600000D03*
D18*
X138450000Y-53600000D03*
D19*
X138450000Y-53600000D03*
D20*
X105750000Y-104354664D03*
X113250000Y-104354664D03*
D21*
X107100000Y-102204664D03*
X107100000Y-106504664D03*
X111900000Y-102204664D03*
X111900000Y-106504664D03*
D14*
X103580000Y-52000000D03*
D15*
X103580000Y-54540000D03*
X103580000Y-57080000D03*
D22*
X118850000Y-132450000D03*
X125650000Y-132450000D03*
D23*
X127400000Y-60100000D03*
X127400000Y-67100000D03*
D24*
X120050000Y-55550000D03*
X107350000Y-55550000D03*
D25*
X110144000Y-58090000D03*
D26*
X111160000Y-59868000D03*
X112176000Y-58090000D03*
X113192000Y-59868000D03*
X114208000Y-58090000D03*
X115224000Y-59868000D03*
X116240000Y-58090000D03*
X117256000Y-59868000D03*
D27*
X64687500Y-132650000D03*
D28*
X69687500Y-132650000D03*
D18*
X53450000Y-53600000D03*
D19*
X53450000Y-53600000D03*
D27*
X75850000Y-132650000D03*
D28*
X80850000Y-132650000D03*
X85850000Y-132650000D03*
X90850000Y-132650000D03*
X95850000Y-132650000D03*
X100850000Y-132650000D03*
D27*
X64600000Y-54300000D03*
D28*
X69600000Y-54300000D03*
X74600000Y-54300000D03*
X79600000Y-54300000D03*
X84600000Y-54300000D03*
D18*
X53450000Y-133600000D03*
D19*
X53450000Y-133600000D03*
D14*
X98500000Y-52000000D03*
D15*
X98500000Y-54540000D03*
X98500000Y-57080000D03*
D13*
X75900000Y-84930000D03*
D29*
X96075000Y-83650000D03*
X94775000Y-83650000D03*
X93475000Y-83650000D03*
D13*
X120710000Y-111272500D03*
X84900000Y-84930000D03*
X57900000Y-84930000D03*
D29*
X89125000Y-89125000D03*
X90425000Y-89125000D03*
X91725000Y-89125000D03*
D13*
X66900000Y-84930000D03*
D29*
X93400000Y-58150000D03*
X94700000Y-58150000D03*
%LPD*%
M02*
