M48
; DRILL file {KiCad 8.0.4} date 2024-08-16T00:11:05-0500
; FORMAT={-:-/ absolute / metric / decimal}
; #@! TF.CreationDate,2024-08-16T00:11:05-05:00
; #@! TF.GenerationSoftware,Kicad,Pcbnew,8.0.4
; #@! TF.FileFunction,Plated,1,2,PTH
FMAT,2
METRIC
; #@! TA.AperFunction,Plated,PTH,ComponentDrill
T1C0.200
; #@! TA.AperFunction,Plated,PTH,ViaDrill
T2C0.300
; #@! TA.AperFunction,Plated,PTH,ViaDrill
T3C0.400
; #@! TA.AperFunction,Plated,PTH,ViaDrill
T4C0.500
; #@! TA.AperFunction,Plated,PTH,ComponentDrill
T5C0.600
; #@! TA.AperFunction,Plated,PTH,ComponentDrill
T6C0.940
; #@! TA.AperFunction,Plated,PTH,ComponentDrill
T7C1.000
; #@! TA.AperFunction,Plated,PTH,ComponentDrill
T8C1.200
; #@! TA.AperFunction,Plated,PTH,ComponentDrill
T9C3.200
%
G90
G05
T1
X129.6Y-100.695
X129.6Y-102.095
X130.3Y-99.995
X130.3Y-101.395
X130.3Y-102.795
X131.0Y-100.695
X131.0Y-102.095
X131.7Y-99.995
X131.7Y-101.395
X131.7Y-102.795
X132.4Y-100.695
X132.4Y-102.095
T2
X55.2Y-72.3
X55.4Y-102.7
X55.5Y-105.7
X57.9Y-84.93
X60.1Y-120.8
X60.4Y-114.7
X62.7Y-74.8
X62.825Y-93.025
X65.2Y-113.0
X65.275Y-123.935
X66.9Y-84.93
X69.4Y-119.9
X70.575Y-92.4
X71.7Y-74.8
X73.3Y-105.6
X75.3Y-126.9
X75.5Y-123.4
X75.8Y-111.8
X75.9Y-84.93
X79.925Y-91.65
X80.8Y-115.8
X81.4Y-123.9
X82.3Y-105.5
X84.9Y-84.93
X85.0Y-115.675
X86.0Y-115.675
X87.0Y-63.7
X87.3Y-65.2
X88.025Y-91.025
X88.4Y-56.8
X88.4Y-115.2
X88.7Y-65.2
X89.2Y-90.7
X89.6Y-83.9
X90.012Y-65.213
X90.6Y-87.5
X91.3Y-126.8
X91.4Y-78.8
X91.725Y-65.2
X93.2Y-90.5
X93.422Y-88.848
X94.228Y-89.13
X94.7Y-82.4
X94.9Y-100.3
X95.075Y-89.025
X95.6Y-126.8
X97.2Y-99.0
X97.6Y-72.2
X98.6Y-72.2
X98.9Y-97.4
X99.6Y-72.2
X100.4Y-86.4
X101.3Y-135.0
X101.4Y-86.0
X101.75Y-95.75
X102.0Y-130.2
X102.4Y-88.7
X102.85Y-134.3
X103.2Y-68.6
X103.2Y-87.9
X103.2Y-130.1
X103.225Y-93.825
X103.475Y-120.9
X103.75Y-134.25
X103.85Y-107.85
X105.0Y-125.75
X105.8Y-117.55
X107.4Y-104.3
X109.6Y-106.155
X109.879Y-98.373
X109.9Y-102.4
X110.1Y-97.6
X110.1Y-134.7
X110.3Y-131.45
X110.522Y-100.622
X110.75Y-119.05
X111.5Y-104.4
X111.7Y-131.1
X112.2Y-74.6
X113.825Y-101.075
X114.7Y-100.3
X115.1Y-114.7
X115.161Y-99.641
X115.6Y-82.9
X115.691Y-98.971
X116.3Y-92.2
X116.355Y-98.4
X116.8Y-86.8
X116.85Y-91.45
X116.875Y-97.725
X118.075Y-106.95
X118.75Y-97.25
X119.0Y-95.91
X120.7Y-77.9
X120.71Y-111.272
X121.7Y-80.3
X122.5Y-113.475
X125.8Y-88.2
X126.0Y-80.7
X126.9Y-72.1
X128.0Y-71.0
X129.0Y-72.3
X133.2Y-78.8
X133.6Y-113.4
X134.9Y-113.4
X136.15Y-92.375
X137.7Y-83.2
T3
X82.828Y-107.802
X89.125Y-87.05
X90.4Y-53.9
X92.6Y-56.1
X94.5Y-108.5
X95.1Y-67.0
X96.1Y-94.0
X97.1Y-88.8
X97.8Y-103.2
X107.4Y-74.7
X114.2Y-80.867
X115.051Y-69.892
X116.85Y-114.075
X122.8Y-118.6
X122.825Y-114.825
X127.7Y-77.0
X129.275Y-114.825
X133.1Y-77.4
X137.5Y-105.3
T4
X58.4Y-110.6
X73.6Y-113.3
T6
X110.144Y-58.09
X111.16Y-59.868
X112.176Y-58.09
X113.192Y-59.868
X114.208Y-58.09
X115.224Y-59.868
X116.24Y-58.09
X117.256Y-59.868
T7
X94.7Y-52.0
X94.7Y-54.54
X98.5Y-52.0
X98.5Y-54.54
X98.5Y-57.08
X101.04Y-52.0
X101.04Y-54.54
X101.04Y-57.08
X103.58Y-52.0
X103.58Y-54.54
X103.58Y-57.08
X105.7Y-79.76
X105.7Y-82.3
X105.7Y-84.84
X105.7Y-87.38
X135.6Y-117.48
X135.6Y-120.02
X135.6Y-122.56
X135.6Y-125.1
T8
X64.6Y-54.3
X64.688Y-132.65
X69.6Y-54.3
X69.688Y-132.65
X74.6Y-54.3
X75.85Y-132.65
X79.6Y-54.3
X80.85Y-132.65
X84.6Y-54.3
X85.85Y-132.65
X90.85Y-132.65
X95.85Y-132.65
X100.85Y-132.65
T9
X53.45Y-53.6
X53.45Y-133.6
X138.45Y-53.6
X138.45Y-133.6
T5
X106.975Y-102.205G85X107.225Y-102.205
G05
X106.975Y-106.505G85X107.225Y-106.505
G05
X111.775Y-102.205G85X112.025Y-102.205
G05
X111.775Y-106.505G85X112.025Y-106.505
G05
M30
