G04 #@! TF.GenerationSoftware,KiCad,Pcbnew,8.0.4*
G04 #@! TF.CreationDate,2024-08-16T00:10:32-05:00*
G04 #@! TF.ProjectId,Codex43,436f6465-7834-4332-9e6b-696361645f70,rev?*
G04 #@! TF.SameCoordinates,Original*
G04 #@! TF.FileFunction,Soldermask,Top*
G04 #@! TF.FilePolarity,Negative*
%FSLAX46Y46*%
G04 Gerber Fmt 4.6, Leading zero omitted, Abs format (unit mm)*
G04 Created by KiCad (PCBNEW 8.0.4) date 2024-08-16 00:10:32*
%MOMM*%
%LPD*%
G01*
G04 APERTURE LIST*
G04 Aperture macros list*
%AMRoundRect*
0 Rectangle with rounded corners*
0 $1 Rounding radius*
0 $2 $3 $4 $5 $6 $7 $8 $9 X,Y pos of 4 corners*
0 Add a 4 corners polygon primitive as box body*
4,1,4,$2,$3,$4,$5,$6,$7,$8,$9,$2,$3,0*
0 Add four circle primitives for the rounded corners*
1,1,$1+$1,$2,$3*
1,1,$1+$1,$4,$5*
1,1,$1+$1,$6,$7*
1,1,$1+$1,$8,$9*
0 Add four rect primitives between the rounded corners*
20,1,$1+$1,$2,$3,$4,$5,0*
20,1,$1+$1,$4,$5,$6,$7,0*
20,1,$1+$1,$6,$7,$8,$9,0*
20,1,$1+$1,$8,$9,$2,$3,0*%
G04 Aperture macros list end*
%ADD10RoundRect,0.102000X0.950000X2.550000X-0.950000X2.550000X-0.950000X-2.550000X0.950000X-2.550000X0*%
%ADD11RoundRect,0.102000X-0.670000X-0.295000X0.670000X-0.295000X0.670000X0.295000X-0.670000X0.295000X0*%
%ADD12RoundRect,0.200000X-0.275000X0.200000X-0.275000X-0.200000X0.275000X-0.200000X0.275000X0.200000X0*%
%ADD13RoundRect,0.200000X0.200000X0.275000X-0.200000X0.275000X-0.200000X-0.275000X0.200000X-0.275000X0*%
%ADD14RoundRect,0.250000X-0.475000X0.250000X-0.475000X-0.250000X0.475000X-0.250000X0.475000X0.250000X0*%
%ADD15RoundRect,0.225000X0.250000X-0.225000X0.250000X0.225000X-0.250000X0.225000X-0.250000X-0.225000X0*%
%ADD16RoundRect,0.250000X0.475000X-0.250000X0.475000X0.250000X-0.475000X0.250000X-0.475000X-0.250000X0*%
%ADD17R,1.700000X1.700000*%
%ADD18O,1.700000X1.700000*%
%ADD19RoundRect,0.250000X1.450000X-0.312500X1.450000X0.312500X-1.450000X0.312500X-1.450000X-0.312500X0*%
%ADD20R,1.400000X3.000000*%
%ADD21R,6.000000X6.500000*%
%ADD22RoundRect,0.225000X-0.225000X-0.250000X0.225000X-0.250000X0.225000X0.250000X-0.225000X0.250000X0*%
%ADD23RoundRect,0.250000X0.250000X0.475000X-0.250000X0.475000X-0.250000X-0.475000X0.250000X-0.475000X0*%
%ADD24RoundRect,0.218750X-0.256250X0.218750X-0.256250X-0.218750X0.256250X-0.218750X0.256250X0.218750X0*%
%ADD25RoundRect,0.225000X0.225000X0.250000X-0.225000X0.250000X-0.225000X-0.250000X0.225000X-0.250000X0*%
%ADD26RoundRect,0.218750X0.218750X0.256250X-0.218750X0.256250X-0.218750X-0.256250X0.218750X-0.256250X0*%
%ADD27RoundRect,0.225000X-0.375000X0.225000X-0.375000X-0.225000X0.375000X-0.225000X0.375000X0.225000X0*%
%ADD28RoundRect,0.200000X-0.200000X-0.275000X0.200000X-0.275000X0.200000X0.275000X-0.200000X0.275000X0*%
%ADD29R,1.000000X0.700000*%
%ADD30RoundRect,0.102000X0.754000X-0.754000X0.754000X0.754000X-0.754000X0.754000X-0.754000X-0.754000X0*%
%ADD31C,1.712000*%
%ADD32R,0.600000X1.000000*%
%ADD33R,0.950000X1.450000*%
%ADD34RoundRect,0.200000X0.275000X-0.200000X0.275000X0.200000X-0.275000X0.200000X-0.275000X-0.200000X0*%
%ADD35RoundRect,0.250000X0.750000X1.500000X-0.750000X1.500000X-0.750000X-1.500000X0.750000X-1.500000X0*%
%ADD36R,0.800000X3.400000*%
%ADD37C,3.600000*%
%ADD38C,5.700000*%
%ADD39RoundRect,0.150000X0.150000X-0.675000X0.150000X0.675000X-0.150000X0.675000X-0.150000X-0.675000X0*%
%ADD40RoundRect,0.150000X-0.625000X0.150000X-0.625000X-0.150000X0.625000X-0.150000X0.625000X0.150000X0*%
%ADD41RoundRect,0.250000X-0.650000X0.350000X-0.650000X-0.350000X0.650000X-0.350000X0.650000X0.350000X0*%
%ADD42R,1.320800X0.558800*%
%ADD43RoundRect,0.060300X-0.716700X-0.341700X0.716700X-0.341700X0.716700X0.341700X-0.716700X0.341700X0*%
%ADD44RoundRect,0.225000X-0.250000X0.225000X-0.250000X-0.225000X0.250000X-0.225000X0.250000X0.225000X0*%
%ADD45R,0.600000X1.550000*%
%ADD46C,0.520000*%
%ADD47RoundRect,0.102000X-0.150000X-0.435000X0.150000X-0.435000X0.150000X0.435000X-0.150000X0.435000X0*%
%ADD48O,2.404000X1.304000*%
%ADD49R,1.450000X0.950000*%
%ADD50R,0.700000X1.000000*%
%ADD51C,0.950000*%
%ADD52RoundRect,0.102000X-0.310000X-0.700000X0.310000X-0.700000X0.310000X0.700000X-0.310000X0.700000X0*%
%ADD53RoundRect,0.102000X-0.550000X-1.200000X0.550000X-1.200000X0.550000X1.200000X-0.550000X1.200000X0*%
%ADD54RoundRect,0.150000X-0.150000X0.675000X-0.150000X-0.675000X0.150000X-0.675000X0.150000X0.675000X0*%
%ADD55RoundRect,0.225000X-0.225000X-0.375000X0.225000X-0.375000X0.225000X0.375000X-0.225000X0.375000X0*%
%ADD56C,1.700000*%
%ADD57RoundRect,0.102000X-1.400000X1.100000X-1.400000X-1.100000X1.400000X-1.100000X1.400000X1.100000X0*%
%ADD58RoundRect,0.102000X-1.400000X1.400000X-1.400000X-1.400000X1.400000X-1.400000X1.400000X1.400000X0*%
%ADD59C,3.302000*%
%ADD60RoundRect,0.102000X0.723900X0.723900X-0.723900X0.723900X-0.723900X-0.723900X0.723900X-0.723900X0*%
%ADD61C,1.651800*%
%ADD62RoundRect,0.102000X-0.900000X-0.900000X0.900000X-0.900000X0.900000X0.900000X-0.900000X0.900000X0*%
%ADD63C,2.004000*%
%ADD64RoundRect,0.020500X0.184500X-0.764500X0.184500X0.764500X-0.184500X0.764500X-0.184500X-0.764500X0*%
%ADD65RoundRect,0.250000X-0.475000X0.337500X-0.475000X-0.337500X0.475000X-0.337500X0.475000X0.337500X0*%
%ADD66R,0.500000X0.800000*%
%ADD67R,0.400000X0.800000*%
%ADD68RoundRect,0.020500X-0.184500X0.764500X-0.184500X-0.764500X0.184500X-0.764500X0.184500X0.764500X0*%
%ADD69RoundRect,0.102000X-0.450000X0.750000X-0.450000X-0.750000X0.450000X-0.750000X0.450000X0.750000X0*%
%ADD70RoundRect,0.102000X-0.750000X0.450000X-0.750000X-0.450000X0.750000X-0.450000X0.750000X0.450000X0*%
%ADD71RoundRect,0.102000X-0.450000X0.450000X-0.450000X-0.450000X0.450000X-0.450000X0.450000X0.450000X0*%
%ADD72RoundRect,0.247222X-0.642778X-0.832778X0.642778X-0.832778X0.642778X0.832778X-0.642778X0.832778X0*%
%ADD73RoundRect,0.250000X-0.250000X-0.475000X0.250000X-0.475000X0.250000X0.475000X-0.250000X0.475000X0*%
%ADD74RoundRect,0.150000X-0.675000X-0.150000X0.675000X-0.150000X0.675000X0.150000X-0.675000X0.150000X0*%
G04 APERTURE END LIST*
D10*
X65700000Y-108125000D03*
X69900000Y-108125000D03*
D11*
X69980000Y-112725000D03*
X69980000Y-113675000D03*
X69980000Y-114625000D03*
X67600000Y-114625000D03*
X67600000Y-113675000D03*
X67600000Y-112725000D03*
D12*
X70000000Y-118125000D03*
X70000000Y-116475000D03*
D13*
X72175000Y-114625000D03*
X73825000Y-114625000D03*
D14*
X60700000Y-112475000D03*
X60700000Y-110575000D03*
X63000000Y-112475000D03*
X63000000Y-110575000D03*
D15*
X72300000Y-110650000D03*
X72300000Y-112200000D03*
D16*
X63000000Y-114275000D03*
X63000000Y-116175000D03*
D17*
X135600000Y-117480000D03*
D18*
X135600000Y-120020000D03*
X135600000Y-122560000D03*
X135600000Y-125100000D03*
D19*
X85100000Y-72467500D03*
X85100000Y-68192500D03*
X76100000Y-72430000D03*
X76100000Y-68155000D03*
X67100000Y-72467500D03*
X67100000Y-68192500D03*
X58100000Y-72505000D03*
X58100000Y-68230000D03*
D20*
X83000000Y-84980000D03*
X87600000Y-84980000D03*
D21*
X85300000Y-78730000D03*
D20*
X74000000Y-84980000D03*
X78600000Y-84980000D03*
D21*
X76300000Y-78730000D03*
D20*
X65000000Y-84980000D03*
X69600000Y-84980000D03*
D21*
X67300000Y-78730000D03*
D20*
X56000000Y-84980000D03*
X60600000Y-84980000D03*
D21*
X58300000Y-78730000D03*
D22*
X137945000Y-91800000D03*
X139495000Y-91800000D03*
D15*
X133025000Y-86375000D03*
X133025000Y-84825000D03*
D14*
X83700000Y-111350000D03*
X83700000Y-113250000D03*
D23*
X121350000Y-118800000D03*
X119450000Y-118800000D03*
D13*
X117525000Y-69000000D03*
X115875000Y-69000000D03*
D22*
X130275000Y-76125000D03*
X131825000Y-76125000D03*
D24*
X90000000Y-58712500D03*
X90000000Y-60287500D03*
D25*
X93250000Y-115400000D03*
X91700000Y-115400000D03*
D26*
X88837500Y-127250000D03*
X87262500Y-127250000D03*
D27*
X62100000Y-69280000D03*
X62100000Y-72580000D03*
D13*
X66500000Y-88330000D03*
X64850000Y-88330000D03*
D15*
X133000000Y-81850000D03*
X133000000Y-80300000D03*
D12*
X101800000Y-124775000D03*
X101800000Y-126425000D03*
D28*
X95075000Y-61600000D03*
X96725000Y-61600000D03*
D17*
X94700000Y-52000000D03*
D18*
X94700000Y-54540000D03*
D29*
X108600000Y-133750000D03*
X113100000Y-133750000D03*
X108600000Y-135900000D03*
X113100000Y-135900000D03*
D17*
X101040000Y-52000000D03*
D18*
X101040000Y-54540000D03*
X101040000Y-57080000D03*
D30*
X105700000Y-87380000D03*
D31*
X105700000Y-84840000D03*
X105700000Y-82300000D03*
X105700000Y-79760000D03*
D32*
X105150000Y-135525000D03*
X106450000Y-135525000D03*
X106450000Y-133325000D03*
X105150000Y-133325000D03*
D33*
X135250000Y-84300000D03*
X135250000Y-86100000D03*
D28*
X97825000Y-101050000D03*
X99475000Y-101050000D03*
D34*
X90000000Y-63525000D03*
X90000000Y-61875000D03*
D35*
X101975000Y-107950000D03*
D36*
X99950000Y-107950000D03*
D35*
X97925000Y-107950000D03*
D27*
X71100000Y-69280000D03*
X71100000Y-72580000D03*
D28*
X68050000Y-88330000D03*
X69700000Y-88330000D03*
D22*
X138425000Y-79150000D03*
X139975000Y-79150000D03*
D34*
X103500000Y-126425000D03*
X103500000Y-124775000D03*
X88300000Y-63525000D03*
X88300000Y-61875000D03*
D14*
X85900000Y-111350000D03*
X85900000Y-113250000D03*
D37*
X138450000Y-133600000D03*
D38*
X138450000Y-133600000D03*
D14*
X108350000Y-85550000D03*
X108350000Y-87450000D03*
X77100000Y-113750000D03*
X77100000Y-115650000D03*
D39*
X111695000Y-84725000D03*
X112965000Y-84725000D03*
X114235000Y-84725000D03*
X115505000Y-84725000D03*
X115505000Y-79475000D03*
X114235000Y-79475000D03*
X112965000Y-79475000D03*
X111695000Y-79475000D03*
D34*
X109900000Y-82625000D03*
X109900000Y-80975000D03*
D40*
X88700000Y-52500000D03*
X88700000Y-53500000D03*
X88700000Y-54500000D03*
X88700000Y-55500000D03*
D41*
X91225000Y-51200000D03*
X91225000Y-56800000D03*
D28*
X124075000Y-115825000D03*
X125725000Y-115825000D03*
D13*
X108675000Y-100400000D03*
X107025000Y-100400000D03*
D25*
X125675000Y-114000000D03*
X124125000Y-114000000D03*
D28*
X85975000Y-88330000D03*
X87625000Y-88330000D03*
D26*
X106687500Y-129450000D03*
X105112500Y-129450000D03*
D42*
X88913700Y-105897500D03*
X88913700Y-107802500D03*
X90793300Y-106850000D03*
D43*
X79230000Y-111400000D03*
X79230000Y-112350000D03*
X79230000Y-113300000D03*
X81600000Y-113300000D03*
X81600000Y-111400000D03*
D34*
X133850000Y-62675000D03*
X133850000Y-61025000D03*
D26*
X78837500Y-127250000D03*
X77262500Y-127250000D03*
D44*
X109900000Y-77825000D03*
X109900000Y-79375000D03*
D37*
X138450000Y-53600000D03*
D38*
X138450000Y-53600000D03*
D22*
X129625000Y-87200000D03*
X131175000Y-87200000D03*
D34*
X93400000Y-63525000D03*
X93400000Y-61875000D03*
D13*
X57525000Y-88330000D03*
X55875000Y-88330000D03*
D29*
X108600000Y-129950000D03*
X113100000Y-129950000D03*
X108600000Y-132100000D03*
X113100000Y-132100000D03*
D12*
X73700000Y-124625000D03*
X73700000Y-126275000D03*
D25*
X121175000Y-116800000D03*
X119625000Y-116800000D03*
D34*
X94950000Y-78625000D03*
X94950000Y-76975000D03*
D45*
X111700000Y-76500000D03*
X112970000Y-76500000D03*
X114240000Y-76500000D03*
X115510000Y-76500000D03*
X115510000Y-71100000D03*
X114240000Y-71100000D03*
X112955000Y-71100000D03*
X111700000Y-71100000D03*
D44*
X87800000Y-111525000D03*
X87800000Y-113075000D03*
D34*
X93250000Y-78625000D03*
X93250000Y-76975000D03*
D46*
X105750000Y-104354664D03*
X113250000Y-104354664D03*
D47*
X106750000Y-103489664D03*
X108250000Y-103489664D03*
X108750000Y-103489664D03*
X109250000Y-103489664D03*
X109750000Y-103489664D03*
X110250000Y-103489664D03*
X110750000Y-103489664D03*
X112250000Y-103489664D03*
X112250000Y-105219664D03*
X110750000Y-105219664D03*
X110250000Y-105219664D03*
X109750000Y-105219664D03*
X109250000Y-105219664D03*
X108750000Y-105219664D03*
X108250000Y-105219664D03*
X106750000Y-105219664D03*
D48*
X107100000Y-102204664D03*
X107100000Y-106504664D03*
X111900000Y-102204664D03*
X111900000Y-106504664D03*
D26*
X98837500Y-127250000D03*
X97262500Y-127250000D03*
D12*
X117300000Y-78575000D03*
X117300000Y-80225000D03*
D13*
X109925000Y-76200000D03*
X108275000Y-76200000D03*
D49*
X129100000Y-89400000D03*
X130900000Y-89400000D03*
D12*
X83750000Y-124625000D03*
X83750000Y-126275000D03*
D25*
X109900000Y-72200000D03*
X108350000Y-72200000D03*
D50*
X139875000Y-81050000D03*
X139875000Y-85550000D03*
X137725000Y-81050000D03*
X137725000Y-85550000D03*
D17*
X103580000Y-52000000D03*
D18*
X103580000Y-54540000D03*
X103580000Y-57080000D03*
D12*
X114400000Y-86575000D03*
X114400000Y-88225000D03*
D13*
X114425000Y-69000000D03*
X112775000Y-69000000D03*
D28*
X77025000Y-88330000D03*
X78675000Y-88330000D03*
D24*
X93400000Y-58712500D03*
X93400000Y-60287500D03*
D22*
X105125000Y-131050000D03*
X106675000Y-131050000D03*
D51*
X118850000Y-132450000D03*
X125650000Y-132450000D03*
D52*
X124830000Y-121030000D03*
X123730000Y-121030000D03*
X122630000Y-121030000D03*
X121530000Y-121030000D03*
X120430000Y-121030000D03*
X119330000Y-121030000D03*
X118230000Y-121030000D03*
X117130000Y-121030000D03*
X116030000Y-121030000D03*
D53*
X114650000Y-132030000D03*
X114650000Y-123030000D03*
X130800000Y-123030000D03*
X130800000Y-132030000D03*
D54*
X102105000Y-93675000D03*
X100835000Y-93675000D03*
X99565000Y-93675000D03*
X98295000Y-93675000D03*
X98295000Y-98925000D03*
X99565000Y-98925000D03*
X100835000Y-98925000D03*
X102105000Y-98925000D03*
D55*
X95450000Y-125100000D03*
X98750000Y-125100000D03*
D49*
X126650000Y-74025000D03*
X124850000Y-74025000D03*
D12*
X112700000Y-86575000D03*
X112700000Y-88225000D03*
D28*
X59075000Y-88330000D03*
X60725000Y-88330000D03*
D27*
X89100000Y-69280000D03*
X89100000Y-72580000D03*
D49*
X132350000Y-74025000D03*
X130550000Y-74025000D03*
D56*
X127400000Y-60100000D03*
X127400000Y-67100000D03*
D57*
X123700000Y-59000000D03*
D58*
X123700000Y-68400000D03*
D57*
X131100000Y-61000000D03*
D59*
X120050000Y-55550000D03*
X107350000Y-55550000D03*
D60*
X110144000Y-58090000D03*
D61*
X111160000Y-59868000D03*
X112176000Y-58090000D03*
X113192000Y-59868000D03*
X114208000Y-58090000D03*
X115224000Y-59868000D03*
X116240000Y-58090000D03*
X117256000Y-59868000D03*
D44*
X135500000Y-61075000D03*
X135500000Y-62625000D03*
D15*
X95125000Y-106600000D03*
X95125000Y-105050000D03*
D22*
X125375000Y-76175000D03*
X126925000Y-76175000D03*
D34*
X86925000Y-105875000D03*
X86925000Y-104225000D03*
D62*
X64687500Y-132650000D03*
D63*
X69687500Y-132650000D03*
D13*
X84425000Y-88330000D03*
X82775000Y-88330000D03*
X111300000Y-69000000D03*
X109650000Y-69000000D03*
D28*
X101075000Y-101050000D03*
X102725000Y-101050000D03*
D37*
X53450000Y-53600000D03*
D38*
X53450000Y-53600000D03*
D64*
X92825000Y-86470000D03*
X93475000Y-86470000D03*
X94125000Y-86470000D03*
X94775000Y-86470000D03*
X95425000Y-86470000D03*
X96075000Y-86470000D03*
X96725000Y-86470000D03*
X97375000Y-86470000D03*
X98025000Y-86470000D03*
X98675000Y-86470000D03*
X98675000Y-80730000D03*
X98025000Y-80730000D03*
X97375000Y-80730000D03*
X96725000Y-80730000D03*
X96075000Y-80730000D03*
X95425000Y-80730000D03*
X94775000Y-80730000D03*
X94125000Y-80730000D03*
X93475000Y-80730000D03*
X92825000Y-80730000D03*
D34*
X91700000Y-63525000D03*
X91700000Y-61875000D03*
D62*
X75850000Y-132650000D03*
D63*
X80850000Y-132650000D03*
X85850000Y-132650000D03*
X90850000Y-132650000D03*
X95850000Y-132650000D03*
X100850000Y-132650000D03*
D65*
X91000000Y-80575000D03*
X91000000Y-82650000D03*
D12*
X85225000Y-104225000D03*
X85225000Y-105875000D03*
D27*
X80100000Y-69280000D03*
X80100000Y-72580000D03*
D66*
X116150000Y-116200000D03*
D67*
X115350000Y-116200000D03*
X114550000Y-116200000D03*
D66*
X113750000Y-116200000D03*
X113750000Y-118000000D03*
D67*
X114550000Y-118000000D03*
X115350000Y-118000000D03*
D66*
X116150000Y-118000000D03*
D13*
X75475000Y-88330000D03*
X73825000Y-88330000D03*
D34*
X96650000Y-78625000D03*
X96650000Y-76975000D03*
X95950000Y-118275000D03*
X95950000Y-116625000D03*
D13*
X138900000Y-77400000D03*
X137250000Y-77400000D03*
D66*
X130600000Y-116150000D03*
D67*
X129800000Y-116150000D03*
X129000000Y-116150000D03*
D66*
X128200000Y-116150000D03*
X128200000Y-117950000D03*
D67*
X129000000Y-117950000D03*
X129800000Y-117950000D03*
D66*
X130600000Y-117950000D03*
D62*
X64600000Y-54300000D03*
D63*
X69600000Y-54300000D03*
X74600000Y-54300000D03*
X79600000Y-54300000D03*
X84600000Y-54300000D03*
D12*
X93700000Y-124625000D03*
X93700000Y-126275000D03*
D16*
X93125000Y-106800000D03*
X93125000Y-104900000D03*
D55*
X85500000Y-125100000D03*
X88800000Y-125100000D03*
D68*
X131475000Y-78885000D03*
X130825000Y-78885000D03*
X130175000Y-78885000D03*
X129525000Y-78885000D03*
X128875000Y-78885000D03*
X128225000Y-78885000D03*
X127575000Y-78885000D03*
X126925000Y-78885000D03*
X126275000Y-78885000D03*
X125625000Y-78885000D03*
X125625000Y-84625000D03*
X126275000Y-84625000D03*
X126925000Y-84625000D03*
X127575000Y-84625000D03*
X128225000Y-84625000D03*
X128875000Y-84625000D03*
X129525000Y-84625000D03*
X130175000Y-84625000D03*
X130825000Y-84625000D03*
X131475000Y-84625000D03*
D55*
X75500000Y-125100000D03*
X78800000Y-125100000D03*
D28*
X110275000Y-108350000D03*
X111925000Y-108350000D03*
X95100000Y-63450000D03*
X96750000Y-63450000D03*
D15*
X124150000Y-80075000D03*
X124150000Y-78525000D03*
D24*
X91700000Y-58725000D03*
X91700000Y-60300000D03*
X88300000Y-58712500D03*
X88300000Y-60287500D03*
D34*
X121200000Y-70175000D03*
X121200000Y-68525000D03*
D37*
X53450000Y-133600000D03*
D38*
X53450000Y-133600000D03*
D69*
X138720000Y-94145000D03*
X137450000Y-94145000D03*
X136180000Y-94145000D03*
X134910000Y-94145000D03*
X133640000Y-94145000D03*
X132370000Y-94145000D03*
X131100000Y-94145000D03*
X129830000Y-94145000D03*
X128560000Y-94145000D03*
X127290000Y-94145000D03*
X126020000Y-94145000D03*
X124750000Y-94145000D03*
X123480000Y-94145000D03*
X122210000Y-94145000D03*
D70*
X120960000Y-95910000D03*
X120960000Y-97180000D03*
X120960000Y-98450000D03*
X120960000Y-99720000D03*
X120960000Y-100990000D03*
X120960000Y-102260000D03*
X120960000Y-103530000D03*
X120960000Y-104800000D03*
X120960000Y-106070000D03*
X120960000Y-107340000D03*
X120960000Y-108610000D03*
X120960000Y-109880000D03*
D69*
X122210000Y-111645000D03*
X123480000Y-111645000D03*
X124750000Y-111645000D03*
X126020000Y-111645000D03*
X127290000Y-111645000D03*
X128560000Y-111645000D03*
X129830000Y-111645000D03*
X131100000Y-111645000D03*
X132370000Y-111645000D03*
X133640000Y-111645000D03*
X134910000Y-111645000D03*
X136180000Y-111645000D03*
X137450000Y-111645000D03*
X138720000Y-111645000D03*
D71*
X132400000Y-99995000D03*
X132400000Y-101395000D03*
X132400000Y-102795000D03*
X131000000Y-99995000D03*
X131000000Y-101395000D03*
X131000000Y-102795000D03*
X129600000Y-99995000D03*
X129600000Y-101395000D03*
X129600000Y-102795000D03*
D15*
X103800000Y-99100000D03*
X103800000Y-97550000D03*
D72*
X65275000Y-123935000D03*
X69325000Y-123875000D03*
D12*
X95950000Y-119800000D03*
X95950000Y-121450000D03*
D34*
X106300000Y-126425000D03*
X106300000Y-124775000D03*
D44*
X119500000Y-68575000D03*
X119500000Y-70125000D03*
D73*
X137770000Y-89800000D03*
X139670000Y-89800000D03*
D74*
X88125000Y-117195000D03*
X88125000Y-118465000D03*
X88125000Y-119735000D03*
X88125000Y-121005000D03*
X93375000Y-121005000D03*
X93375000Y-119735000D03*
X93375000Y-118465000D03*
X93375000Y-117195000D03*
D17*
X98500000Y-52000000D03*
D18*
X98500000Y-54540000D03*
X98500000Y-57080000D03*
M02*
