G04 #@! TF.GenerationSoftware,KiCad,Pcbnew,8.0.4*
G04 #@! TF.CreationDate,2024-08-16T00:10:32-05:00*
G04 #@! TF.ProjectId,Codex43,436f6465-7834-4332-9e6b-696361645f70,rev?*
G04 #@! TF.SameCoordinates,Original*
G04 #@! TF.FileFunction,Soldermask,Bot*
G04 #@! TF.FilePolarity,Negative*
%FSLAX46Y46*%
G04 Gerber Fmt 4.6, Leading zero omitted, Abs format (unit mm)*
G04 Created by KiCad (PCBNEW 8.0.4) date 2024-08-16 00:10:32*
%MOMM*%
%LPD*%
G01*
G04 APERTURE LIST*
G04 Aperture macros list*
%AMRoundRect*
0 Rectangle with rounded corners*
0 $1 Rounding radius*
0 $2 $3 $4 $5 $6 $7 $8 $9 X,Y pos of 4 corners*
0 Add a 4 corners polygon primitive as box body*
4,1,4,$2,$3,$4,$5,$6,$7,$8,$9,$2,$3,0*
0 Add four circle primitives for the rounded corners*
1,1,$1+$1,$2,$3*
1,1,$1+$1,$4,$5*
1,1,$1+$1,$6,$7*
1,1,$1+$1,$8,$9*
0 Add four rect primitives between the rounded corners*
20,1,$1+$1,$2,$3,$4,$5,0*
20,1,$1+$1,$4,$5,$6,$7,0*
20,1,$1+$1,$6,$7,$8,$9,0*
20,1,$1+$1,$8,$9,$2,$3,0*%
G04 Aperture macros list end*
%ADD10C,2.500000*%
%ADD11R,1.700000X1.700000*%
%ADD12O,1.700000X1.700000*%
%ADD13RoundRect,0.102000X0.754000X-0.754000X0.754000X0.754000X-0.754000X0.754000X-0.754000X-0.754000X0*%
%ADD14C,1.712000*%
%ADD15C,3.600000*%
%ADD16C,5.700000*%
%ADD17C,0.520000*%
%ADD18O,2.404000X1.304000*%
%ADD19C,0.950000*%
%ADD20C,1.700000*%
%ADD21C,3.302000*%
%ADD22RoundRect,0.102000X0.723900X0.723900X-0.723900X0.723900X-0.723900X-0.723900X0.723900X-0.723900X0*%
%ADD23C,1.651800*%
%ADD24RoundRect,0.102000X-0.900000X-0.900000X0.900000X-0.900000X0.900000X0.900000X-0.900000X0.900000X0*%
%ADD25C,2.004000*%
%ADD26R,1.000000X1.500000*%
G04 APERTURE END LIST*
D10*
X137800000Y-83200000D03*
D11*
X135600000Y-117480000D03*
D12*
X135600000Y-120020000D03*
X135600000Y-122560000D03*
X135600000Y-125100000D03*
D11*
X94700000Y-52000000D03*
D12*
X94700000Y-54540000D03*
D11*
X101040000Y-52000000D03*
D12*
X101040000Y-54540000D03*
X101040000Y-57080000D03*
D13*
X105700000Y-87380000D03*
D14*
X105700000Y-84840000D03*
X105700000Y-82300000D03*
X105700000Y-79760000D03*
D15*
X138450000Y-133600000D03*
D16*
X138450000Y-133600000D03*
D15*
X138450000Y-53600000D03*
D16*
X138450000Y-53600000D03*
D17*
X105750000Y-104354664D03*
X113250000Y-104354664D03*
D18*
X107100000Y-102204664D03*
X107100000Y-106504664D03*
X111900000Y-102204664D03*
X111900000Y-106504664D03*
D11*
X103580000Y-52000000D03*
D12*
X103580000Y-54540000D03*
X103580000Y-57080000D03*
D19*
X118850000Y-132450000D03*
X125650000Y-132450000D03*
D20*
X127400000Y-60100000D03*
X127400000Y-67100000D03*
D21*
X120050000Y-55550000D03*
X107350000Y-55550000D03*
D22*
X110144000Y-58090000D03*
D23*
X111160000Y-59868000D03*
X112176000Y-58090000D03*
X113192000Y-59868000D03*
X114208000Y-58090000D03*
X115224000Y-59868000D03*
X116240000Y-58090000D03*
X117256000Y-59868000D03*
D24*
X64687500Y-132650000D03*
D25*
X69687500Y-132650000D03*
D15*
X53450000Y-53600000D03*
D16*
X53450000Y-53600000D03*
D24*
X75850000Y-132650000D03*
D25*
X80850000Y-132650000D03*
X85850000Y-132650000D03*
X90850000Y-132650000D03*
X95850000Y-132650000D03*
X100850000Y-132650000D03*
D24*
X64600000Y-54300000D03*
D25*
X69600000Y-54300000D03*
X74600000Y-54300000D03*
X79600000Y-54300000D03*
X84600000Y-54300000D03*
D15*
X53450000Y-133600000D03*
D16*
X53450000Y-133600000D03*
D11*
X98500000Y-52000000D03*
D12*
X98500000Y-54540000D03*
X98500000Y-57080000D03*
D10*
X75900000Y-84930000D03*
D26*
X96075000Y-83650000D03*
X94775000Y-83650000D03*
X93475000Y-83650000D03*
D10*
X120710000Y-111272500D03*
X84900000Y-84930000D03*
X57900000Y-84930000D03*
D26*
X89125000Y-89125000D03*
X90425000Y-89125000D03*
X91725000Y-89125000D03*
D10*
X66900000Y-84930000D03*
D26*
X93400000Y-58150000D03*
X94700000Y-58150000D03*
M02*
