G04 #@! TF.GenerationSoftware,KiCad,Pcbnew,8.0.4*
G04 #@! TF.CreationDate,2024-08-16T00:10:32-05:00*
G04 #@! TF.ProjectId,Codex43,436f6465-7834-4332-9e6b-696361645f70,rev?*
G04 #@! TF.SameCoordinates,Original*
G04 #@! TF.FileFunction,Copper,L2,Bot*
G04 #@! TF.FilePolarity,Positive*
%FSLAX46Y46*%
G04 Gerber Fmt 4.6, Leading zero omitted, Abs format (unit mm)*
G04 Created by KiCad (PCBNEW 8.0.4) date 2024-08-16 00:10:32*
%MOMM*%
%LPD*%
G01*
G04 APERTURE LIST*
G04 #@! TA.AperFunction,EtchedComponent*
%ADD10C,0.000000*%
G04 #@! TD*
G04 #@! TA.AperFunction,SMDPad,CuDef*
%ADD11C,2.500000*%
G04 #@! TD*
G04 #@! TA.AperFunction,ComponentPad*
%ADD12R,1.700000X1.700000*%
G04 #@! TD*
G04 #@! TA.AperFunction,ComponentPad*
%ADD13O,1.700000X1.700000*%
G04 #@! TD*
G04 #@! TA.AperFunction,ComponentPad*
%ADD14R,1.508000X1.508000*%
G04 #@! TD*
G04 #@! TA.AperFunction,ComponentPad*
%ADD15C,1.508000*%
G04 #@! TD*
G04 #@! TA.AperFunction,ComponentPad*
%ADD16C,3.600000*%
G04 #@! TD*
G04 #@! TA.AperFunction,ConnectorPad*
%ADD17C,5.700000*%
G04 #@! TD*
G04 #@! TA.AperFunction,ComponentPad*
%ADD18O,2.200000X1.100000*%
G04 #@! TD*
G04 #@! TA.AperFunction,ComponentPad*
%ADD19R,1.447800X1.447800*%
G04 #@! TD*
G04 #@! TA.AperFunction,ComponentPad*
%ADD20C,1.447800*%
G04 #@! TD*
G04 #@! TA.AperFunction,ComponentPad*
%ADD21R,1.800000X1.800000*%
G04 #@! TD*
G04 #@! TA.AperFunction,ComponentPad*
%ADD22C,1.800000*%
G04 #@! TD*
G04 #@! TA.AperFunction,ComponentPad*
%ADD23C,0.480000*%
G04 #@! TD*
G04 #@! TA.AperFunction,SMDPad,CuDef*
%ADD24R,1.000000X1.500000*%
G04 #@! TD*
G04 #@! TA.AperFunction,ViaPad*
%ADD25C,0.600000*%
G04 #@! TD*
G04 #@! TA.AperFunction,ViaPad*
%ADD26C,0.800000*%
G04 #@! TD*
G04 #@! TA.AperFunction,ViaPad*
%ADD27C,0.700000*%
G04 #@! TD*
G04 #@! TA.AperFunction,Conductor*
%ADD28C,0.450000*%
G04 #@! TD*
G04 #@! TA.AperFunction,Conductor*
%ADD29C,1.000000*%
G04 #@! TD*
G04 #@! TA.AperFunction,Conductor*
%ADD30C,0.200000*%
G04 #@! TD*
G04 APERTURE END LIST*
D10*
G04 #@! TA.AperFunction,EtchedComponent*
G36*
X95675000Y-83950000D02*
G01*
X95175000Y-83950000D01*
X95175000Y-83350000D01*
X95675000Y-83350000D01*
X95675000Y-83950000D01*
G37*
G04 #@! TD.AperFunction*
G04 #@! TA.AperFunction,EtchedComponent*
G36*
X90025000Y-89425000D02*
G01*
X89525000Y-89425000D01*
X89525000Y-88825000D01*
X90025000Y-88825000D01*
X90025000Y-89425000D01*
G37*
G04 #@! TD.AperFunction*
G04 #@! TA.AperFunction,EtchedComponent*
G36*
X94300000Y-58450000D02*
G01*
X93800000Y-58450000D01*
X93800000Y-57850000D01*
X94300000Y-57850000D01*
X94300000Y-58450000D01*
G37*
G04 #@! TD.AperFunction*
D11*
X137800000Y-83200000D03*
D12*
X135600000Y-117480000D03*
D13*
X135600000Y-120020000D03*
X135600000Y-122560000D03*
X135600000Y-125100000D03*
D12*
X94700000Y-52000000D03*
D13*
X94700000Y-54540000D03*
D12*
X101040000Y-52000000D03*
D13*
X101040000Y-54540000D03*
X101040000Y-57080000D03*
D14*
X105700000Y-87380000D03*
D15*
X105700000Y-84840000D03*
X105700000Y-82300000D03*
X105700000Y-79760000D03*
D16*
X138450000Y-133600000D03*
D17*
X138450000Y-133600000D03*
D16*
X138450000Y-53600000D03*
D17*
X138450000Y-53600000D03*
D18*
X107100000Y-102204664D03*
X107100000Y-106504664D03*
X111900000Y-102204664D03*
X111900000Y-106504664D03*
D12*
X103580000Y-52000000D03*
D13*
X103580000Y-54540000D03*
X103580000Y-57080000D03*
D19*
X110144000Y-58090000D03*
D20*
X111160000Y-59868000D03*
X112176000Y-58090000D03*
X113192000Y-59868000D03*
X114208000Y-58090000D03*
X115224000Y-59868000D03*
X116240000Y-58090000D03*
X117256000Y-59868000D03*
D21*
X64687500Y-132650000D03*
D22*
X69687500Y-132650000D03*
D16*
X53450000Y-53600000D03*
D17*
X53450000Y-53600000D03*
D21*
X75850000Y-132650000D03*
D22*
X80850000Y-132650000D03*
X85850000Y-132650000D03*
X90850000Y-132650000D03*
X95850000Y-132650000D03*
X100850000Y-132650000D03*
D21*
X64600000Y-54300000D03*
D22*
X69600000Y-54300000D03*
X74600000Y-54300000D03*
X79600000Y-54300000D03*
X84600000Y-54300000D03*
D16*
X53450000Y-133600000D03*
D17*
X53450000Y-133600000D03*
D23*
X132400000Y-100695000D03*
X132400000Y-102095000D03*
X131700000Y-99995000D03*
X131700000Y-101395000D03*
X131700000Y-102795000D03*
X131000000Y-100695000D03*
X131000000Y-102095000D03*
X130300000Y-99995000D03*
X130300000Y-101395000D03*
X130300000Y-102795000D03*
X129600000Y-100695000D03*
X129600000Y-102095000D03*
D12*
X98500000Y-52000000D03*
D13*
X98500000Y-54540000D03*
X98500000Y-57080000D03*
D11*
X75900000Y-84930000D03*
D24*
X96075000Y-83650000D03*
X94775000Y-83650000D03*
X93475000Y-83650000D03*
D11*
X120710000Y-111272500D03*
X84900000Y-84930000D03*
X57900000Y-84930000D03*
D24*
X89125000Y-89125000D03*
X90425000Y-89125000D03*
X91725000Y-89125000D03*
D11*
X66900000Y-84930000D03*
D24*
X93400000Y-58150000D03*
X94700000Y-58150000D03*
D25*
X75500000Y-123400000D03*
X80800000Y-115800000D03*
X69400000Y-119900000D03*
X75300000Y-126900000D03*
X81400000Y-123900000D03*
X88400000Y-115200000D03*
X91300000Y-126800000D03*
X95600000Y-126800000D03*
X101300000Y-135000000D03*
X110100000Y-134700000D03*
X111700000Y-131100000D03*
X55200000Y-72300000D03*
X62700000Y-74800000D03*
X71700000Y-74800000D03*
X75800000Y-111800000D03*
X82300000Y-105500000D03*
X73300000Y-105600000D03*
X65200000Y-113000000D03*
X60100000Y-120800000D03*
X60400000Y-114700000D03*
D26*
X73600000Y-113300000D03*
X58400000Y-110600000D03*
D27*
X90400000Y-53900000D03*
X97800000Y-103200000D03*
X94500000Y-108500000D03*
X129275002Y-114825000D03*
X133100000Y-77400000D03*
X89125000Y-87050000D03*
X127700000Y-77000000D03*
X122800000Y-118600000D03*
X137500000Y-105300000D03*
X92600000Y-56100000D03*
X95100000Y-67000000D03*
X122825000Y-114825000D03*
X116850000Y-114075000D03*
D25*
X116800000Y-86800000D03*
X87000000Y-63700000D03*
X112200000Y-74600000D03*
X55500000Y-105700000D03*
X55400000Y-102700000D03*
X89200000Y-90700000D03*
X91400000Y-78800000D03*
X125800000Y-88200000D03*
X120700000Y-77900000D03*
X89600000Y-83900000D03*
X94900000Y-100300000D03*
X126900000Y-72100000D03*
X93200000Y-90500000D03*
X126000000Y-80700000D03*
X121700000Y-80300000D03*
X122500000Y-113475000D03*
X133200000Y-78800000D03*
X88400000Y-56800000D03*
X97200000Y-99000000D03*
X115600000Y-82900000D03*
X98900000Y-97400000D03*
D27*
X115051031Y-69892354D03*
X114200000Y-80867000D03*
X107400000Y-74700000D03*
D25*
X136150000Y-92375000D03*
X137700000Y-83200000D03*
D27*
X97100000Y-88800000D03*
X96100000Y-94000000D03*
X82827500Y-107802500D03*
D25*
X94699998Y-82400000D03*
X105000000Y-125750000D03*
X65275000Y-123935000D03*
X85000000Y-115675000D03*
X103225000Y-93825000D03*
X101750000Y-95750000D03*
X86000000Y-115675000D03*
X103850001Y-107849995D03*
X107400002Y-104300000D03*
X111500000Y-104400000D03*
X103200000Y-87900000D03*
X101400000Y-86000000D03*
X100400000Y-86400000D03*
X102400000Y-88700000D03*
X110521651Y-100621651D03*
X109900000Y-102400000D03*
X109600000Y-106154666D03*
X103750000Y-134250000D03*
X103200000Y-130100000D03*
X102000000Y-130200000D03*
X102850000Y-134300000D03*
X118075000Y-106950000D03*
X103475000Y-120900000D03*
X105800000Y-117550000D03*
X118750000Y-97250000D03*
X109879123Y-98373068D03*
X113825000Y-101075000D03*
X110100000Y-97600000D03*
X114700000Y-100300000D03*
X120710000Y-111272500D03*
X110300000Y-131450000D03*
X115161001Y-99641290D03*
X62825000Y-93025000D03*
X87300000Y-65200000D03*
X57900000Y-84930000D03*
X70575000Y-92400000D03*
X115690787Y-98971478D03*
X88699998Y-65200000D03*
X66900000Y-84930000D03*
X116354757Y-98400423D03*
X75900000Y-84930000D03*
X90012499Y-65212501D03*
X79925000Y-91650000D03*
X134900000Y-113400000D03*
X116875000Y-97725000D03*
X91725006Y-65200000D03*
X88025000Y-91025000D03*
X84900000Y-84930000D03*
X133600000Y-113400000D03*
X98600000Y-72200000D03*
X97600000Y-72200000D03*
X90600000Y-87500000D03*
X129000000Y-72300000D03*
X128000000Y-71000000D03*
X115100000Y-114700000D03*
X110750001Y-119049999D03*
X99600000Y-72200000D03*
X103200000Y-68600000D03*
X93421770Y-88847529D03*
X119000000Y-95910000D03*
X94227536Y-89130481D03*
X116300000Y-92200000D03*
X95075000Y-89025000D03*
X116850000Y-91450000D03*
D28*
X73600000Y-113300000D02*
X73100000Y-113300000D01*
X73100000Y-113300000D02*
X70400000Y-110600000D01*
X70400000Y-110600000D02*
X58400000Y-110600000D01*
D29*
X58000000Y-110600000D02*
X58400000Y-110600000D01*
X50400000Y-103000000D02*
X58000000Y-110600000D01*
D28*
X137475000Y-112525000D02*
X137475000Y-106625002D01*
X135600000Y-114400000D02*
X137475000Y-112525000D01*
X135600000Y-117480000D02*
X135600000Y-114400000D01*
D30*
X134250000Y-121210000D02*
X135600000Y-122560000D01*
X134250000Y-114050000D02*
X134250000Y-121210000D01*
X134900000Y-113400000D02*
X134250000Y-114050000D01*
X133600000Y-123100000D02*
X135600000Y-125100000D01*
X133600000Y-113400000D02*
X133600000Y-123100000D01*
D28*
X122825000Y-114825000D02*
X129275002Y-114825000D01*
X137475000Y-105349998D02*
X137475000Y-105325000D01*
X94500000Y-108500000D02*
X97800000Y-105200000D01*
X98100000Y-113900000D02*
X116675000Y-113900000D01*
X89125000Y-87050000D02*
X89125000Y-87500012D01*
X128099997Y-77400000D02*
X133100000Y-77400000D01*
X93475000Y-83650000D02*
X92525000Y-83650000D01*
X137475000Y-105325000D02*
X137500000Y-105300000D01*
X94500000Y-110300000D02*
X98100000Y-113900000D01*
X127725051Y-77025051D02*
X127700000Y-77000000D01*
X137475000Y-106625002D02*
X137475000Y-105349998D01*
X122825000Y-118550000D02*
X122825000Y-118575000D01*
X89125000Y-87500012D02*
X89125000Y-89125000D01*
X97800000Y-105200000D02*
X97800000Y-103200000D01*
X127725051Y-77025054D02*
X127725051Y-77025051D01*
X129275002Y-114825000D02*
X137475000Y-106625002D01*
X92600000Y-56100000D02*
X90400000Y-53900000D01*
X93475000Y-68625000D02*
X95100000Y-67000000D01*
X122825000Y-114825000D02*
X122825000Y-118550000D01*
X92525000Y-83650000D02*
X89125000Y-87050000D01*
X93475000Y-83650000D02*
X93475000Y-68625000D01*
X128099997Y-77400000D02*
X127725051Y-77025054D01*
X122825000Y-118575000D02*
X122800000Y-118600000D01*
X116675000Y-113900000D02*
X116850000Y-114075000D01*
X94500000Y-108500000D02*
X94500000Y-110300000D01*
X90400000Y-53899998D02*
X90400000Y-53900000D01*
X107400000Y-74700000D02*
X110175118Y-74700000D01*
X107400000Y-74700000D02*
X107400000Y-80600000D01*
X117102790Y-58090000D02*
X116240000Y-58090000D01*
X112767000Y-82300000D02*
X114200000Y-80867000D01*
X107400000Y-80600000D02*
X105700000Y-82300000D01*
X115026527Y-69848591D02*
X118404900Y-66470218D01*
X110175118Y-74700000D02*
X115026527Y-69848591D01*
X118404900Y-66470218D02*
X118404900Y-59392110D01*
X105700000Y-82300000D02*
X112767000Y-82300000D01*
X118404900Y-59392110D02*
X117102790Y-58090000D01*
D30*
X136150000Y-92375000D02*
X138700000Y-89825000D01*
X138700000Y-84200000D02*
X137700000Y-83200000D01*
X138700000Y-89825000D02*
X138700000Y-84200000D01*
D28*
X82827500Y-107272500D02*
X82827500Y-107802500D01*
X105700000Y-84840000D02*
X97265000Y-84840000D01*
X97265000Y-84840000D02*
X96075000Y-83650000D01*
X96100000Y-94000000D02*
X82827500Y-107272500D01*
X97265000Y-84840000D02*
X97265000Y-88635000D01*
D29*
X50400000Y-64250000D02*
X56500000Y-58150000D01*
X56500000Y-58150000D02*
X93400000Y-58150000D01*
D28*
X97265000Y-88635000D02*
X97100000Y-88800000D01*
D29*
X50400000Y-103000000D02*
X50400000Y-64250000D01*
D30*
X94699998Y-83574998D02*
X94775000Y-83650000D01*
X94699998Y-82400000D02*
X94699998Y-83574998D01*
X105000000Y-125750000D02*
X67090000Y-125750000D01*
X67090000Y-125750000D02*
X65275000Y-123935000D01*
X96200000Y-98800000D02*
X100625000Y-94375000D01*
X100625000Y-94375000D02*
X101175000Y-93825000D01*
X85000000Y-115675000D02*
X96200000Y-104475000D01*
X96200000Y-104475000D02*
X96200000Y-98800000D01*
X101175000Y-93825000D02*
X103225000Y-93825000D01*
X96775000Y-101400000D02*
X96775000Y-100725000D01*
X86000000Y-115675000D02*
X96775000Y-104900000D01*
X96775000Y-104900000D02*
X96775000Y-101400000D01*
X96775000Y-100725000D02*
X101750000Y-95750000D01*
X111500000Y-104400000D02*
X111500000Y-105103195D01*
X107400002Y-104300000D02*
X103850007Y-107849995D01*
X108753200Y-107849995D02*
X103850001Y-107849995D01*
X103850007Y-107849995D02*
X103850001Y-107849995D01*
X111500000Y-105103195D02*
X108753200Y-107849995D01*
X103200000Y-87900000D02*
X103200000Y-87800000D01*
X103200000Y-87800000D02*
X101400000Y-86000000D01*
X102400000Y-88400000D02*
X100400000Y-86400000D01*
X102400000Y-88700000D02*
X102400000Y-88400000D01*
X109900000Y-105400000D02*
X109900000Y-102400000D01*
X110521651Y-100621651D02*
X109900000Y-101243302D01*
X109900000Y-101243302D02*
X109900000Y-102400000D01*
X109600000Y-105700000D02*
X109900000Y-105400000D01*
X109600000Y-106154666D02*
X109600000Y-105700000D01*
X103250000Y-130150000D02*
X103250000Y-133750000D01*
X103250000Y-133750000D02*
X103750000Y-134250000D01*
X103200000Y-130100000D02*
X103250000Y-130150000D01*
X102000000Y-130200000D02*
X102850000Y-131050000D01*
X102850000Y-131050000D02*
X102850000Y-134300000D01*
X118750000Y-106275000D02*
X118075000Y-106950000D01*
X118750000Y-97250000D02*
X118750000Y-106275000D01*
X103475000Y-119875000D02*
X103475000Y-120900000D01*
X105800000Y-117550000D02*
X103475000Y-119875000D01*
X113825000Y-101075000D02*
X111123068Y-98373068D01*
X111123068Y-98373068D02*
X109879123Y-98373068D01*
X112000000Y-97600000D02*
X110100000Y-97600000D01*
X112000000Y-97600000D02*
X114700000Y-100300000D01*
X110300000Y-131450000D02*
X110300000Y-121682500D01*
X110300000Y-121682500D02*
X120710000Y-111272500D01*
X69120000Y-83380000D02*
X87300000Y-65200000D01*
X108544711Y-93025000D02*
X115161001Y-99641290D01*
X59450000Y-83380000D02*
X69120000Y-83380000D01*
X62825000Y-93025000D02*
X108544711Y-93025000D01*
X57900000Y-84930000D02*
X59450000Y-83380000D01*
X68969998Y-84930000D02*
X88699998Y-65200000D01*
X66900000Y-84930000D02*
X68969998Y-84930000D01*
X70575000Y-92400000D02*
X109119309Y-92400000D01*
X109119309Y-92400000D02*
X115690787Y-98971478D01*
X109954334Y-92000000D02*
X116354757Y-98400423D01*
X80275000Y-92000000D02*
X109954334Y-92000000D01*
X75900000Y-84930000D02*
X75900000Y-79325000D01*
X75900000Y-79325000D02*
X90012499Y-65212501D01*
X79925000Y-91650000D02*
X80275000Y-92000000D01*
X84900000Y-84930000D02*
X84900000Y-72025006D01*
X88025000Y-91025000D02*
X88600000Y-91600000D01*
X110750000Y-91600000D02*
X116875000Y-97725000D01*
X84900000Y-72025006D02*
X91725006Y-65200000D01*
X88600000Y-91600000D02*
X110750000Y-91600000D01*
D29*
X94700000Y-58150000D02*
X94700000Y-54540000D01*
X101040000Y-58710000D02*
X101040000Y-57080000D01*
X101040000Y-57080000D02*
X101040000Y-54540000D01*
X94700000Y-58150000D02*
X97250000Y-60700000D01*
X101040000Y-54540000D02*
X101040000Y-52000000D01*
X97250000Y-60700000D02*
X99050000Y-60700000D01*
X99050000Y-60700000D02*
X101040000Y-58710000D01*
D30*
X98600000Y-72200000D02*
X104730000Y-66070000D01*
X104730000Y-55690000D02*
X103580000Y-54540000D01*
X104730000Y-66070000D02*
X104730000Y-55690000D01*
X97600000Y-72200000D02*
X102430000Y-67370000D01*
X102430000Y-67370000D02*
X102430000Y-53150000D01*
X102430000Y-53150000D02*
X103580000Y-52000000D01*
X90600000Y-87500000D02*
X90600000Y-88950000D01*
X90600000Y-88950000D02*
X90425000Y-89125000D01*
X129000000Y-72300000D02*
X129000000Y-72000000D01*
X129000000Y-72000000D02*
X128000000Y-71000000D01*
X115100000Y-114700000D02*
X110750001Y-119049999D01*
X99600000Y-72200000D02*
X103200000Y-68600000D01*
X93421770Y-89249611D02*
X94672159Y-90500000D01*
X94672159Y-90500000D02*
X113590000Y-90500000D01*
X93421770Y-88847529D02*
X93421770Y-89249611D01*
X113590000Y-90500000D02*
X119000000Y-95910000D01*
X114200000Y-90100000D02*
X95150000Y-90100000D01*
X116300000Y-92200000D02*
X114200000Y-90100000D01*
X94227536Y-89177536D02*
X94227536Y-89130481D01*
X95150000Y-90100000D02*
X94227536Y-89177536D01*
X95100000Y-89025000D02*
X95075000Y-89025000D01*
X95650000Y-89575000D02*
X95100000Y-89025000D01*
X116850000Y-91450000D02*
X114975000Y-89575000D01*
X114975000Y-89575000D02*
X95650000Y-89575000D01*
G04 #@! TA.AperFunction,Conductor*
G36*
X50105703Y-134085000D02*
G01*
X50143477Y-134143778D01*
X50146867Y-134158652D01*
X50173517Y-134321214D01*
X50173519Y-134321222D01*
X50270695Y-134671220D01*
X50270697Y-134671227D01*
X50405152Y-135008684D01*
X50405161Y-135008702D01*
X50575316Y-135329647D01*
X50575318Y-135329651D01*
X50779170Y-135630309D01*
X50779177Y-135630319D01*
X50910969Y-135785475D01*
X50910970Y-135785475D01*
X52155748Y-134540698D01*
X52229588Y-134642330D01*
X52407670Y-134820412D01*
X52509300Y-134894251D01*
X51261888Y-136141662D01*
X51261888Y-136141664D01*
X51278070Y-136156992D01*
X51278071Y-136156993D01*
X51567266Y-136376832D01*
X51567282Y-136376843D01*
X51878522Y-136564109D01*
X51881501Y-136565689D01*
X51880755Y-136567094D01*
X51928608Y-136608962D01*
X51947971Y-136676095D01*
X51927964Y-136743040D01*
X51874941Y-136788540D01*
X51823972Y-136799500D01*
X50905413Y-136799500D01*
X50894605Y-136799028D01*
X50737246Y-136785260D01*
X50715961Y-136781507D01*
X50568630Y-136742030D01*
X50548318Y-136734637D01*
X50410084Y-136670177D01*
X50391366Y-136659370D01*
X50266417Y-136571880D01*
X50249859Y-136557986D01*
X50142013Y-136450140D01*
X50128119Y-136433582D01*
X50040629Y-136308633D01*
X50029822Y-136289915D01*
X49965362Y-136151681D01*
X49957969Y-136131369D01*
X49918492Y-135984038D01*
X49914739Y-135962752D01*
X49900972Y-135805393D01*
X49900500Y-135794586D01*
X49900500Y-134178713D01*
X49920185Y-134111674D01*
X49972989Y-134065919D01*
X50042147Y-134055975D01*
X50105703Y-134085000D01*
G37*
G04 #@! TD.AperFunction*
G04 #@! TA.AperFunction,Conductor*
G36*
X92573793Y-84729731D02*
G01*
X92609851Y-84752904D01*
X92610355Y-84752232D01*
X92732664Y-84843793D01*
X92732671Y-84843797D01*
X92867517Y-84894091D01*
X92867516Y-84894091D01*
X92874444Y-84894835D01*
X92927127Y-84900500D01*
X94022872Y-84900499D01*
X94082483Y-84894091D01*
X94082485Y-84894090D01*
X94082487Y-84894090D01*
X94090031Y-84892308D01*
X94090377Y-84893775D01*
X94151342Y-84889408D01*
X94166378Y-84893822D01*
X94167513Y-84894089D01*
X94167517Y-84894091D01*
X94227127Y-84900500D01*
X95322872Y-84900499D01*
X95382483Y-84894091D01*
X95382485Y-84894090D01*
X95382487Y-84894090D01*
X95390031Y-84892308D01*
X95390377Y-84893775D01*
X95451342Y-84889408D01*
X95466378Y-84893822D01*
X95467511Y-84894089D01*
X95467517Y-84894091D01*
X95527127Y-84900500D01*
X96248125Y-84900499D01*
X96315164Y-84920183D01*
X96335806Y-84936818D01*
X96503181Y-85104193D01*
X96536666Y-85165516D01*
X96539500Y-85191874D01*
X96539500Y-88103847D01*
X96519815Y-88170886D01*
X96507650Y-88186819D01*
X96408140Y-88297336D01*
X96318750Y-88452164D01*
X96318747Y-88452170D01*
X96263504Y-88622192D01*
X96263503Y-88622194D01*
X96255325Y-88700003D01*
X96244815Y-88800000D01*
X96248760Y-88837539D01*
X96236192Y-88906268D01*
X96188460Y-88957292D01*
X96125440Y-88974500D01*
X95985688Y-88974500D01*
X95918649Y-88954815D01*
X95872894Y-88902011D01*
X95862467Y-88864383D01*
X95860368Y-88845745D01*
X95800789Y-88675478D01*
X95796262Y-88668274D01*
X95761582Y-88613080D01*
X95704816Y-88522738D01*
X95577262Y-88395184D01*
X95497573Y-88345112D01*
X95424523Y-88299211D01*
X95254254Y-88239631D01*
X95254249Y-88239630D01*
X95075004Y-88219435D01*
X95074996Y-88219435D01*
X94895750Y-88239630D01*
X94895745Y-88239631D01*
X94725476Y-88299211D01*
X94615126Y-88368549D01*
X94547889Y-88387549D01*
X94508200Y-88380597D01*
X94406788Y-88345112D01*
X94227540Y-88324916D01*
X94227533Y-88324916D01*
X94110451Y-88338107D01*
X94041629Y-88326052D01*
X94008887Y-88302568D01*
X93924032Y-88217713D01*
X93771293Y-88121740D01*
X93601024Y-88062160D01*
X93601019Y-88062159D01*
X93421774Y-88041964D01*
X93421766Y-88041964D01*
X93242520Y-88062159D01*
X93242515Y-88062160D01*
X93072246Y-88121740D01*
X92919509Y-88217712D01*
X92896051Y-88241170D01*
X92834727Y-88274654D01*
X92765035Y-88269668D01*
X92709103Y-88227796D01*
X92692189Y-88196819D01*
X92668355Y-88132915D01*
X92668350Y-88132906D01*
X92582190Y-88017812D01*
X92582187Y-88017809D01*
X92467093Y-87931649D01*
X92467086Y-87931645D01*
X92332379Y-87881403D01*
X92332372Y-87881401D01*
X92272844Y-87875000D01*
X91975000Y-87875000D01*
X91975000Y-90375000D01*
X92272828Y-90375000D01*
X92272844Y-90374999D01*
X92332372Y-90368598D01*
X92332379Y-90368596D01*
X92467086Y-90318354D01*
X92467093Y-90318350D01*
X92582187Y-90232190D01*
X92582190Y-90232187D01*
X92668350Y-90117093D01*
X92668354Y-90117086D01*
X92718596Y-89982379D01*
X92718598Y-89982372D01*
X92724999Y-89922844D01*
X92725000Y-89922827D01*
X92725000Y-89701439D01*
X92744685Y-89634400D01*
X92797489Y-89588645D01*
X92866647Y-89578701D01*
X92930203Y-89607726D01*
X92936681Y-89613758D01*
X93060119Y-89737196D01*
X93060125Y-89737201D01*
X94110743Y-90787819D01*
X94144228Y-90849142D01*
X94139244Y-90918834D01*
X94097372Y-90974767D01*
X94031908Y-90999184D01*
X94023062Y-90999500D01*
X88938505Y-90999500D01*
X88871466Y-90979815D01*
X88825711Y-90927011D01*
X88815285Y-90889382D01*
X88810369Y-90845748D01*
X88750789Y-90675478D01*
X88681667Y-90565471D01*
X88662667Y-90498234D01*
X88683035Y-90431399D01*
X88736302Y-90386185D01*
X88786657Y-90375499D01*
X89672872Y-90375499D01*
X89732483Y-90369091D01*
X89732485Y-90369090D01*
X89732487Y-90369090D01*
X89740031Y-90367308D01*
X89740377Y-90368775D01*
X89801342Y-90364408D01*
X89816378Y-90368822D01*
X89817513Y-90369089D01*
X89817517Y-90369091D01*
X89877127Y-90375500D01*
X90972872Y-90375499D01*
X91032483Y-90369091D01*
X91032489Y-90369088D01*
X91040025Y-90367308D01*
X91040321Y-90368561D01*
X91102063Y-90364142D01*
X91115655Y-90368132D01*
X91117627Y-90368598D01*
X91177155Y-90374999D01*
X91177172Y-90375000D01*
X91475000Y-90375000D01*
X91475000Y-87875000D01*
X91468084Y-87868084D01*
X91424597Y-87855315D01*
X91378842Y-87802511D01*
X91368898Y-87733353D01*
X91374595Y-87710045D01*
X91385366Y-87679262D01*
X91385369Y-87679249D01*
X91405565Y-87500003D01*
X91405565Y-87499996D01*
X91385369Y-87320750D01*
X91385368Y-87320745D01*
X91353860Y-87230700D01*
X91325789Y-87150478D01*
X91303265Y-87114632D01*
X91229815Y-86997737D01*
X91102262Y-86870184D01*
X90949523Y-86774211D01*
X90779252Y-86714631D01*
X90771903Y-86713803D01*
X90707490Y-86686735D01*
X90667936Y-86629139D01*
X90665799Y-86559302D01*
X90698106Y-86502904D01*
X92442780Y-84758230D01*
X92504101Y-84724747D01*
X92573793Y-84729731D01*
G37*
G04 #@! TD.AperFunction*
G04 #@! TA.AperFunction,Conductor*
G36*
X136891011Y-50420185D02*
G01*
X136936766Y-50472989D01*
X136946710Y-50542147D01*
X136917685Y-50605703D01*
X136880975Y-50633320D01*
X136881501Y-50634311D01*
X136878522Y-50635890D01*
X136567282Y-50823156D01*
X136567266Y-50823167D01*
X136278075Y-51043002D01*
X136261888Y-51058335D01*
X136261887Y-51058335D01*
X137509301Y-52305748D01*
X137407670Y-52379588D01*
X137229588Y-52557670D01*
X137155748Y-52659300D01*
X135910970Y-51414522D01*
X135910969Y-51414523D01*
X135779177Y-51569680D01*
X135779170Y-51569690D01*
X135575318Y-51870348D01*
X135575316Y-51870352D01*
X135405161Y-52191297D01*
X135405152Y-52191315D01*
X135270697Y-52528772D01*
X135270695Y-52528779D01*
X135173519Y-52878777D01*
X135173517Y-52878785D01*
X135114746Y-53237271D01*
X135095080Y-53599997D01*
X135095080Y-53600002D01*
X135114746Y-53962728D01*
X135173517Y-54321214D01*
X135173519Y-54321222D01*
X135270695Y-54671220D01*
X135270697Y-54671227D01*
X135405152Y-55008684D01*
X135405161Y-55008702D01*
X135575316Y-55329647D01*
X135575318Y-55329651D01*
X135779170Y-55630309D01*
X135779177Y-55630319D01*
X135910969Y-55785475D01*
X135910970Y-55785475D01*
X137155748Y-54540698D01*
X137229588Y-54642330D01*
X137407670Y-54820412D01*
X137509300Y-54894251D01*
X136261888Y-56141662D01*
X136261888Y-56141664D01*
X136278070Y-56156992D01*
X136278071Y-56156993D01*
X136567266Y-56376832D01*
X136567282Y-56376843D01*
X136878522Y-56564109D01*
X136878535Y-56564116D01*
X137208205Y-56716639D01*
X137208210Y-56716640D01*
X137552461Y-56832632D01*
X137907235Y-56910724D01*
X138268366Y-56949999D01*
X138268374Y-56950000D01*
X138631626Y-56950000D01*
X138631633Y-56949999D01*
X138992764Y-56910724D01*
X139347538Y-56832632D01*
X139691789Y-56716640D01*
X139691794Y-56716639D01*
X140021464Y-56564116D01*
X140021477Y-56564109D01*
X140332717Y-56376843D01*
X140332733Y-56376832D01*
X140621929Y-56156992D01*
X140638110Y-56141664D01*
X140638110Y-56141663D01*
X139390698Y-54894251D01*
X139492330Y-54820412D01*
X139670412Y-54642330D01*
X139744251Y-54540698D01*
X140989028Y-55785475D01*
X140989029Y-55785475D01*
X141120827Y-55630311D01*
X141120838Y-55630297D01*
X141324681Y-55329651D01*
X141324683Y-55329647D01*
X141494838Y-55008702D01*
X141494847Y-55008684D01*
X141629302Y-54671227D01*
X141629304Y-54671220D01*
X141726480Y-54321222D01*
X141726482Y-54321214D01*
X141753133Y-54158652D01*
X141783404Y-54095681D01*
X141842915Y-54059071D01*
X141912771Y-54060447D01*
X141970794Y-54099372D01*
X141998562Y-54163486D01*
X141999500Y-54178713D01*
X141999500Y-133021286D01*
X141979815Y-133088325D01*
X141927011Y-133134080D01*
X141857853Y-133144024D01*
X141794297Y-133114999D01*
X141756523Y-133056221D01*
X141753133Y-133041347D01*
X141726482Y-132878785D01*
X141726480Y-132878777D01*
X141629304Y-132528779D01*
X141629302Y-132528772D01*
X141494847Y-132191315D01*
X141494838Y-132191297D01*
X141324683Y-131870352D01*
X141324681Y-131870348D01*
X141120829Y-131569690D01*
X141120822Y-131569680D01*
X140989029Y-131414523D01*
X140989028Y-131414523D01*
X139744251Y-132659300D01*
X139670412Y-132557670D01*
X139492330Y-132379588D01*
X139390698Y-132305748D01*
X140638110Y-131058336D01*
X140638110Y-131058334D01*
X140621929Y-131043007D01*
X140621928Y-131043006D01*
X140332733Y-130823167D01*
X140332717Y-130823156D01*
X140021477Y-130635890D01*
X140021464Y-130635883D01*
X139691794Y-130483360D01*
X139691789Y-130483359D01*
X139347538Y-130367367D01*
X138992764Y-130289275D01*
X138631633Y-130250000D01*
X138268366Y-130250000D01*
X137907235Y-130289275D01*
X137552461Y-130367367D01*
X137208210Y-130483359D01*
X137208205Y-130483360D01*
X136878535Y-130635883D01*
X136878522Y-130635890D01*
X136567282Y-130823156D01*
X136567266Y-130823167D01*
X136278075Y-131043002D01*
X136261888Y-131058335D01*
X136261887Y-131058335D01*
X137509301Y-132305748D01*
X137407670Y-132379588D01*
X137229588Y-132557670D01*
X137155748Y-132659300D01*
X135910970Y-131414522D01*
X135910969Y-131414523D01*
X135779177Y-131569680D01*
X135779170Y-131569690D01*
X135575318Y-131870348D01*
X135575316Y-131870352D01*
X135405161Y-132191297D01*
X135405152Y-132191315D01*
X135270697Y-132528772D01*
X135270695Y-132528779D01*
X135173519Y-132878777D01*
X135173517Y-132878785D01*
X135114746Y-133237271D01*
X135095080Y-133599997D01*
X135095080Y-133600002D01*
X135114746Y-133962728D01*
X135173517Y-134321214D01*
X135173519Y-134321222D01*
X135270695Y-134671220D01*
X135270697Y-134671227D01*
X135405152Y-135008684D01*
X135405161Y-135008702D01*
X135575316Y-135329647D01*
X135575318Y-135329651D01*
X135779170Y-135630309D01*
X135779177Y-135630319D01*
X135910969Y-135785475D01*
X135910970Y-135785475D01*
X137155748Y-134540698D01*
X137229588Y-134642330D01*
X137407670Y-134820412D01*
X137509300Y-134894251D01*
X136261888Y-136141662D01*
X136261888Y-136141664D01*
X136278070Y-136156992D01*
X136278071Y-136156993D01*
X136567266Y-136376832D01*
X136567282Y-136376843D01*
X136878522Y-136564109D01*
X136881501Y-136565689D01*
X136880755Y-136567094D01*
X136928608Y-136608962D01*
X136947971Y-136676095D01*
X136927964Y-136743040D01*
X136874941Y-136788540D01*
X136823972Y-136799500D01*
X55076028Y-136799500D01*
X55008989Y-136779815D01*
X54963234Y-136727011D01*
X54953290Y-136657853D01*
X54982315Y-136594297D01*
X55019024Y-136566679D01*
X55018499Y-136565689D01*
X55021477Y-136564109D01*
X55332717Y-136376843D01*
X55332733Y-136376832D01*
X55621929Y-136156992D01*
X55638110Y-136141664D01*
X55638110Y-136141663D01*
X54390698Y-134894251D01*
X54492330Y-134820412D01*
X54670412Y-134642330D01*
X54744251Y-134540698D01*
X55989028Y-135785475D01*
X55989029Y-135785475D01*
X56120827Y-135630311D01*
X56120838Y-135630297D01*
X56324681Y-135329651D01*
X56324683Y-135329647D01*
X56494838Y-135008702D01*
X56494847Y-135008684D01*
X56629302Y-134671227D01*
X56629304Y-134671220D01*
X56726480Y-134321222D01*
X56726482Y-134321214D01*
X56785253Y-133962728D01*
X56804920Y-133600002D01*
X56804920Y-133599997D01*
X56785253Y-133237271D01*
X56726482Y-132878785D01*
X56726480Y-132878777D01*
X56629304Y-132528779D01*
X56629302Y-132528772D01*
X56494847Y-132191315D01*
X56494838Y-132191297D01*
X56324683Y-131870352D01*
X56324681Y-131870348D01*
X56210643Y-131702155D01*
X63287500Y-131702155D01*
X63287500Y-132400000D01*
X64139018Y-132400000D01*
X64128389Y-132418409D01*
X64087500Y-132571009D01*
X64087500Y-132728991D01*
X64128389Y-132881591D01*
X64139018Y-132900000D01*
X63287500Y-132900000D01*
X63287500Y-133597844D01*
X63293901Y-133657372D01*
X63293903Y-133657379D01*
X63344145Y-133792086D01*
X63344149Y-133792093D01*
X63430309Y-133907187D01*
X63430312Y-133907190D01*
X63545406Y-133993350D01*
X63545413Y-133993354D01*
X63680120Y-134043596D01*
X63680127Y-134043598D01*
X63739655Y-134049999D01*
X63739672Y-134050000D01*
X64437500Y-134050000D01*
X64437500Y-133198482D01*
X64455909Y-133209111D01*
X64608509Y-133250000D01*
X64766491Y-133250000D01*
X64919091Y-133209111D01*
X64937500Y-133198482D01*
X64937500Y-134050000D01*
X65635328Y-134050000D01*
X65635344Y-134049999D01*
X65694872Y-134043598D01*
X65694879Y-134043596D01*
X65829586Y-133993354D01*
X65829593Y-133993350D01*
X65944687Y-133907190D01*
X65944690Y-133907187D01*
X66030850Y-133792093D01*
X66030854Y-133792086D01*
X66081096Y-133657379D01*
X66081098Y-133657372D01*
X66087499Y-133597844D01*
X66087500Y-133597827D01*
X66087500Y-132900000D01*
X65235982Y-132900000D01*
X65246611Y-132881591D01*
X65287500Y-132728991D01*
X65287500Y-132649993D01*
X68282200Y-132649993D01*
X68282200Y-132650006D01*
X68301364Y-132881297D01*
X68301366Y-132881308D01*
X68358342Y-133106300D01*
X68451575Y-133318848D01*
X68578516Y-133513147D01*
X68578519Y-133513151D01*
X68578521Y-133513153D01*
X68735716Y-133683913D01*
X68735719Y-133683915D01*
X68735722Y-133683918D01*
X68918865Y-133826464D01*
X68918871Y-133826468D01*
X68918874Y-133826470D01*
X69122997Y-133936936D01*
X69171401Y-133953553D01*
X69342515Y-134012297D01*
X69342517Y-134012297D01*
X69342519Y-134012298D01*
X69571451Y-134050500D01*
X69571452Y-134050500D01*
X69803548Y-134050500D01*
X69803549Y-134050500D01*
X70032481Y-134012298D01*
X70252003Y-133936936D01*
X70456126Y-133826470D01*
X70496693Y-133794896D01*
X70557281Y-133747738D01*
X70639284Y-133683913D01*
X70796479Y-133513153D01*
X70923424Y-133318849D01*
X71016657Y-133106300D01*
X71073634Y-132881305D01*
X71073843Y-132878785D01*
X71092800Y-132650006D01*
X71092800Y-132649993D01*
X71073635Y-132418702D01*
X71073633Y-132418691D01*
X71016657Y-132193699D01*
X70923424Y-131981151D01*
X70796483Y-131786852D01*
X70796480Y-131786849D01*
X70796479Y-131786847D01*
X70718496Y-131702135D01*
X74449500Y-131702135D01*
X74449500Y-133597870D01*
X74449501Y-133597876D01*
X74455908Y-133657483D01*
X74506202Y-133792328D01*
X74506206Y-133792335D01*
X74592452Y-133907544D01*
X74592455Y-133907547D01*
X74707664Y-133993793D01*
X74707671Y-133993797D01*
X74842517Y-134044091D01*
X74842516Y-134044091D01*
X74849444Y-134044835D01*
X74902127Y-134050500D01*
X76797872Y-134050499D01*
X76857483Y-134044091D01*
X76992331Y-133993796D01*
X77107546Y-133907546D01*
X77193796Y-133792331D01*
X77244091Y-133657483D01*
X77250500Y-133597873D01*
X77250499Y-132649993D01*
X79444700Y-132649993D01*
X79444700Y-132650006D01*
X79463864Y-132881297D01*
X79463866Y-132881308D01*
X79520842Y-133106300D01*
X79614075Y-133318848D01*
X79741016Y-133513147D01*
X79741019Y-133513151D01*
X79741021Y-133513153D01*
X79898216Y-133683913D01*
X79898219Y-133683915D01*
X79898222Y-133683918D01*
X80081365Y-133826464D01*
X80081371Y-133826468D01*
X80081374Y-133826470D01*
X80285497Y-133936936D01*
X80333901Y-133953553D01*
X80505015Y-134012297D01*
X80505017Y-134012297D01*
X80505019Y-134012298D01*
X80733951Y-134050500D01*
X80733952Y-134050500D01*
X80966048Y-134050500D01*
X80966049Y-134050500D01*
X81194981Y-134012298D01*
X81414503Y-133936936D01*
X81618626Y-133826470D01*
X81659193Y-133794896D01*
X81719781Y-133747738D01*
X81801784Y-133683913D01*
X81958979Y-133513153D01*
X82085924Y-133318849D01*
X82179157Y-133106300D01*
X82236134Y-132881305D01*
X82236343Y-132878785D01*
X82255300Y-132650006D01*
X82255300Y-132649993D01*
X84444700Y-132649993D01*
X84444700Y-132650006D01*
X84463864Y-132881297D01*
X84463866Y-132881308D01*
X84520842Y-133106300D01*
X84614075Y-133318848D01*
X84741016Y-133513147D01*
X84741019Y-133513151D01*
X84741021Y-133513153D01*
X84898216Y-133683913D01*
X84898219Y-133683915D01*
X84898222Y-133683918D01*
X85081365Y-133826464D01*
X85081371Y-133826468D01*
X85081374Y-133826470D01*
X85285497Y-133936936D01*
X85333901Y-133953553D01*
X85505015Y-134012297D01*
X85505017Y-134012297D01*
X85505019Y-134012298D01*
X85733951Y-134050500D01*
X85733952Y-134050500D01*
X85966048Y-134050500D01*
X85966049Y-134050500D01*
X86194981Y-134012298D01*
X86414503Y-133936936D01*
X86618626Y-133826470D01*
X86659193Y-133794896D01*
X86719781Y-133747738D01*
X86801784Y-133683913D01*
X86958979Y-133513153D01*
X87085924Y-133318849D01*
X87179157Y-133106300D01*
X87236134Y-132881305D01*
X87236343Y-132878785D01*
X87255300Y-132650006D01*
X87255300Y-132649993D01*
X89444700Y-132649993D01*
X89444700Y-132650006D01*
X89463864Y-132881297D01*
X89463866Y-132881308D01*
X89520842Y-133106300D01*
X89614075Y-133318848D01*
X89741016Y-133513147D01*
X89741019Y-133513151D01*
X89741021Y-133513153D01*
X89898216Y-133683913D01*
X89898219Y-133683915D01*
X89898222Y-133683918D01*
X90081365Y-133826464D01*
X90081371Y-133826468D01*
X90081374Y-133826470D01*
X90285497Y-133936936D01*
X90333901Y-133953553D01*
X90505015Y-134012297D01*
X90505017Y-134012297D01*
X90505019Y-134012298D01*
X90733951Y-134050500D01*
X90733952Y-134050500D01*
X90966048Y-134050500D01*
X90966049Y-134050500D01*
X91194981Y-134012298D01*
X91414503Y-133936936D01*
X91618626Y-133826470D01*
X91659193Y-133794896D01*
X91719781Y-133747738D01*
X91801784Y-133683913D01*
X91958979Y-133513153D01*
X92085924Y-133318849D01*
X92179157Y-133106300D01*
X92236134Y-132881305D01*
X92236343Y-132878785D01*
X92255300Y-132650006D01*
X92255300Y-132649993D01*
X94444700Y-132649993D01*
X94444700Y-132650006D01*
X94463864Y-132881297D01*
X94463866Y-132881308D01*
X94520842Y-133106300D01*
X94614075Y-133318848D01*
X94741016Y-133513147D01*
X94741019Y-133513151D01*
X94741021Y-133513153D01*
X94898216Y-133683913D01*
X94898219Y-133683915D01*
X94898222Y-133683918D01*
X95081365Y-133826464D01*
X95081371Y-133826468D01*
X95081374Y-133826470D01*
X95285497Y-133936936D01*
X95333901Y-133953553D01*
X95505015Y-134012297D01*
X95505017Y-134012297D01*
X95505019Y-134012298D01*
X95733951Y-134050500D01*
X95733952Y-134050500D01*
X95966048Y-134050500D01*
X95966049Y-134050500D01*
X96194981Y-134012298D01*
X96414503Y-133936936D01*
X96618626Y-133826470D01*
X96659193Y-133794896D01*
X96719781Y-133747738D01*
X96801784Y-133683913D01*
X96958979Y-133513153D01*
X97085924Y-133318849D01*
X97179157Y-133106300D01*
X97236134Y-132881305D01*
X97236343Y-132878785D01*
X97255300Y-132650006D01*
X97255300Y-132649993D01*
X99444700Y-132649993D01*
X99444700Y-132650006D01*
X99463864Y-132881297D01*
X99463866Y-132881308D01*
X99520842Y-133106300D01*
X99614075Y-133318848D01*
X99741016Y-133513147D01*
X99741019Y-133513151D01*
X99741021Y-133513153D01*
X99898216Y-133683913D01*
X99898219Y-133683915D01*
X99898222Y-133683918D01*
X100081365Y-133826464D01*
X100081371Y-133826468D01*
X100081374Y-133826470D01*
X100285497Y-133936936D01*
X100333901Y-133953553D01*
X100505015Y-134012297D01*
X100505017Y-134012297D01*
X100505019Y-134012298D01*
X100733951Y-134050500D01*
X100733952Y-134050500D01*
X100966048Y-134050500D01*
X100966049Y-134050500D01*
X101194981Y-134012298D01*
X101414503Y-133936936D01*
X101618626Y-133826470D01*
X101659193Y-133794896D01*
X101719781Y-133747738D01*
X101801784Y-133683913D01*
X101958979Y-133513153D01*
X102021691Y-133417164D01*
X102074837Y-133371808D01*
X102144069Y-133362384D01*
X102207404Y-133391886D01*
X102244736Y-133450946D01*
X102249500Y-133484986D01*
X102249500Y-133717587D01*
X102229815Y-133784626D01*
X102222450Y-133794896D01*
X102220186Y-133797734D01*
X102124211Y-133950476D01*
X102064631Y-134120745D01*
X102064630Y-134120750D01*
X102044435Y-134299996D01*
X102044435Y-134300003D01*
X102064630Y-134479249D01*
X102064631Y-134479254D01*
X102124211Y-134649523D01*
X102137849Y-134671227D01*
X102220184Y-134802262D01*
X102347738Y-134929816D01*
X102416097Y-134972769D01*
X102473255Y-135008684D01*
X102500478Y-135025789D01*
X102585573Y-135055565D01*
X102670745Y-135085368D01*
X102670750Y-135085369D01*
X102849996Y-135105565D01*
X102850000Y-135105565D01*
X102850004Y-135105565D01*
X103029249Y-135085369D01*
X103029252Y-135085368D01*
X103029255Y-135085368D01*
X103199522Y-135025789D01*
X103273814Y-134979107D01*
X103341049Y-134960107D01*
X103392962Y-134975348D01*
X103394205Y-134972769D01*
X103400470Y-134975786D01*
X103400477Y-134975788D01*
X103400478Y-134975789D01*
X103494487Y-135008684D01*
X103570745Y-135035368D01*
X103570750Y-135035369D01*
X103749996Y-135055565D01*
X103750000Y-135055565D01*
X103750004Y-135055565D01*
X103929249Y-135035369D01*
X103929252Y-135035368D01*
X103929255Y-135035368D01*
X104099522Y-134975789D01*
X104252262Y-134879816D01*
X104379816Y-134752262D01*
X104475789Y-134599522D01*
X104535368Y-134429255D01*
X104535369Y-134429249D01*
X104555565Y-134250003D01*
X104555565Y-134249996D01*
X104535369Y-134070750D01*
X104535368Y-134070745D01*
X104525868Y-134043596D01*
X104475789Y-133900478D01*
X104379816Y-133747738D01*
X104252262Y-133620184D01*
X104220143Y-133600002D01*
X104099521Y-133524210D01*
X103987423Y-133484986D01*
X103933544Y-133466132D01*
X103876770Y-133425412D01*
X103851022Y-133360460D01*
X103850500Y-133349092D01*
X103850500Y-132378145D01*
X118120500Y-132378145D01*
X118120500Y-132521854D01*
X118148531Y-132662779D01*
X118148534Y-132662788D01*
X118203521Y-132795541D01*
X118203528Y-132795554D01*
X118283359Y-132915028D01*
X118283362Y-132915032D01*
X118384967Y-133016637D01*
X118384971Y-133016640D01*
X118504445Y-133096471D01*
X118504458Y-133096478D01*
X118549173Y-133114999D01*
X118637213Y-133151466D01*
X118637215Y-133151466D01*
X118637220Y-133151468D01*
X118778145Y-133179499D01*
X118778149Y-133179500D01*
X118778150Y-133179500D01*
X118921851Y-133179500D01*
X118921852Y-133179499D01*
X118968829Y-133170155D01*
X119062779Y-133151468D01*
X119062782Y-133151466D01*
X119062787Y-133151466D01*
X119195548Y-133096475D01*
X119315029Y-133016640D01*
X119416640Y-132915029D01*
X119496475Y-132795548D01*
X119551466Y-132662787D01*
X119554009Y-132650006D01*
X119579499Y-132521854D01*
X119579500Y-132521851D01*
X119579500Y-132378149D01*
X119579499Y-132378145D01*
X124920500Y-132378145D01*
X124920500Y-132521854D01*
X124948531Y-132662779D01*
X124948534Y-132662788D01*
X125003521Y-132795541D01*
X125003528Y-132795554D01*
X125083359Y-132915028D01*
X125083362Y-132915032D01*
X125184967Y-133016637D01*
X125184971Y-133016640D01*
X125304445Y-133096471D01*
X125304458Y-133096478D01*
X125349173Y-133114999D01*
X125437213Y-133151466D01*
X125437215Y-133151466D01*
X125437220Y-133151468D01*
X125578145Y-133179499D01*
X125578149Y-133179500D01*
X125578150Y-133179500D01*
X125721851Y-133179500D01*
X125721852Y-133179499D01*
X125768829Y-133170155D01*
X125862779Y-133151468D01*
X125862782Y-133151466D01*
X125862787Y-133151466D01*
X125995548Y-133096475D01*
X126115029Y-133016640D01*
X126216640Y-132915029D01*
X126296475Y-132795548D01*
X126351466Y-132662787D01*
X126354009Y-132650006D01*
X126379499Y-132521854D01*
X126379500Y-132521851D01*
X126379500Y-132378149D01*
X126379499Y-132378145D01*
X126351468Y-132237220D01*
X126351465Y-132237211D01*
X126296478Y-132104458D01*
X126296471Y-132104445D01*
X126216640Y-131984971D01*
X126216637Y-131984967D01*
X126115032Y-131883362D01*
X126115028Y-131883359D01*
X125995554Y-131803528D01*
X125995541Y-131803521D01*
X125862788Y-131748534D01*
X125862779Y-131748531D01*
X125721854Y-131720500D01*
X125721850Y-131720500D01*
X125578150Y-131720500D01*
X125578145Y-131720500D01*
X125437220Y-131748531D01*
X125437211Y-131748534D01*
X125304458Y-131803521D01*
X125304445Y-131803528D01*
X125184971Y-131883359D01*
X125184967Y-131883362D01*
X125083362Y-131984967D01*
X125083359Y-131984971D01*
X125003528Y-132104445D01*
X125003521Y-132104458D01*
X124948534Y-132237211D01*
X124948531Y-132237220D01*
X124920500Y-132378145D01*
X119579499Y-132378145D01*
X119551468Y-132237220D01*
X119551465Y-132237211D01*
X119496478Y-132104458D01*
X119496471Y-132104445D01*
X119416640Y-131984971D01*
X119416637Y-131984967D01*
X119315032Y-131883362D01*
X119315028Y-131883359D01*
X119195554Y-131803528D01*
X119195541Y-131803521D01*
X119062788Y-131748534D01*
X119062779Y-131748531D01*
X118921854Y-131720500D01*
X118921850Y-131720500D01*
X118778150Y-131720500D01*
X118778145Y-131720500D01*
X118637220Y-131748531D01*
X118637211Y-131748534D01*
X118504458Y-131803521D01*
X118504445Y-131803528D01*
X118384971Y-131883359D01*
X118384967Y-131883362D01*
X118283362Y-131984967D01*
X118283359Y-131984971D01*
X118203528Y-132104445D01*
X118203521Y-132104458D01*
X118148534Y-132237211D01*
X118148531Y-132237220D01*
X118120500Y-132378145D01*
X103850500Y-132378145D01*
X103850500Y-130605067D01*
X103869507Y-130539094D01*
X103925788Y-130449524D01*
X103950377Y-130379254D01*
X103985368Y-130279255D01*
X103985369Y-130279249D01*
X104005565Y-130100003D01*
X104005565Y-130099996D01*
X103985369Y-129920750D01*
X103985368Y-129920745D01*
X103925789Y-129750478D01*
X103829816Y-129597738D01*
X103702262Y-129470184D01*
X103613852Y-129414632D01*
X103549523Y-129374211D01*
X103379254Y-129314631D01*
X103379249Y-129314630D01*
X103200004Y-129294435D01*
X103199996Y-129294435D01*
X103020750Y-129314630D01*
X103020745Y-129314631D01*
X102850476Y-129374211D01*
X102697739Y-129470183D01*
X102630819Y-129537103D01*
X102569495Y-129570587D01*
X102499804Y-129565602D01*
X102477166Y-129554415D01*
X102349523Y-129474211D01*
X102179254Y-129414631D01*
X102179249Y-129414630D01*
X102000004Y-129394435D01*
X101999996Y-129394435D01*
X101820750Y-129414630D01*
X101820745Y-129414631D01*
X101650476Y-129474211D01*
X101497737Y-129570184D01*
X101370184Y-129697737D01*
X101274211Y-129850476D01*
X101214631Y-130020745D01*
X101214630Y-130020750D01*
X101194435Y-130199996D01*
X101194435Y-130200003D01*
X101214630Y-130379249D01*
X101214631Y-130379254D01*
X101274211Y-130549523D01*
X101370184Y-130702262D01*
X101497738Y-130829816D01*
X101650478Y-130925789D01*
X101820745Y-130985368D01*
X101907669Y-130995161D01*
X101972080Y-131022226D01*
X101981465Y-131030700D01*
X102213181Y-131262416D01*
X102246666Y-131323739D01*
X102249500Y-131350097D01*
X102249500Y-131815013D01*
X102229815Y-131882052D01*
X102177011Y-131927807D01*
X102107853Y-131937751D01*
X102044297Y-131908726D01*
X102021691Y-131882835D01*
X101958981Y-131786850D01*
X101958980Y-131786849D01*
X101958979Y-131786847D01*
X101801784Y-131616087D01*
X101801779Y-131616083D01*
X101801777Y-131616081D01*
X101618634Y-131473535D01*
X101618628Y-131473531D01*
X101414504Y-131363064D01*
X101414495Y-131363061D01*
X101194984Y-131287702D01*
X101004450Y-131255908D01*
X100966049Y-131249500D01*
X100733951Y-131249500D01*
X100695550Y-131255908D01*
X100505015Y-131287702D01*
X100285504Y-131363061D01*
X100285495Y-131363064D01*
X100081371Y-131473531D01*
X100081365Y-131473535D01*
X99898222Y-131616081D01*
X99898219Y-131616084D01*
X99898216Y-131616086D01*
X99898216Y-131616087D01*
X99873886Y-131642517D01*
X99741016Y-131786852D01*
X99614075Y-131981151D01*
X99520842Y-132193699D01*
X99463866Y-132418691D01*
X99463864Y-132418702D01*
X99444700Y-132649993D01*
X97255300Y-132649993D01*
X97236135Y-132418702D01*
X97236133Y-132418691D01*
X97179157Y-132193699D01*
X97085924Y-131981151D01*
X96958983Y-131786852D01*
X96958980Y-131786849D01*
X96958979Y-131786847D01*
X96801784Y-131616087D01*
X96801779Y-131616083D01*
X96801777Y-131616081D01*
X96618634Y-131473535D01*
X96618628Y-131473531D01*
X96414504Y-131363064D01*
X96414495Y-131363061D01*
X96194984Y-131287702D01*
X96004450Y-131255908D01*
X95966049Y-131249500D01*
X95733951Y-131249500D01*
X95695550Y-131255908D01*
X95505015Y-131287702D01*
X95285504Y-131363061D01*
X95285495Y-131363064D01*
X95081371Y-131473531D01*
X95081365Y-131473535D01*
X94898222Y-131616081D01*
X94898219Y-131616084D01*
X94898216Y-131616086D01*
X94898216Y-131616087D01*
X94873886Y-131642517D01*
X94741016Y-131786852D01*
X94614075Y-131981151D01*
X94520842Y-132193699D01*
X94463866Y-132418691D01*
X94463864Y-132418702D01*
X94444700Y-132649993D01*
X92255300Y-132649993D01*
X92236135Y-132418702D01*
X92236133Y-132418691D01*
X92179157Y-132193699D01*
X92085924Y-131981151D01*
X91958983Y-131786852D01*
X91958980Y-131786849D01*
X91958979Y-131786847D01*
X91801784Y-131616087D01*
X91801779Y-131616083D01*
X91801777Y-131616081D01*
X91618634Y-131473535D01*
X91618628Y-131473531D01*
X91414504Y-131363064D01*
X91414495Y-131363061D01*
X91194984Y-131287702D01*
X91004450Y-131255908D01*
X90966049Y-131249500D01*
X90733951Y-131249500D01*
X90695550Y-131255908D01*
X90505015Y-131287702D01*
X90285504Y-131363061D01*
X90285495Y-131363064D01*
X90081371Y-131473531D01*
X90081365Y-131473535D01*
X89898222Y-131616081D01*
X89898219Y-131616084D01*
X89898216Y-131616086D01*
X89898216Y-131616087D01*
X89873886Y-131642517D01*
X89741016Y-131786852D01*
X89614075Y-131981151D01*
X89520842Y-132193699D01*
X89463866Y-132418691D01*
X89463864Y-132418702D01*
X89444700Y-132649993D01*
X87255300Y-132649993D01*
X87236135Y-132418702D01*
X87236133Y-132418691D01*
X87179157Y-132193699D01*
X87085924Y-131981151D01*
X86958983Y-131786852D01*
X86958980Y-131786849D01*
X86958979Y-131786847D01*
X86801784Y-131616087D01*
X86801779Y-131616083D01*
X86801777Y-131616081D01*
X86618634Y-131473535D01*
X86618628Y-131473531D01*
X86414504Y-131363064D01*
X86414495Y-131363061D01*
X86194984Y-131287702D01*
X86004450Y-131255908D01*
X85966049Y-131249500D01*
X85733951Y-131249500D01*
X85695550Y-131255908D01*
X85505015Y-131287702D01*
X85285504Y-131363061D01*
X85285495Y-131363064D01*
X85081371Y-131473531D01*
X85081365Y-131473535D01*
X84898222Y-131616081D01*
X84898219Y-131616084D01*
X84898216Y-131616086D01*
X84898216Y-131616087D01*
X84873886Y-131642517D01*
X84741016Y-131786852D01*
X84614075Y-131981151D01*
X84520842Y-132193699D01*
X84463866Y-132418691D01*
X84463864Y-132418702D01*
X84444700Y-132649993D01*
X82255300Y-132649993D01*
X82236135Y-132418702D01*
X82236133Y-132418691D01*
X82179157Y-132193699D01*
X82085924Y-131981151D01*
X81958983Y-131786852D01*
X81958980Y-131786849D01*
X81958979Y-131786847D01*
X81801784Y-131616087D01*
X81801779Y-131616083D01*
X81801777Y-131616081D01*
X81618634Y-131473535D01*
X81618628Y-131473531D01*
X81414504Y-131363064D01*
X81414495Y-131363061D01*
X81194984Y-131287702D01*
X81004450Y-131255908D01*
X80966049Y-131249500D01*
X80733951Y-131249500D01*
X80695550Y-131255908D01*
X80505015Y-131287702D01*
X80285504Y-131363061D01*
X80285495Y-131363064D01*
X80081371Y-131473531D01*
X80081365Y-131473535D01*
X79898222Y-131616081D01*
X79898219Y-131616084D01*
X79898216Y-131616086D01*
X79898216Y-131616087D01*
X79873886Y-131642517D01*
X79741016Y-131786852D01*
X79614075Y-131981151D01*
X79520842Y-132193699D01*
X79463866Y-132418691D01*
X79463864Y-132418702D01*
X79444700Y-132649993D01*
X77250499Y-132649993D01*
X77250499Y-131702128D01*
X77244091Y-131642517D01*
X77239144Y-131629254D01*
X77193797Y-131507671D01*
X77193793Y-131507664D01*
X77107547Y-131392455D01*
X77107544Y-131392452D01*
X76992335Y-131306206D01*
X76992328Y-131306202D01*
X76857482Y-131255908D01*
X76857483Y-131255908D01*
X76797883Y-131249501D01*
X76797881Y-131249500D01*
X76797873Y-131249500D01*
X76797864Y-131249500D01*
X74902129Y-131249500D01*
X74902123Y-131249501D01*
X74842516Y-131255908D01*
X74707671Y-131306202D01*
X74707664Y-131306206D01*
X74592455Y-131392452D01*
X74592452Y-131392455D01*
X74506206Y-131507664D01*
X74506202Y-131507671D01*
X74455908Y-131642517D01*
X74449501Y-131702116D01*
X74449501Y-131702123D01*
X74449500Y-131702135D01*
X70718496Y-131702135D01*
X70639284Y-131616087D01*
X70639279Y-131616083D01*
X70639277Y-131616081D01*
X70456134Y-131473535D01*
X70456128Y-131473531D01*
X70252004Y-131363064D01*
X70251995Y-131363061D01*
X70032484Y-131287702D01*
X69841950Y-131255908D01*
X69803549Y-131249500D01*
X69571451Y-131249500D01*
X69533050Y-131255908D01*
X69342515Y-131287702D01*
X69123004Y-131363061D01*
X69122995Y-131363064D01*
X68918871Y-131473531D01*
X68918865Y-131473535D01*
X68735722Y-131616081D01*
X68735719Y-131616084D01*
X68735716Y-131616086D01*
X68735716Y-131616087D01*
X68711386Y-131642517D01*
X68578516Y-131786852D01*
X68451575Y-131981151D01*
X68358342Y-132193699D01*
X68301366Y-132418691D01*
X68301364Y-132418702D01*
X68282200Y-132649993D01*
X65287500Y-132649993D01*
X65287500Y-132571009D01*
X65246611Y-132418409D01*
X65235982Y-132400000D01*
X66087500Y-132400000D01*
X66087500Y-131702172D01*
X66087499Y-131702155D01*
X66081098Y-131642627D01*
X66081096Y-131642620D01*
X66030854Y-131507913D01*
X66030850Y-131507906D01*
X65944690Y-131392812D01*
X65944687Y-131392809D01*
X65829593Y-131306649D01*
X65829586Y-131306645D01*
X65694879Y-131256403D01*
X65694872Y-131256401D01*
X65635344Y-131250000D01*
X64937500Y-131250000D01*
X64937500Y-132101517D01*
X64919091Y-132090889D01*
X64766491Y-132050000D01*
X64608509Y-132050000D01*
X64455909Y-132090889D01*
X64437500Y-132101517D01*
X64437500Y-131250000D01*
X63739655Y-131250000D01*
X63680127Y-131256401D01*
X63680120Y-131256403D01*
X63545413Y-131306645D01*
X63545406Y-131306649D01*
X63430312Y-131392809D01*
X63430309Y-131392812D01*
X63344149Y-131507906D01*
X63344145Y-131507913D01*
X63293903Y-131642620D01*
X63293901Y-131642627D01*
X63287500Y-131702155D01*
X56210643Y-131702155D01*
X56120829Y-131569690D01*
X56120822Y-131569680D01*
X55989029Y-131414523D01*
X55989028Y-131414523D01*
X54744251Y-132659300D01*
X54670412Y-132557670D01*
X54492330Y-132379588D01*
X54390698Y-132305748D01*
X55638110Y-131058336D01*
X55638110Y-131058334D01*
X55621929Y-131043007D01*
X55621928Y-131043006D01*
X55332733Y-130823167D01*
X55332717Y-130823156D01*
X55021477Y-130635890D01*
X55021464Y-130635883D01*
X54691794Y-130483360D01*
X54691789Y-130483359D01*
X54347538Y-130367367D01*
X53992764Y-130289275D01*
X53631633Y-130250000D01*
X53268366Y-130250000D01*
X52907235Y-130289275D01*
X52552461Y-130367367D01*
X52208210Y-130483359D01*
X52208205Y-130483360D01*
X51878535Y-130635883D01*
X51878522Y-130635890D01*
X51567282Y-130823156D01*
X51567266Y-130823167D01*
X51278075Y-131043002D01*
X51261888Y-131058335D01*
X51261887Y-131058335D01*
X52509301Y-132305748D01*
X52407670Y-132379588D01*
X52229588Y-132557670D01*
X52155748Y-132659300D01*
X50910970Y-131414522D01*
X50910969Y-131414523D01*
X50779177Y-131569680D01*
X50779170Y-131569690D01*
X50575318Y-131870348D01*
X50575316Y-131870352D01*
X50405161Y-132191297D01*
X50405152Y-132191315D01*
X50270697Y-132528772D01*
X50270695Y-132528779D01*
X50173519Y-132878777D01*
X50173517Y-132878785D01*
X50146867Y-133041347D01*
X50116596Y-133104319D01*
X50057085Y-133140928D01*
X49987229Y-133139552D01*
X49929206Y-133100627D01*
X49901438Y-133036512D01*
X49900500Y-133021286D01*
X49900500Y-123934996D01*
X64469435Y-123934996D01*
X64469435Y-123935003D01*
X64489630Y-124114249D01*
X64489631Y-124114254D01*
X64549211Y-124284523D01*
X64635700Y-124422169D01*
X64645184Y-124437262D01*
X64772738Y-124564816D01*
X64925478Y-124660789D01*
X65095745Y-124720368D01*
X65182669Y-124730161D01*
X65247080Y-124757226D01*
X65256464Y-124765699D01*
X66721284Y-126230520D01*
X66721286Y-126230521D01*
X66721290Y-126230524D01*
X66858209Y-126309573D01*
X66858216Y-126309577D01*
X67010943Y-126350501D01*
X67010945Y-126350501D01*
X67176654Y-126350501D01*
X67176670Y-126350500D01*
X104417588Y-126350500D01*
X104484627Y-126370185D01*
X104494903Y-126377555D01*
X104497736Y-126379814D01*
X104497738Y-126379816D01*
X104650478Y-126475789D01*
X104820745Y-126535368D01*
X104820750Y-126535369D01*
X104999996Y-126555565D01*
X105000000Y-126555565D01*
X105000004Y-126555565D01*
X105179249Y-126535369D01*
X105179252Y-126535368D01*
X105179255Y-126535368D01*
X105349522Y-126475789D01*
X105502262Y-126379816D01*
X105629816Y-126252262D01*
X105725789Y-126099522D01*
X105785368Y-125929255D01*
X105802429Y-125777834D01*
X105805565Y-125750003D01*
X105805565Y-125749996D01*
X105785369Y-125570750D01*
X105785368Y-125570745D01*
X105725788Y-125400476D01*
X105629815Y-125247737D01*
X105502262Y-125120184D01*
X105349523Y-125024211D01*
X105179254Y-124964631D01*
X105179249Y-124964630D01*
X105000004Y-124944435D01*
X104999996Y-124944435D01*
X104820750Y-124964630D01*
X104820745Y-124964631D01*
X104650476Y-125024211D01*
X104497736Y-125120185D01*
X104494903Y-125122445D01*
X104492724Y-125123334D01*
X104491842Y-125123889D01*
X104491744Y-125123734D01*
X104430217Y-125148855D01*
X104417588Y-125149500D01*
X67390098Y-125149500D01*
X67323059Y-125129815D01*
X67302417Y-125113181D01*
X66105700Y-123916465D01*
X66072215Y-123855142D01*
X66070163Y-123842686D01*
X66060368Y-123755745D01*
X66000789Y-123585478D01*
X65904816Y-123432738D01*
X65777262Y-123305184D01*
X65624523Y-123209211D01*
X65454254Y-123149631D01*
X65454249Y-123149630D01*
X65275004Y-123129435D01*
X65274996Y-123129435D01*
X65095750Y-123149630D01*
X65095745Y-123149631D01*
X64925476Y-123209211D01*
X64772737Y-123305184D01*
X64645184Y-123432737D01*
X64549211Y-123585476D01*
X64489631Y-123755745D01*
X64489630Y-123755750D01*
X64469435Y-123934996D01*
X49900500Y-123934996D01*
X49900500Y-120899996D01*
X102669435Y-120899996D01*
X102669435Y-120900003D01*
X102689630Y-121079249D01*
X102689631Y-121079254D01*
X102749211Y-121249523D01*
X102834943Y-121385963D01*
X102845184Y-121402262D01*
X102972738Y-121529816D01*
X103063080Y-121586582D01*
X103089914Y-121603443D01*
X103125478Y-121625789D01*
X103295745Y-121685368D01*
X103295750Y-121685369D01*
X103474996Y-121705565D01*
X103475000Y-121705565D01*
X103475004Y-121705565D01*
X103654249Y-121685369D01*
X103654252Y-121685368D01*
X103654255Y-121685368D01*
X103824522Y-121625789D01*
X103977262Y-121529816D01*
X104104816Y-121402262D01*
X104200789Y-121249522D01*
X104260368Y-121079255D01*
X104280565Y-120900000D01*
X104279560Y-120891082D01*
X104260369Y-120720750D01*
X104260368Y-120720745D01*
X104200789Y-120550478D01*
X104104816Y-120397738D01*
X104104814Y-120397736D01*
X104104813Y-120397734D01*
X104102550Y-120394896D01*
X104101659Y-120392715D01*
X104101111Y-120391842D01*
X104101264Y-120391745D01*
X104076144Y-120330209D01*
X104075500Y-120317587D01*
X104075500Y-120175097D01*
X104095185Y-120108058D01*
X104111819Y-120087416D01*
X104963714Y-119235521D01*
X105818536Y-118380698D01*
X105879857Y-118347215D01*
X105892310Y-118345163D01*
X105979255Y-118335368D01*
X106149522Y-118275789D01*
X106302262Y-118179816D01*
X106429816Y-118052262D01*
X106525789Y-117899522D01*
X106585368Y-117729255D01*
X106605565Y-117550000D01*
X106602419Y-117522081D01*
X106585369Y-117370750D01*
X106585368Y-117370745D01*
X106525788Y-117200476D01*
X106429815Y-117047737D01*
X106302262Y-116920184D01*
X106149523Y-116824211D01*
X105979254Y-116764631D01*
X105979249Y-116764630D01*
X105800004Y-116744435D01*
X105799996Y-116744435D01*
X105620750Y-116764630D01*
X105620745Y-116764631D01*
X105450476Y-116824211D01*
X105297737Y-116920184D01*
X105170184Y-117047737D01*
X105074210Y-117200478D01*
X105014630Y-117370750D01*
X105004837Y-117457667D01*
X104977770Y-117522081D01*
X104969298Y-117531464D01*
X103106286Y-119394478D01*
X102994481Y-119506282D01*
X102994479Y-119506285D01*
X102946562Y-119589282D01*
X102946561Y-119589283D01*
X102915423Y-119643215D01*
X102874499Y-119795943D01*
X102874499Y-119795945D01*
X102874499Y-119964046D01*
X102874500Y-119964059D01*
X102874500Y-120317587D01*
X102854815Y-120384626D01*
X102847450Y-120394896D01*
X102845186Y-120397734D01*
X102749211Y-120550476D01*
X102689631Y-120720745D01*
X102689630Y-120720750D01*
X102669435Y-120899996D01*
X49900500Y-120899996D01*
X49900500Y-104214782D01*
X49920185Y-104147743D01*
X49972989Y-104101988D01*
X50042147Y-104092044D01*
X50105703Y-104121069D01*
X50112181Y-104127101D01*
X57219735Y-111234655D01*
X57219764Y-111234686D01*
X57362214Y-111377136D01*
X57362218Y-111377139D01*
X57526079Y-111486628D01*
X57526092Y-111486635D01*
X57640756Y-111534130D01*
X57640757Y-111534130D01*
X57708164Y-111562051D01*
X57783433Y-111577023D01*
X57812939Y-111582892D01*
X57901456Y-111600500D01*
X57901459Y-111600500D01*
X58498543Y-111600500D01*
X58628582Y-111574632D01*
X58691835Y-111562051D01*
X58873914Y-111486632D01*
X59037782Y-111377139D01*
X59037785Y-111377136D01*
X59053103Y-111361819D01*
X59114426Y-111328334D01*
X59140784Y-111325500D01*
X70048126Y-111325500D01*
X70115165Y-111345185D01*
X70135807Y-111361819D01*
X72637515Y-113863528D01*
X72637522Y-113863534D01*
X72756344Y-113942928D01*
X72795016Y-113958946D01*
X72888380Y-113997619D01*
X72888384Y-113997619D01*
X72888385Y-113997620D01*
X73028542Y-114025500D01*
X73034605Y-114026097D01*
X73034427Y-114027900D01*
X73093292Y-114045185D01*
X73099138Y-114049182D01*
X73147265Y-114084148D01*
X73147270Y-114084151D01*
X73320192Y-114161142D01*
X73320197Y-114161144D01*
X73505354Y-114200500D01*
X73505355Y-114200500D01*
X73694644Y-114200500D01*
X73694646Y-114200500D01*
X73879803Y-114161144D01*
X74052730Y-114084151D01*
X74205871Y-113972888D01*
X74332533Y-113832216D01*
X74427179Y-113668284D01*
X74485674Y-113488256D01*
X74505460Y-113300000D01*
X74485674Y-113111744D01*
X74427179Y-112931716D01*
X74332533Y-112767784D01*
X74205871Y-112627112D01*
X74188694Y-112614632D01*
X74052734Y-112515851D01*
X74052729Y-112515848D01*
X73879807Y-112438857D01*
X73879802Y-112438855D01*
X73701458Y-112400948D01*
X73694646Y-112399500D01*
X73505354Y-112399500D01*
X73340422Y-112434557D01*
X73270755Y-112429241D01*
X73226960Y-112400948D01*
X70862483Y-110036470D01*
X70862482Y-110036469D01*
X70803066Y-109996769D01*
X70743653Y-109957071D01*
X70611620Y-109902381D01*
X70611621Y-109902381D01*
X70608732Y-109901806D01*
X70599987Y-109900067D01*
X70471457Y-109874500D01*
X70471455Y-109874500D01*
X59140784Y-109874500D01*
X59073745Y-109854815D01*
X59053103Y-109838181D01*
X59037785Y-109822863D01*
X59037781Y-109822860D01*
X58873920Y-109713371D01*
X58873907Y-109713364D01*
X58691839Y-109637950D01*
X58691829Y-109637947D01*
X58498543Y-109599500D01*
X58498541Y-109599500D01*
X58465782Y-109599500D01*
X58398743Y-109579815D01*
X58378101Y-109563181D01*
X51436819Y-102621899D01*
X51403334Y-102560576D01*
X51400500Y-102534218D01*
X51400500Y-93024996D01*
X62019435Y-93024996D01*
X62019435Y-93025003D01*
X62039630Y-93204249D01*
X62039631Y-93204254D01*
X62099211Y-93374523D01*
X62195184Y-93527262D01*
X62322738Y-93654816D01*
X62475478Y-93750789D01*
X62581298Y-93787817D01*
X62645745Y-93810368D01*
X62645750Y-93810369D01*
X62824996Y-93830565D01*
X62825000Y-93830565D01*
X62825004Y-93830565D01*
X63004249Y-93810369D01*
X63004252Y-93810368D01*
X63004255Y-93810368D01*
X63174522Y-93750789D01*
X63327262Y-93654816D01*
X63327267Y-93654810D01*
X63330097Y-93652555D01*
X63332275Y-93651665D01*
X63333158Y-93651111D01*
X63333255Y-93651265D01*
X63394783Y-93626145D01*
X63407412Y-93625500D01*
X95149125Y-93625500D01*
X95216164Y-93645185D01*
X95261919Y-93697989D01*
X95271863Y-93767147D01*
X95242838Y-93830703D01*
X95236806Y-93837181D01*
X82263970Y-106810016D01*
X82263969Y-106810017D01*
X82184570Y-106928848D01*
X82129881Y-107060879D01*
X82129879Y-107060885D01*
X82102000Y-107201042D01*
X82102000Y-107324877D01*
X82085388Y-107386875D01*
X82047638Y-107452262D01*
X82046249Y-107454667D01*
X82046247Y-107454670D01*
X81991004Y-107624692D01*
X81991003Y-107624694D01*
X81972315Y-107802500D01*
X81991003Y-107980305D01*
X81991004Y-107980307D01*
X82046247Y-108150329D01*
X82046250Y-108150335D01*
X82135641Y-108305165D01*
X82177312Y-108351446D01*
X82255264Y-108438021D01*
X82255267Y-108438023D01*
X82255270Y-108438026D01*
X82399907Y-108543112D01*
X82563233Y-108615829D01*
X82738109Y-108653000D01*
X82738110Y-108653000D01*
X82916889Y-108653000D01*
X82916891Y-108653000D01*
X83091767Y-108615829D01*
X83255093Y-108543112D01*
X83399730Y-108438026D01*
X83519359Y-108305165D01*
X83608750Y-108150335D01*
X83663997Y-107980303D01*
X83682685Y-107802500D01*
X83663997Y-107624697D01*
X83647581Y-107574176D01*
X83645587Y-107504336D01*
X83677830Y-107448180D01*
X96272787Y-94853223D01*
X96334108Y-94819740D01*
X96334335Y-94819690D01*
X96364267Y-94813329D01*
X96527593Y-94740612D01*
X96672230Y-94635526D01*
X96694883Y-94610368D01*
X96698148Y-94606741D01*
X96791859Y-94502665D01*
X96881250Y-94347835D01*
X96936497Y-94177803D01*
X96955185Y-94000000D01*
X96936497Y-93822197D01*
X96930860Y-93804847D01*
X96925327Y-93787817D01*
X96923332Y-93717976D01*
X96959413Y-93658143D01*
X97022114Y-93627316D01*
X97043258Y-93625500D01*
X100225903Y-93625500D01*
X100292942Y-93645185D01*
X100338697Y-93697989D01*
X100348641Y-93767147D01*
X100319616Y-93830703D01*
X100313584Y-93837181D01*
X100256284Y-93894481D01*
X95831286Y-98319478D01*
X95719481Y-98431282D01*
X95719475Y-98431290D01*
X95673821Y-98510367D01*
X95673821Y-98510368D01*
X95640423Y-98568215D01*
X95599499Y-98720943D01*
X95599499Y-98720945D01*
X95599499Y-98889046D01*
X95599500Y-98889059D01*
X95599500Y-104174902D01*
X95579815Y-104241941D01*
X95563181Y-104262583D01*
X84981465Y-114844298D01*
X84920142Y-114877783D01*
X84907668Y-114879837D01*
X84820750Y-114889630D01*
X84650478Y-114949210D01*
X84497737Y-115045184D01*
X84370184Y-115172737D01*
X84274211Y-115325476D01*
X84214631Y-115495745D01*
X84214630Y-115495750D01*
X84194435Y-115674996D01*
X84194435Y-115675003D01*
X84214630Y-115854249D01*
X84214631Y-115854254D01*
X84274211Y-116024523D01*
X84344200Y-116135909D01*
X84370184Y-116177262D01*
X84497738Y-116304816D01*
X84565973Y-116347691D01*
X84629597Y-116387669D01*
X84650478Y-116400789D01*
X84820745Y-116460368D01*
X84820750Y-116460369D01*
X84999996Y-116480565D01*
X85000000Y-116480565D01*
X85000004Y-116480565D01*
X85179249Y-116460369D01*
X85179252Y-116460368D01*
X85179255Y-116460368D01*
X85349522Y-116400789D01*
X85370403Y-116387669D01*
X85434027Y-116347691D01*
X85501264Y-116328690D01*
X85565973Y-116347691D01*
X85650475Y-116400788D01*
X85820745Y-116460368D01*
X85820750Y-116460369D01*
X85999996Y-116480565D01*
X86000000Y-116480565D01*
X86000004Y-116480565D01*
X86179249Y-116460369D01*
X86179252Y-116460368D01*
X86179255Y-116460368D01*
X86349522Y-116400789D01*
X86502262Y-116304816D01*
X86629816Y-116177262D01*
X86725789Y-116024522D01*
X86785368Y-115854255D01*
X86795161Y-115767329D01*
X86822226Y-115702918D01*
X86830690Y-115693543D01*
X93562819Y-108961415D01*
X93624142Y-108927930D01*
X93693834Y-108932914D01*
X93749767Y-108974786D01*
X93774184Y-109040250D01*
X93774500Y-109049096D01*
X93774500Y-110371455D01*
X93774500Y-110371457D01*
X93774499Y-110371457D01*
X93797510Y-110487132D01*
X93802229Y-110510856D01*
X93802381Y-110511620D01*
X93857070Y-110643651D01*
X93936469Y-110762482D01*
X97637517Y-114463530D01*
X97687715Y-114497071D01*
X97756340Y-114542925D01*
X97756346Y-114542928D01*
X97756347Y-114542929D01*
X97888380Y-114597619D01*
X97888384Y-114597619D01*
X97888385Y-114597620D01*
X98028542Y-114625500D01*
X98028545Y-114625500D01*
X114025901Y-114625500D01*
X114092940Y-114645185D01*
X114138695Y-114697989D01*
X114148639Y-114767147D01*
X114119614Y-114830703D01*
X114113582Y-114837181D01*
X110731466Y-118219297D01*
X110670143Y-118252782D01*
X110657669Y-118254836D01*
X110570751Y-118264629D01*
X110400479Y-118324209D01*
X110247738Y-118420183D01*
X110120185Y-118547736D01*
X110024212Y-118700475D01*
X109964632Y-118870744D01*
X109964631Y-118870749D01*
X109944436Y-119049995D01*
X109944436Y-119050002D01*
X109964631Y-119229248D01*
X109964632Y-119229253D01*
X110024212Y-119399522D01*
X110056244Y-119450500D01*
X110120185Y-119552261D01*
X110247739Y-119679815D01*
X110400479Y-119775788D01*
X110570740Y-119835365D01*
X110570746Y-119835367D01*
X110570751Y-119835368D01*
X110749997Y-119855564D01*
X110750001Y-119855564D01*
X110750005Y-119855564D01*
X110929250Y-119835368D01*
X110929252Y-119835367D01*
X110929256Y-119835367D01*
X110929259Y-119835365D01*
X110929263Y-119835365D01*
X110983528Y-119816377D01*
X111053306Y-119812814D01*
X111113934Y-119847543D01*
X111146162Y-119909536D01*
X111139757Y-119979112D01*
X111112164Y-120021099D01*
X109931286Y-121201978D01*
X109819481Y-121313782D01*
X109819475Y-121313790D01*
X109777807Y-121385963D01*
X109777807Y-121385965D01*
X109740423Y-121450714D01*
X109740423Y-121450715D01*
X109699499Y-121603443D01*
X109699499Y-121603445D01*
X109699499Y-121771546D01*
X109699500Y-121771559D01*
X109699500Y-130867587D01*
X109679815Y-130934626D01*
X109672450Y-130944896D01*
X109670186Y-130947734D01*
X109574211Y-131100476D01*
X109514631Y-131270745D01*
X109514630Y-131270750D01*
X109494435Y-131449996D01*
X109494435Y-131450003D01*
X109514630Y-131629249D01*
X109514631Y-131629254D01*
X109574211Y-131799523D01*
X109618714Y-131870348D01*
X109670184Y-131952262D01*
X109797738Y-132079816D01*
X109950478Y-132175789D01*
X109994849Y-132191315D01*
X110120745Y-132235368D01*
X110120750Y-132235369D01*
X110299996Y-132255565D01*
X110300000Y-132255565D01*
X110300004Y-132255565D01*
X110479249Y-132235369D01*
X110479252Y-132235368D01*
X110479255Y-132235368D01*
X110649522Y-132175789D01*
X110802262Y-132079816D01*
X110929816Y-131952262D01*
X111025789Y-131799522D01*
X111085368Y-131629255D01*
X111086852Y-131616084D01*
X111105565Y-131450003D01*
X111105565Y-131449996D01*
X111085369Y-131270750D01*
X111085368Y-131270745D01*
X111082454Y-131262416D01*
X111025789Y-131100478D01*
X110929816Y-130947738D01*
X110929814Y-130947736D01*
X110929813Y-130947734D01*
X110927550Y-130944896D01*
X110926659Y-130942715D01*
X110926111Y-130941842D01*
X110926264Y-130941745D01*
X110901144Y-130880209D01*
X110900500Y-130867587D01*
X110900500Y-121982596D01*
X110920185Y-121915557D01*
X110936814Y-121894920D01*
X114231734Y-118600000D01*
X121944815Y-118600000D01*
X121963503Y-118777805D01*
X121963504Y-118777807D01*
X122018747Y-118947829D01*
X122018750Y-118947835D01*
X122108141Y-119102665D01*
X122149789Y-119148920D01*
X122227764Y-119235521D01*
X122227767Y-119235523D01*
X122227770Y-119235526D01*
X122372407Y-119340612D01*
X122535733Y-119413329D01*
X122710609Y-119450500D01*
X122710610Y-119450500D01*
X122889389Y-119450500D01*
X122889391Y-119450500D01*
X123064267Y-119413329D01*
X123227593Y-119340612D01*
X123372230Y-119235526D01*
X123377877Y-119229255D01*
X123398148Y-119206741D01*
X123491859Y-119102665D01*
X123581250Y-118947835D01*
X123636497Y-118777803D01*
X123655185Y-118600000D01*
X123636497Y-118422197D01*
X123581250Y-118252165D01*
X123567113Y-118227678D01*
X123550500Y-118165678D01*
X123550500Y-115674500D01*
X123570185Y-115607461D01*
X123622989Y-115561706D01*
X123674500Y-115550500D01*
X128788008Y-115550500D01*
X128840732Y-115564629D01*
X128841472Y-115562969D01*
X128884912Y-115582309D01*
X129010735Y-115638329D01*
X129185611Y-115675500D01*
X129185612Y-115675500D01*
X129364391Y-115675500D01*
X129364393Y-115675500D01*
X129539269Y-115638329D01*
X129702595Y-115565612D01*
X129847232Y-115460526D01*
X129966861Y-115327665D01*
X130056252Y-115172835D01*
X130096662Y-115048463D01*
X130126912Y-114999101D01*
X133336111Y-111789902D01*
X136537821Y-108588192D01*
X136599142Y-108554709D01*
X136668834Y-108559693D01*
X136724767Y-108601565D01*
X136749184Y-108667029D01*
X136749500Y-108675875D01*
X136749500Y-112173125D01*
X136729815Y-112240164D01*
X136713181Y-112260806D01*
X135842506Y-113131481D01*
X135781183Y-113164966D01*
X135711491Y-113159982D01*
X135655558Y-113118110D01*
X135637783Y-113084755D01*
X135625788Y-113050476D01*
X135583951Y-112983893D01*
X135529816Y-112897738D01*
X135402262Y-112770184D01*
X135398442Y-112767784D01*
X135249523Y-112674211D01*
X135079254Y-112614631D01*
X135079249Y-112614630D01*
X134900004Y-112594435D01*
X134899996Y-112594435D01*
X134720750Y-112614630D01*
X134720745Y-112614631D01*
X134550476Y-112674211D01*
X134397737Y-112770184D01*
X134337681Y-112830241D01*
X134276358Y-112863726D01*
X134206666Y-112858742D01*
X134162319Y-112830241D01*
X134102262Y-112770184D01*
X133949523Y-112674211D01*
X133779254Y-112614631D01*
X133779249Y-112614630D01*
X133600004Y-112594435D01*
X133599996Y-112594435D01*
X133420750Y-112614630D01*
X133420745Y-112614631D01*
X133250476Y-112674211D01*
X133097737Y-112770184D01*
X132970184Y-112897737D01*
X132874211Y-113050476D01*
X132814631Y-113220745D01*
X132814630Y-113220750D01*
X132794435Y-113399996D01*
X132794435Y-113400003D01*
X132814630Y-113579249D01*
X132814631Y-113579254D01*
X132874211Y-113749523D01*
X132970185Y-113902263D01*
X132972445Y-113905097D01*
X132973334Y-113907275D01*
X132973889Y-113908158D01*
X132973734Y-113908255D01*
X132998855Y-113969783D01*
X132999500Y-113982412D01*
X132999500Y-123013330D01*
X132999499Y-123013348D01*
X132999499Y-123179054D01*
X132999498Y-123179054D01*
X133040423Y-123331784D01*
X133040424Y-123331788D01*
X133065617Y-123375424D01*
X133065618Y-123375424D01*
X133119477Y-123468712D01*
X133119481Y-123468717D01*
X133238349Y-123587585D01*
X133238355Y-123587590D01*
X134267233Y-124616468D01*
X134300718Y-124677791D01*
X134299327Y-124736241D01*
X134264939Y-124864583D01*
X134264936Y-124864596D01*
X134244341Y-125099999D01*
X134244341Y-125100000D01*
X134264936Y-125335403D01*
X134264938Y-125335413D01*
X134326094Y-125563655D01*
X134326096Y-125563659D01*
X134326097Y-125563663D01*
X134329402Y-125570750D01*
X134425965Y-125777830D01*
X134425967Y-125777834D01*
X134531990Y-125929249D01*
X134561505Y-125971401D01*
X134728599Y-126138495D01*
X134825384Y-126206265D01*
X134922165Y-126274032D01*
X134922167Y-126274033D01*
X134922170Y-126274035D01*
X135136337Y-126373903D01*
X135136343Y-126373904D01*
X135136344Y-126373905D01*
X135158397Y-126379814D01*
X135364592Y-126435063D01*
X135552918Y-126451539D01*
X135599999Y-126455659D01*
X135600000Y-126455659D01*
X135600001Y-126455659D01*
X135639234Y-126452226D01*
X135835408Y-126435063D01*
X136063663Y-126373903D01*
X136277830Y-126274035D01*
X136471401Y-126138495D01*
X136638495Y-125971401D01*
X136774035Y-125777830D01*
X136873903Y-125563663D01*
X136935063Y-125335408D01*
X136955659Y-125100000D01*
X136935063Y-124864592D01*
X136873903Y-124636337D01*
X136774035Y-124422171D01*
X136677654Y-124284523D01*
X136638494Y-124228597D01*
X136471402Y-124061506D01*
X136471396Y-124061501D01*
X136285842Y-123931575D01*
X136242217Y-123876998D01*
X136235023Y-123807500D01*
X136266546Y-123745145D01*
X136285842Y-123728425D01*
X136308026Y-123712891D01*
X136471401Y-123598495D01*
X136638495Y-123431401D01*
X136774035Y-123237830D01*
X136873903Y-123023663D01*
X136935063Y-122795408D01*
X136955659Y-122560000D01*
X136935063Y-122324592D01*
X136873903Y-122096337D01*
X136774035Y-121882171D01*
X136638495Y-121688599D01*
X136638494Y-121688597D01*
X136471402Y-121521506D01*
X136471401Y-121521505D01*
X136285405Y-121391269D01*
X136241781Y-121336692D01*
X136234588Y-121267193D01*
X136266110Y-121204839D01*
X136285405Y-121188119D01*
X136471082Y-121058105D01*
X136638105Y-120891082D01*
X136773600Y-120697578D01*
X136873429Y-120483492D01*
X136873432Y-120483486D01*
X136930636Y-120270000D01*
X136033012Y-120270000D01*
X136065925Y-120212993D01*
X136100000Y-120085826D01*
X136100000Y-119954174D01*
X136065925Y-119827007D01*
X136033012Y-119770000D01*
X136930636Y-119770000D01*
X136930635Y-119769999D01*
X136873432Y-119556513D01*
X136873429Y-119556507D01*
X136773600Y-119342422D01*
X136773599Y-119342420D01*
X136638113Y-119148926D01*
X136638108Y-119148920D01*
X136516053Y-119026865D01*
X136482568Y-118965542D01*
X136487552Y-118895850D01*
X136529424Y-118839917D01*
X136560400Y-118823002D01*
X136681577Y-118777807D01*
X136692326Y-118773798D01*
X136692326Y-118773797D01*
X136692331Y-118773796D01*
X136807546Y-118687546D01*
X136893796Y-118572331D01*
X136944091Y-118437483D01*
X136950500Y-118377873D01*
X136950499Y-116582128D01*
X136944091Y-116522517D01*
X136920911Y-116460369D01*
X136893797Y-116387671D01*
X136893793Y-116387664D01*
X136807547Y-116272455D01*
X136807544Y-116272452D01*
X136692335Y-116186206D01*
X136692328Y-116186202D01*
X136557482Y-116135908D01*
X136557483Y-116135908D01*
X136497883Y-116129501D01*
X136497881Y-116129500D01*
X136497873Y-116129500D01*
X136497865Y-116129500D01*
X136449500Y-116129500D01*
X136382461Y-116109815D01*
X136336706Y-116057011D01*
X136325500Y-116005500D01*
X136325500Y-114751874D01*
X136345185Y-114684835D01*
X136361819Y-114664193D01*
X138038530Y-112987482D01*
X138038532Y-112987480D01*
X138117929Y-112868653D01*
X138172619Y-112736620D01*
X138185033Y-112674211D01*
X138194402Y-112627111D01*
X138200500Y-112596457D01*
X138200500Y-105820923D01*
X138217113Y-105758923D01*
X138281250Y-105647835D01*
X138336497Y-105477803D01*
X138355185Y-105300000D01*
X138336497Y-105122197D01*
X138291078Y-104982412D01*
X138281252Y-104952170D01*
X138281249Y-104952164D01*
X138277321Y-104945360D01*
X138191859Y-104797335D01*
X138117608Y-104714871D01*
X138072235Y-104664478D01*
X138072232Y-104664476D01*
X138072231Y-104664475D01*
X138072230Y-104664474D01*
X137927593Y-104559388D01*
X137764267Y-104486671D01*
X137764265Y-104486670D01*
X137636594Y-104459533D01*
X137589391Y-104449500D01*
X137410609Y-104449500D01*
X137379954Y-104456015D01*
X137235733Y-104486670D01*
X137235728Y-104486672D01*
X137072408Y-104559387D01*
X136927768Y-104664475D01*
X136808140Y-104797336D01*
X136718750Y-104952164D01*
X136718747Y-104952170D01*
X136663504Y-105122192D01*
X136663503Y-105122194D01*
X136644815Y-105300000D01*
X136663503Y-105477805D01*
X136663504Y-105477807D01*
X136718747Y-105647829D01*
X136718748Y-105647830D01*
X136718750Y-105647835D01*
X136732887Y-105672322D01*
X136749500Y-105734320D01*
X136749500Y-106273127D01*
X136729815Y-106340166D01*
X136713181Y-106360808D01*
X129102215Y-113971773D01*
X129040892Y-114005258D01*
X129040319Y-114005382D01*
X129019682Y-114009769D01*
X129010735Y-114011671D01*
X129010734Y-114011671D01*
X129010731Y-114011672D01*
X128864281Y-114076876D01*
X128847943Y-114084151D01*
X128841474Y-114087031D01*
X128840735Y-114085373D01*
X128788010Y-114099500D01*
X123311994Y-114099500D01*
X123259269Y-114085370D01*
X123258530Y-114087031D01*
X123125718Y-114027900D01*
X123089267Y-114011671D01*
X123089265Y-114011670D01*
X122951614Y-113982412D01*
X122914391Y-113974500D01*
X122735609Y-113974500D01*
X122704954Y-113981015D01*
X122560733Y-114011670D01*
X122560728Y-114011672D01*
X122397408Y-114084387D01*
X122252768Y-114189475D01*
X122133140Y-114322336D01*
X122043750Y-114477164D01*
X122043747Y-114477170D01*
X121988504Y-114647192D01*
X121988503Y-114647194D01*
X121969815Y-114825000D01*
X121988503Y-115002805D01*
X121988504Y-115002807D01*
X122043747Y-115172829D01*
X122043750Y-115172835D01*
X122082887Y-115240621D01*
X122099500Y-115302621D01*
X122099500Y-118079075D01*
X122082887Y-118141075D01*
X122018750Y-118252163D01*
X121963504Y-118422192D01*
X121963503Y-118422194D01*
X121944815Y-118600000D01*
X114231734Y-118600000D01*
X119909605Y-112922128D01*
X119970926Y-112888645D01*
X120040618Y-112893629D01*
X120051079Y-112898088D01*
X120068677Y-112906563D01*
X120319385Y-112983896D01*
X120578818Y-113023000D01*
X120841182Y-113023000D01*
X121100615Y-112983896D01*
X121351323Y-112906563D01*
X121587704Y-112792728D01*
X121804479Y-112644933D01*
X121996805Y-112466481D01*
X122160386Y-112261357D01*
X122291568Y-112034143D01*
X122387420Y-111789916D01*
X122445802Y-111534130D01*
X122449361Y-111486635D01*
X122465408Y-111272504D01*
X122465408Y-111272495D01*
X122445803Y-111010879D01*
X122445802Y-111010874D01*
X122445802Y-111010870D01*
X122387420Y-110755084D01*
X122291568Y-110510857D01*
X122160386Y-110283643D01*
X121996805Y-110078519D01*
X121996804Y-110078518D01*
X121996801Y-110078514D01*
X121804479Y-109900067D01*
X121766979Y-109874500D01*
X121587704Y-109752272D01*
X121587700Y-109752270D01*
X121587697Y-109752268D01*
X121587696Y-109752267D01*
X121351325Y-109638438D01*
X121351327Y-109638438D01*
X121100623Y-109561106D01*
X121100619Y-109561105D01*
X121100615Y-109561104D01*
X120975823Y-109542294D01*
X120841187Y-109522000D01*
X120841182Y-109522000D01*
X120578818Y-109522000D01*
X120578812Y-109522000D01*
X120417247Y-109546353D01*
X120319385Y-109561104D01*
X120319382Y-109561105D01*
X120319376Y-109561106D01*
X120068673Y-109638438D01*
X119832303Y-109752267D01*
X119832302Y-109752268D01*
X119615520Y-109900067D01*
X119423198Y-110078514D01*
X119259614Y-110283643D01*
X119128432Y-110510856D01*
X119032582Y-110755078D01*
X119032576Y-110755097D01*
X118974197Y-111010874D01*
X118974196Y-111010879D01*
X118954592Y-111272495D01*
X118954592Y-111272504D01*
X118974196Y-111534120D01*
X118974197Y-111534125D01*
X119032578Y-111789912D01*
X119090509Y-111937519D01*
X119096677Y-112007116D01*
X119064239Y-112069000D01*
X119062761Y-112070502D01*
X117643291Y-113489972D01*
X117581968Y-113523457D01*
X117512276Y-113518473D01*
X117463460Y-113485264D01*
X117422231Y-113439475D01*
X117367894Y-113399996D01*
X117277593Y-113334388D01*
X117114267Y-113261671D01*
X117114265Y-113261670D01*
X117114266Y-113261670D01*
X116951825Y-113227142D01*
X116930158Y-113220415D01*
X116886620Y-113202381D01*
X116886615Y-113202380D01*
X116886614Y-113202379D01*
X116746457Y-113174500D01*
X116746455Y-113174500D01*
X98451874Y-113174500D01*
X98384835Y-113154815D01*
X98364193Y-113138181D01*
X95261819Y-110035807D01*
X95228334Y-109974484D01*
X95225500Y-109948126D01*
X95225500Y-108977621D01*
X95242113Y-108915621D01*
X95281250Y-108847835D01*
X95321661Y-108723457D01*
X95351907Y-108674102D01*
X98363532Y-105662479D01*
X98442929Y-105543653D01*
X98497619Y-105411620D01*
X98513599Y-105331284D01*
X98525500Y-105271457D01*
X98525500Y-103677621D01*
X98542113Y-103615621D01*
X98542685Y-103614631D01*
X98581250Y-103547835D01*
X98636497Y-103377803D01*
X98655185Y-103200000D01*
X98636497Y-103022197D01*
X98599443Y-102908158D01*
X98581252Y-102852170D01*
X98581249Y-102852164D01*
X98491859Y-102697335D01*
X98423936Y-102621899D01*
X98372235Y-102564478D01*
X98372232Y-102564476D01*
X98372231Y-102564475D01*
X98372230Y-102564474D01*
X98227593Y-102459388D01*
X98064267Y-102386671D01*
X98064265Y-102386670D01*
X97936594Y-102359533D01*
X97889391Y-102349500D01*
X97710609Y-102349500D01*
X97621667Y-102368404D01*
X97529376Y-102388022D01*
X97528999Y-102386248D01*
X97467962Y-102387984D01*
X97408134Y-102351897D01*
X97377314Y-102289192D01*
X97375500Y-102268062D01*
X97375500Y-101954664D01*
X105529157Y-101954664D01*
X106808012Y-101954664D01*
X106790795Y-101964604D01*
X106734940Y-102020459D01*
X106695444Y-102088868D01*
X106675000Y-102165168D01*
X106675000Y-102244160D01*
X106695444Y-102320460D01*
X106734940Y-102388869D01*
X106790795Y-102444724D01*
X106808012Y-102454664D01*
X105529157Y-102454664D01*
X105540350Y-102510938D01*
X105540351Y-102510940D01*
X105619500Y-102702022D01*
X105619505Y-102702032D01*
X105734410Y-102873999D01*
X105734413Y-102874003D01*
X105880660Y-103020250D01*
X105880664Y-103020253D01*
X106052631Y-103135158D01*
X106052641Y-103135163D01*
X106243725Y-103214313D01*
X106243733Y-103214315D01*
X106446579Y-103254663D01*
X106446583Y-103254664D01*
X106850000Y-103254664D01*
X106850000Y-102478906D01*
X106859204Y-102484220D01*
X106935504Y-102504664D01*
X107264496Y-102504664D01*
X107340796Y-102484220D01*
X107350000Y-102478906D01*
X107350000Y-103254664D01*
X107362470Y-103267134D01*
X107387041Y-103274349D01*
X107397684Y-103286632D01*
X107458608Y-103256524D01*
X107480002Y-103254664D01*
X107753417Y-103254664D01*
X107753420Y-103254663D01*
X107956266Y-103214315D01*
X107956274Y-103214313D01*
X108147358Y-103135163D01*
X108147368Y-103135158D01*
X108319335Y-103020253D01*
X108319339Y-103020250D01*
X108465586Y-102874003D01*
X108465589Y-102873999D01*
X108580494Y-102702032D01*
X108580499Y-102702022D01*
X108659648Y-102510940D01*
X108659649Y-102510938D01*
X108670843Y-102454664D01*
X107391988Y-102454664D01*
X107409205Y-102444724D01*
X107465060Y-102388869D01*
X107504556Y-102320460D01*
X107525000Y-102244160D01*
X107525000Y-102165168D01*
X107504556Y-102088868D01*
X107465060Y-102020459D01*
X107409205Y-101964604D01*
X107391988Y-101954664D01*
X108670843Y-101954664D01*
X108659649Y-101898389D01*
X108659648Y-101898387D01*
X108580499Y-101707305D01*
X108580494Y-101707295D01*
X108465589Y-101535328D01*
X108465586Y-101535324D01*
X108319339Y-101389077D01*
X108319335Y-101389074D01*
X108147368Y-101274169D01*
X108147358Y-101274164D01*
X107956274Y-101195014D01*
X107956266Y-101195012D01*
X107753420Y-101154664D01*
X107350000Y-101154664D01*
X107350000Y-101930421D01*
X107340796Y-101925108D01*
X107264496Y-101904664D01*
X106935504Y-101904664D01*
X106859204Y-101925108D01*
X106850000Y-101930421D01*
X106850000Y-101154664D01*
X106446579Y-101154664D01*
X106243733Y-101195012D01*
X106243725Y-101195014D01*
X106052641Y-101274164D01*
X106052631Y-101274169D01*
X105880664Y-101389074D01*
X105880660Y-101389077D01*
X105734413Y-101535324D01*
X105734410Y-101535328D01*
X105619505Y-101707295D01*
X105619500Y-101707305D01*
X105540351Y-101898387D01*
X105540350Y-101898389D01*
X105529157Y-101954664D01*
X97375500Y-101954664D01*
X97375500Y-101025096D01*
X97395185Y-100958057D01*
X97411814Y-100937420D01*
X101768535Y-96580698D01*
X101829856Y-96547215D01*
X101842311Y-96545163D01*
X101929255Y-96535368D01*
X102099522Y-96475789D01*
X102252262Y-96379816D01*
X102379816Y-96252262D01*
X102475789Y-96099522D01*
X102535368Y-95929255D01*
X102535369Y-95929249D01*
X102555565Y-95750003D01*
X102555565Y-95749996D01*
X102535369Y-95570750D01*
X102535368Y-95570745D01*
X102475788Y-95400476D01*
X102379815Y-95247737D01*
X102252262Y-95120184D01*
X102099523Y-95024211D01*
X101929254Y-94964631D01*
X101929249Y-94964630D01*
X101750004Y-94944435D01*
X101749996Y-94944435D01*
X101570750Y-94964630D01*
X101570745Y-94964631D01*
X101400476Y-95024211D01*
X101247737Y-95120184D01*
X101120184Y-95247737D01*
X101024210Y-95400478D01*
X100964630Y-95570750D01*
X100954837Y-95657668D01*
X100927770Y-95722082D01*
X100919298Y-95731465D01*
X97012181Y-99638583D01*
X96950858Y-99672068D01*
X96881166Y-99667084D01*
X96825233Y-99625212D01*
X96800816Y-99559748D01*
X96800500Y-99550902D01*
X96800500Y-99100097D01*
X96820185Y-99033058D01*
X96836819Y-99012416D01*
X101387416Y-94461819D01*
X101448739Y-94428334D01*
X101475097Y-94425500D01*
X102642588Y-94425500D01*
X102709627Y-94445185D01*
X102719903Y-94452555D01*
X102722736Y-94454814D01*
X102722738Y-94454816D01*
X102875478Y-94550789D01*
X103045745Y-94610368D01*
X103045750Y-94610369D01*
X103224996Y-94630565D01*
X103225000Y-94630565D01*
X103225004Y-94630565D01*
X103404249Y-94610369D01*
X103404252Y-94610368D01*
X103404255Y-94610368D01*
X103574522Y-94550789D01*
X103727262Y-94454816D01*
X103854816Y-94327262D01*
X103950789Y-94174522D01*
X104010368Y-94004255D01*
X104010369Y-94004249D01*
X104030565Y-93825003D01*
X104030565Y-93824996D01*
X104023623Y-93763383D01*
X104035678Y-93694561D01*
X104083027Y-93643182D01*
X104146843Y-93625500D01*
X108244614Y-93625500D01*
X108311653Y-93645185D01*
X108332295Y-93661819D01*
X111458295Y-96787819D01*
X111491780Y-96849142D01*
X111486796Y-96918834D01*
X111444924Y-96974767D01*
X111379460Y-96999184D01*
X111370614Y-96999500D01*
X110682412Y-96999500D01*
X110615373Y-96979815D01*
X110605097Y-96972445D01*
X110602263Y-96970185D01*
X110602262Y-96970184D01*
X110520539Y-96918834D01*
X110449523Y-96874211D01*
X110279254Y-96814631D01*
X110279249Y-96814630D01*
X110100004Y-96794435D01*
X110099996Y-96794435D01*
X109920750Y-96814630D01*
X109920745Y-96814631D01*
X109750476Y-96874211D01*
X109597737Y-96970184D01*
X109470184Y-97097737D01*
X109374211Y-97250476D01*
X109314631Y-97420745D01*
X109314630Y-97420750D01*
X109294435Y-97599996D01*
X109294435Y-97600003D01*
X109310601Y-97743485D01*
X109298546Y-97812307D01*
X109275064Y-97845048D01*
X109249308Y-97870804D01*
X109153334Y-98023544D01*
X109093754Y-98193813D01*
X109093753Y-98193818D01*
X109073558Y-98373064D01*
X109073558Y-98373071D01*
X109093753Y-98552317D01*
X109093754Y-98552322D01*
X109153334Y-98722591D01*
X109249307Y-98875330D01*
X109376861Y-99002884D01*
X109529601Y-99098857D01*
X109699868Y-99158436D01*
X109699873Y-99158437D01*
X109879119Y-99178633D01*
X109879123Y-99178633D01*
X109879127Y-99178633D01*
X110058372Y-99158437D01*
X110058375Y-99158436D01*
X110058378Y-99158436D01*
X110228645Y-99098857D01*
X110381385Y-99002884D01*
X110381390Y-99002878D01*
X110384220Y-99000623D01*
X110386398Y-98999733D01*
X110387281Y-98999179D01*
X110387378Y-98999333D01*
X110448906Y-98974213D01*
X110461535Y-98973568D01*
X110822971Y-98973568D01*
X110890010Y-98993253D01*
X110910652Y-99009887D01*
X112895042Y-100994277D01*
X112928527Y-101055600D01*
X112923543Y-101125292D01*
X112881671Y-101181225D01*
X112816207Y-101205642D01*
X112759913Y-101196521D01*
X112756277Y-101195015D01*
X112756266Y-101195012D01*
X112553420Y-101154664D01*
X112150000Y-101154664D01*
X112150000Y-101930421D01*
X112140796Y-101925108D01*
X112064496Y-101904664D01*
X111735504Y-101904664D01*
X111659204Y-101925108D01*
X111650000Y-101930421D01*
X111650000Y-101154664D01*
X111356421Y-101154664D01*
X111289382Y-101134979D01*
X111243627Y-101082175D01*
X111233683Y-101013017D01*
X111244701Y-100976863D01*
X111247436Y-100971181D01*
X111247437Y-100971177D01*
X111247440Y-100971173D01*
X111307019Y-100800906D01*
X111311315Y-100762780D01*
X111327216Y-100621654D01*
X111327216Y-100621647D01*
X111307020Y-100442401D01*
X111307019Y-100442396D01*
X111280664Y-100367079D01*
X111247440Y-100272129D01*
X111246798Y-100271108D01*
X111208233Y-100209731D01*
X111151467Y-100119389D01*
X111023913Y-99991835D01*
X110871174Y-99895862D01*
X110700905Y-99836282D01*
X110700900Y-99836281D01*
X110521655Y-99816086D01*
X110521647Y-99816086D01*
X110342401Y-99836281D01*
X110342396Y-99836282D01*
X110172127Y-99895862D01*
X110019388Y-99991835D01*
X109891835Y-100119388D01*
X109795861Y-100272129D01*
X109736281Y-100442401D01*
X109726488Y-100529319D01*
X109699421Y-100593733D01*
X109690950Y-100603116D01*
X109531286Y-100762780D01*
X109419481Y-100874584D01*
X109419477Y-100874589D01*
X109372023Y-100956784D01*
X109372023Y-100956785D01*
X109340423Y-101011516D01*
X109338599Y-101018324D01*
X109299499Y-101164245D01*
X109299499Y-101164247D01*
X109299499Y-101332348D01*
X109299500Y-101332361D01*
X109299500Y-101817587D01*
X109279815Y-101884626D01*
X109272450Y-101894896D01*
X109270186Y-101897734D01*
X109174211Y-102050476D01*
X109114631Y-102220745D01*
X109114630Y-102220750D01*
X109094435Y-102399996D01*
X109094435Y-102400003D01*
X109114630Y-102579249D01*
X109114631Y-102579254D01*
X109174211Y-102749523D01*
X109270185Y-102902263D01*
X109272445Y-102905097D01*
X109273334Y-102907275D01*
X109273889Y-102908158D01*
X109273734Y-102908255D01*
X109298855Y-102969783D01*
X109299500Y-102982412D01*
X109299500Y-105099901D01*
X109279815Y-105166940D01*
X109263181Y-105187582D01*
X109231286Y-105219477D01*
X109231284Y-105219480D01*
X109119481Y-105331282D01*
X109119479Y-105331284D01*
X109104053Y-105358003D01*
X109097533Y-105369298D01*
X109073102Y-105411614D01*
X109040424Y-105468212D01*
X109040423Y-105468214D01*
X109040423Y-105468215D01*
X109009475Y-105583715D01*
X109007313Y-105591782D01*
X108975224Y-105647364D01*
X108970183Y-105652404D01*
X108874211Y-105805142D01*
X108814629Y-105975418D01*
X108813303Y-105981229D01*
X108779192Y-106042206D01*
X108717530Y-106075062D01*
X108647893Y-106069364D01*
X108592391Y-106026923D01*
X108583053Y-106012081D01*
X108580499Y-106007302D01*
X108465589Y-105835328D01*
X108465586Y-105835324D01*
X108319339Y-105689077D01*
X108319335Y-105689074D01*
X108147368Y-105574169D01*
X108147358Y-105574164D01*
X107956274Y-105495014D01*
X107956266Y-105495012D01*
X107753420Y-105454664D01*
X107393934Y-105454664D01*
X107326895Y-105434979D01*
X107281140Y-105382175D01*
X107271196Y-105313017D01*
X107300221Y-105249461D01*
X107306237Y-105242998D01*
X107418538Y-105130697D01*
X107479857Y-105097215D01*
X107492313Y-105095163D01*
X107579257Y-105085368D01*
X107749524Y-105025789D01*
X107902264Y-104929816D01*
X108029818Y-104802262D01*
X108125791Y-104649522D01*
X108185370Y-104479255D01*
X108188723Y-104449500D01*
X108205567Y-104300003D01*
X108205567Y-104299996D01*
X108185371Y-104120750D01*
X108185370Y-104120745D01*
X108180603Y-104107121D01*
X108125791Y-103950478D01*
X108121068Y-103942962D01*
X108029817Y-103797737D01*
X107902264Y-103670184D01*
X107749525Y-103574211D01*
X107579256Y-103514631D01*
X107579251Y-103514630D01*
X107466119Y-103501884D01*
X107401705Y-103474818D01*
X107398258Y-103469800D01*
X107354937Y-103497641D01*
X107333885Y-103501884D01*
X107220752Y-103514630D01*
X107220747Y-103514631D01*
X107050478Y-103574211D01*
X106897739Y-103670184D01*
X106770186Y-103797737D01*
X106674212Y-103950478D01*
X106614632Y-104120750D01*
X106604839Y-104207668D01*
X106577772Y-104272082D01*
X106569301Y-104281465D01*
X106476179Y-104374586D01*
X106414859Y-104408070D01*
X106345167Y-104403086D01*
X106289233Y-104361215D01*
X106264816Y-104295751D01*
X106264501Y-104286941D01*
X106264500Y-104286935D01*
X106264500Y-104286929D01*
X106229438Y-104156074D01*
X106168474Y-104050480D01*
X106161705Y-104038756D01*
X106161701Y-104038751D01*
X106065912Y-103942962D01*
X106065907Y-103942958D01*
X105948592Y-103875227D01*
X105948591Y-103875226D01*
X105948590Y-103875226D01*
X105817735Y-103840164D01*
X105682265Y-103840164D01*
X105551410Y-103875226D01*
X105551407Y-103875227D01*
X105434092Y-103942958D01*
X105434087Y-103942962D01*
X105338298Y-104038751D01*
X105338294Y-104038756D01*
X105270563Y-104156071D01*
X105270562Y-104156074D01*
X105235500Y-104286929D01*
X105235500Y-104422399D01*
X105252722Y-104486671D01*
X105270562Y-104553253D01*
X105270563Y-104553256D01*
X105338294Y-104670571D01*
X105338296Y-104670574D01*
X105338297Y-104670575D01*
X105434089Y-104766367D01*
X105551410Y-104834102D01*
X105682265Y-104869164D01*
X105682273Y-104869164D01*
X105690325Y-104870225D01*
X105690158Y-104871489D01*
X105749279Y-104888849D01*
X105795034Y-104941653D01*
X105804978Y-105010811D01*
X105775953Y-105074367D01*
X105769921Y-105080845D01*
X103831473Y-107019292D01*
X103770150Y-107052777D01*
X103757676Y-107054831D01*
X103670751Y-107064625D01*
X103500479Y-107124205D01*
X103347738Y-107220179D01*
X103220185Y-107347732D01*
X103124212Y-107500471D01*
X103064632Y-107670740D01*
X103064631Y-107670745D01*
X103044436Y-107849991D01*
X103044436Y-107849998D01*
X103064631Y-108029244D01*
X103064632Y-108029249D01*
X103124212Y-108199518D01*
X103220185Y-108352257D01*
X103347739Y-108479811D01*
X103500479Y-108575784D01*
X103535945Y-108588194D01*
X103670746Y-108635363D01*
X103670751Y-108635364D01*
X103849997Y-108655560D01*
X103850001Y-108655560D01*
X103850005Y-108655560D01*
X104029250Y-108635364D01*
X104029253Y-108635363D01*
X104029256Y-108635363D01*
X104199523Y-108575784D01*
X104352263Y-108479811D01*
X104352268Y-108479805D01*
X104355098Y-108477550D01*
X104357276Y-108476660D01*
X104358159Y-108476106D01*
X104358256Y-108476260D01*
X104419784Y-108451140D01*
X104432413Y-108450495D01*
X108666531Y-108450495D01*
X108666547Y-108450496D01*
X108674143Y-108450496D01*
X108832254Y-108450496D01*
X108832257Y-108450496D01*
X108984985Y-108409572D01*
X109060398Y-108366032D01*
X109121916Y-108330515D01*
X109233720Y-108218711D01*
X109233720Y-108218709D01*
X109243924Y-108208506D01*
X109243928Y-108208501D01*
X110325042Y-107127386D01*
X110386361Y-107093904D01*
X110456053Y-107098888D01*
X110511986Y-107140760D01*
X110515821Y-107146179D01*
X110534410Y-107173999D01*
X110534413Y-107174003D01*
X110680660Y-107320250D01*
X110680664Y-107320253D01*
X110852631Y-107435158D01*
X110852641Y-107435163D01*
X111043725Y-107514313D01*
X111043733Y-107514315D01*
X111246579Y-107554663D01*
X111246583Y-107554664D01*
X111650000Y-107554664D01*
X111650000Y-106778906D01*
X111659204Y-106784220D01*
X111735504Y-106804664D01*
X112064496Y-106804664D01*
X112140796Y-106784220D01*
X112150000Y-106778906D01*
X112150000Y-107554664D01*
X112553417Y-107554664D01*
X112553420Y-107554663D01*
X112756266Y-107514315D01*
X112756274Y-107514313D01*
X112947358Y-107435163D01*
X112947368Y-107435158D01*
X113119335Y-107320253D01*
X113119339Y-107320250D01*
X113265586Y-107174003D01*
X113265589Y-107173999D01*
X113380494Y-107002032D01*
X113380499Y-107002022D01*
X113459648Y-106810940D01*
X113459649Y-106810938D01*
X113470843Y-106754664D01*
X112191988Y-106754664D01*
X112209205Y-106744724D01*
X112265060Y-106688869D01*
X112304556Y-106620460D01*
X112325000Y-106544160D01*
X112325000Y-106465168D01*
X112304556Y-106388868D01*
X112265060Y-106320459D01*
X112209205Y-106264604D01*
X112191988Y-106254664D01*
X113470843Y-106254664D01*
X113459649Y-106198389D01*
X113459648Y-106198387D01*
X113380499Y-106007305D01*
X113380494Y-106007295D01*
X113265589Y-105835328D01*
X113265586Y-105835324D01*
X113119339Y-105689077D01*
X113119335Y-105689074D01*
X112947368Y-105574169D01*
X112947358Y-105574164D01*
X112756274Y-105495014D01*
X112756266Y-105495012D01*
X112553420Y-105454664D01*
X112189108Y-105454664D01*
X112122069Y-105434979D01*
X112076314Y-105382175D01*
X112066370Y-105313017D01*
X112069333Y-105298570D01*
X112076598Y-105271457D01*
X112100501Y-105182252D01*
X112100501Y-105024138D01*
X112100501Y-105016543D01*
X112100500Y-105016525D01*
X112100500Y-104982412D01*
X112120185Y-104915373D01*
X112127555Y-104905097D01*
X112129810Y-104902267D01*
X112129816Y-104902262D01*
X112225789Y-104749522D01*
X112239677Y-104709831D01*
X112280397Y-104653055D01*
X112345349Y-104627306D01*
X112413911Y-104640761D01*
X112464315Y-104689147D01*
X112471283Y-104703339D01*
X112476048Y-104714845D01*
X112476052Y-104714854D01*
X112559266Y-104839417D01*
X112559272Y-104839423D01*
X112665193Y-104945360D01*
X112665196Y-104945362D01*
X112789756Y-105028599D01*
X112928162Y-105085934D01*
X113033271Y-105106844D01*
X113075092Y-105115164D01*
X113075094Y-105115164D01*
X113084108Y-105115164D01*
X113284108Y-105115164D01*
X113298602Y-105115164D01*
X113298725Y-105115200D01*
X113350000Y-105115200D01*
X113424910Y-105115200D01*
X113449290Y-105110349D01*
X113571849Y-105085969D01*
X113710261Y-105028631D01*
X113710266Y-105028627D01*
X113710269Y-105028626D01*
X113779425Y-104982412D01*
X113834826Y-104945390D01*
X113940757Y-104839445D01*
X113940759Y-104839441D01*
X113940761Y-104839440D01*
X114023979Y-104714871D01*
X114023981Y-104714867D01*
X114081300Y-104576447D01*
X114110510Y-104429504D01*
X114110506Y-104405999D01*
X114110542Y-104405876D01*
X114110535Y-104354595D01*
X114110536Y-104354595D01*
X114110526Y-104279695D01*
X114081284Y-104132778D01*
X114068898Y-104102885D01*
X114023947Y-103994393D01*
X114023941Y-103994382D01*
X113940712Y-103869843D01*
X113940709Y-103869840D01*
X113911029Y-103840164D01*
X113834778Y-103763924D01*
X113834774Y-103763921D01*
X113710228Y-103680710D01*
X113710223Y-103680707D01*
X113571820Y-103623384D01*
X113454121Y-103599974D01*
X113424900Y-103594163D01*
X113424899Y-103594163D01*
X113350000Y-103594164D01*
X113076334Y-103594164D01*
X113075793Y-103594199D01*
X113075104Y-103594199D01*
X113050731Y-103599046D01*
X112928189Y-103623419D01*
X112789793Y-103680739D01*
X112789788Y-103680742D01*
X112665248Y-103763949D01*
X112665246Y-103763951D01*
X112559318Y-103869863D01*
X112559315Y-103869866D01*
X112476091Y-103994397D01*
X112476088Y-103994403D01*
X112453899Y-104047954D01*
X112410051Y-104102352D01*
X112343754Y-104124409D01*
X112276057Y-104107121D01*
X112228453Y-104055977D01*
X112227621Y-104054282D01*
X112225789Y-104050478D01*
X112190545Y-103994387D01*
X112129816Y-103897738D01*
X112002262Y-103770184D01*
X111992295Y-103763921D01*
X111849523Y-103674211D01*
X111679254Y-103614631D01*
X111679249Y-103614630D01*
X111500004Y-103594435D01*
X111499996Y-103594435D01*
X111320750Y-103614630D01*
X111320745Y-103614631D01*
X111150476Y-103674211D01*
X110997737Y-103770184D01*
X110870184Y-103897737D01*
X110774209Y-104050480D01*
X110741541Y-104143840D01*
X110700820Y-104200616D01*
X110635867Y-104226363D01*
X110567305Y-104212907D01*
X110516903Y-104164519D01*
X110500500Y-104102885D01*
X110500500Y-103131859D01*
X110520185Y-103064820D01*
X110572989Y-103019065D01*
X110642147Y-103009121D01*
X110693391Y-103028757D01*
X110852631Y-103135158D01*
X110852641Y-103135163D01*
X111043725Y-103214313D01*
X111043733Y-103214315D01*
X111246579Y-103254663D01*
X111246583Y-103254664D01*
X111650000Y-103254664D01*
X111650000Y-102478906D01*
X111659204Y-102484220D01*
X111735504Y-102504664D01*
X112064496Y-102504664D01*
X112140796Y-102484220D01*
X112150000Y-102478906D01*
X112150000Y-103254664D01*
X112553417Y-103254664D01*
X112553420Y-103254663D01*
X112756266Y-103214315D01*
X112756274Y-103214313D01*
X112947358Y-103135163D01*
X112947368Y-103135158D01*
X113119335Y-103020253D01*
X113119339Y-103020250D01*
X113265586Y-102874003D01*
X113265589Y-102873999D01*
X113380494Y-102702032D01*
X113380499Y-102702022D01*
X113459648Y-102510940D01*
X113459649Y-102510938D01*
X113470843Y-102454664D01*
X112191988Y-102454664D01*
X112209205Y-102444724D01*
X112265060Y-102388869D01*
X112304556Y-102320460D01*
X112325000Y-102244160D01*
X112325000Y-102165168D01*
X112304556Y-102088868D01*
X112265060Y-102020459D01*
X112209205Y-101964604D01*
X112191988Y-101954664D01*
X113470844Y-101954664D01*
X113485669Y-101936599D01*
X113486180Y-101930889D01*
X113529041Y-101875710D01*
X113594930Y-101852462D01*
X113642526Y-101859242D01*
X113645742Y-101860367D01*
X113645745Y-101860368D01*
X113645746Y-101860368D01*
X113645750Y-101860369D01*
X113824996Y-101880565D01*
X113825000Y-101880565D01*
X113825004Y-101880565D01*
X114004249Y-101860369D01*
X114004252Y-101860368D01*
X114004255Y-101860368D01*
X114174522Y-101800789D01*
X114327262Y-101704816D01*
X114454816Y-101577262D01*
X114550789Y-101424522D01*
X114610368Y-101254255D01*
X114615112Y-101212145D01*
X114642177Y-101147735D01*
X114699771Y-101108178D01*
X114724446Y-101102810D01*
X114785573Y-101095923D01*
X114879250Y-101085369D01*
X114879253Y-101085368D01*
X114879255Y-101085368D01*
X115049522Y-101025789D01*
X115202262Y-100929816D01*
X115329816Y-100802262D01*
X115425789Y-100649522D01*
X115485368Y-100479255D01*
X115490367Y-100434881D01*
X115517432Y-100370470D01*
X115547612Y-100343774D01*
X115663263Y-100271106D01*
X115790817Y-100143552D01*
X115886790Y-99990812D01*
X115946369Y-99820545D01*
X115948249Y-99803852D01*
X115975315Y-99739440D01*
X116030519Y-99700692D01*
X116040309Y-99697267D01*
X116193049Y-99601294D01*
X116320603Y-99473740D01*
X116416576Y-99321000D01*
X116435275Y-99267559D01*
X116475996Y-99210783D01*
X116527754Y-99189658D01*
X116527225Y-99187340D01*
X116534010Y-99185791D01*
X116534012Y-99185791D01*
X116704279Y-99126212D01*
X116857019Y-99030239D01*
X116984573Y-98902685D01*
X117080546Y-98749945D01*
X117140125Y-98579678D01*
X117143055Y-98553668D01*
X117170118Y-98489257D01*
X117218847Y-98455060D01*
X117218246Y-98453812D01*
X117224516Y-98450792D01*
X117224519Y-98450789D01*
X117224522Y-98450789D01*
X117377262Y-98354816D01*
X117504816Y-98227262D01*
X117600789Y-98074522D01*
X117660368Y-97904255D01*
X117672263Y-97798682D01*
X117680565Y-97725003D01*
X117680565Y-97724996D01*
X117660369Y-97545750D01*
X117660368Y-97545745D01*
X117616630Y-97420750D01*
X117600789Y-97375478D01*
X117504816Y-97222738D01*
X117377262Y-97095184D01*
X117338368Y-97070745D01*
X117224521Y-96999210D01*
X117054249Y-96939630D01*
X116967330Y-96929837D01*
X116902916Y-96902770D01*
X116893533Y-96894298D01*
X111311416Y-91312181D01*
X111277931Y-91250858D01*
X111282915Y-91181166D01*
X111324787Y-91125233D01*
X111390251Y-91100816D01*
X111399097Y-91100500D01*
X113289903Y-91100500D01*
X113356942Y-91120185D01*
X113377584Y-91136819D01*
X118169298Y-95928533D01*
X118202783Y-95989856D01*
X118204837Y-96002330D01*
X118214630Y-96089249D01*
X118274210Y-96259521D01*
X118363218Y-96401176D01*
X118382218Y-96468413D01*
X118361850Y-96535248D01*
X118324196Y-96572141D01*
X118247743Y-96620179D01*
X118247737Y-96620184D01*
X118120184Y-96747737D01*
X118024211Y-96900476D01*
X117964631Y-97070745D01*
X117964630Y-97070750D01*
X117944435Y-97249996D01*
X117944435Y-97250003D01*
X117964630Y-97429249D01*
X117964631Y-97429254D01*
X118024211Y-97599523D01*
X118120185Y-97752263D01*
X118122445Y-97755097D01*
X118123334Y-97757275D01*
X118123889Y-97758158D01*
X118123734Y-97758255D01*
X118148855Y-97819783D01*
X118149500Y-97832412D01*
X118149500Y-105974901D01*
X118129815Y-106041940D01*
X118113180Y-106062583D01*
X118056463Y-106119299D01*
X117995140Y-106152783D01*
X117982667Y-106154837D01*
X117895750Y-106164630D01*
X117725478Y-106224210D01*
X117572737Y-106320184D01*
X117445184Y-106447737D01*
X117349211Y-106600476D01*
X117289631Y-106770745D01*
X117289630Y-106770750D01*
X117269435Y-106949996D01*
X117269435Y-106950003D01*
X117289630Y-107129249D01*
X117289631Y-107129254D01*
X117349211Y-107299523D01*
X117379503Y-107347732D01*
X117445184Y-107452262D01*
X117572738Y-107579816D01*
X117644158Y-107624692D01*
X117717450Y-107670745D01*
X117725478Y-107675789D01*
X117895745Y-107735368D01*
X117895750Y-107735369D01*
X118074996Y-107755565D01*
X118075000Y-107755565D01*
X118075004Y-107755565D01*
X118254249Y-107735369D01*
X118254252Y-107735368D01*
X118254255Y-107735368D01*
X118424522Y-107675789D01*
X118577262Y-107579816D01*
X118704816Y-107452262D01*
X118800789Y-107299522D01*
X118860368Y-107129255D01*
X118870161Y-107042329D01*
X118897226Y-106977918D01*
X118905690Y-106968543D01*
X119108506Y-106765728D01*
X119108511Y-106765724D01*
X119118714Y-106755520D01*
X119118716Y-106755520D01*
X119230520Y-106643716D01*
X119282579Y-106553547D01*
X119309577Y-106506785D01*
X119350500Y-106354057D01*
X119350500Y-106195943D01*
X119350500Y-100694996D01*
X128854814Y-100694996D01*
X128854814Y-100695003D01*
X128873495Y-100860810D01*
X128873497Y-100860820D01*
X128926229Y-101011517D01*
X128928611Y-101018324D01*
X129017390Y-101159616D01*
X129135384Y-101277610D01*
X129141756Y-101281614D01*
X129155113Y-101290007D01*
X129201404Y-101342342D01*
X129212051Y-101411396D01*
X129183675Y-101475244D01*
X129155113Y-101499993D01*
X129135386Y-101512388D01*
X129135383Y-101512390D01*
X129017390Y-101630383D01*
X128928610Y-101771677D01*
X128873497Y-101929179D01*
X128873495Y-101929189D01*
X128854814Y-102094996D01*
X128854814Y-102095003D01*
X128873495Y-102260810D01*
X128873497Y-102260820D01*
X128922199Y-102400000D01*
X128928611Y-102418324D01*
X129017390Y-102559616D01*
X129135384Y-102677610D01*
X129276676Y-102766389D01*
X129434181Y-102821503D01*
X129434187Y-102821503D01*
X129434189Y-102821504D01*
X129461122Y-102824539D01*
X129525537Y-102851605D01*
X129565092Y-102909199D01*
X129570460Y-102933874D01*
X129573495Y-102960816D01*
X129628610Y-103118322D01*
X129628611Y-103118324D01*
X129717390Y-103259616D01*
X129835384Y-103377610D01*
X129976676Y-103466389D01*
X130134181Y-103521503D01*
X130134187Y-103521503D01*
X130134189Y-103521504D01*
X130299996Y-103540186D01*
X130300000Y-103540186D01*
X130300004Y-103540186D01*
X130465810Y-103521504D01*
X130465809Y-103521504D01*
X130465819Y-103521503D01*
X130623324Y-103466389D01*
X130764616Y-103377610D01*
X130882610Y-103259616D01*
X130895006Y-103239888D01*
X130947340Y-103193596D01*
X131016393Y-103182947D01*
X131080242Y-103211322D01*
X131104994Y-103239888D01*
X131117387Y-103259613D01*
X131117390Y-103259616D01*
X131235384Y-103377610D01*
X131376676Y-103466389D01*
X131534181Y-103521503D01*
X131534187Y-103521503D01*
X131534189Y-103521504D01*
X131699996Y-103540186D01*
X131700000Y-103540186D01*
X131700004Y-103540186D01*
X131865810Y-103521504D01*
X131865809Y-103521504D01*
X131865819Y-103521503D01*
X132023324Y-103466389D01*
X132164616Y-103377610D01*
X132282610Y-103259616D01*
X132371389Y-103118324D01*
X132426503Y-102960819D01*
X132426585Y-102960088D01*
X132429539Y-102933877D01*
X132456605Y-102869463D01*
X132514199Y-102829907D01*
X132538877Y-102824539D01*
X132565810Y-102821504D01*
X132565809Y-102821504D01*
X132565819Y-102821503D01*
X132723324Y-102766389D01*
X132864616Y-102677610D01*
X132982610Y-102559616D01*
X133071389Y-102418324D01*
X133126503Y-102260819D01*
X133145186Y-102095000D01*
X133144495Y-102088868D01*
X133126504Y-101929189D01*
X133126503Y-101929187D01*
X133126503Y-101929181D01*
X133071389Y-101771676D01*
X132982610Y-101630384D01*
X132864616Y-101512390D01*
X132864613Y-101512387D01*
X132844888Y-101499994D01*
X132798596Y-101447660D01*
X132787947Y-101378607D01*
X132816322Y-101314758D01*
X132844888Y-101290006D01*
X132864613Y-101277612D01*
X132864613Y-101277611D01*
X132864616Y-101277610D01*
X132982610Y-101159616D01*
X133071389Y-101018324D01*
X133126503Y-100860819D01*
X133133101Y-100802262D01*
X133145186Y-100695003D01*
X133145186Y-100694996D01*
X133126504Y-100529189D01*
X133126503Y-100529187D01*
X133126503Y-100529181D01*
X133071389Y-100371676D01*
X132982610Y-100230384D01*
X132864616Y-100112390D01*
X132723324Y-100023611D01*
X132723323Y-100023610D01*
X132723322Y-100023610D01*
X132565816Y-99968495D01*
X132538874Y-99965460D01*
X132474460Y-99938392D01*
X132434906Y-99880797D01*
X132429539Y-99856122D01*
X132426504Y-99829189D01*
X132426503Y-99829183D01*
X132426503Y-99829181D01*
X132371389Y-99671676D01*
X132282610Y-99530384D01*
X132164616Y-99412390D01*
X132023324Y-99323611D01*
X132023323Y-99323610D01*
X132023322Y-99323610D01*
X131865820Y-99268497D01*
X131865810Y-99268495D01*
X131700004Y-99249814D01*
X131699996Y-99249814D01*
X131534189Y-99268495D01*
X131534179Y-99268497D01*
X131376677Y-99323610D01*
X131235383Y-99412390D01*
X131117390Y-99530383D01*
X131117388Y-99530386D01*
X131104993Y-99550113D01*
X131052658Y-99596404D01*
X130983604Y-99607051D01*
X130919756Y-99578675D01*
X130895007Y-99550113D01*
X130882611Y-99530386D01*
X130882609Y-99530383D01*
X130764616Y-99412390D01*
X130623322Y-99323610D01*
X130465820Y-99268497D01*
X130465810Y-99268495D01*
X130300004Y-99249814D01*
X130299996Y-99249814D01*
X130134189Y-99268495D01*
X130134179Y-99268497D01*
X129976677Y-99323610D01*
X129835383Y-99412390D01*
X129717390Y-99530383D01*
X129628610Y-99671677D01*
X129573496Y-99829183D01*
X129570460Y-99856126D01*
X129543392Y-99920539D01*
X129485797Y-99960093D01*
X129461126Y-99965460D01*
X129434183Y-99968496D01*
X129276677Y-100023610D01*
X129135383Y-100112390D01*
X129017390Y-100230383D01*
X128928610Y-100371677D01*
X128873497Y-100529179D01*
X128873495Y-100529189D01*
X128854814Y-100694996D01*
X119350500Y-100694996D01*
X119350500Y-97832412D01*
X119370185Y-97765373D01*
X119377555Y-97755097D01*
X119379810Y-97752267D01*
X119379816Y-97752262D01*
X119475789Y-97599522D01*
X119535368Y-97429255D01*
X119535369Y-97429249D01*
X119555565Y-97250003D01*
X119555565Y-97249996D01*
X119535369Y-97070750D01*
X119535368Y-97070745D01*
X119475788Y-96900475D01*
X119409158Y-96794435D01*
X119386781Y-96758823D01*
X119367781Y-96691588D01*
X119388148Y-96624753D01*
X119425801Y-96587859D01*
X119502262Y-96539816D01*
X119629816Y-96412262D01*
X119725789Y-96259522D01*
X119785368Y-96089255D01*
X119795162Y-96002330D01*
X119805565Y-95910003D01*
X119805565Y-95909996D01*
X119785369Y-95730750D01*
X119785368Y-95730745D01*
X119729383Y-95570750D01*
X119725789Y-95560478D01*
X119629816Y-95407738D01*
X119502262Y-95280184D01*
X119450623Y-95247737D01*
X119349521Y-95184210D01*
X119179249Y-95124630D01*
X119092330Y-95114837D01*
X119027916Y-95087770D01*
X119018533Y-95079298D01*
X116873337Y-92934102D01*
X116839852Y-92872779D01*
X116844836Y-92803087D01*
X116873333Y-92758744D01*
X116929816Y-92702262D01*
X117025789Y-92549522D01*
X117085368Y-92379255D01*
X117085848Y-92374996D01*
X135344435Y-92374996D01*
X135344435Y-92375003D01*
X135364630Y-92554249D01*
X135364631Y-92554254D01*
X135424211Y-92724523D01*
X135500384Y-92845750D01*
X135520184Y-92877262D01*
X135647738Y-93004816D01*
X135800478Y-93100789D01*
X135970745Y-93160368D01*
X135970750Y-93160369D01*
X136149996Y-93180565D01*
X136150000Y-93180565D01*
X136150004Y-93180565D01*
X136329249Y-93160369D01*
X136329252Y-93160368D01*
X136329255Y-93160368D01*
X136499522Y-93100789D01*
X136652262Y-93004816D01*
X136779816Y-92877262D01*
X136875789Y-92724522D01*
X136935368Y-92554255D01*
X136945161Y-92467329D01*
X136972226Y-92402918D01*
X136980690Y-92393543D01*
X139180520Y-90193716D01*
X139259577Y-90056784D01*
X139300501Y-89904057D01*
X139300501Y-89745942D01*
X139300501Y-89738347D01*
X139300500Y-89738329D01*
X139300500Y-84289060D01*
X139300501Y-84289047D01*
X139300501Y-84135280D01*
X139317114Y-84073280D01*
X139341789Y-84030541D01*
X139381568Y-83961643D01*
X139477420Y-83717416D01*
X139535802Y-83461630D01*
X139539688Y-83409772D01*
X139555408Y-83200004D01*
X139555408Y-83199995D01*
X139535803Y-82938379D01*
X139535802Y-82938374D01*
X139535802Y-82938370D01*
X139477420Y-82682584D01*
X139381568Y-82438357D01*
X139250386Y-82211143D01*
X139086805Y-82006019D01*
X139086804Y-82006018D01*
X139086801Y-82006014D01*
X138894479Y-81827567D01*
X138677704Y-81679772D01*
X138677700Y-81679770D01*
X138677697Y-81679768D01*
X138677696Y-81679767D01*
X138441325Y-81565938D01*
X138441327Y-81565938D01*
X138190623Y-81488606D01*
X138190619Y-81488605D01*
X138190615Y-81488604D01*
X138065823Y-81469794D01*
X137931187Y-81449500D01*
X137931182Y-81449500D01*
X137668818Y-81449500D01*
X137668812Y-81449500D01*
X137507247Y-81473853D01*
X137409385Y-81488604D01*
X137409382Y-81488605D01*
X137409376Y-81488606D01*
X137158673Y-81565938D01*
X136922303Y-81679767D01*
X136922302Y-81679768D01*
X136922296Y-81679771D01*
X136922296Y-81679772D01*
X136921479Y-81680329D01*
X136705520Y-81827567D01*
X136513198Y-82006014D01*
X136349614Y-82211143D01*
X136218432Y-82438356D01*
X136122582Y-82682578D01*
X136122576Y-82682597D01*
X136064197Y-82938374D01*
X136064196Y-82938379D01*
X136044592Y-83199995D01*
X136044592Y-83200004D01*
X136064196Y-83461620D01*
X136064197Y-83461625D01*
X136122576Y-83717402D01*
X136122578Y-83717411D01*
X136122580Y-83717416D01*
X136218432Y-83961643D01*
X136349614Y-84188857D01*
X136461773Y-84329500D01*
X136513198Y-84393985D01*
X136694753Y-84562441D01*
X136705521Y-84572433D01*
X136922296Y-84720228D01*
X136922301Y-84720230D01*
X136922302Y-84720231D01*
X136922303Y-84720232D01*
X137001212Y-84758232D01*
X137158673Y-84834061D01*
X137158674Y-84834061D01*
X137158677Y-84834063D01*
X137409385Y-84911396D01*
X137668818Y-84950500D01*
X137931176Y-84950500D01*
X137931182Y-84950500D01*
X137957019Y-84946605D01*
X138026242Y-84956077D01*
X138079356Y-85001472D01*
X138099497Y-85068376D01*
X138099500Y-85069220D01*
X138099500Y-89524902D01*
X138079815Y-89591941D01*
X138063181Y-89612583D01*
X136131465Y-91544298D01*
X136070142Y-91577783D01*
X136057668Y-91579837D01*
X135970750Y-91589630D01*
X135800478Y-91649210D01*
X135647737Y-91745184D01*
X135520184Y-91872737D01*
X135424211Y-92025476D01*
X135364631Y-92195745D01*
X135364630Y-92195750D01*
X135344435Y-92374996D01*
X117085848Y-92374996D01*
X117095824Y-92286443D01*
X117122889Y-92222033D01*
X117178093Y-92183286D01*
X117199522Y-92175789D01*
X117352262Y-92079816D01*
X117479816Y-91952262D01*
X117575789Y-91799522D01*
X117635368Y-91629255D01*
X117637016Y-91614630D01*
X117655565Y-91450003D01*
X117655565Y-91449996D01*
X117635369Y-91270750D01*
X117635368Y-91270745D01*
X117621560Y-91231284D01*
X117575789Y-91100478D01*
X117479816Y-90947738D01*
X117352262Y-90820184D01*
X117199521Y-90724210D01*
X117029249Y-90664630D01*
X116942330Y-90654837D01*
X116877916Y-90627770D01*
X116868533Y-90619298D01*
X115462590Y-89213355D01*
X115462588Y-89213352D01*
X115343717Y-89094481D01*
X115343709Y-89094475D01*
X115230402Y-89029058D01*
X115230401Y-89029057D01*
X115213801Y-89019474D01*
X115206785Y-89015423D01*
X115054057Y-88974499D01*
X114895943Y-88974499D01*
X114888347Y-88974499D01*
X114888331Y-88974500D01*
X103313392Y-88974500D01*
X103246353Y-88954815D01*
X103200598Y-88902011D01*
X103190171Y-88836621D01*
X103193929Y-88803263D01*
X103220994Y-88738854D01*
X103278588Y-88699297D01*
X103303254Y-88693930D01*
X103379255Y-88685368D01*
X103549522Y-88625789D01*
X103702262Y-88529816D01*
X103829816Y-88402262D01*
X103925789Y-88249522D01*
X103985368Y-88079255D01*
X103987294Y-88062160D01*
X104005565Y-87900003D01*
X104005565Y-87899996D01*
X103985369Y-87720750D01*
X103985368Y-87720745D01*
X103925788Y-87550476D01*
X103829815Y-87397737D01*
X103702262Y-87270184D01*
X103549521Y-87174210D01*
X103411140Y-87125789D01*
X103382297Y-87115696D01*
X103335571Y-87086336D01*
X102230700Y-85981465D01*
X102197215Y-85920142D01*
X102195163Y-85907686D01*
X102185368Y-85820745D01*
X102153774Y-85730454D01*
X102150213Y-85660676D01*
X102184942Y-85600048D01*
X102246935Y-85567821D01*
X102270816Y-85565500D01*
X104611988Y-85565500D01*
X104679027Y-85585185D01*
X104713562Y-85618375D01*
X104735326Y-85649457D01*
X104890543Y-85804674D01*
X104890546Y-85804676D01*
X104890547Y-85804677D01*
X105027289Y-85900425D01*
X105070914Y-85955002D01*
X105078107Y-86024500D01*
X105046585Y-86086855D01*
X104986355Y-86122269D01*
X104956166Y-86126000D01*
X104898155Y-86126000D01*
X104838627Y-86132401D01*
X104838620Y-86132403D01*
X104703913Y-86182645D01*
X104703906Y-86182649D01*
X104588812Y-86268809D01*
X104588809Y-86268812D01*
X104502649Y-86383906D01*
X104502645Y-86383913D01*
X104452403Y-86518620D01*
X104452401Y-86518627D01*
X104446000Y-86578155D01*
X104446000Y-87130000D01*
X105266988Y-87130000D01*
X105234075Y-87187007D01*
X105200000Y-87314174D01*
X105200000Y-87445826D01*
X105234075Y-87572993D01*
X105266988Y-87630000D01*
X104446000Y-87630000D01*
X104446000Y-88181844D01*
X104452401Y-88241372D01*
X104452403Y-88241379D01*
X104502645Y-88376086D01*
X104502649Y-88376093D01*
X104588809Y-88491187D01*
X104588812Y-88491190D01*
X104703906Y-88577350D01*
X104703913Y-88577354D01*
X104838620Y-88627596D01*
X104838627Y-88627598D01*
X104898155Y-88633999D01*
X104898172Y-88634000D01*
X105450000Y-88634000D01*
X105450000Y-87813012D01*
X105507007Y-87845925D01*
X105634174Y-87880000D01*
X105765826Y-87880000D01*
X105892993Y-87845925D01*
X105950000Y-87813012D01*
X105950000Y-88634000D01*
X106501828Y-88634000D01*
X106501844Y-88633999D01*
X106561372Y-88627598D01*
X106561379Y-88627596D01*
X106696086Y-88577354D01*
X106696093Y-88577350D01*
X106811187Y-88491190D01*
X106811190Y-88491187D01*
X106897350Y-88376093D01*
X106897354Y-88376086D01*
X106947596Y-88241379D01*
X106947598Y-88241372D01*
X106953999Y-88181844D01*
X106954000Y-88181827D01*
X106954000Y-87630000D01*
X106133012Y-87630000D01*
X106165925Y-87572993D01*
X106200000Y-87445826D01*
X106200000Y-87314174D01*
X106165925Y-87187007D01*
X106133012Y-87130000D01*
X106954000Y-87130000D01*
X106954000Y-86578172D01*
X106953999Y-86578155D01*
X106947598Y-86518627D01*
X106947596Y-86518620D01*
X106897354Y-86383913D01*
X106897350Y-86383906D01*
X106811190Y-86268812D01*
X106811187Y-86268809D01*
X106696093Y-86182649D01*
X106696086Y-86182645D01*
X106561379Y-86132403D01*
X106561372Y-86132401D01*
X106501844Y-86126000D01*
X106443834Y-86126000D01*
X106376795Y-86106315D01*
X106331040Y-86053511D01*
X106321096Y-85984353D01*
X106350121Y-85920797D01*
X106372711Y-85900425D01*
X106408965Y-85875038D01*
X106509457Y-85804674D01*
X106664674Y-85649457D01*
X106790579Y-85469646D01*
X106883347Y-85270703D01*
X106940161Y-85058674D01*
X106959292Y-84840000D01*
X106958772Y-84834061D01*
X106948814Y-84720231D01*
X106940161Y-84621326D01*
X106883347Y-84409297D01*
X106790579Y-84210354D01*
X106790577Y-84210351D01*
X106790576Y-84210349D01*
X106664677Y-84030547D01*
X106664672Y-84030541D01*
X106509458Y-83875327D01*
X106509452Y-83875322D01*
X106329650Y-83749423D01*
X106329642Y-83749419D01*
X106185879Y-83682382D01*
X106133439Y-83636210D01*
X106114287Y-83569017D01*
X106134502Y-83502136D01*
X106185879Y-83457618D01*
X106329646Y-83390579D01*
X106509457Y-83264674D01*
X106664674Y-83109457D01*
X106686437Y-83078375D01*
X106741014Y-83034751D01*
X106788012Y-83025500D01*
X112838457Y-83025500D01*
X112932751Y-83006742D01*
X112978620Y-82997619D01*
X113110653Y-82942929D01*
X113118356Y-82937782D01*
X113130533Y-82929646D01*
X113175678Y-82899481D01*
X113229480Y-82863532D01*
X114372787Y-81720223D01*
X114434108Y-81686740D01*
X114434335Y-81686690D01*
X114464267Y-81680329D01*
X114627593Y-81607612D01*
X114772230Y-81502526D01*
X114783022Y-81490541D01*
X114819975Y-81449500D01*
X114891859Y-81369665D01*
X114981250Y-81214835D01*
X114983009Y-81209423D01*
X114984965Y-81203399D01*
X115036497Y-81044803D01*
X115055185Y-80867000D01*
X115036497Y-80689197D01*
X114981250Y-80519165D01*
X114891859Y-80364335D01*
X114845003Y-80312296D01*
X114772235Y-80231478D01*
X114772232Y-80231476D01*
X114772231Y-80231475D01*
X114772230Y-80231474D01*
X114627593Y-80126388D01*
X114464267Y-80053671D01*
X114464265Y-80053670D01*
X114336594Y-80026533D01*
X114289391Y-80016500D01*
X114110609Y-80016500D01*
X114079954Y-80023015D01*
X113935733Y-80053670D01*
X113935728Y-80053672D01*
X113772408Y-80126387D01*
X113627768Y-80231475D01*
X113508140Y-80364336D01*
X113418750Y-80519164D01*
X113418748Y-80519168D01*
X113378338Y-80643536D01*
X113348088Y-80692898D01*
X112502807Y-81538181D01*
X112441484Y-81571666D01*
X112415126Y-81574500D01*
X107750874Y-81574500D01*
X107683835Y-81554815D01*
X107638080Y-81502011D01*
X107628136Y-81432853D01*
X107657161Y-81369297D01*
X107663193Y-81362819D01*
X107963530Y-81062482D01*
X107963532Y-81062480D01*
X108042929Y-80943653D01*
X108097619Y-80811620D01*
X108121971Y-80689197D01*
X108125500Y-80671457D01*
X108125500Y-77000000D01*
X126844815Y-77000000D01*
X126863503Y-77177805D01*
X126863504Y-77177807D01*
X126918747Y-77347829D01*
X126918750Y-77347835D01*
X127008141Y-77502665D01*
X127049812Y-77548946D01*
X127127764Y-77635521D01*
X127127767Y-77635523D01*
X127127770Y-77635526D01*
X127272407Y-77740612D01*
X127435733Y-77813329D01*
X127465309Y-77819615D01*
X127526790Y-77852806D01*
X127527070Y-77853084D01*
X127637518Y-77963532D01*
X127637519Y-77963533D01*
X127756337Y-78042925D01*
X127756343Y-78042928D01*
X127756344Y-78042929D01*
X127888377Y-78097619D01*
X127888381Y-78097619D01*
X127888382Y-78097620D01*
X128028539Y-78125500D01*
X128028542Y-78125500D01*
X128171452Y-78125500D01*
X132613006Y-78125500D01*
X132665730Y-78139629D01*
X132666470Y-78137969D01*
X132709910Y-78157309D01*
X132835733Y-78213329D01*
X133010609Y-78250500D01*
X133010610Y-78250500D01*
X133189389Y-78250500D01*
X133189391Y-78250500D01*
X133364267Y-78213329D01*
X133527593Y-78140612D01*
X133672230Y-78035526D01*
X133791859Y-77902665D01*
X133881250Y-77747835D01*
X133936497Y-77577803D01*
X133955185Y-77400000D01*
X133936497Y-77222197D01*
X133881250Y-77052165D01*
X133791859Y-76897335D01*
X133745003Y-76845296D01*
X133672235Y-76764478D01*
X133672232Y-76764476D01*
X133672231Y-76764475D01*
X133672230Y-76764474D01*
X133527593Y-76659388D01*
X133364267Y-76586671D01*
X133364265Y-76586670D01*
X133236594Y-76559533D01*
X133189391Y-76549500D01*
X133010609Y-76549500D01*
X132979954Y-76556015D01*
X132835733Y-76586670D01*
X132835728Y-76586672D01*
X132666472Y-76662031D01*
X132665733Y-76660373D01*
X132613008Y-76674500D01*
X128565737Y-76674500D01*
X128498698Y-76654815D01*
X128458350Y-76612500D01*
X128421976Y-76549500D01*
X128391859Y-76497335D01*
X128272235Y-76364478D01*
X128272232Y-76364476D01*
X128272231Y-76364475D01*
X128272230Y-76364474D01*
X128127593Y-76259388D01*
X127964267Y-76186671D01*
X127964265Y-76186670D01*
X127836594Y-76159533D01*
X127789391Y-76149500D01*
X127610609Y-76149500D01*
X127579954Y-76156015D01*
X127435733Y-76186670D01*
X127435728Y-76186672D01*
X127272408Y-76259387D01*
X127127768Y-76364475D01*
X127008140Y-76497336D01*
X126918750Y-76652164D01*
X126918747Y-76652170D01*
X126863504Y-76822192D01*
X126863503Y-76822194D01*
X126844815Y-77000000D01*
X108125500Y-77000000D01*
X108125500Y-75549500D01*
X108145185Y-75482461D01*
X108197989Y-75436706D01*
X108249500Y-75425500D01*
X110246575Y-75425500D01*
X110340869Y-75406742D01*
X110386738Y-75397619D01*
X110518771Y-75342929D01*
X110529850Y-75335526D01*
X110637598Y-75263532D01*
X114901132Y-70999996D01*
X127194435Y-70999996D01*
X127194435Y-71000003D01*
X127214630Y-71179249D01*
X127214631Y-71179254D01*
X127274211Y-71349523D01*
X127315121Y-71414630D01*
X127370184Y-71502262D01*
X127497738Y-71629816D01*
X127650478Y-71725789D01*
X127820745Y-71785368D01*
X127907669Y-71795161D01*
X127972080Y-71822226D01*
X127981465Y-71830700D01*
X128178166Y-72027401D01*
X128211651Y-72088724D01*
X128213705Y-72128965D01*
X128194435Y-72299996D01*
X128194435Y-72300003D01*
X128214630Y-72479249D01*
X128214631Y-72479254D01*
X128274211Y-72649523D01*
X128370184Y-72802262D01*
X128497738Y-72929816D01*
X128650478Y-73025789D01*
X128820745Y-73085368D01*
X128820750Y-73085369D01*
X128999996Y-73105565D01*
X129000000Y-73105565D01*
X129000004Y-73105565D01*
X129179249Y-73085369D01*
X129179252Y-73085368D01*
X129179255Y-73085368D01*
X129349522Y-73025789D01*
X129502262Y-72929816D01*
X129629816Y-72802262D01*
X129725789Y-72649522D01*
X129785368Y-72479255D01*
X129785369Y-72479249D01*
X129805565Y-72300003D01*
X129805565Y-72299996D01*
X129785369Y-72120750D01*
X129785368Y-72120745D01*
X129765950Y-72065251D01*
X129725789Y-71950478D01*
X129629816Y-71797738D01*
X129515502Y-71683424D01*
X129495795Y-71657742D01*
X129480520Y-71631284D01*
X129480518Y-71631282D01*
X128830700Y-70981465D01*
X128797215Y-70920142D01*
X128795163Y-70907686D01*
X128785368Y-70820745D01*
X128725789Y-70650478D01*
X128629816Y-70497738D01*
X128502262Y-70370184D01*
X128349523Y-70274211D01*
X128179254Y-70214631D01*
X128179249Y-70214630D01*
X128000004Y-70194435D01*
X127999996Y-70194435D01*
X127820750Y-70214630D01*
X127820745Y-70214631D01*
X127650476Y-70274211D01*
X127497737Y-70370184D01*
X127370184Y-70497737D01*
X127274211Y-70650476D01*
X127214631Y-70820745D01*
X127214630Y-70820750D01*
X127194435Y-70999996D01*
X114901132Y-70999996D01*
X115137124Y-70764004D01*
X115198445Y-70730521D01*
X115198633Y-70730480D01*
X115315298Y-70705683D01*
X115478624Y-70632966D01*
X115623261Y-70527880D01*
X115742890Y-70395019D01*
X115832281Y-70240189D01*
X115887528Y-70070157D01*
X115889580Y-70050631D01*
X115916162Y-69986016D01*
X115925211Y-69975917D01*
X118888056Y-67013074D01*
X126295500Y-67013074D01*
X126295500Y-67186925D01*
X126322697Y-67358639D01*
X126322697Y-67358642D01*
X126376418Y-67523978D01*
X126376420Y-67523981D01*
X126455347Y-67678884D01*
X126557535Y-67819533D01*
X126680467Y-67942465D01*
X126821116Y-68044653D01*
X126976019Y-68123580D01*
X126976021Y-68123581D01*
X127141358Y-68177302D01*
X127141359Y-68177302D01*
X127141362Y-68177303D01*
X127313074Y-68204500D01*
X127313075Y-68204500D01*
X127486925Y-68204500D01*
X127486926Y-68204500D01*
X127658638Y-68177303D01*
X127658641Y-68177302D01*
X127658642Y-68177302D01*
X127823978Y-68123581D01*
X127823978Y-68123580D01*
X127823981Y-68123580D01*
X127978884Y-68044653D01*
X128119533Y-67942465D01*
X128242465Y-67819533D01*
X128344653Y-67678884D01*
X128423580Y-67523981D01*
X128477303Y-67358638D01*
X128504500Y-67186926D01*
X128504500Y-67013074D01*
X128477303Y-66841362D01*
X128477302Y-66841358D01*
X128477302Y-66841357D01*
X128423580Y-66676019D01*
X128423579Y-66676016D01*
X128364834Y-66560724D01*
X128344653Y-66521116D01*
X128242465Y-66380467D01*
X128119533Y-66257535D01*
X127978884Y-66155347D01*
X127906260Y-66118343D01*
X127823978Y-66076418D01*
X127658641Y-66022697D01*
X127515457Y-66000019D01*
X127486926Y-65995500D01*
X127313074Y-65995500D01*
X127284543Y-66000019D01*
X127141360Y-66022697D01*
X127141357Y-66022697D01*
X126976021Y-66076418D01*
X126821115Y-66155347D01*
X126778002Y-66186671D01*
X126680467Y-66257535D01*
X126680465Y-66257537D01*
X126680464Y-66257537D01*
X126557537Y-66380464D01*
X126557537Y-66380465D01*
X126557535Y-66380467D01*
X126515215Y-66438715D01*
X126455347Y-66521115D01*
X126376421Y-66676016D01*
X126376419Y-66676019D01*
X126322697Y-66841357D01*
X126322697Y-66841360D01*
X126295500Y-67013074D01*
X118888056Y-67013074D01*
X118968432Y-66932698D01*
X119047829Y-66813871D01*
X119102519Y-66681838D01*
X119104774Y-66670500D01*
X119130400Y-66541673D01*
X119130400Y-60013074D01*
X126295500Y-60013074D01*
X126295500Y-60186925D01*
X126322697Y-60358639D01*
X126322697Y-60358642D01*
X126376418Y-60523978D01*
X126376420Y-60523981D01*
X126455347Y-60678884D01*
X126557535Y-60819533D01*
X126680467Y-60942465D01*
X126821116Y-61044653D01*
X126924004Y-61097077D01*
X126976021Y-61123581D01*
X127141358Y-61177302D01*
X127141359Y-61177302D01*
X127141362Y-61177303D01*
X127313074Y-61204500D01*
X127313075Y-61204500D01*
X127486925Y-61204500D01*
X127486926Y-61204500D01*
X127658638Y-61177303D01*
X127658641Y-61177302D01*
X127658642Y-61177302D01*
X127823978Y-61123581D01*
X127823978Y-61123580D01*
X127823981Y-61123580D01*
X127978884Y-61044653D01*
X128119533Y-60942465D01*
X128242465Y-60819533D01*
X128344653Y-60678884D01*
X128423580Y-60523981D01*
X128477303Y-60358638D01*
X128504500Y-60186926D01*
X128504500Y-60013074D01*
X128477303Y-59841362D01*
X128477302Y-59841358D01*
X128477302Y-59841357D01*
X128423581Y-59676021D01*
X128364705Y-59560471D01*
X128344653Y-59521116D01*
X128242465Y-59380467D01*
X128119533Y-59257535D01*
X127978884Y-59155347D01*
X127969371Y-59150500D01*
X127823978Y-59076418D01*
X127658641Y-59022697D01*
X127529854Y-59002299D01*
X127486926Y-58995500D01*
X127313074Y-58995500D01*
X127255836Y-59004565D01*
X127141360Y-59022697D01*
X127141357Y-59022697D01*
X126976021Y-59076418D01*
X126821115Y-59155347D01*
X126759398Y-59200188D01*
X126680467Y-59257535D01*
X126680465Y-59257537D01*
X126680464Y-59257537D01*
X126557537Y-59380464D01*
X126557537Y-59380465D01*
X126557535Y-59380467D01*
X126516593Y-59436818D01*
X126455347Y-59521115D01*
X126376418Y-59676021D01*
X126322697Y-59841357D01*
X126322697Y-59841360D01*
X126295500Y-60013074D01*
X119130400Y-60013074D01*
X119130400Y-59320655D01*
X119130400Y-59320652D01*
X119102520Y-59180495D01*
X119102519Y-59180494D01*
X119102519Y-59180490D01*
X119047829Y-59048457D01*
X119039928Y-59036632D01*
X118968433Y-58929631D01*
X118968431Y-58929628D01*
X117565272Y-57526469D01*
X117459058Y-57455500D01*
X117446443Y-57447071D01*
X117348066Y-57406322D01*
X117314410Y-57392381D01*
X117303350Y-57390181D01*
X117303348Y-57390180D01*
X117303346Y-57390180D01*
X117284030Y-57386337D01*
X117222120Y-57353950D01*
X117206651Y-57335844D01*
X117181529Y-57299966D01*
X117140180Y-57258617D01*
X117030035Y-57148472D01*
X116854539Y-57025588D01*
X116854540Y-57025588D01*
X116854538Y-57025587D01*
X116757454Y-56980316D01*
X116660369Y-56935045D01*
X116660365Y-56935044D01*
X116660361Y-56935042D01*
X116453427Y-56879595D01*
X116240002Y-56860923D01*
X116239998Y-56860923D01*
X116113295Y-56872008D01*
X116026573Y-56879595D01*
X116026570Y-56879595D01*
X115819638Y-56935042D01*
X115819629Y-56935046D01*
X115625462Y-57025587D01*
X115625460Y-57025588D01*
X115449966Y-57148470D01*
X115311680Y-57286756D01*
X115250357Y-57320240D01*
X115180665Y-57315256D01*
X115136318Y-57286755D01*
X114998039Y-57148476D01*
X114998035Y-57148472D01*
X114822539Y-57025588D01*
X114822540Y-57025588D01*
X114822538Y-57025587D01*
X114725454Y-56980316D01*
X114628369Y-56935045D01*
X114628365Y-56935044D01*
X114628361Y-56935042D01*
X114421427Y-56879595D01*
X114208002Y-56860923D01*
X114207998Y-56860923D01*
X114081295Y-56872008D01*
X113994573Y-56879595D01*
X113994570Y-56879595D01*
X113787638Y-56935042D01*
X113787629Y-56935046D01*
X113593462Y-57025587D01*
X113593460Y-57025588D01*
X113417966Y-57148470D01*
X113279680Y-57286756D01*
X113218357Y-57320240D01*
X113148665Y-57315256D01*
X113104318Y-57286755D01*
X112966039Y-57148476D01*
X112966035Y-57148472D01*
X112790539Y-57025588D01*
X112790540Y-57025588D01*
X112790538Y-57025587D01*
X112693454Y-56980316D01*
X112596369Y-56935045D01*
X112596365Y-56935044D01*
X112596361Y-56935042D01*
X112389427Y-56879595D01*
X112176002Y-56860923D01*
X112175998Y-56860923D01*
X112049295Y-56872008D01*
X111962573Y-56879595D01*
X111962570Y-56879595D01*
X111755638Y-56935042D01*
X111755629Y-56935046D01*
X111561462Y-57025587D01*
X111561460Y-57025588D01*
X111447771Y-57105194D01*
X111381565Y-57127521D01*
X111313797Y-57110511D01*
X111277382Y-57077931D01*
X111256170Y-57049596D01*
X111225446Y-57008554D01*
X111225444Y-57008553D01*
X111225444Y-57008552D01*
X111110235Y-56922306D01*
X111110228Y-56922302D01*
X110975382Y-56872008D01*
X110975383Y-56872008D01*
X110915783Y-56865601D01*
X110915781Y-56865600D01*
X110915773Y-56865600D01*
X110915764Y-56865600D01*
X109372229Y-56865600D01*
X109372223Y-56865601D01*
X109312616Y-56872008D01*
X109177771Y-56922302D01*
X109177764Y-56922306D01*
X109062555Y-57008552D01*
X109062552Y-57008555D01*
X108976306Y-57123764D01*
X108976302Y-57123771D01*
X108926008Y-57258617D01*
X108919601Y-57318216D01*
X108919600Y-57318235D01*
X108919600Y-58861770D01*
X108919601Y-58861776D01*
X108926008Y-58921383D01*
X108976302Y-59056228D01*
X108976306Y-59056235D01*
X109062552Y-59171444D01*
X109062555Y-59171447D01*
X109177764Y-59257693D01*
X109177771Y-59257697D01*
X109222718Y-59274461D01*
X109312617Y-59307991D01*
X109372227Y-59314400D01*
X109879144Y-59314399D01*
X109946183Y-59334083D01*
X109991938Y-59386887D01*
X110001882Y-59456046D01*
X109998919Y-59470492D01*
X109949595Y-59654570D01*
X109949595Y-59654573D01*
X109944927Y-59707929D01*
X109930923Y-59867997D01*
X109930923Y-59868002D01*
X109949595Y-60081425D01*
X109949595Y-60081429D01*
X110005042Y-60288361D01*
X110005044Y-60288365D01*
X110005045Y-60288369D01*
X110037814Y-60358642D01*
X110095587Y-60482538D01*
X110095588Y-60482539D01*
X110218472Y-60658035D01*
X110369965Y-60809528D01*
X110545461Y-60932412D01*
X110739631Y-61022955D01*
X110946573Y-61078405D01*
X111125658Y-61094072D01*
X111159998Y-61097077D01*
X111160000Y-61097077D01*
X111160002Y-61097077D01*
X111187664Y-61094656D01*
X111373427Y-61078405D01*
X111580369Y-61022955D01*
X111774539Y-60932412D01*
X111950035Y-60809528D01*
X112088319Y-60671244D01*
X112149642Y-60637759D01*
X112219334Y-60642743D01*
X112263681Y-60671244D01*
X112401965Y-60809528D01*
X112577461Y-60932412D01*
X112771631Y-61022955D01*
X112978573Y-61078405D01*
X113157658Y-61094072D01*
X113191998Y-61097077D01*
X113192000Y-61097077D01*
X113192002Y-61097077D01*
X113219664Y-61094656D01*
X113405427Y-61078405D01*
X113612369Y-61022955D01*
X113806539Y-60932412D01*
X113982035Y-60809528D01*
X114120319Y-60671244D01*
X114181642Y-60637759D01*
X114251334Y-60642743D01*
X114295681Y-60671244D01*
X114433965Y-60809528D01*
X114609461Y-60932412D01*
X114803631Y-61022955D01*
X115010573Y-61078405D01*
X115189658Y-61094072D01*
X115223998Y-61097077D01*
X115224000Y-61097077D01*
X115224002Y-61097077D01*
X115251664Y-61094656D01*
X115437427Y-61078405D01*
X115644369Y-61022955D01*
X115838539Y-60932412D01*
X116014035Y-60809528D01*
X116152319Y-60671244D01*
X116213642Y-60637759D01*
X116283334Y-60642743D01*
X116327681Y-60671244D01*
X116465965Y-60809528D01*
X116641461Y-60932412D01*
X116835631Y-61022955D01*
X117042573Y-61078405D01*
X117221658Y-61094072D01*
X117255998Y-61097077D01*
X117256000Y-61097077D01*
X117256002Y-61097077D01*
X117283664Y-61094656D01*
X117469427Y-61078405D01*
X117523306Y-61063968D01*
X117593155Y-61065629D01*
X117651018Y-61104791D01*
X117678523Y-61169019D01*
X117679400Y-61183742D01*
X117679400Y-66118343D01*
X117659715Y-66185382D01*
X117643081Y-66206024D01*
X114772942Y-69076162D01*
X114735697Y-69101760D01*
X114623441Y-69151740D01*
X114478799Y-69256829D01*
X114359171Y-69389690D01*
X114269781Y-69544517D01*
X114269780Y-69544521D01*
X114262227Y-69567766D01*
X114231978Y-69617126D01*
X109910925Y-73938181D01*
X109849602Y-73971666D01*
X109823244Y-73974500D01*
X107886994Y-73974500D01*
X107834269Y-73960370D01*
X107833530Y-73962031D01*
X107752614Y-73926005D01*
X107664267Y-73886671D01*
X107664265Y-73886670D01*
X107536594Y-73859533D01*
X107489391Y-73849500D01*
X107310609Y-73849500D01*
X107279954Y-73856015D01*
X107135733Y-73886670D01*
X107135728Y-73886672D01*
X106972408Y-73959387D01*
X106827768Y-74064475D01*
X106708140Y-74197336D01*
X106618750Y-74352164D01*
X106618747Y-74352170D01*
X106563504Y-74522192D01*
X106563503Y-74522194D01*
X106544815Y-74700000D01*
X106563503Y-74877805D01*
X106563504Y-74877807D01*
X106618747Y-75047829D01*
X106618750Y-75047835D01*
X106657887Y-75115621D01*
X106674500Y-75177621D01*
X106674500Y-78672688D01*
X106654815Y-78739727D01*
X106602011Y-78785482D01*
X106532853Y-78795426D01*
X106479377Y-78774263D01*
X106329650Y-78669423D01*
X106329642Y-78669419D01*
X106130708Y-78576655D01*
X106130706Y-78576654D01*
X106130703Y-78576653D01*
X105979885Y-78536240D01*
X105918675Y-78519839D01*
X105918668Y-78519838D01*
X105700002Y-78500708D01*
X105699998Y-78500708D01*
X105481331Y-78519838D01*
X105481324Y-78519839D01*
X105358902Y-78552642D01*
X105269297Y-78576653D01*
X105269295Y-78576653D01*
X105269291Y-78576655D01*
X105070357Y-78669419D01*
X105070349Y-78669423D01*
X104890547Y-78795322D01*
X104890541Y-78795327D01*
X104735327Y-78950541D01*
X104735322Y-78950547D01*
X104609423Y-79130349D01*
X104609419Y-79130357D01*
X104516655Y-79329291D01*
X104459839Y-79541324D01*
X104459838Y-79541331D01*
X104451826Y-79632912D01*
X104440708Y-79760000D01*
X104459839Y-79978674D01*
X104516653Y-80190703D01*
X104516654Y-80190706D01*
X104516655Y-80190708D01*
X104609419Y-80389642D01*
X104609423Y-80389650D01*
X104735322Y-80569452D01*
X104735327Y-80569458D01*
X104890541Y-80724672D01*
X104890547Y-80724677D01*
X105070349Y-80850576D01*
X105070351Y-80850577D01*
X105070354Y-80850579D01*
X105154963Y-80890032D01*
X105214120Y-80917618D01*
X105266560Y-80963790D01*
X105285712Y-81030983D01*
X105265496Y-81097865D01*
X105214120Y-81142382D01*
X105070357Y-81209419D01*
X105070349Y-81209423D01*
X104890547Y-81335322D01*
X104890541Y-81335327D01*
X104735327Y-81490541D01*
X104735322Y-81490547D01*
X104609423Y-81670349D01*
X104609419Y-81670357D01*
X104516655Y-81869291D01*
X104516653Y-81869295D01*
X104516653Y-81869297D01*
X104509032Y-81897738D01*
X104459839Y-82081324D01*
X104459838Y-82081331D01*
X104440708Y-82299997D01*
X104440708Y-82300002D01*
X104456525Y-82480800D01*
X104459839Y-82518674D01*
X104516653Y-82730703D01*
X104516654Y-82730706D01*
X104516655Y-82730708D01*
X104609419Y-82929642D01*
X104609423Y-82929650D01*
X104735322Y-83109452D01*
X104735327Y-83109458D01*
X104890541Y-83264672D01*
X104890547Y-83264677D01*
X105070349Y-83390576D01*
X105070351Y-83390577D01*
X105070354Y-83390579D01*
X105111514Y-83409772D01*
X105214120Y-83457618D01*
X105266560Y-83503790D01*
X105285712Y-83570983D01*
X105265496Y-83637865D01*
X105214120Y-83682382D01*
X105070357Y-83749419D01*
X105070349Y-83749423D01*
X104890547Y-83875322D01*
X104735326Y-84030542D01*
X104713563Y-84061624D01*
X104658986Y-84105249D01*
X104611988Y-84114500D01*
X97616874Y-84114500D01*
X97549835Y-84094815D01*
X97529193Y-84078181D01*
X97111818Y-83660806D01*
X97078333Y-83599483D01*
X97075499Y-83573125D01*
X97075499Y-82852129D01*
X97075498Y-82852123D01*
X97069091Y-82792516D01*
X97018797Y-82657671D01*
X97018793Y-82657664D01*
X96932547Y-82542455D01*
X96932544Y-82542452D01*
X96817335Y-82456206D01*
X96817328Y-82456202D01*
X96682482Y-82405908D01*
X96682483Y-82405908D01*
X96622883Y-82399501D01*
X96622881Y-82399500D01*
X96622873Y-82399500D01*
X96622865Y-82399500D01*
X95616320Y-82399500D01*
X95549281Y-82379815D01*
X95503526Y-82327011D01*
X95493100Y-82289383D01*
X95485367Y-82220750D01*
X95485366Y-82220745D01*
X95425786Y-82050476D01*
X95329813Y-81897737D01*
X95202260Y-81770184D01*
X95049521Y-81674211D01*
X94879252Y-81614631D01*
X94879247Y-81614630D01*
X94700002Y-81594435D01*
X94699994Y-81594435D01*
X94520748Y-81614630D01*
X94520740Y-81614632D01*
X94365454Y-81668969D01*
X94295675Y-81672530D01*
X94235048Y-81637801D01*
X94202821Y-81575808D01*
X94200500Y-81551927D01*
X94200500Y-68976873D01*
X94220185Y-68909834D01*
X94236814Y-68889196D01*
X95272787Y-67853223D01*
X95334108Y-67819740D01*
X95334335Y-67819690D01*
X95364267Y-67813329D01*
X95527593Y-67740612D01*
X95672230Y-67635526D01*
X95791859Y-67502665D01*
X95881250Y-67347835D01*
X95936497Y-67177803D01*
X95955185Y-67000000D01*
X95936497Y-66822197D01*
X95890892Y-66681839D01*
X95881252Y-66652170D01*
X95881249Y-66652164D01*
X95868308Y-66629749D01*
X95791859Y-66497335D01*
X95739077Y-66438715D01*
X95672235Y-66364478D01*
X95672232Y-66364476D01*
X95672231Y-66364475D01*
X95672230Y-66364474D01*
X95527593Y-66259388D01*
X95364267Y-66186671D01*
X95364265Y-66186670D01*
X95216899Y-66155347D01*
X95189391Y-66149500D01*
X95010609Y-66149500D01*
X94983101Y-66155347D01*
X94835733Y-66186670D01*
X94835728Y-66186672D01*
X94672408Y-66259387D01*
X94527768Y-66364475D01*
X94408140Y-66497336D01*
X94318750Y-66652164D01*
X94318748Y-66652168D01*
X94278338Y-66776536D01*
X94248088Y-66825898D01*
X92911472Y-68162514D01*
X92911466Y-68162521D01*
X92865522Y-68231283D01*
X92865522Y-68231284D01*
X92852698Y-68250476D01*
X92832071Y-68281346D01*
X92832069Y-68281349D01*
X92777381Y-68413379D01*
X92777379Y-68413385D01*
X92749500Y-68553542D01*
X92749500Y-82381534D01*
X92729815Y-82448573D01*
X92699812Y-82480800D01*
X92617452Y-82542455D01*
X92531206Y-82657664D01*
X92531202Y-82657671D01*
X92480908Y-82792516D01*
X92476746Y-82831235D01*
X92450008Y-82895786D01*
X92392616Y-82935634D01*
X92377650Y-82939596D01*
X92313384Y-82952380D01*
X92313379Y-82952381D01*
X92181348Y-83007070D01*
X92062517Y-83086469D01*
X88952213Y-86196773D01*
X88890890Y-86230258D01*
X88890317Y-86230382D01*
X88869680Y-86234769D01*
X88860733Y-86236671D01*
X88860732Y-86236671D01*
X88860729Y-86236672D01*
X88697408Y-86309387D01*
X88552768Y-86414475D01*
X88433140Y-86547336D01*
X88343750Y-86702164D01*
X88343747Y-86702170D01*
X88288504Y-86872192D01*
X88288503Y-86872194D01*
X88269815Y-87050000D01*
X88288503Y-87227805D01*
X88288504Y-87227807D01*
X88343747Y-87397829D01*
X88343750Y-87397835D01*
X88382887Y-87465621D01*
X88399500Y-87527621D01*
X88399500Y-87856534D01*
X88379815Y-87923573D01*
X88349812Y-87955800D01*
X88267452Y-88017455D01*
X88181206Y-88132664D01*
X88181202Y-88132671D01*
X88130908Y-88267517D01*
X88124501Y-88327116D01*
X88124500Y-88327135D01*
X88124500Y-89922870D01*
X88124501Y-89922876D01*
X88130909Y-89982484D01*
X88157257Y-90053129D01*
X88162241Y-90122821D01*
X88128755Y-90184143D01*
X88067432Y-90217628D01*
X88027199Y-90219682D01*
X88025006Y-90219435D01*
X88024996Y-90219435D01*
X87845750Y-90239630D01*
X87845745Y-90239631D01*
X87675476Y-90299211D01*
X87522737Y-90395184D01*
X87395184Y-90522737D01*
X87299211Y-90675476D01*
X87239631Y-90845745D01*
X87239630Y-90845750D01*
X87219435Y-91024996D01*
X87219435Y-91025003D01*
X87239630Y-91204249D01*
X87239633Y-91204262D01*
X87250230Y-91234545D01*
X87253792Y-91304324D01*
X87219064Y-91364951D01*
X87157070Y-91397179D01*
X87133189Y-91399500D01*
X80773421Y-91399500D01*
X80706382Y-91379815D01*
X80660627Y-91327011D01*
X80656379Y-91316454D01*
X80654884Y-91312181D01*
X80650789Y-91300478D01*
X80632106Y-91270745D01*
X80611582Y-91238080D01*
X80554816Y-91147738D01*
X80427262Y-91020184D01*
X80393841Y-90999184D01*
X80274523Y-90924211D01*
X80104254Y-90864631D01*
X80104249Y-90864630D01*
X79925004Y-90844435D01*
X79924996Y-90844435D01*
X79745750Y-90864630D01*
X79745745Y-90864631D01*
X79575476Y-90924211D01*
X79422737Y-91020184D01*
X79295184Y-91147737D01*
X79199211Y-91300476D01*
X79139631Y-91470745D01*
X79139630Y-91470750D01*
X79119435Y-91649996D01*
X79119435Y-91649998D01*
X79120744Y-91661614D01*
X79108691Y-91730436D01*
X79061343Y-91781816D01*
X78997524Y-91799500D01*
X71157412Y-91799500D01*
X71090373Y-91779815D01*
X71080097Y-91772445D01*
X71077263Y-91770185D01*
X71077262Y-91770184D01*
X71020496Y-91734515D01*
X70924523Y-91674211D01*
X70754254Y-91614631D01*
X70754249Y-91614630D01*
X70575004Y-91594435D01*
X70574996Y-91594435D01*
X70395750Y-91614630D01*
X70395745Y-91614631D01*
X70225476Y-91674211D01*
X70072737Y-91770184D01*
X69945184Y-91897737D01*
X69849211Y-92050476D01*
X69789631Y-92220745D01*
X69789630Y-92220750D01*
X69779081Y-92314383D01*
X69752015Y-92378797D01*
X69694420Y-92418353D01*
X69655861Y-92424500D01*
X63407412Y-92424500D01*
X63340373Y-92404815D01*
X63330097Y-92397445D01*
X63327263Y-92395185D01*
X63327262Y-92395184D01*
X63270496Y-92359515D01*
X63174523Y-92299211D01*
X63004254Y-92239631D01*
X63004249Y-92239630D01*
X62825004Y-92219435D01*
X62824996Y-92219435D01*
X62645750Y-92239630D01*
X62645745Y-92239631D01*
X62475476Y-92299211D01*
X62322737Y-92395184D01*
X62195184Y-92522737D01*
X62099211Y-92675476D01*
X62039631Y-92845745D01*
X62039630Y-92845750D01*
X62019435Y-93024996D01*
X51400500Y-93024996D01*
X51400500Y-84929995D01*
X56144592Y-84929995D01*
X56144592Y-84930004D01*
X56164196Y-85191620D01*
X56164197Y-85191625D01*
X56222576Y-85447402D01*
X56222578Y-85447411D01*
X56222580Y-85447416D01*
X56318432Y-85691643D01*
X56449614Y-85918857D01*
X56532942Y-86023347D01*
X56613198Y-86123985D01*
X56727868Y-86230382D01*
X56805521Y-86302433D01*
X57022296Y-86450228D01*
X57022301Y-86450230D01*
X57022302Y-86450231D01*
X57022303Y-86450232D01*
X57131675Y-86502902D01*
X57258673Y-86564061D01*
X57258674Y-86564061D01*
X57258677Y-86564063D01*
X57509385Y-86641396D01*
X57768818Y-86680500D01*
X58031182Y-86680500D01*
X58290615Y-86641396D01*
X58541323Y-86564063D01*
X58777704Y-86450228D01*
X58994479Y-86302433D01*
X59177728Y-86132403D01*
X59186801Y-86123985D01*
X59186801Y-86123983D01*
X59186805Y-86123981D01*
X59350386Y-85918857D01*
X59481568Y-85691643D01*
X59577420Y-85447416D01*
X59635802Y-85191630D01*
X59639633Y-85140512D01*
X59655408Y-84930004D01*
X59655408Y-84929995D01*
X59635803Y-84668379D01*
X59635802Y-84668374D01*
X59635802Y-84668370D01*
X59577420Y-84412584D01*
X59519488Y-84264976D01*
X59513320Y-84195384D01*
X59545758Y-84133500D01*
X59547161Y-84132072D01*
X59662417Y-84016818D01*
X59723740Y-83983334D01*
X59750097Y-83980500D01*
X65212117Y-83980500D01*
X65279156Y-84000185D01*
X65324911Y-84052989D01*
X65334855Y-84122147D01*
X65320329Y-84164115D01*
X65320447Y-84164172D01*
X65319960Y-84165183D01*
X65319504Y-84166501D01*
X65318430Y-84168359D01*
X65222582Y-84412578D01*
X65222576Y-84412597D01*
X65164197Y-84668374D01*
X65164196Y-84668379D01*
X65144592Y-84929995D01*
X65144592Y-84930004D01*
X65164196Y-85191620D01*
X65164197Y-85191625D01*
X65222576Y-85447402D01*
X65222578Y-85447411D01*
X65222580Y-85447416D01*
X65318432Y-85691643D01*
X65449614Y-85918857D01*
X65532942Y-86023347D01*
X65613198Y-86123985D01*
X65727868Y-86230382D01*
X65805521Y-86302433D01*
X66022296Y-86450228D01*
X66022301Y-86450230D01*
X66022302Y-86450231D01*
X66022303Y-86450232D01*
X66131675Y-86502902D01*
X66258673Y-86564061D01*
X66258674Y-86564061D01*
X66258677Y-86564063D01*
X66509385Y-86641396D01*
X66768818Y-86680500D01*
X67031182Y-86680500D01*
X67290615Y-86641396D01*
X67541323Y-86564063D01*
X67777704Y-86450228D01*
X67994479Y-86302433D01*
X68177728Y-86132403D01*
X68186801Y-86123985D01*
X68186801Y-86123983D01*
X68186805Y-86123981D01*
X68350386Y-85918857D01*
X68481568Y-85691643D01*
X68513926Y-85609194D01*
X68556740Y-85553984D01*
X68622610Y-85530683D01*
X68629353Y-85530500D01*
X68883329Y-85530500D01*
X68883345Y-85530501D01*
X68890941Y-85530501D01*
X69049052Y-85530501D01*
X69049055Y-85530501D01*
X69201783Y-85489577D01*
X69251902Y-85460639D01*
X69338714Y-85410520D01*
X69450518Y-85298716D01*
X69450518Y-85298714D01*
X69460726Y-85288507D01*
X69460727Y-85288504D01*
X75087821Y-79661411D01*
X75149142Y-79627928D01*
X75218834Y-79632912D01*
X75274767Y-79674784D01*
X75299184Y-79740248D01*
X75299500Y-79749094D01*
X75299500Y-83198363D01*
X75279815Y-83265402D01*
X75229302Y-83310083D01*
X75022300Y-83409769D01*
X74805520Y-83557567D01*
X74613198Y-83736014D01*
X74449614Y-83941143D01*
X74318432Y-84168356D01*
X74222582Y-84412578D01*
X74222576Y-84412597D01*
X74164197Y-84668374D01*
X74164196Y-84668379D01*
X74144592Y-84929995D01*
X74144592Y-84930004D01*
X74164196Y-85191620D01*
X74164197Y-85191625D01*
X74222576Y-85447402D01*
X74222578Y-85447411D01*
X74222580Y-85447416D01*
X74318432Y-85691643D01*
X74449614Y-85918857D01*
X74532942Y-86023347D01*
X74613198Y-86123985D01*
X74727868Y-86230382D01*
X74805521Y-86302433D01*
X75022296Y-86450228D01*
X75022301Y-86450230D01*
X75022302Y-86450231D01*
X75022303Y-86450232D01*
X75131675Y-86502902D01*
X75258673Y-86564061D01*
X75258674Y-86564061D01*
X75258677Y-86564063D01*
X75509385Y-86641396D01*
X75768818Y-86680500D01*
X76031182Y-86680500D01*
X76290615Y-86641396D01*
X76541323Y-86564063D01*
X76777704Y-86450228D01*
X76994479Y-86302433D01*
X77177728Y-86132403D01*
X77186801Y-86123985D01*
X77186801Y-86123983D01*
X77186805Y-86123981D01*
X77350386Y-85918857D01*
X77481568Y-85691643D01*
X77577420Y-85447416D01*
X77635802Y-85191630D01*
X77639633Y-85140512D01*
X77655408Y-84930004D01*
X77655408Y-84929995D01*
X77635803Y-84668379D01*
X77635802Y-84668374D01*
X77635802Y-84668370D01*
X77577420Y-84412584D01*
X77481568Y-84168357D01*
X77350386Y-83941143D01*
X77186805Y-83736019D01*
X77186804Y-83736018D01*
X77186801Y-83736014D01*
X76994479Y-83557567D01*
X76885618Y-83483347D01*
X76777704Y-83409772D01*
X76777701Y-83409771D01*
X76777699Y-83409769D01*
X76570698Y-83310083D01*
X76518839Y-83263261D01*
X76500500Y-83198363D01*
X76500500Y-79625096D01*
X76520185Y-79558057D01*
X76536814Y-79537420D01*
X84087818Y-71986415D01*
X84149141Y-71952931D01*
X84218833Y-71957915D01*
X84274766Y-71999787D01*
X84299183Y-72065251D01*
X84299499Y-72074097D01*
X84299499Y-72114052D01*
X84299500Y-72114065D01*
X84299500Y-83198363D01*
X84279815Y-83265402D01*
X84229302Y-83310083D01*
X84022300Y-83409769D01*
X83805520Y-83557567D01*
X83613198Y-83736014D01*
X83449614Y-83941143D01*
X83318432Y-84168356D01*
X83222582Y-84412578D01*
X83222576Y-84412597D01*
X83164197Y-84668374D01*
X83164196Y-84668379D01*
X83144592Y-84929995D01*
X83144592Y-84930004D01*
X83164196Y-85191620D01*
X83164197Y-85191625D01*
X83222576Y-85447402D01*
X83222578Y-85447411D01*
X83222580Y-85447416D01*
X83318432Y-85691643D01*
X83449614Y-85918857D01*
X83532942Y-86023347D01*
X83613198Y-86123985D01*
X83727868Y-86230382D01*
X83805521Y-86302433D01*
X84022296Y-86450228D01*
X84022301Y-86450230D01*
X84022302Y-86450231D01*
X84022303Y-86450232D01*
X84131675Y-86502902D01*
X84258673Y-86564061D01*
X84258674Y-86564061D01*
X84258677Y-86564063D01*
X84509385Y-86641396D01*
X84768818Y-86680500D01*
X85031182Y-86680500D01*
X85290615Y-86641396D01*
X85541323Y-86564063D01*
X85777704Y-86450228D01*
X85994479Y-86302433D01*
X86177728Y-86132403D01*
X86186801Y-86123985D01*
X86186801Y-86123983D01*
X86186805Y-86123981D01*
X86350386Y-85918857D01*
X86481568Y-85691643D01*
X86577420Y-85447416D01*
X86635802Y-85191630D01*
X86639633Y-85140512D01*
X86655408Y-84930004D01*
X86655408Y-84929995D01*
X86635803Y-84668379D01*
X86635802Y-84668374D01*
X86635802Y-84668370D01*
X86577420Y-84412584D01*
X86481568Y-84168357D01*
X86350386Y-83941143D01*
X86186805Y-83736019D01*
X86186804Y-83736018D01*
X86186801Y-83736014D01*
X85994479Y-83557567D01*
X85885618Y-83483347D01*
X85777704Y-83409772D01*
X85777701Y-83409771D01*
X85777699Y-83409769D01*
X85570698Y-83310083D01*
X85518839Y-83263261D01*
X85500500Y-83198363D01*
X85500500Y-72325102D01*
X85520185Y-72258063D01*
X85536814Y-72237426D01*
X91743541Y-66030698D01*
X91804862Y-65997215D01*
X91817317Y-65995163D01*
X91904261Y-65985368D01*
X92074528Y-65925789D01*
X92227268Y-65829816D01*
X92354822Y-65702262D01*
X92450795Y-65549522D01*
X92510374Y-65379255D01*
X92510375Y-65379249D01*
X92530571Y-65200003D01*
X92530571Y-65199996D01*
X92510375Y-65020750D01*
X92510374Y-65020745D01*
X92486271Y-64951864D01*
X92450795Y-64850478D01*
X92354822Y-64697738D01*
X92227268Y-64570184D01*
X92074529Y-64474211D01*
X91904260Y-64414631D01*
X91904255Y-64414630D01*
X91725010Y-64394435D01*
X91725002Y-64394435D01*
X91545756Y-64414630D01*
X91545751Y-64414631D01*
X91375482Y-64474211D01*
X91222743Y-64570184D01*
X91095190Y-64697737D01*
X90999215Y-64850480D01*
X90983606Y-64895088D01*
X90942884Y-64951864D01*
X90877932Y-64977611D01*
X90809370Y-64964154D01*
X90758967Y-64915767D01*
X90749523Y-64895086D01*
X90738289Y-64862980D01*
X90690301Y-64786609D01*
X90642315Y-64710239D01*
X90514761Y-64582685D01*
X90494866Y-64570184D01*
X90362022Y-64486712D01*
X90191753Y-64427132D01*
X90191748Y-64427131D01*
X90012503Y-64406936D01*
X90012495Y-64406936D01*
X89833249Y-64427131D01*
X89833244Y-64427132D01*
X89662975Y-64486712D01*
X89510238Y-64582684D01*
X89450178Y-64642743D01*
X89388854Y-64676227D01*
X89319163Y-64671241D01*
X89274817Y-64642741D01*
X89202260Y-64570184D01*
X89049521Y-64474211D01*
X88879252Y-64414631D01*
X88879247Y-64414630D01*
X88700002Y-64394435D01*
X88699994Y-64394435D01*
X88520748Y-64414630D01*
X88520743Y-64414631D01*
X88350474Y-64474211D01*
X88197735Y-64570184D01*
X88087680Y-64680240D01*
X88026357Y-64713725D01*
X87956665Y-64708741D01*
X87912318Y-64680240D01*
X87802262Y-64570184D01*
X87649523Y-64474211D01*
X87479254Y-64414631D01*
X87479249Y-64414630D01*
X87300004Y-64394435D01*
X87299996Y-64394435D01*
X87120750Y-64414630D01*
X87120745Y-64414631D01*
X86950476Y-64474211D01*
X86797737Y-64570184D01*
X86670184Y-64697737D01*
X86574210Y-64850478D01*
X86514630Y-65020750D01*
X86504837Y-65107667D01*
X86477770Y-65172081D01*
X86469298Y-65181464D01*
X68907584Y-82743181D01*
X68846261Y-82776666D01*
X68819903Y-82779500D01*
X59536669Y-82779500D01*
X59536653Y-82779499D01*
X59529057Y-82779499D01*
X59370943Y-82779499D01*
X59256397Y-82810192D01*
X59218214Y-82820423D01*
X59176513Y-82844500D01*
X59176512Y-82844500D01*
X59081287Y-82899477D01*
X59081282Y-82899481D01*
X58969478Y-83011286D01*
X58700395Y-83280368D01*
X58639072Y-83313853D01*
X58569380Y-83308869D01*
X58558916Y-83304409D01*
X58541324Y-83295937D01*
X58290623Y-83218606D01*
X58290619Y-83218605D01*
X58290615Y-83218604D01*
X58165823Y-83199794D01*
X58031187Y-83179500D01*
X58031182Y-83179500D01*
X57768818Y-83179500D01*
X57768812Y-83179500D01*
X57607247Y-83203853D01*
X57509385Y-83218604D01*
X57509382Y-83218605D01*
X57509376Y-83218606D01*
X57258673Y-83295938D01*
X57022303Y-83409767D01*
X57022302Y-83409768D01*
X56805520Y-83557567D01*
X56613198Y-83736014D01*
X56449614Y-83941143D01*
X56318432Y-84168356D01*
X56222582Y-84412578D01*
X56222576Y-84412597D01*
X56164197Y-84668374D01*
X56164196Y-84668379D01*
X56144592Y-84929995D01*
X51400500Y-84929995D01*
X51400500Y-64715782D01*
X51420185Y-64648743D01*
X51436819Y-64628101D01*
X56878102Y-59186819D01*
X56939425Y-59153334D01*
X56965783Y-59150500D01*
X92400249Y-59150500D01*
X92467288Y-59170185D01*
X92499515Y-59200188D01*
X92542446Y-59257535D01*
X92542454Y-59257546D01*
X92542656Y-59257697D01*
X92657664Y-59343793D01*
X92657671Y-59343797D01*
X92792517Y-59394091D01*
X92792516Y-59394091D01*
X92799444Y-59394835D01*
X92852127Y-59400500D01*
X93947872Y-59400499D01*
X94007483Y-59394091D01*
X94007485Y-59394090D01*
X94007487Y-59394090D01*
X94015031Y-59392308D01*
X94015377Y-59393775D01*
X94076342Y-59389408D01*
X94091378Y-59393822D01*
X94092511Y-59394089D01*
X94092517Y-59394091D01*
X94152127Y-59400500D01*
X94484217Y-59400499D01*
X94551256Y-59420183D01*
X94571898Y-59436818D01*
X96612215Y-61477137D01*
X96612219Y-61477140D01*
X96776079Y-61586628D01*
X96776085Y-61586631D01*
X96776086Y-61586632D01*
X96958165Y-61662052D01*
X97151455Y-61700500D01*
X97151458Y-61700501D01*
X97151460Y-61700501D01*
X97354655Y-61700501D01*
X97354675Y-61700500D01*
X99148542Y-61700500D01*
X99167870Y-61696655D01*
X99245188Y-61681275D01*
X99341836Y-61662051D01*
X99395165Y-61639961D01*
X99523914Y-61586632D01*
X99687782Y-61477139D01*
X99827139Y-61337782D01*
X99827140Y-61337779D01*
X99834206Y-61330714D01*
X99834209Y-61330710D01*
X101617819Y-59547100D01*
X101679142Y-59513615D01*
X101748834Y-59518599D01*
X101804767Y-59560471D01*
X101829184Y-59625935D01*
X101829500Y-59634781D01*
X101829500Y-67069902D01*
X101809815Y-67136941D01*
X101793181Y-67157583D01*
X97581465Y-71369298D01*
X97520142Y-71402783D01*
X97507668Y-71404837D01*
X97420750Y-71414630D01*
X97250478Y-71474210D01*
X97097737Y-71570184D01*
X96970184Y-71697737D01*
X96874211Y-71850476D01*
X96814631Y-72020745D01*
X96814630Y-72020750D01*
X96794435Y-72199996D01*
X96794435Y-72200003D01*
X96814630Y-72379249D01*
X96814631Y-72379254D01*
X96874211Y-72549523D01*
X96937045Y-72649522D01*
X96970184Y-72702262D01*
X97097738Y-72829816D01*
X97250478Y-72925789D01*
X97261984Y-72929815D01*
X97420745Y-72985368D01*
X97420750Y-72985369D01*
X97599996Y-73005565D01*
X97600000Y-73005565D01*
X97600004Y-73005565D01*
X97779249Y-72985369D01*
X97779252Y-72985368D01*
X97779255Y-72985368D01*
X97949522Y-72925789D01*
X98034027Y-72872691D01*
X98101264Y-72853690D01*
X98165973Y-72872691D01*
X98250475Y-72925788D01*
X98420745Y-72985368D01*
X98420750Y-72985369D01*
X98599996Y-73005565D01*
X98600000Y-73005565D01*
X98600004Y-73005565D01*
X98779249Y-72985369D01*
X98779252Y-72985368D01*
X98779255Y-72985368D01*
X98949522Y-72925789D01*
X99034027Y-72872691D01*
X99101264Y-72853690D01*
X99165973Y-72872691D01*
X99250475Y-72925788D01*
X99420745Y-72985368D01*
X99420750Y-72985369D01*
X99599996Y-73005565D01*
X99600000Y-73005565D01*
X99600004Y-73005565D01*
X99779249Y-72985369D01*
X99779252Y-72985368D01*
X99779255Y-72985368D01*
X99949522Y-72925789D01*
X100102262Y-72829816D01*
X100229816Y-72702262D01*
X100325789Y-72549522D01*
X100385368Y-72379255D01*
X100395161Y-72292329D01*
X100422226Y-72227918D01*
X100430690Y-72218543D01*
X103218535Y-69430698D01*
X103279856Y-69397215D01*
X103292311Y-69395163D01*
X103379255Y-69385368D01*
X103549522Y-69325789D01*
X103702262Y-69229816D01*
X103829816Y-69102262D01*
X103925789Y-68949522D01*
X103985368Y-68779255D01*
X104005565Y-68600000D01*
X104000330Y-68553542D01*
X103985369Y-68420750D01*
X103985368Y-68420745D01*
X103936591Y-68281349D01*
X103925789Y-68250478D01*
X103829816Y-68097738D01*
X103778337Y-68046259D01*
X103744852Y-67984936D01*
X103749836Y-67915244D01*
X103778337Y-67870897D01*
X104301405Y-67347829D01*
X105088506Y-66560728D01*
X105088511Y-66560724D01*
X105098714Y-66550520D01*
X105098716Y-66550520D01*
X105210520Y-66438716D01*
X105267392Y-66340210D01*
X105289577Y-66301785D01*
X105330500Y-66149057D01*
X105330500Y-65990943D01*
X105330500Y-56277198D01*
X105350185Y-56210159D01*
X105402989Y-56164404D01*
X105472147Y-56154460D01*
X105535703Y-56183485D01*
X105569061Y-56229745D01*
X105607881Y-56323464D01*
X105637342Y-56394590D01*
X105762235Y-56610911D01*
X105762237Y-56610914D01*
X105762238Y-56610915D01*
X105914293Y-56809078D01*
X105914299Y-56809085D01*
X106090914Y-56985700D01*
X106090921Y-56985706D01*
X106141243Y-57024319D01*
X106289089Y-57137765D01*
X106505410Y-57262658D01*
X106736183Y-57358247D01*
X106977458Y-57422897D01*
X107161074Y-57447070D01*
X107225106Y-57455500D01*
X107225107Y-57455500D01*
X107474894Y-57455500D01*
X107538926Y-57447070D01*
X107722542Y-57422897D01*
X107963817Y-57358247D01*
X108194590Y-57262658D01*
X108410911Y-57137765D01*
X108609080Y-56985705D01*
X108785705Y-56809080D01*
X108937765Y-56610911D01*
X109062658Y-56394590D01*
X109158247Y-56163817D01*
X109222897Y-55922542D01*
X109255500Y-55674893D01*
X109255500Y-55425107D01*
X109255500Y-55425106D01*
X118144500Y-55425106D01*
X118144500Y-55674893D01*
X118177102Y-55922538D01*
X118241754Y-56163821D01*
X118329986Y-56376832D01*
X118337342Y-56394590D01*
X118462235Y-56610911D01*
X118462237Y-56610914D01*
X118462238Y-56610915D01*
X118614293Y-56809078D01*
X118614299Y-56809085D01*
X118790914Y-56985700D01*
X118790921Y-56985706D01*
X118841243Y-57024319D01*
X118989089Y-57137765D01*
X119205410Y-57262658D01*
X119436183Y-57358247D01*
X119677458Y-57422897D01*
X119861074Y-57447070D01*
X119925106Y-57455500D01*
X119925107Y-57455500D01*
X120174894Y-57455500D01*
X120238926Y-57447070D01*
X120422542Y-57422897D01*
X120663817Y-57358247D01*
X120894590Y-57262658D01*
X121110911Y-57137765D01*
X121309080Y-56985705D01*
X121485705Y-56809080D01*
X121637765Y-56610911D01*
X121762658Y-56394590D01*
X121858247Y-56163817D01*
X121922897Y-55922542D01*
X121955500Y-55674893D01*
X121955500Y-55425107D01*
X121954275Y-55415805D01*
X121941831Y-55321282D01*
X121922897Y-55177458D01*
X121858247Y-54936183D01*
X121762658Y-54705410D01*
X121637765Y-54489089D01*
X121528742Y-54347007D01*
X121485706Y-54290921D01*
X121485700Y-54290914D01*
X121309085Y-54114299D01*
X121309078Y-54114293D01*
X121110915Y-53962238D01*
X121110914Y-53962237D01*
X121110911Y-53962235D01*
X120924471Y-53854594D01*
X120894592Y-53837343D01*
X120894583Y-53837339D01*
X120663821Y-53741754D01*
X120422538Y-53677102D01*
X120174894Y-53644500D01*
X120174893Y-53644500D01*
X119925107Y-53644500D01*
X119925106Y-53644500D01*
X119677461Y-53677102D01*
X119436178Y-53741754D01*
X119205416Y-53837339D01*
X119205407Y-53837343D01*
X118989084Y-53962238D01*
X118790921Y-54114293D01*
X118790914Y-54114299D01*
X118614299Y-54290914D01*
X118614293Y-54290921D01*
X118462238Y-54489084D01*
X118337343Y-54705407D01*
X118337339Y-54705416D01*
X118241754Y-54936178D01*
X118177102Y-55177461D01*
X118144500Y-55425106D01*
X109255500Y-55425106D01*
X109254275Y-55415805D01*
X109241831Y-55321282D01*
X109222897Y-55177458D01*
X109158247Y-54936183D01*
X109062658Y-54705410D01*
X108937765Y-54489089D01*
X108828742Y-54347007D01*
X108785706Y-54290921D01*
X108785700Y-54290914D01*
X108609085Y-54114299D01*
X108609078Y-54114293D01*
X108410915Y-53962238D01*
X108410914Y-53962237D01*
X108410911Y-53962235D01*
X108224471Y-53854594D01*
X108194592Y-53837343D01*
X108194583Y-53837339D01*
X107963821Y-53741754D01*
X107722538Y-53677102D01*
X107474894Y-53644500D01*
X107474893Y-53644500D01*
X107225107Y-53644500D01*
X107225106Y-53644500D01*
X106977461Y-53677102D01*
X106736178Y-53741754D01*
X106505416Y-53837339D01*
X106505407Y-53837343D01*
X106289084Y-53962238D01*
X106090921Y-54114293D01*
X106090914Y-54114299D01*
X105914299Y-54290914D01*
X105914293Y-54290921D01*
X105762238Y-54489084D01*
X105637343Y-54705407D01*
X105637339Y-54705416D01*
X105541754Y-54936178D01*
X105477102Y-55177461D01*
X105459863Y-55308408D01*
X105431596Y-55372304D01*
X105373272Y-55410775D01*
X105303407Y-55411606D01*
X105244184Y-55374534D01*
X105229537Y-55354222D01*
X105210522Y-55321287D01*
X105210518Y-55321282D01*
X104912766Y-55023530D01*
X104879281Y-54962207D01*
X104880672Y-54903755D01*
X104915063Y-54775408D01*
X104935659Y-54540000D01*
X104915063Y-54304592D01*
X104853903Y-54076337D01*
X104754035Y-53862171D01*
X104748730Y-53854595D01*
X104618496Y-53668600D01*
X104580500Y-53630604D01*
X104496567Y-53546671D01*
X104463084Y-53485351D01*
X104468068Y-53415659D01*
X104509939Y-53359725D01*
X104540915Y-53342810D01*
X104672331Y-53293796D01*
X104787546Y-53207546D01*
X104873796Y-53092331D01*
X104924091Y-52957483D01*
X104930500Y-52897873D01*
X104930499Y-51102128D01*
X104924091Y-51042517D01*
X104873884Y-50907906D01*
X104873797Y-50907671D01*
X104873793Y-50907664D01*
X104787547Y-50792455D01*
X104787544Y-50792452D01*
X104672335Y-50706206D01*
X104672328Y-50706202D01*
X104537482Y-50655908D01*
X104537483Y-50655908D01*
X104477883Y-50649501D01*
X104477881Y-50649500D01*
X104477873Y-50649500D01*
X104477864Y-50649500D01*
X102682129Y-50649500D01*
X102682123Y-50649501D01*
X102622516Y-50655908D01*
X102487671Y-50706202D01*
X102487669Y-50706203D01*
X102384311Y-50783578D01*
X102318847Y-50807995D01*
X102250574Y-50793144D01*
X102235689Y-50783578D01*
X102132330Y-50706203D01*
X102132328Y-50706202D01*
X101997482Y-50655908D01*
X101997483Y-50655908D01*
X101937883Y-50649501D01*
X101937881Y-50649500D01*
X101937873Y-50649500D01*
X101937864Y-50649500D01*
X100142129Y-50649500D01*
X100142123Y-50649501D01*
X100082516Y-50655908D01*
X99947671Y-50706202D01*
X99947669Y-50706204D01*
X99843894Y-50783890D01*
X99778430Y-50808307D01*
X99710157Y-50793456D01*
X99695272Y-50783890D01*
X99592088Y-50706646D01*
X99592086Y-50706645D01*
X99457379Y-50656403D01*
X99457372Y-50656401D01*
X99397844Y-50650000D01*
X98750000Y-50650000D01*
X98750000Y-51566988D01*
X98692993Y-51534075D01*
X98565826Y-51500000D01*
X98434174Y-51500000D01*
X98307007Y-51534075D01*
X98250000Y-51566988D01*
X98250000Y-50650000D01*
X97602155Y-50650000D01*
X97542627Y-50656401D01*
X97542620Y-50656403D01*
X97407913Y-50706645D01*
X97407906Y-50706649D01*
X97292812Y-50792809D01*
X97292809Y-50792812D01*
X97206649Y-50907906D01*
X97206645Y-50907913D01*
X97156403Y-51042620D01*
X97156401Y-51042627D01*
X97150000Y-51102155D01*
X97150000Y-51750000D01*
X98066988Y-51750000D01*
X98034075Y-51807007D01*
X98000000Y-51934174D01*
X98000000Y-52065826D01*
X98034075Y-52192993D01*
X98066988Y-52250000D01*
X97150000Y-52250000D01*
X97150000Y-52897844D01*
X97156401Y-52957372D01*
X97156403Y-52957379D01*
X97206645Y-53092086D01*
X97206649Y-53092093D01*
X97292809Y-53207187D01*
X97292812Y-53207190D01*
X97407906Y-53293350D01*
X97407913Y-53293354D01*
X97539986Y-53342614D01*
X97595920Y-53384485D01*
X97620337Y-53449949D01*
X97605486Y-53518222D01*
X97584335Y-53546477D01*
X97461886Y-53668926D01*
X97326400Y-53862420D01*
X97326399Y-53862422D01*
X97226570Y-54076507D01*
X97226567Y-54076513D01*
X97169364Y-54289999D01*
X97169364Y-54290000D01*
X98066988Y-54290000D01*
X98034075Y-54347007D01*
X98000000Y-54474174D01*
X98000000Y-54605826D01*
X98034075Y-54732993D01*
X98066988Y-54790000D01*
X97169364Y-54790000D01*
X97226567Y-55003486D01*
X97226570Y-55003492D01*
X97326399Y-55217578D01*
X97461894Y-55411082D01*
X97628917Y-55578105D01*
X97815031Y-55708425D01*
X97858656Y-55763003D01*
X97865848Y-55832501D01*
X97834326Y-55894856D01*
X97815031Y-55911575D01*
X97628922Y-56041890D01*
X97628920Y-56041891D01*
X97461891Y-56208920D01*
X97461886Y-56208926D01*
X97326400Y-56402420D01*
X97326399Y-56402422D01*
X97226570Y-56616507D01*
X97226567Y-56616513D01*
X97169364Y-56829999D01*
X97169364Y-56830000D01*
X98066988Y-56830000D01*
X98034075Y-56887007D01*
X98000000Y-57014174D01*
X98000000Y-57145826D01*
X98034075Y-57272993D01*
X98066988Y-57330000D01*
X97169364Y-57330000D01*
X97226567Y-57543486D01*
X97226570Y-57543492D01*
X97326399Y-57757578D01*
X97461894Y-57951082D01*
X97628917Y-58118105D01*
X97822421Y-58253600D01*
X98036507Y-58353429D01*
X98036516Y-58353433D01*
X98250000Y-58410634D01*
X98250000Y-57513012D01*
X98307007Y-57545925D01*
X98434174Y-57580000D01*
X98565826Y-57580000D01*
X98692993Y-57545925D01*
X98750000Y-57513012D01*
X98750000Y-58410633D01*
X98963483Y-58353433D01*
X98963492Y-58353429D01*
X99177578Y-58253600D01*
X99371082Y-58118105D01*
X99538105Y-57951082D01*
X99668119Y-57765405D01*
X99722696Y-57721781D01*
X99792195Y-57714588D01*
X99854549Y-57746110D01*
X99871269Y-57765405D01*
X99884180Y-57783844D01*
X100001505Y-57951401D01*
X100001506Y-57951402D01*
X100003181Y-57953077D01*
X100003682Y-57953995D01*
X100004982Y-57955544D01*
X100004670Y-57955805D01*
X100036666Y-58014400D01*
X100039500Y-58040758D01*
X100039500Y-58244218D01*
X100019815Y-58311257D01*
X100003181Y-58331899D01*
X98671899Y-59663181D01*
X98610576Y-59696666D01*
X98584218Y-59699500D01*
X97715783Y-59699500D01*
X97648744Y-59679815D01*
X97628102Y-59663181D01*
X95736819Y-57771898D01*
X95703334Y-57710575D01*
X95700500Y-57684217D01*
X95700500Y-55500758D01*
X95720185Y-55433719D01*
X95736819Y-55413077D01*
X95738495Y-55411401D01*
X95874035Y-55217830D01*
X95973903Y-55003663D01*
X96035063Y-54775408D01*
X96055659Y-54540000D01*
X96035063Y-54304592D01*
X95973903Y-54076337D01*
X95874035Y-53862171D01*
X95868730Y-53854595D01*
X95738496Y-53668600D01*
X95700500Y-53630604D01*
X95616179Y-53546283D01*
X95582696Y-53484963D01*
X95587680Y-53415271D01*
X95629551Y-53359337D01*
X95660529Y-53342422D01*
X95792086Y-53293354D01*
X95792093Y-53293350D01*
X95907187Y-53207190D01*
X95907190Y-53207187D01*
X95993350Y-53092093D01*
X95993354Y-53092086D01*
X96043596Y-52957379D01*
X96043598Y-52957372D01*
X96049999Y-52897844D01*
X96050000Y-52897827D01*
X96050000Y-52250000D01*
X95133012Y-52250000D01*
X95165925Y-52192993D01*
X95200000Y-52065826D01*
X95200000Y-51934174D01*
X95165925Y-51807007D01*
X95133012Y-51750000D01*
X96050000Y-51750000D01*
X96050000Y-51102172D01*
X96049999Y-51102155D01*
X96043598Y-51042627D01*
X96043596Y-51042620D01*
X95993354Y-50907913D01*
X95993350Y-50907906D01*
X95907190Y-50792812D01*
X95907187Y-50792809D01*
X95792093Y-50706649D01*
X95792086Y-50706645D01*
X95657379Y-50656403D01*
X95657372Y-50656401D01*
X95597844Y-50650000D01*
X94950000Y-50650000D01*
X94950000Y-51566988D01*
X94892993Y-51534075D01*
X94765826Y-51500000D01*
X94634174Y-51500000D01*
X94507007Y-51534075D01*
X94450000Y-51566988D01*
X94450000Y-50650000D01*
X93802155Y-50650000D01*
X93742627Y-50656401D01*
X93742620Y-50656403D01*
X93607913Y-50706645D01*
X93607906Y-50706649D01*
X93492812Y-50792809D01*
X93492809Y-50792812D01*
X93406649Y-50907906D01*
X93406645Y-50907913D01*
X93356403Y-51042620D01*
X93356401Y-51042627D01*
X93350000Y-51102155D01*
X93350000Y-51750000D01*
X94266988Y-51750000D01*
X94234075Y-51807007D01*
X94200000Y-51934174D01*
X94200000Y-52065826D01*
X94234075Y-52192993D01*
X94266988Y-52250000D01*
X93350000Y-52250000D01*
X93350000Y-52897844D01*
X93356401Y-52957372D01*
X93356403Y-52957379D01*
X93406645Y-53092086D01*
X93406649Y-53092093D01*
X93492809Y-53207187D01*
X93492812Y-53207190D01*
X93607906Y-53293350D01*
X93607913Y-53293354D01*
X93739470Y-53342421D01*
X93795403Y-53384292D01*
X93819821Y-53449756D01*
X93804970Y-53518029D01*
X93783819Y-53546284D01*
X93661503Y-53668600D01*
X93525965Y-53862169D01*
X93525964Y-53862171D01*
X93426098Y-54076335D01*
X93426094Y-54076344D01*
X93364938Y-54304586D01*
X93364936Y-54304596D01*
X93344341Y-54539999D01*
X93344341Y-54540000D01*
X93364936Y-54775403D01*
X93364938Y-54775413D01*
X93426094Y-55003655D01*
X93426096Y-55003659D01*
X93426097Y-55003663D01*
X93462990Y-55082779D01*
X93525965Y-55217830D01*
X93525967Y-55217834D01*
X93607251Y-55333918D01*
X93661504Y-55411400D01*
X93661506Y-55411402D01*
X93663181Y-55413077D01*
X93663682Y-55413995D01*
X93664982Y-55415544D01*
X93664670Y-55415805D01*
X93696666Y-55474400D01*
X93699500Y-55500758D01*
X93699500Y-56058441D01*
X93687476Y-56099389D01*
X93697477Y-56119251D01*
X93699500Y-56141558D01*
X93699500Y-56775500D01*
X93679815Y-56842539D01*
X93627011Y-56888294D01*
X93575500Y-56899500D01*
X93303096Y-56899500D01*
X93236057Y-56879815D01*
X93190302Y-56827011D01*
X93180358Y-56757853D01*
X93209383Y-56694297D01*
X93210946Y-56692528D01*
X93222315Y-56679901D01*
X93291859Y-56602665D01*
X93381250Y-56447835D01*
X93436497Y-56277803D01*
X93452179Y-56128594D01*
X93462709Y-56103002D01*
X93456523Y-56093376D01*
X93452179Y-56071403D01*
X93450817Y-56058441D01*
X93436497Y-55922197D01*
X93392073Y-55785475D01*
X93381252Y-55752170D01*
X93381249Y-55752164D01*
X93365650Y-55725145D01*
X93291859Y-55597335D01*
X93245003Y-55545296D01*
X93172235Y-55464478D01*
X93172232Y-55464476D01*
X93172231Y-55464475D01*
X93172230Y-55464474D01*
X93063359Y-55385374D01*
X93027596Y-55359390D01*
X93027595Y-55359389D01*
X93027593Y-55359388D01*
X92864267Y-55286671D01*
X92850011Y-55283640D01*
X92834682Y-55280382D01*
X92773201Y-55247187D01*
X92772785Y-55246773D01*
X91251909Y-53725897D01*
X91221659Y-53676533D01*
X91219187Y-53668926D01*
X91196793Y-53600002D01*
X91181251Y-53552167D01*
X91177856Y-53546286D01*
X91091859Y-53397335D01*
X91042414Y-53342421D01*
X90972235Y-53264478D01*
X90972232Y-53264476D01*
X90972231Y-53264475D01*
X90972230Y-53264474D01*
X90827593Y-53159388D01*
X90664267Y-53086671D01*
X90664265Y-53086670D01*
X90521011Y-53056221D01*
X90489391Y-53049500D01*
X90310609Y-53049500D01*
X90279954Y-53056015D01*
X90135733Y-53086670D01*
X90135728Y-53086672D01*
X89972408Y-53159387D01*
X89827768Y-53264475D01*
X89708140Y-53397336D01*
X89618750Y-53552164D01*
X89618747Y-53552170D01*
X89563504Y-53722192D01*
X89563503Y-53722194D01*
X89544815Y-53900000D01*
X89563503Y-54077805D01*
X89563504Y-54077807D01*
X89618747Y-54247829D01*
X89618750Y-54247835D01*
X89708141Y-54402665D01*
X89740482Y-54438583D01*
X89827764Y-54535521D01*
X89827767Y-54535523D01*
X89827770Y-54535526D01*
X89972407Y-54640612D01*
X90135733Y-54713329D01*
X90165315Y-54719616D01*
X90226794Y-54752807D01*
X90227213Y-54753225D01*
X91748089Y-56274101D01*
X91778339Y-56323464D01*
X91818747Y-56447828D01*
X91818750Y-56447835D01*
X91908141Y-56602665D01*
X91920610Y-56616513D01*
X92027764Y-56735521D01*
X92027767Y-56735523D01*
X92027770Y-56735526D01*
X92172407Y-56840612D01*
X92333243Y-56912220D01*
X92386480Y-56957470D01*
X92406802Y-57024319D01*
X92387757Y-57091543D01*
X92335391Y-57137799D01*
X92282808Y-57149500D01*
X56401455Y-57149500D01*
X56304812Y-57168724D01*
X56208167Y-57187947D01*
X56208161Y-57187949D01*
X56154834Y-57210037D01*
X56154834Y-57210038D01*
X56101505Y-57232127D01*
X56026087Y-57263367D01*
X56026083Y-57263369D01*
X55917024Y-57336239D01*
X55917025Y-57336240D01*
X55862216Y-57372861D01*
X55862213Y-57372864D01*
X50112181Y-63122897D01*
X50050858Y-63156382D01*
X49981166Y-63151398D01*
X49925233Y-63109526D01*
X49900816Y-63044062D01*
X49900500Y-63035216D01*
X49900500Y-54178713D01*
X49920185Y-54111674D01*
X49972989Y-54065919D01*
X50042147Y-54055975D01*
X50105703Y-54085000D01*
X50143477Y-54143778D01*
X50146867Y-54158652D01*
X50173517Y-54321214D01*
X50173519Y-54321222D01*
X50270695Y-54671220D01*
X50270697Y-54671227D01*
X50405152Y-55008684D01*
X50405161Y-55008702D01*
X50575316Y-55329647D01*
X50575318Y-55329651D01*
X50779170Y-55630309D01*
X50779177Y-55630319D01*
X50910969Y-55785475D01*
X50910970Y-55785475D01*
X52155748Y-54540698D01*
X52229588Y-54642330D01*
X52407670Y-54820412D01*
X52509300Y-54894251D01*
X51261888Y-56141662D01*
X51261888Y-56141664D01*
X51278070Y-56156992D01*
X51278071Y-56156993D01*
X51567266Y-56376832D01*
X51567282Y-56376843D01*
X51878522Y-56564109D01*
X51878535Y-56564116D01*
X52208205Y-56716639D01*
X52208210Y-56716640D01*
X52552461Y-56832632D01*
X52907235Y-56910724D01*
X53268366Y-56949999D01*
X53268374Y-56950000D01*
X53631626Y-56950000D01*
X53631633Y-56949999D01*
X53992764Y-56910724D01*
X54347538Y-56832632D01*
X54691789Y-56716640D01*
X54691794Y-56716639D01*
X55021464Y-56564116D01*
X55021477Y-56564109D01*
X55332717Y-56376843D01*
X55332733Y-56376832D01*
X55621929Y-56156992D01*
X55638110Y-56141664D01*
X55638110Y-56141663D01*
X54390698Y-54894251D01*
X54492330Y-54820412D01*
X54670412Y-54642330D01*
X54744251Y-54540698D01*
X55989028Y-55785475D01*
X55989029Y-55785475D01*
X56120827Y-55630311D01*
X56120838Y-55630297D01*
X56324681Y-55329651D01*
X56324683Y-55329647D01*
X56494838Y-55008702D01*
X56494847Y-55008684D01*
X56629302Y-54671227D01*
X56629304Y-54671220D01*
X56726480Y-54321222D01*
X56726482Y-54321214D01*
X56785253Y-53962728D01*
X56804920Y-53600002D01*
X56804920Y-53599997D01*
X56791481Y-53352135D01*
X63199500Y-53352135D01*
X63199500Y-55247870D01*
X63199501Y-55247876D01*
X63205908Y-55307483D01*
X63256202Y-55442328D01*
X63256206Y-55442335D01*
X63342452Y-55557544D01*
X63342455Y-55557547D01*
X63457664Y-55643793D01*
X63457671Y-55643797D01*
X63592517Y-55694091D01*
X63592516Y-55694091D01*
X63599444Y-55694835D01*
X63652127Y-55700500D01*
X65547872Y-55700499D01*
X65607483Y-55694091D01*
X65742331Y-55643796D01*
X65857546Y-55557546D01*
X65943796Y-55442331D01*
X65994091Y-55307483D01*
X66000500Y-55247873D01*
X66000499Y-54299993D01*
X68194700Y-54299993D01*
X68194700Y-54300006D01*
X68213864Y-54531297D01*
X68213866Y-54531308D01*
X68270842Y-54756300D01*
X68364075Y-54968848D01*
X68491016Y-55163147D01*
X68491019Y-55163151D01*
X68491021Y-55163153D01*
X68648216Y-55333913D01*
X68648219Y-55333915D01*
X68648222Y-55333918D01*
X68831365Y-55476464D01*
X68831371Y-55476468D01*
X68831374Y-55476470D01*
X69035497Y-55586936D01*
X69105427Y-55610943D01*
X69255015Y-55662297D01*
X69255017Y-55662297D01*
X69255019Y-55662298D01*
X69483951Y-55700500D01*
X69483952Y-55700500D01*
X69716048Y-55700500D01*
X69716049Y-55700500D01*
X69944981Y-55662298D01*
X70164503Y-55586936D01*
X70368626Y-55476470D01*
X70384034Y-55464478D01*
X70519051Y-55359390D01*
X70551784Y-55333913D01*
X70708979Y-55163153D01*
X70835924Y-54968849D01*
X70929157Y-54756300D01*
X70986134Y-54531305D01*
X70989632Y-54489089D01*
X71005300Y-54300006D01*
X71005300Y-54299993D01*
X73194700Y-54299993D01*
X73194700Y-54300006D01*
X73213864Y-54531297D01*
X73213866Y-54531308D01*
X73270842Y-54756300D01*
X73364075Y-54968848D01*
X73491016Y-55163147D01*
X73491019Y-55163151D01*
X73491021Y-55163153D01*
X73648216Y-55333913D01*
X73648219Y-55333915D01*
X73648222Y-55333918D01*
X73831365Y-55476464D01*
X73831371Y-55476468D01*
X73831374Y-55476470D01*
X74035497Y-55586936D01*
X74105427Y-55610943D01*
X74255015Y-55662297D01*
X74255017Y-55662297D01*
X74255019Y-55662298D01*
X74483951Y-55700500D01*
X74483952Y-55700500D01*
X74716048Y-55700500D01*
X74716049Y-55700500D01*
X74944981Y-55662298D01*
X75164503Y-55586936D01*
X75368626Y-55476470D01*
X75384034Y-55464478D01*
X75519051Y-55359390D01*
X75551784Y-55333913D01*
X75708979Y-55163153D01*
X75835924Y-54968849D01*
X75929157Y-54756300D01*
X75986134Y-54531305D01*
X75989632Y-54489089D01*
X76005300Y-54300006D01*
X76005300Y-54299993D01*
X78194700Y-54299993D01*
X78194700Y-54300006D01*
X78213864Y-54531297D01*
X78213866Y-54531308D01*
X78270842Y-54756300D01*
X78364075Y-54968848D01*
X78491016Y-55163147D01*
X78491019Y-55163151D01*
X78491021Y-55163153D01*
X78648216Y-55333913D01*
X78648219Y-55333915D01*
X78648222Y-55333918D01*
X78831365Y-55476464D01*
X78831371Y-55476468D01*
X78831374Y-55476470D01*
X79035497Y-55586936D01*
X79105427Y-55610943D01*
X79255015Y-55662297D01*
X79255017Y-55662297D01*
X79255019Y-55662298D01*
X79483951Y-55700500D01*
X79483952Y-55700500D01*
X79716048Y-55700500D01*
X79716049Y-55700500D01*
X79944981Y-55662298D01*
X80164503Y-55586936D01*
X80368626Y-55476470D01*
X80384034Y-55464478D01*
X80519051Y-55359390D01*
X80551784Y-55333913D01*
X80708979Y-55163153D01*
X80835924Y-54968849D01*
X80929157Y-54756300D01*
X80986134Y-54531305D01*
X80989632Y-54489089D01*
X81005300Y-54300006D01*
X81005300Y-54299993D01*
X83194700Y-54299993D01*
X83194700Y-54300006D01*
X83213864Y-54531297D01*
X83213866Y-54531308D01*
X83270842Y-54756300D01*
X83364075Y-54968848D01*
X83491016Y-55163147D01*
X83491019Y-55163151D01*
X83491021Y-55163153D01*
X83648216Y-55333913D01*
X83648219Y-55333915D01*
X83648222Y-55333918D01*
X83831365Y-55476464D01*
X83831371Y-55476468D01*
X83831374Y-55476470D01*
X84035497Y-55586936D01*
X84105427Y-55610943D01*
X84255015Y-55662297D01*
X84255017Y-55662297D01*
X84255019Y-55662298D01*
X84483951Y-55700500D01*
X84483952Y-55700500D01*
X84716048Y-55700500D01*
X84716049Y-55700500D01*
X84944981Y-55662298D01*
X85164503Y-55586936D01*
X85368626Y-55476470D01*
X85384034Y-55464478D01*
X85519051Y-55359390D01*
X85551784Y-55333913D01*
X85708979Y-55163153D01*
X85835924Y-54968849D01*
X85929157Y-54756300D01*
X85986134Y-54531305D01*
X85989632Y-54489089D01*
X86005300Y-54300006D01*
X86005300Y-54299993D01*
X85986135Y-54068702D01*
X85986133Y-54068691D01*
X85929157Y-53843699D01*
X85835924Y-53631151D01*
X85708983Y-53436852D01*
X85708980Y-53436849D01*
X85708979Y-53436847D01*
X85551784Y-53266087D01*
X85551779Y-53266083D01*
X85551777Y-53266081D01*
X85368634Y-53123535D01*
X85368628Y-53123531D01*
X85164504Y-53013064D01*
X85164495Y-53013061D01*
X84944984Y-52937702D01*
X84754450Y-52905908D01*
X84716049Y-52899500D01*
X84483951Y-52899500D01*
X84445550Y-52905908D01*
X84255015Y-52937702D01*
X84035504Y-53013061D01*
X84035495Y-53013064D01*
X83831371Y-53123531D01*
X83831365Y-53123535D01*
X83648222Y-53266081D01*
X83648219Y-53266084D01*
X83648216Y-53266086D01*
X83648216Y-53266087D01*
X83623886Y-53292517D01*
X83491016Y-53436852D01*
X83364075Y-53631151D01*
X83270842Y-53843699D01*
X83213866Y-54068691D01*
X83213864Y-54068702D01*
X83194700Y-54299993D01*
X81005300Y-54299993D01*
X80986135Y-54068702D01*
X80986133Y-54068691D01*
X80929157Y-53843699D01*
X80835924Y-53631151D01*
X80708983Y-53436852D01*
X80708980Y-53436849D01*
X80708979Y-53436847D01*
X80551784Y-53266087D01*
X80551779Y-53266083D01*
X80551777Y-53266081D01*
X80368634Y-53123535D01*
X80368628Y-53123531D01*
X80164504Y-53013064D01*
X80164495Y-53013061D01*
X79944984Y-52937702D01*
X79754450Y-52905908D01*
X79716049Y-52899500D01*
X79483951Y-52899500D01*
X79445550Y-52905908D01*
X79255015Y-52937702D01*
X79035504Y-53013061D01*
X79035495Y-53013064D01*
X78831371Y-53123531D01*
X78831365Y-53123535D01*
X78648222Y-53266081D01*
X78648219Y-53266084D01*
X78648216Y-53266086D01*
X78648216Y-53266087D01*
X78623886Y-53292517D01*
X78491016Y-53436852D01*
X78364075Y-53631151D01*
X78270842Y-53843699D01*
X78213866Y-54068691D01*
X78213864Y-54068702D01*
X78194700Y-54299993D01*
X76005300Y-54299993D01*
X75986135Y-54068702D01*
X75986133Y-54068691D01*
X75929157Y-53843699D01*
X75835924Y-53631151D01*
X75708983Y-53436852D01*
X75708980Y-53436849D01*
X75708979Y-53436847D01*
X75551784Y-53266087D01*
X75551779Y-53266083D01*
X75551777Y-53266081D01*
X75368634Y-53123535D01*
X75368628Y-53123531D01*
X75164504Y-53013064D01*
X75164495Y-53013061D01*
X74944984Y-52937702D01*
X74754450Y-52905908D01*
X74716049Y-52899500D01*
X74483951Y-52899500D01*
X74445550Y-52905908D01*
X74255015Y-52937702D01*
X74035504Y-53013061D01*
X74035495Y-53013064D01*
X73831371Y-53123531D01*
X73831365Y-53123535D01*
X73648222Y-53266081D01*
X73648219Y-53266084D01*
X73648216Y-53266086D01*
X73648216Y-53266087D01*
X73623886Y-53292517D01*
X73491016Y-53436852D01*
X73364075Y-53631151D01*
X73270842Y-53843699D01*
X73213866Y-54068691D01*
X73213864Y-54068702D01*
X73194700Y-54299993D01*
X71005300Y-54299993D01*
X70986135Y-54068702D01*
X70986133Y-54068691D01*
X70929157Y-53843699D01*
X70835924Y-53631151D01*
X70708983Y-53436852D01*
X70708980Y-53436849D01*
X70708979Y-53436847D01*
X70551784Y-53266087D01*
X70551779Y-53266083D01*
X70551777Y-53266081D01*
X70368634Y-53123535D01*
X70368628Y-53123531D01*
X70164504Y-53013064D01*
X70164495Y-53013061D01*
X69944984Y-52937702D01*
X69754450Y-52905908D01*
X69716049Y-52899500D01*
X69483951Y-52899500D01*
X69445550Y-52905908D01*
X69255015Y-52937702D01*
X69035504Y-53013061D01*
X69035495Y-53013064D01*
X68831371Y-53123531D01*
X68831365Y-53123535D01*
X68648222Y-53266081D01*
X68648219Y-53266084D01*
X68648216Y-53266086D01*
X68648216Y-53266087D01*
X68623886Y-53292517D01*
X68491016Y-53436852D01*
X68364075Y-53631151D01*
X68270842Y-53843699D01*
X68213866Y-54068691D01*
X68213864Y-54068702D01*
X68194700Y-54299993D01*
X66000499Y-54299993D01*
X66000499Y-53352128D01*
X65994229Y-53293797D01*
X65994091Y-53292516D01*
X65943797Y-53157671D01*
X65943793Y-53157664D01*
X65857547Y-53042455D01*
X65857544Y-53042452D01*
X65742335Y-52956206D01*
X65742328Y-52956202D01*
X65607482Y-52905908D01*
X65607483Y-52905908D01*
X65547883Y-52899501D01*
X65547881Y-52899500D01*
X65547873Y-52899500D01*
X65547864Y-52899500D01*
X63652129Y-52899500D01*
X63652123Y-52899501D01*
X63592516Y-52905908D01*
X63457671Y-52956202D01*
X63457664Y-52956206D01*
X63342455Y-53042452D01*
X63342452Y-53042455D01*
X63256206Y-53157664D01*
X63256202Y-53157671D01*
X63205908Y-53292517D01*
X63200364Y-53344091D01*
X63199501Y-53352123D01*
X63199500Y-53352135D01*
X56791481Y-53352135D01*
X56785253Y-53237271D01*
X56726482Y-52878785D01*
X56726480Y-52878777D01*
X56629304Y-52528779D01*
X56629302Y-52528772D01*
X56494847Y-52191315D01*
X56494838Y-52191297D01*
X56324683Y-51870352D01*
X56324681Y-51870348D01*
X56120829Y-51569690D01*
X56120822Y-51569680D01*
X55989029Y-51414523D01*
X55989028Y-51414523D01*
X54744251Y-52659300D01*
X54670412Y-52557670D01*
X54492330Y-52379588D01*
X54390698Y-52305748D01*
X55638110Y-51058336D01*
X55638110Y-51058334D01*
X55621929Y-51043007D01*
X55621928Y-51043006D01*
X55332733Y-50823167D01*
X55332717Y-50823156D01*
X55021477Y-50635890D01*
X55018499Y-50634311D01*
X55019244Y-50632905D01*
X54971392Y-50591038D01*
X54952029Y-50523905D01*
X54972036Y-50456960D01*
X55025059Y-50411460D01*
X55076028Y-50400500D01*
X136823972Y-50400500D01*
X136891011Y-50420185D01*
G37*
G04 #@! TD.AperFunction*
G04 #@! TA.AperFunction,Conductor*
G36*
X141912771Y-134060447D02*
G01*
X141970794Y-134099372D01*
X141998562Y-134163486D01*
X141999500Y-134178713D01*
X141999500Y-135794586D01*
X141999028Y-135805394D01*
X141985260Y-135962753D01*
X141981507Y-135984038D01*
X141942030Y-136131369D01*
X141934637Y-136151681D01*
X141870177Y-136289915D01*
X141859370Y-136308633D01*
X141771880Y-136433582D01*
X141757986Y-136450140D01*
X141650140Y-136557986D01*
X141633582Y-136571880D01*
X141508633Y-136659370D01*
X141489915Y-136670177D01*
X141351681Y-136734637D01*
X141331369Y-136742030D01*
X141184038Y-136781507D01*
X141162753Y-136785260D01*
X141005395Y-136799028D01*
X140994587Y-136799500D01*
X140076028Y-136799500D01*
X140008989Y-136779815D01*
X139963234Y-136727011D01*
X139953290Y-136657853D01*
X139982315Y-136594297D01*
X140019024Y-136566679D01*
X140018499Y-136565689D01*
X140021477Y-136564109D01*
X140332717Y-136376843D01*
X140332733Y-136376832D01*
X140621929Y-136156992D01*
X140638110Y-136141664D01*
X140638110Y-136141663D01*
X139390698Y-134894251D01*
X139492330Y-134820412D01*
X139670412Y-134642330D01*
X139744251Y-134540698D01*
X140989028Y-135785475D01*
X140989029Y-135785475D01*
X141120827Y-135630311D01*
X141120838Y-135630297D01*
X141324681Y-135329651D01*
X141324683Y-135329647D01*
X141494838Y-135008702D01*
X141494847Y-135008684D01*
X141629302Y-134671227D01*
X141629304Y-134671220D01*
X141726480Y-134321222D01*
X141726482Y-134321214D01*
X141753133Y-134158652D01*
X141783404Y-134095681D01*
X141842915Y-134059071D01*
X141912771Y-134060447D01*
G37*
G04 #@! TD.AperFunction*
G04 #@! TA.AperFunction,Conductor*
G36*
X98750000Y-56646988D02*
G01*
X98692993Y-56614075D01*
X98565826Y-56580000D01*
X98434174Y-56580000D01*
X98307007Y-56614075D01*
X98250000Y-56646988D01*
X98250000Y-54973012D01*
X98307007Y-55005925D01*
X98434174Y-55040000D01*
X98565826Y-55040000D01*
X98692993Y-55005925D01*
X98750000Y-54973012D01*
X98750000Y-56646988D01*
G37*
G04 #@! TD.AperFunction*
G04 #@! TA.AperFunction,Conductor*
G36*
X98750000Y-54106988D02*
G01*
X98692993Y-54074075D01*
X98565826Y-54040000D01*
X98434174Y-54040000D01*
X98307007Y-54074075D01*
X98250000Y-54106988D01*
X98250000Y-52433012D01*
X98307007Y-52465925D01*
X98434174Y-52500000D01*
X98565826Y-52500000D01*
X98692993Y-52465925D01*
X98750000Y-52433012D01*
X98750000Y-54106988D01*
G37*
G04 #@! TD.AperFunction*
G04 #@! TA.AperFunction,Conductor*
G36*
X141005394Y-50400972D02*
G01*
X141035721Y-50403625D01*
X141162755Y-50414739D01*
X141184035Y-50418491D01*
X141301188Y-50449882D01*
X141331369Y-50457969D01*
X141351681Y-50465362D01*
X141489915Y-50529822D01*
X141508633Y-50540629D01*
X141633582Y-50628119D01*
X141650140Y-50642013D01*
X141757986Y-50749859D01*
X141771880Y-50766417D01*
X141859370Y-50891366D01*
X141870177Y-50910084D01*
X141934637Y-51048318D01*
X141942030Y-51068630D01*
X141981507Y-51215961D01*
X141985260Y-51237246D01*
X141999028Y-51394605D01*
X141999500Y-51405413D01*
X141999500Y-53021286D01*
X141979815Y-53088325D01*
X141927011Y-53134080D01*
X141857853Y-53144024D01*
X141794297Y-53114999D01*
X141756523Y-53056221D01*
X141753133Y-53041347D01*
X141726482Y-52878785D01*
X141726480Y-52878777D01*
X141629304Y-52528779D01*
X141629302Y-52528772D01*
X141494847Y-52191315D01*
X141494838Y-52191297D01*
X141324683Y-51870352D01*
X141324681Y-51870348D01*
X141120829Y-51569690D01*
X141120822Y-51569680D01*
X140989029Y-51414523D01*
X140989028Y-51414523D01*
X139744251Y-52659300D01*
X139670412Y-52557670D01*
X139492330Y-52379588D01*
X139390698Y-52305748D01*
X140638110Y-51058336D01*
X140638110Y-51058334D01*
X140621929Y-51043007D01*
X140621928Y-51043006D01*
X140332733Y-50823167D01*
X140332717Y-50823156D01*
X140021477Y-50635890D01*
X140018499Y-50634311D01*
X140019244Y-50632905D01*
X139971392Y-50591038D01*
X139952029Y-50523905D01*
X139972036Y-50456960D01*
X140025059Y-50411460D01*
X140076028Y-50400500D01*
X140934108Y-50400500D01*
X140994587Y-50400500D01*
X141005394Y-50400972D01*
G37*
G04 #@! TD.AperFunction*
G04 #@! TA.AperFunction,Conductor*
G36*
X51891011Y-50420185D02*
G01*
X51936766Y-50472989D01*
X51946710Y-50542147D01*
X51917685Y-50605703D01*
X51880975Y-50633320D01*
X51881501Y-50634311D01*
X51878522Y-50635890D01*
X51567282Y-50823156D01*
X51567266Y-50823167D01*
X51278075Y-51043002D01*
X51261888Y-51058335D01*
X51261887Y-51058335D01*
X52509301Y-52305748D01*
X52407670Y-52379588D01*
X52229588Y-52557670D01*
X52155748Y-52659300D01*
X50910970Y-51414522D01*
X50910969Y-51414523D01*
X50779177Y-51569680D01*
X50779170Y-51569690D01*
X50575318Y-51870348D01*
X50575316Y-51870352D01*
X50405161Y-52191297D01*
X50405152Y-52191315D01*
X50270697Y-52528772D01*
X50270695Y-52528779D01*
X50173519Y-52878777D01*
X50173517Y-52878785D01*
X50146867Y-53041347D01*
X50116596Y-53104319D01*
X50057085Y-53140928D01*
X49987229Y-53139552D01*
X49929206Y-53100627D01*
X49901438Y-53036512D01*
X49900500Y-53021286D01*
X49900500Y-51405413D01*
X49900972Y-51394606D01*
X49906265Y-51334108D01*
X49914739Y-51237242D01*
X49918490Y-51215966D01*
X49957969Y-51068627D01*
X49965362Y-51048318D01*
X49968068Y-51042516D01*
X50029823Y-50910081D01*
X50040629Y-50891366D01*
X50128119Y-50766417D01*
X50142007Y-50749865D01*
X50249865Y-50642007D01*
X50266417Y-50628119D01*
X50391366Y-50540629D01*
X50410081Y-50529823D01*
X50548320Y-50465361D01*
X50568627Y-50457969D01*
X50715966Y-50418490D01*
X50737242Y-50414739D01*
X50869885Y-50403134D01*
X50894606Y-50400972D01*
X50905413Y-50400500D01*
X50965892Y-50400500D01*
X51823972Y-50400500D01*
X51891011Y-50420185D01*
G37*
G04 #@! TD.AperFunction*
M02*
